<?xml version="1.0" standalone="no"?>
<!DOCTYPE svg PUBLIC "-//W3C//DTD SVG 20010904//EN"
 "http://www.w3.org/TR/2001/REC-SVG-20010904/DTD/svg10.dtd">
<svg version="1.0" xmlns="http://www.w3.org/2000/svg"
 width="5000.000000pt" height="5000.000000pt" viewBox="0 0 5000.000000 5000.000000"
 preserveAspectRatio="xMidYMid meet">

<g transform="translate(0.000000,5000.000000) scale(0.100000,-0.100000)"
fill="#000000" stroke="none">
<path d="M0 49708 l0 -293 138 -5 c75 -2 179 -4 230 -4 50 0 184 1 297 1 113
0 248 0 300 0 52 0 185 0 295 0 110 0 244 0 298 0 53 0 189 0 302 0 113 0 243
0 290 0 47 0 177 0 290 0 113 0 249 0 303 0 53 0 187 0 297 0 110 0 243 0 295
0 52 0 187 0 300 0 113 0 248 0 300 0 52 0 185 0 295 0 110 0 244 0 298 0 53
0 189 0 302 0 113 0 243 0 290 0 47 0 177 0 290 0 113 0 249 0 303 0 53 0 187
0 297 0 110 0 244 0 298 0 53 0 189 0 302 0 113 0 247 0 298 0 50 0 182 0 292
0 110 0 243 0 295 0 52 0 185 0 295 0 110 0 242 0 293 0 50 0 184 0 297 0 113
0 249 0 303 0 53 0 187 0 297 0 110 0 244 0 298 0 53 0 189 0 302 0 113 0 247
0 298 0 50 0 182 0 292 0 110 0 243 0 295 0 52 0 185 0 295 0 110 0 242 0 293
0 50 0 184 0 297 0 113 0 249 0 303 0 53 0 187 0 297 0 110 0 244 0 298 0 53
0 189 0 302 0 113 0 243 0 290 0 47 0 177 0 290 0 113 0 249 0 303 0 53 0 187
0 297 0 110 0 243 0 295 0 52 0 187 0 300 0 113 0 248 0 300 0 52 0 185 0 295
0 110 0 244 0 298 0 53 0 189 0 302 0 113 0 243 0 290 0 47 0 177 0 290 0 113
0 249 0 303 0 53 0 187 0 297 0 110 0 243 0 295 0 52 0 187 0 300 0 113 0 248
0 300 0 52 0 185 0 295 0 110 0 244 0 298 0 53 0 189 0 302 0 113 0 243 0 290
0 47 0 177 0 290 0 113 0 249 0 303 0 53 0 187 0 297 0 110 0 243 0 295 0 52
0 187 0 300 0 113 0 248 0 300 0 52 0 185 0 295 0 110 0 244 0 298 0 53 0 189
0 302 0 113 0 243 0 290 0 47 0 177 0 290 0 113 0 249 0 303 0 53 0 187 0 297
0 110 0 243 0 295 0 52 0 187 0 300 0 113 0 248 0 300 0 52 0 185 0 295 0 110
0 244 0 298 0 53 0 189 0 302 0 256 0 324 0 580 0 113 0 249 0 303 0 53 0 187
0 297 0 110 0 244 0 298 0 53 0 189 0 302 0 113 0 247 0 298 0 50 0 182 0 292
0 110 0 243 0 295 0 52 0 185 0 295 0 110 0 242 0 293 0 50 0 184 0 297 0 113
0 249 0 303 0 53 0 187 0 297 0 110 0 244 0 298 0 53 0 189 0 302 0 113 0 243
0 290 0 47 0 177 0 290 0 113 0 249 0 303 0 53 0 187 0 297 0 110 0 243 0 295
0 52 0 187 0 300 0 113 0 248 0 300 0 52 0 185 0 295 0 110 0 244 0 298 0 53
0 189 0 302 0 256 0 324 0 580 0 113 0 249 0 303 0 53 0 187 0 297 0 110 0
243 0 295 0 52 0 187 0 300 0 113 0 248 0 300 0 52 0 185 0 295 0 110 0 244 0
298 0 53 0 189 0 302 0 113 0 243 0 290 0 47 0 177 0 290 0 113 0 249 0 303 0
53 0 187 0 297 0 110 0 243 0 295 0 52 0 187 0 300 0 113 0 248 0 300 0 52 0
185 0 295 0 110 0 244 0 298 0 53 0 189 0 302 0 113 0 243 0 290 0 47 0 177 0
290 0 113 0 249 0 303 0 53 0 187 0 297 0 110 0 243 0 295 0 52 0 187 0 300 0
113 0 248 0 300 0 52 0 185 0 295 0 110 0 244 0 298 0 53 0 189 0 302 0 113 0
243 0 290 0 47 0 177 0 290 0 113 0 249 0 303 0 53 0 187 0 297 0 110 0 244 0
298 0 53 0 189 0 302 0 113 0 247 0 298 0 50 0 182 0 292 0 110 0 243 0 295 0
52 0 185 0 295 0 110 0 242 0 293 0 50 0 184 0 297 0 113 0 249 0 303 0 53 0
187 0 297 0 110 0 244 0 298 0 53 0 189 0 302 0 113 0 243 0 290 0 47 0 177 0
290 0 113 0 249 0 303 0 53 0 187 0 297 0 110 0 243 0 295 0 52 0 187 0 300 0
113 0 248 0 300 0 52 0 185 0 295 0 110 0 244 0 298 0 53 0 189 0 302 0 113 0
243 0 290 0 47 0 180 0 295 -1 336 0 464 2 553 9 l82 7 0 289 0 289 -25000 0
-25000 0 0 -292z"/>
<path d="M24920 44464 c-195 -13 -600 -48 -1210 -105 -330 -31 -770 -83 -1005
-120 -71 -11 -200 -31 -285 -44 -221 -33 -366 -61 -472 -89 -51 -14 -158 -39
-238 -55 -176 -36 -598 -129 -810 -177 -85 -20 -200 -51 -255 -69 -55 -18
-154 -47 -220 -65 -244 -64 -868 -276 -1000 -340 -468 -227 -757 -371 -838
-418 -54 -31 -134 -79 -179 -105 -45 -27 -142 -79 -217 -116 -75 -37 -174 -92
-221 -123 -47 -30 -159 -97 -249 -149 -155 -89 -169 -94 -234 -99 -39 -3 -113
-2 -166 3 -53 5 -181 6 -286 2 -104 -4 -226 -5 -270 -3 -44 1 -150 3 -235 2
-152 0 -250 0 -595 0 -280 0 -431 0 -595 0 -85 0 -203 -1 -262 -3 -117 -4
-109 -6 -361 106 -134 60 -589 234 -662 254 -80 22 -321 82 -440 110 -221 52
-616 112 -920 140 -185 16 -996 23 -1240 10 -208 -11 -538 -42 -667 -61 -36
-5 -119 -17 -185 -25 -128 -17 -274 -41 -478 -81 -389 -76 -815 -227 -1088
-387 l-92 -55 -210 -7 c-115 -4 -244 -5 -285 -3 -41 2 -149 3 -240 2 -91 0
-226 0 -300 0 -74 0 -205 0 -290 0 -85 0 -216 0 -290 0 -74 0 -210 0 -302 0
-93 0 -226 0 -298 0 -71 0 -204 0 -295 0 -91 0 -226 0 -300 0 -74 0 -209 0
-300 0 -91 0 -223 0 -295 0 -71 0 -205 0 -297 0 -93 0 -229 0 -303 0 -74 0
-205 0 -290 0 -85 0 -216 0 -290 0 -74 0 -210 0 -302 0 -93 0 -226 0 -298 0
-71 0 -204 0 -295 0 -181 0 -351 0 -592 0 -338 0 -434 0 -598 0 -93 0 -231 0
-305 0 -74 0 -205 0 -290 0 -85 0 -216 0 -290 0 -74 0 -210 0 -302 0 -93 0
-226 0 -298 0 -71 0 -203 0 -292 0 -90 0 -218 -1 -285 -3 -67 -1 -143 1 -168
4 l-45 7 0 -2969 0 -2969 5835 0 c3209 0 5838 -3 5841 -7 6 -5 -12 -39 -181
-342 -118 -212 -336 -650 -433 -870 -22 -49 -66 -146 -97 -215 -147 -321 -156
-342 -266 -640 -145 -391 -290 -874 -380 -1270 -106 -462 -176 -836 -245
-1300 -19 -135 -39 -253 -42 -262 -6 -15 -15 -12 -77 24 -221 130 -699 374
-858 437 -43 17 -130 58 -195 90 -138 70 -327 157 -432 199 -41 17 -120 51
-175 77 -406 191 -737 306 -1215 425 -529 132 -942 174 -1460 151 -263 -13
-395 -33 -612 -95 -86 -24 -248 -65 -360 -90 -519 -118 -788 -209 -1179 -399
-211 -103 -599 -341 -799 -490 -411 -308 -682 -543 -900 -782 -344 -378 -576
-729 -851 -1285 -148 -299 -259 -583 -302 -766 -98 -424 -157 -724 -186 -944
-54 -419 -54 -421 -48 -653 4 -122 9 -231 12 -243 6 -20 1 -21 -162 -33 -92
-6 -183 -9 -200 -5 l-33 7 0 -2966 0 -2966 373 4 c204 2 507 5 672 8 265 4
644 9 1740 22 309 4 691 10 1225 18 352 5 1294 17 1740 23 448 5 1352 18 1835
27 171 3 351 5 400 4 104 -2 130 -2 645 5 212 3 393 9 402 13 24 9 26 24 -98
-475 -114 -458 -158 -643 -210 -890 -33 -156 -91 -417 -184 -825 -89 -391
-144 -673 -160 -820 -5 -44 -21 -168 -35 -275 -51 -398 -109 -962 -127 -1245
-20 -317 -17 -1309 5 -1630 16 -232 50 -641 62 -735 2 -19 9 -75 15 -125 51
-424 197 -1195 334 -1765 l42 -175 -66 -7 c-36 -4 -140 -7 -232 -6 -93 1 -225
1 -295 1 -71 0 -207 0 -303 0 -455 1 -715 1 -1170 0 -96 0 -233 0 -305 0 -71
0 -209 0 -305 0 -257 0 -389 0 -585 0 -196 0 -328 0 -585 0 -221 0 -389 0
-610 0 -221 0 -359 0 -580 0 -221 0 -389 0 -610 0 -257 0 -389 0 -585 0 -196
0 -328 0 -585 0 -221 0 -389 0 -610 0 -221 0 -359 0 -580 0 -96 0 -231 1 -300
1 -69 0 -180 -2 -247 -4 l-123 -5 0 -2956 0 -2957 133 -6 c72 -3 2643 -5 5712
-5 3069 0 5677 0 5796 0 l215 -1 105 -107 c163 -168 269 -270 334 -320 115
-90 321 -271 415 -367 118 -121 371 -346 449 -400 32 -23 105 -75 161 -116
122 -89 268 -193 365 -258 39 -26 84 -57 100 -69 55 -39 434 -272 477 -294 24
-12 75 -40 113 -64 39 -23 115 -67 170 -97 55 -30 154 -85 220 -122 152 -84
394 -207 471 -239 32 -13 183 -83 334 -154 1010 -479 1429 -643 2305 -900 209
-61 652 -173 765 -193 36 -6 88 -18 115 -25 28 -8 93 -21 145 -30 52 -9 136
-24 185 -35 151 -31 545 -99 760 -130 72 -11 153 -23 180 -29 28 -5 84 -12
125 -16 41 -3 100 -10 130 -16 116 -19 408 -45 800 -71 257 -17 1336 -14 1710
5 439 22 3307 14 4935 -14 777 -14 1044 -9 1565 30 168 13 422 39 490 50 30 6
89 13 130 16 41 4 98 11 125 16 28 6 109 18 180 29 215 31 609 99 760 130 50
11 133 26 185 35 52 9 118 22 145 30 28 7 79 19 115 25 113 20 556 132 765
193 876 257 1295 421 2305 900 151 71 302 141 334 154 77 32 319 155 471 239
66 37 165 92 220 122 55 30 132 74 170 97 39 24 89 52 113 64 43 22 422 255
477 294 16 12 61 43 100 69 97 65 243 169 365 258 56 41 129 93 161 116 78 54
331 279 449 400 94 96 300 277 415 367 65 50 171 152 334 320 l105 107 200 1
c111 0 2714 0 5786 0 3072 0 5636 2 5698 5 l112 6 0 2957 0 2956 -113 5 c-61
3 -165 5 -229 4 -65 0 -197 -1 -293 -1 -196 0 -328 0 -585 0 -96 0 -233 0
-305 0 -71 0 -209 0 -305 0 -96 0 -227 0 -290 0 -63 0 -194 0 -290 0 -96 0
-233 0 -305 0 -71 0 -209 0 -305 0 -455 1 -715 1 -1170 0 -221 0 -389 0 -610
0 -221 0 -359 0 -580 0 -221 0 -389 0 -610 0 -455 1 -715 1 -1170 0 -96 0
-233 0 -305 0 -71 0 -209 0 -305 0 -96 0 -227 0 -290 0 -63 0 -191 0 -285 -1
-93 -1 -193 1 -220 5 l-51 8 42 175 c137 570 283 1341 334 1765 6 50 13 106
15 125 12 94 46 503 62 735 22 321 25 1313 5 1630 -18 283 -76 847 -127 1245
-14 107 -30 231 -35 275 -16 147 -71 429 -160 820 -93 408 -151 669 -184 825
-53 251 -98 441 -196 831 -49 195 -103 416 -120 490 -62 270 -100 442 -100
454 0 9 32 15 108 20 107 6 630 14 817 12 119 -2 128 -2 635 7 217 4 530 9
695 11 503 6 905 12 1230 18 171 3 360 5 420 4 61 -1 130 -1 155 0 234 4 926
15 1165 18 165 2 437 6 605 8 720 11 946 14 1485 21 314 4 710 10 880 12 171
3 403 4 516 3 113 -1 243 2 287 6 l82 7 0 2958 0 2957 -77 7 c-42 3 -118 6
-168 6 -103 0 -105 1 -105 71 0 131 -88 608 -207 1123 -67 288 -287 775 -573
1271 -83 144 -245 380 -352 513 -307 383 -594 650 -1128 1049 -200 149 -588
387 -799 490 -391 190 -660 281 -1179 399 -112 25 -274 66 -360 90 -217 62
-349 82 -612 95 -518 23 -931 -19 -1460 -151 -478 -119 -809 -234 -1215 -425
-55 -26 -134 -60 -175 -77 -105 -42 -294 -129 -432 -199 -65 -32 -152 -73
-195 -90 -159 -63 -637 -307 -858 -437 -62 -36 -71 -39 -77 -24 -3 9 -23 127
-42 262 -69 464 -139 838 -245 1300 -90 396 -235 879 -380 1270 -110 298 -119
319 -266 640 -31 69 -75 166 -97 215 -97 220 -315 658 -433 870 -169 303 -187
337 -181 342 3 4 2613 7 5799 8 3185 1 5798 2 5805 3 9 2 12 601 12 2961 l0
2959 -67 8 c-38 4 -149 3 -248 -1 -99 -4 -214 -6 -255 -4 -41 2 -149 4 -240 3
-91 0 -226 0 -300 0 -74 0 -205 0 -290 0 -85 0 -216 0 -290 0 -74 0 -210 0
-302 0 -93 0 -226 0 -298 0 -71 0 -205 0 -297 0 -93 0 -229 0 -303 0 -74 0
-205 0 -290 0 -85 0 -216 0 -290 0 -74 0 -211 0 -305 0 -93 0 -231 0 -305 0
-74 0 -205 0 -290 0 -85 0 -216 0 -290 0 -74 0 -210 0 -302 0 -93 0 -226 0
-298 0 -71 0 -205 0 -297 0 -93 0 -229 0 -303 0 -74 0 -205 0 -290 0 -85 0
-216 0 -290 0 -74 0 -211 0 -305 0 -164 0 -260 0 -597 0 -87 0 -219 0 -293 0
-74 0 -208 0 -297 1 -90 0 -197 -1 -238 -2 -41 -1 -203 -1 -360 0 l-286 2 -97
58 c-270 161 -698 314 -1092 391 -204 40 -350 64 -478 81 -66 8 -149 20 -185
25 -129 19 -459 50 -667 61 -244 13 -1055 6 -1240 -10 -304 -28 -699 -88 -920
-140 -119 -28 -360 -88 -440 -110 -74 -20 -530 -195 -662 -254 -43 -19 -113
-50 -156 -67 l-79 -33 -256 -3 c-141 -2 -291 -3 -332 -1 -41 1 -148 2 -237 1
-90 0 -221 0 -293 0 -71 0 -205 0 -297 0 -328 0 -440 0 -593 0 -85 1 -191 -1
-235 -3 -44 -2 -159 0 -255 4 l-175 7 -160 90 c-88 50 -198 116 -245 146 -47
31 -146 86 -221 123 -75 37 -172 89 -217 116 -45 26 -125 74 -179 105 -81 47
-370 191 -838 418 -126 61 -754 275 -980 335 -133 35 -444 134 -800 255 -311
106 -448 145 -645 184 -69 14 -197 41 -285 61 -88 20 -191 43 -230 51 -38 8
-95 21 -125 29 -50 12 -125 27 -285 55 -33 6 -112 17 -175 25 -63 8 -182 24
-265 35 -82 11 -256 27 -385 34 -320 18 -1281 18 -1540 0z m840 -512 c74 -6
178 -14 230 -17 216 -14 731 -85 1240 -171 113 -19 273 -46 355 -59 193 -31
331 -60 375 -78 19 -9 139 -41 265 -72 703 -172 968 -240 1038 -266 43 -15
145 -46 226 -69 81 -22 199 -58 262 -79 330 -111 594 -208 674 -246 50 -24
184 -89 298 -144 115 -56 211 -101 215 -101 4 0 39 -21 77 -45 39 -25 81 -48
95 -52 14 -3 63 -28 110 -56 47 -28 121 -72 165 -98 44 -26 136 -75 205 -109
69 -35 150 -79 180 -100 30 -20 152 -92 270 -160 118 -68 262 -153 320 -190
58 -36 146 -91 195 -120 107 -64 312 -200 447 -296 213 -152 288 -207 288
-214 0 -8 -66 -70 -110 -102 -19 -14 -79 -68 -134 -121 l-98 -95 -37 15 c-20
8 -72 32 -116 53 -93 44 -271 102 -400 129 -173 38 -502 58 -670 42 -323 -32
-532 -94 -775 -230 -174 -98 -278 -178 -431 -330 -176 -176 -299 -352 -391
-560 -106 -239 -146 -576 -103 -867 32 -214 70 -310 198 -507 75 -115 96 -139
81 -94 -4 12 -21 76 -38 142 -55 221 -39 425 56 685 30 83 137 294 201 396 61
96 266 322 419 461 138 125 337 243 503 296 259 84 629 86 1082 6 l63 -11 -34
-42 c-57 -71 -255 -406 -300 -508 -13 -29 -44 -96 -68 -148 -25 -52 -47 -102
-50 -110 -3 -8 -13 9 -22 40 -10 30 -34 83 -52 118 -45 84 -227 343 -285 405
-38 43 -49 49 -71 44 -45 -12 -67 -84 -117 -388 -21 -125 -14 -255 18 -367 97
-338 367 -896 713 -1477 67 -111 324 -477 446 -634 226 -292 625 -691 1008
-1008 188 -156 210 -172 514 -391 221 -159 331 -234 725 -494 284 -187 609
-366 796 -438 45 -17 125 -51 178 -75 275 -123 1367 -425 1537 -425 105 0 188
48 236 135 57 105 26 250 -70 322 -49 37 -79 47 -347 111 l-200 48 -3 65 c-10
199 35 599 133 1184 19 116 35 220 35 232 0 42 16 31 75 -49 83 -113 114 -165
219 -382 225 -461 325 -788 349 -1138 8 -131 8 -187 -2 -260 -31 -223 -74
-361 -186 -593 -138 -287 -243 -408 -483 -559 -213 -133 -685 -374 -832 -425
-71 -25 -75 -28 -75 -56 0 -28 4 -31 50 -43 177 -45 483 -3 835 115 462 156
757 483 963 1068 94 266 125 473 113 760 -3 88 -8 171 -11 185 -5 26 100 -185
165 -330 21 -47 61 -137 90 -200 151 -332 183 -408 262 -625 273 -752 462
-1545 603 -2528 14 -98 25 -202 25 -232 0 -111 65 -224 160 -282 77 -46 144
-59 225 -44 166 30 352 99 650 241 22 11 94 42 160 69 201 83 358 153 640 286
238 113 378 176 720 328 150 66 432 176 572 223 401 134 948 251 1283 275 207
15 708 5 805 -16 39 -9 160 -22 270 -30 197 -14 245 -21 435 -64 273 -63 420
-106 650 -191 382 -141 620 -271 1050 -570 119 -82 193 -139 485 -369 88 -69
321 -278 379 -339 132 -139 287 -322 370 -437 87 -121 131 -189 298 -470 70
-117 262 -496 348 -685 68 -152 138 -402 219 -785 38 -183 48 -237 70 -410 6
-44 20 -145 32 -225 33 -222 31 -555 -5 -830 -47 -366 -90 -573 -136 -659 -16
-31 -48 -99 -71 -151 -97 -222 -232 -367 -434 -465 -141 -69 -258 -78 -450
-34 -298 67 -494 175 -629 344 -60 76 -89 146 -112 274 -29 166 -8 310 71 476
42 89 149 255 209 326 80 94 156 202 286 405 50 77 106 245 126 380 25 167 15
313 -31 441 -37 100 -133 292 -164 328 -10 11 -32 41 -49 66 -87 130 -305 307
-507 414 -49 26 -104 56 -121 66 -30 18 -145 62 -294 111 -249 83 -398 87
-605 16 -161 -55 -273 -126 -413 -262 -100 -97 -174 -200 -253 -354 -61 -118
-84 -192 -115 -370 -26 -156 -30 -281 -14 -427 13 -110 63 -357 91 -451 40
-131 128 -390 180 -529 111 -299 131 -354 168 -480 102 -335 122 -588 76 -935
-25 -195 -51 -304 -89 -380 -51 -100 -155 -291 -174 -317 -11 -15 -34 -56 -51
-91 -17 -34 -64 -105 -103 -158 -94 -125 -284 -280 -433 -353 -184 -91 -374
-124 -553 -97 -90 14 -248 63 -319 100 -75 38 -201 196 -224 280 -16 57 -49
317 -49 383 0 120 34 377 66 498 8 32 86 198 174 369 148 289 250 501 372 771
58 129 139 362 208 600 72 249 109 441 130 675 6 63 14 151 19 195 25 233 16
1312 -12 1495 -39 252 -148 440 -399 687 -159 157 -300 248 -518 337 -367 148
-633 200 -840 163 -142 -24 -338 -127 -453 -236 -39 -36 -160 -176 -209 -242
-52 -67 -157 -289 -198 -416 -56 -170 -78 -293 -84 -465 -9 -245 21 -454 117
-803 16 -60 38 -147 48 -192 10 -45 23 -99 28 -121 25 -90 101 -493 117 -610
27 -206 8 -457 -44 -602 -38 -103 -57 -135 -125 -200 -74 -70 -105 -91 -212
-145 -143 -72 -333 -85 -450 -31 -130 59 -256 197 -345 375 -72 144 -98 232
-121 409 -28 213 -21 294 53 632 23 106 100 330 178 520 180 435 220 611 220
964 0 270 -15 363 -79 492 -110 222 -236 332 -493 428 -164 61 -391 82 -608
56 -146 -18 -365 -77 -465 -127 -98 -49 -129 -69 -223 -153 -152 -135 -235
-321 -272 -614 -5 -38 -13 -72 -18 -75 -7 -4 -7 -61 -2 -161 5 -85 12 -279 15
-430 14 -659 36 -1438 45 -1590 5 -91 16 -487 25 -880 8 -393 17 -724 19 -735
3 -11 10 -101 16 -200 6 -99 17 -254 25 -345 8 -91 19 -226 24 -300 40 -510
49 -617 61 -710 6 -41 17 -131 25 -200 9 -68 18 -134 20 -145 3 -11 16 -104
30 -207 24 -177 38 -258 106 -613 15 -82 53 -280 83 -440 138 -731 238 -1181
446 -2020 65 -264 135 -556 155 -650 20 -93 81 -370 136 -615 126 -558 213
-992 229 -1135 6 -60 15 -137 20 -170 39 -257 109 -918 130 -1220 18 -250 24
-1060 11 -1355 -17 -372 -52 -806 -92 -1120 -35 -284 -139 -871 -205 -1165
-13 -60 -38 -171 -54 -245 -122 -564 -302 -1252 -430 -1640 -186 -566 -525
-1434 -601 -1541 -21 -29 -32 -50 -154 -269 -32 -58 -95 -170 -140 -250 -45
-80 -115 -203 -155 -275 -152 -270 -244 -421 -279 -461 -39 -45 -76 -93 -257
-346 -67 -93 -148 -197 -181 -231 -32 -34 -122 -143 -198 -242 -171 -220 -257
-324 -361 -435 -44 -47 -128 -139 -186 -206 -220 -249 -513 -545 -617 -623
-87 -64 -252 -212 -416 -371 -192 -187 -329 -308 -422 -373 -37 -26 -104 -74
-148 -107 -156 -117 -417 -298 -503 -349 -26 -16 -105 -65 -177 -111 -71 -45
-148 -91 -170 -102 -22 -11 -76 -42 -120 -68 -44 -26 -125 -72 -180 -102 -55
-30 -147 -81 -205 -113 -159 -88 -359 -191 -417 -214 -28 -11 -114 -50 -190
-87 -848 -409 -1329 -612 -1873 -789 -360 -117 -453 -145 -815 -243 -363 -99
-725 -176 -1425 -302 -58 -10 -141 -24 -185 -30 -44 -6 -102 -15 -130 -20 -52
-10 -282 -41 -495 -66 -178 -21 -432 -44 -595 -54 -77 -5 -354 -22 -615 -39
-604 -39 -892 -50 -1525 -57 l-510 -6 -385 32 c-434 37 -390 35 -725 27 -137
-3 -380 -9 -540 -12 -159 -3 -405 -15 -545 -27 -230 -18 -304 -20 -765 -14
-634 7 -922 18 -1525 57 -261 17 -538 34 -615 39 -235 15 -661 57 -795 79 -30
5 -82 12 -115 16 -110 12 -681 105 -775 126 -25 6 -92 19 -150 29 -783 140
-1730 408 -2430 690 -313 125 -740 317 -1110 497 -129 63 -268 128 -308 144
-93 37 -199 91 -392 197 -85 47 -200 110 -255 140 -55 30 -131 74 -170 97 -38
24 -92 54 -120 68 -27 14 -97 55 -155 92 -58 37 -125 79 -149 93 -66 41 -295
194 -393 265 -213 151 -245 177 -273 213 -16 22 -54 66 -85 99 -31 33 -94 109
-141 169 -46 61 -131 160 -189 221 -173 184 -249 277 -330 405 -19 30 -53 78
-75 105 -55 68 -188 265 -258 383 -32 53 -84 138 -116 187 -32 50 -77 124
-101 165 -24 41 -72 125 -108 185 -36 61 -89 155 -117 210 -28 55 -69 127 -91
160 -22 33 -56 87 -74 120 -18 33 -50 85 -70 115 -20 30 -88 152 -150 270 -62
118 -139 260 -171 315 -32 56 -70 130 -85 165 -14 36 -40 99 -59 140 -18 41
-68 158 -110 260 -43 102 -91 212 -107 245 -17 32 -54 129 -83 215 -29 85 -71
197 -94 249 -22 51 -52 141 -67 200 -14 58 -41 156 -59 216 -19 61 -54 184
-80 275 -25 91 -59 206 -74 255 -16 50 -41 131 -54 180 -14 50 -45 133 -69
185 -40 85 -58 142 -113 355 -8 33 -33 130 -56 215 -22 85 -50 207 -64 270
-13 63 -28 129 -34 145 -41 111 -139 621 -186 965 -51 373 -49 1196 5 1905 6
72 15 249 20 395 6 146 19 339 30 430 10 91 21 221 25 290 3 69 10 161 15 205
6 44 15 141 20 215 43 581 52 677 70 770 6 30 15 131 20 225 11 197 36 378
116 818 14 75 29 199 34 275 5 75 12 180 16 232 3 52 15 142 26 200 11 63 23
183 28 300 6 141 14 220 29 284 12 49 28 164 36 255 8 91 21 238 29 326 18
193 36 572 37 785 3 533 -3 1382 -11 1595 -5 138 -10 392 -10 565 0 296 -6
463 -30 845 -11 164 -16 216 -50 530 -11 99 -27 243 -35 320 -9 77 -22 199
-30 270 -26 237 -47 487 -61 735 -7 135 -18 308 -24 385 -5 77 -15 223 -20
325 -5 102 -17 268 -26 371 -15 163 -16 216 -6 450 11 235 19 516 38 1409 3
140 9 325 14 410 5 99 5 157 -2 161 -5 3 -13 37 -18 75 -37 293 -120 479 -272
614 -94 84 -125 104 -223 153 -100 50 -319 109 -465 127 -217 26 -444 5 -608
-56 -257 -96 -383 -206 -493 -428 -64 -129 -79 -222 -79 -492 0 -352 40 -529
220 -964 78 -191 155 -415 178 -520 74 -338 81 -419 53 -632 -23 -177 -49
-265 -121 -409 -89 -179 -214 -314 -347 -377 -53 -24 -69 -27 -173 -27 -91 0
-130 5 -185 22 -145 46 -337 190 -389 293 -78 153 -112 411 -86 648 20 193
112 642 190 932 100 374 125 532 124 785 -1 210 -18 316 -84 518 -41 127 -146
349 -198 416 -49 66 -170 206 -209 242 -115 109 -311 212 -453 236 -207 37
-473 -15 -840 -163 -218 -89 -359 -180 -518 -337 -257 -253 -368 -450 -402
-711 -23 -176 -1 -468 55 -726 13 -63 38 -180 55 -260 73 -340 124 -513 288
-975 63 -177 200 -486 372 -840 21 -44 66 -145 100 -225 33 -80 69 -165 80
-190 92 -218 134 -339 175 -500 46 -186 58 -297 52 -497 -6 -230 -41 -397
-119 -583 -61 -145 -233 -367 -314 -405 -61 -29 -216 -46 -306 -34 -151 20
-260 72 -448 213 -268 201 -515 515 -563 716 -9 36 -24 127 -33 203 -17 128
-17 192 -7 835 6 384 9 717 7 742 -10 133 -27 428 -26 445 1 11 10 49 21 83
27 84 78 336 91 447 16 146 12 271 -14 427 -31 178 -54 252 -115 370 -79 154
-153 257 -253 354 -140 136 -252 207 -413 262 -207 71 -356 67 -605 -16 -149
-49 -264 -93 -294 -111 -17 -10 -71 -40 -121 -66 -202 -107 -420 -284 -507
-414 -17 -25 -39 -55 -49 -66 -31 -36 -127 -228 -164 -328 -30 -84 -36 -116
-41 -215 -7 -130 12 -291 45 -391 30 -88 78 -201 94 -219 8 -10 22 -32 31 -50
31 -60 170 -254 252 -351 60 -71 167 -237 209 -326 79 -166 100 -310 71 -476
-23 -128 -52 -198 -112 -274 -135 -169 -331 -277 -629 -344 -192 -44 -309 -35
-450 34 -202 98 -337 243 -434 465 -23 52 -55 120 -71 151 -46 86 -89 293
-136 659 -36 275 -38 608 -5 830 12 80 26 181 32 225 22 173 32 227 70 410 81
383 151 633 219 785 86 189 278 568 348 685 167 281 211 349 298 470 83 115
238 298 370 437 58 61 291 270 379 339 292 230 366 287 485 369 430 299 668
429 1050 570 230 85 377 128 650 191 190 43 238 50 435 64 110 8 232 21 270
30 97 21 598 31 805 16 151 -10 367 -44 620 -96 432 -89 871 -236 1340 -450
52 -24 151 -68 220 -98 69 -31 247 -112 395 -182 298 -140 476 -220 665 -297
69 -28 130 -54 136 -59 6 -5 28 -15 50 -23 21 -7 59 -23 84 -34 25 -12 74 -31
110 -43 36 -12 83 -31 104 -41 22 -11 82 -36 135 -56 92 -34 102 -36 226 -37
123 0 133 2 188 28 72 36 105 87 118 184 5 38 21 156 35 263 84 632 206 1251
357 1805 113 414 287 915 421 1213 215 478 238 527 336 732 51 107 100 204
108 215 13 19 14 18 7 -10 -68 -291 -73 -597 -15 -882 24 -118 116 -383 176
-508 210 -439 471 -686 864 -818 352 -118 658 -160 835 -115 46 12 50 15 50
43 0 28 -4 31 -75 56 -147 51 -619 292 -832 425 -240 151 -345 272 -483 559
-112 232 -155 370 -186 593 -10 73 -10 129 -2 260 24 350 124 677 349 1138
105 217 136 269 219 382 59 80 75 91 75 49 0 -12 16 -116 35 -232 98 -585 143
-985 133 -1184 l-3 -65 -200 -48 c-268 -64 -298 -74 -347 -111 -96 -72 -127
-217 -70 -322 48 -87 131 -135 236 -135 170 0 1262 302 1537 425 53 24 133 58
178 75 187 72 512 251 796 438 394 260 504 335 725 494 304 219 326 235 514
391 383 317 782 716 1008 1008 122 157 379 523 446 634 346 581 616 1139 713
1477 32 112 39 242 18 367 -50 304 -72 376 -117 388 -22 5 -33 -1 -71 -44 -58
-62 -240 -321 -285 -405 -18 -35 -42 -88 -52 -118 -9 -31 -19 -48 -22 -40 -3
8 -25 58 -50 110 -24 52 -55 119 -68 148 -45 102 -243 437 -300 508 l-34 42
63 11 c453 80 823 78 1082 -6 166 -53 365 -171 503 -296 86 -78 270 -270 342
-356 58 -70 92 -125 178 -286 178 -333 227 -617 156 -900 -17 -66 -34 -130
-38 -142 -15 -45 6 -21 81 94 128 197 166 293 198 507 43 291 3 628 -103 867
-92 208 -215 384 -391 560 -153 152 -257 232 -431 330 -243 136 -452 198 -775
230 -168 16 -497 -4 -670 -42 -129 -27 -307 -85 -400 -129 -44 -21 -96 -45
-116 -53 l-37 -15 -98 95 c-55 53 -121 112 -149 133 -27 21 -67 56 -88 78
l-38 39 81 59 c274 198 471 332 625 424 50 29 137 84 195 120 58 37 202 122
320 190 118 68 240 140 270 160 30 21 111 65 180 100 69 34 161 83 205 109 44
26 118 70 165 98 47 28 96 53 110 56 14 4 57 27 95 52 39 24 73 45 77 45 4 0
100 45 215 101 114 55 249 120 298 144 80 38 344 135 674 246 63 21 181 57
262 79 81 23 183 54 226 69 70 26 335 94 1038 266 127 31 246 63 265 72 44 18
182 47 375 78 83 13 242 40 355 59 223 38 597 95 780 120 317 43 410 51 860
76 102 6 196 12 210 13 63 5 959 -12 1080 -21z m-13415 -1431 c514 -25 878
-74 1309 -178 l148 -36 -5 -51 c-28 -270 -82 -493 -157 -652 -37 -77 -73 -121
-144 -179 -31 -25 -56 -50 -56 -56 0 -14 87 -11 158 6 168 40 307 159 460 392
70 107 123 215 153 308 12 39 24 72 25 73 2 4 166 -58 324 -121 47 -19 184
-82 305 -139 121 -57 233 -110 248 -116 22 -10 26 -15 18 -29 -5 -10 -25 -79
-44 -153 -73 -277 -154 -469 -266 -630 -25 -36 -101 -119 -168 -185 -68 -66
-123 -123 -123 -127 0 -9 29 -1 170 44 288 94 457 219 656 488 95 128 117 163
161 257 25 54 47 99 49 101 15 20 484 -332 685 -514 41 -38 128 -116 192 -173
64 -57 117 -107 117 -111 0 -26 -174 -447 -236 -573 -95 -192 -151 -285 -246
-411 -71 -94 -110 -131 -227 -218 -25 -18 -43 -38 -40 -43 7 -16 138 -8 214
13 99 27 205 83 313 164 99 73 296 265 362 351 67 88 187 271 216 330 l27 55
46 -51 c25 -29 159 -164 297 -302 138 -137 331 -332 428 -431 l177 -182 -41
-97 c-118 -276 -421 -847 -564 -1060 -63 -95 -298 -422 -362 -506 -95 -123
-453 -506 -590 -629 -218 -199 -512 -440 -692 -567 -48 -34 -134 -97 -192
-140 -58 -43 -208 -146 -335 -230 -126 -83 -264 -175 -305 -203 -205 -141
-556 -333 -748 -409 -57 -23 -129 -54 -160 -70 -115 -58 -552 -204 -567 -190
-2 3 1 38 7 79 16 119 13 524 -6 678 -9 74 -16 140 -16 147 0 7 33 32 73 56
104 62 316 231 433 345 87 85 107 111 142 184 60 123 85 241 80 363 -3 54 -10
103 -16 109 -8 8 -30 -7 -80 -53 -38 -35 -118 -102 -178 -149 -60 -46 -146
-119 -191 -161 -45 -42 -113 -97 -150 -121 -79 -52 -172 -103 -176 -97 -2 2
-27 144 -56 314 -92 551 -101 599 -126 680 -13 44 -42 139 -64 210 -39 129
-124 359 -140 379 -5 6 -45 92 -90 191 -131 289 -375 728 -532 960 -207 304
-360 490 -656 800 -241 253 -357 363 -568 541 -77 65 -196 168 -265 229 -69
60 -158 137 -199 170 -41 33 -115 93 -165 134 -91 73 -232 178 -349 259 -191
131 -296 206 -292 210 2 2 122 3 268 3 397 -1 605 -28 889 -115 79 -24 186
-56 238 -71 52 -15 169 -50 260 -77 91 -28 208 -63 260 -78 52 -16 194 -60
315 -99 365 -118 451 -138 462 -105 2 6 -22 41 -52 77 -161 189 -557 457 -980
665 -397 195 -795 281 -1309 283 -161 1 -229 4 -206 10 92 23 445 91 613 119
344 55 859 106 1142 113 330 7 503 7 690 -2z m26405 -12 c447 -31 1132 -133
1470 -218 23 -6 -45 -9 -206 -10 -514 -2 -912 -88 -1309 -283 -423 -208 -819
-476 -980 -665 -30 -36 -54 -71 -52 -77 11 -33 97 -13 462 105 121 39 263 83
315 99 52 15 169 50 260 78 91 27 208 62 260 77 52 15 159 47 238 71 286 88
487 114 882 115 149 0 273 -1 275 -3 4 -4 -101 -79 -292 -210 -117 -81 -258
-186 -349 -259 -50 -41 -124 -101 -165 -134 -41 -33 -130 -110 -199 -170 -69
-61 -188 -164 -265 -229 -211 -178 -327 -288 -568 -541 -296 -310 -449 -496
-656 -800 -157 -232 -401 -671 -532 -960 -45 -99 -85 -185 -90 -191 -16 -20
-101 -250 -140 -379 -22 -71 -51 -166 -64 -210 -25 -81 -34 -129 -126 -680
-29 -170 -54 -312 -56 -314 -4 -6 -97 45 -176 97 -37 24 -105 79 -150 121 -45
42 -131 115 -191 161 -60 47 -140 114 -178 149 -50 46 -72 61 -80 53 -6 -6
-13 -55 -16 -109 -5 -122 20 -240 80 -363 35 -73 55 -99 142 -184 117 -114
329 -283 434 -345 39 -24 72 -49 72 -56 0 -7 -7 -73 -16 -147 -19 -154 -22
-559 -6 -678 6 -41 9 -76 7 -79 -15 -14 -452 132 -567 190 -31 16 -103 47
-160 70 -192 76 -543 268 -748 409 -41 28 -178 120 -305 203 -126 84 -277 187
-335 230 -58 43 -144 106 -192 140 -180 127 -474 368 -692 567 -137 123 -495
506 -590 629 -64 84 -299 411 -362 506 -143 213 -446 784 -564 1060 l-41 97
177 182 c97 99 290 294 428 431 138 138 272 273 297 302 l46 51 27 -55 c29
-59 149 -242 216 -330 66 -86 263 -278 362 -351 108 -81 214 -137 313 -164 76
-21 207 -29 214 -13 3 5 -15 25 -40 43 -117 87 -156 124 -227 218 -95 126
-151 219 -246 411 -62 126 -236 547 -236 573 0 4 53 54 117 111 64 57 151 135
192 173 201 182 670 534 685 514 2 -2 24 -47 49 -101 44 -94 66 -129 161 -257
152 -204 289 -326 471 -417 85 -43 355 -130 355 -115 0 4 -55 61 -123 127 -67
66 -143 149 -168 185 -112 161 -193 353 -266 630 -19 74 -39 143 -44 153 -8
14 -4 19 18 29 15 6 127 59 248 116 121 57 258 120 305 139 158 63 322 125
324 121 1 -1 13 -34 25 -73 30 -93 83 -201 153 -308 153 -233 292 -352 460
-392 71 -17 158 -20 158 -6 0 6 -25 31 -56 56 -71 58 -107 102 -144 179 -75
159 -129 382 -157 652 l-5 51 148 36 c414 100 793 153 1269 177 194 10 815 3
1015 -11z m-32036 -12153 c68 -21 193 -102 255 -166 116 -120 214 -302 265
-493 46 -173 59 -287 53 -452 -7 -182 -10 -194 -137 -695 -22 -86 -59 -243
-89 -375 -53 -233 -96 -616 -89 -783 l4 -110 -130 -7 c-72 -5 -268 -9 -436
-10 -168 -1 -319 -5 -336 -9 -38 -10 -41 -5 -136 204 -156 340 -303 780 -383
1145 -10 44 -28 125 -42 180 -72 301 -103 662 -68 801 21 85 50 143 113 227
52 70 184 197 283 272 77 59 238 143 349 183 78 29 282 85 340 95 56 9 139 6
184 -7z m36956 -26 c162 -44 269 -84 386 -145 117 -61 190 -114 311 -227 142
-131 215 -242 248 -372 35 -139 4 -500 -68 -801 -14 -55 -32 -136 -42 -180
-46 -209 -95 -379 -186 -646 l-60 -176 -102 -6 c-56 -4 -176 -4 -267 0 -91 3
-226 1 -300 -5 -77 -6 -219 -7 -330 -4 l-194 7 -27 175 c-15 96 -35 207 -44
245 -46 196 -67 287 -85 355 -127 501 -130 513 -137 695 -6 165 7 279 53 452
50 187 146 368 261 489 56 60 177 141 248 167 69 25 187 17 335 -23z m-34210
-206 c179 -33 274 -83 315 -164 23 -44 67 -202 68 -240 0 -8 -5 -161 -11 -340
-7 -179 -16 -543 -22 -810 -10 -450 -39 -1250 -46 -1259 -2 -2 -161 -4 -355
-5 l-351 -1 6 45 c17 123 18 308 3 400 -9 52 -23 143 -32 203 -8 59 -23 138
-34 175 -11 37 -34 117 -51 177 -27 92 -109 317 -151 415 -80 183 -170 451
-196 580 -13 64 -17 140 -18 305 0 209 1 222 22 255 31 50 86 100 178 162 66
45 100 60 195 85 63 18 129 34 145 36 49 8 255 -4 335 -19z m31617 -15 c98
-27 131 -42 198 -87 92 -62 147 -112 178 -162 21 -33 22 -46 22 -255 -1 -165
-5 -241 -18 -305 -26 -129 -116 -397 -196 -580 -42 -98 -124 -323 -151 -415
-17 -60 -40 -140 -51 -176 -10 -37 -28 -131 -39 -210 -12 -79 -23 -153 -26
-164 -5 -19 -14 -20 -162 -21 -86 -1 -246 -2 -354 -4 -109 -2 -200 -1 -203 1
-4 5 -12 276 -36 1274 -5 248 -13 511 -17 585 -7 125 -5 142 18 235 46 177 84
220 235 268 205 64 406 70 602 16z m-37530 -994 c105 -25 176 -70 293 -185
187 -185 252 -331 280 -619 8 -89 1 -228 -16 -316 -15 -78 -87 -379 -109 -455
-33 -119 -93 -282 -109 -299 -11 -10 -89 -14 -382 -17 -203 -3 -394 -6 -424
-7 -30 -1 -114 -1 -187 1 l-132 2 -32 47 c-18 25 -40 54 -50 64 -9 9 -33 41
-53 71 -46 67 -104 146 -148 201 -51 63 -120 167 -141 212 -44 94 -78 222 -83
305 -4 69 -1 103 19 183 40 154 98 250 248 406 174 181 475 338 794 414 44 10
173 6 232 -8z m43320 -24 c120 -34 339 -133 438 -197 142 -92 216 -158 331
-291 109 -126 180 -327 170 -483 -4 -82 -53 -261 -77 -285 -11 -11 -467 -19
-844 -15 -115 1 -266 -3 -335 -8 -69 -5 -222 -7 -340 -3 l-215 6 -22 99 c-32
145 -44 284 -33 397 27 287 94 434 280 619 159 158 259 202 440 196 69 -2 125
-12 207 -35z"/>
<path d="M24776 43275 c-32 -13 -68 -33 -80 -44 -11 -11 -55 -33 -96 -48 -48
-19 -111 -56 -175 -103 -110 -82 -325 -291 -351 -342 -9 -18 -19 -62 -22 -99
-6 -82 12 -125 98 -238 108 -142 179 -198 400 -313 249 -131 281 -142 387
-135 105 8 169 35 227 97 25 27 60 79 77 117 18 37 49 104 70 148 38 80 58
159 100 392 19 108 21 131 10 194 -6 39 -20 87 -30 107 -24 47 -122 140 -186
177 -27 16 -64 40 -82 53 -84 62 -244 80 -347 37z"/>
<path d="M22785 42729 c-111 -16 -184 -51 -377 -180 -65 -44 -121 -79 -124
-79 -14 0 -623 -305 -709 -355 -49 -29 -121 -70 -160 -93 -124 -71 -212 -180
-261 -322 -29 -86 -25 -250 10 -355 84 -257 373 -589 731 -842 158 -111 385
-254 450 -283 272 -124 641 -15 1018 300 102 86 496 488 673 688 183 206 223
283 232 436 15 287 -146 484 -628 761 -167 96 -563 290 -633 309 -72 20 -152
25 -222 15z"/>
<path d="M25025 41778 c-147 -16 -292 -67 -380 -134 -29 -21 -130 -146 -240
-293 -11 -15 -54 -69 -95 -121 -90 -112 -129 -169 -160 -230 -12 -25 -48 -79
-80 -121 -118 -158 -118 -338 1 -474 76 -86 211 -139 444 -174 44 -7 116 -19
160 -26 44 -8 105 -17 135 -21 30 -3 117 -19 192 -35 163 -34 200 -35 296 -9
226 63 350 217 440 546 53 196 82 484 60 604 -10 57 -69 183 -118 254 -74 108
-233 208 -360 226 -104 14 -209 17 -295 8z"/>
<path d="M24915 38245 c-307 -49 -589 -188 -840 -415 -851 -772 -1141 -2340
-668 -3615 101 -272 289 -603 459 -805 786 -938 1958 -844 2661 215 342 515
523 1168 523 1885 0 382 -43 703 -140 1040 -299 1040 -1013 1717 -1805 1709
-60 -1 -146 -7 -190 -14z m408 -271 c251 -45 481 -171 696 -379 413 -399 670
-987 752 -1720 17 -143 16 -589 0 -730 -51 -446 -147 -783 -321 -1125 -321
-630 -805 -990 -1333 -990 -460 0 -885 270 -1210 770 -263 406 -415 913 -458
1525 -34 495 72 1103 271 1546 356 797 970 1219 1603 1103z"/>
<path d="M24920 37509 c-92 -14 -230 -63 -334 -117 l-89 -47 64 -8 c99 -12
187 -37 258 -73 l65 -33 69 15 c485 102 996 -343 1202 -1044 76 -262 105 -470
105 -762 0 -364 -62 -699 -181 -976 -17 -41 -17 -42 7 -90 98 -198 11 -440
-194 -537 -63 -30 -74 -32 -178 -32 -111 0 -112 -1 -166 -37 -434 -288 -932
-142 -1275 372 -149 223 -259 510 -318 825 -47 256 -47 676 1 955 9 54 60 258
83 329 l20 63 -35 48 c-44 61 -83 150 -98 223 l-12 59 -32 -69 c-97 -211 -167
-469 -209 -768 -23 -168 -22 -564 1 -734 46 -335 122 -592 253 -856 215 -432
531 -720 903 -823 85 -24 113 -26 260 -26 147 0 175 2 260 26 246 68 488 231
661 446 222 274 385 636 459 1015 43 222 53 334 53 587 0 253 -10 365 -53 587
-74 379 -237 741 -459 1015 -172 214 -429 386 -667 449 -93 24 -321 34 -424
18z"/>
<path d="M25107 36482 c-60 -166 -233 -319 -417 -368 -66 -17 -223 -24 -271
-11 -25 6 -28 2 -71 -91 -82 -175 -116 -324 -125 -537 -7 -163 6 -300 41 -437
92 -364 315 -641 586 -730 89 -29 262 -36 347 -14 111 29 150 51 173 96 42 82
135 162 221 189 41 13 81 67 144 190 95 190 139 389 140 636 0 171 -7 229 -47
389 -87 352 -327 637 -607 720 -86 25 -95 23 -114 -32z"/>
<path d="M19390 36344 c-429 -36 -751 -111 -1099 -254 -991 -407 -1851 -1262
-2461 -2444 -285 -552 -499 -1138 -659 -1806 -40 -167 -111 -526 -111 -561 0
-34 -14 -19 -49 51 -18 38 -65 108 -105 155 -68 83 -75 88 -184 141 -98 48
-121 55 -176 56 -51 1 -73 -4 -112 -26 -60 -32 -91 -70 -139 -167 -20 -41 -46
-92 -58 -114 -37 -71 -46 -89 -82 -171 -46 -106 -46 -149 -1 -238 42 -83 69
-113 123 -138 70 -31 276 -24 339 12 29 16 86 32 168 45 60 10 148 58 189 104
20 23 37 46 37 53 0 6 2 9 5 6 3 -3 -4 -79 -14 -169 -160 -1308 -45 -2640 329
-3839 593 -1899 1785 -3298 3203 -3759 223 -72 462 -124 702 -152 142 -17 568
-17 710 0 662 77 1258 322 1830 749 615 460 1158 1127 1575 1936 850 1646
1115 3760 721 5741 -342 1718 -1184 3195 -2296 4027 -562 420 -1150 665 -1790
744 -116 14 -503 26 -595 18z m415 -624 c716 -61 1368 -377 1978 -960 605
-578 1110 -1423 1434 -2398 591 -1781 544 -3892 -125 -5612 -600 -1546 -1648
-2636 -2814 -2931 -930 -234 -1863 8 -2678 697 -897 757 -1574 2013 -1875
3474 -324 1576 -192 3293 363 4720 604 1555 1656 2645 2833 2935 302 74 595
99 884 75z"/>
<path d="M19300 34568 c-219 -20 -479 -82 -686 -163 -308 -122 -648 -333 -903
-561 l-43 -39 163 -1 c115 0 191 -5 254 -18 113 -22 263 -70 338 -107 l57 -30
108 60 c206 114 412 186 647 227 72 13 153 18 290 18 197 0 306 -13 465 -55
437 -116 854 -390 1204 -788 680 -775 1090 -1899 1166 -3196 54 -927 -114
-1955 -447 -2732 l-35 -83 52 -56 c155 -170 237 -366 249 -594 l6 -115 28 48
c49 82 193 376 247 502 275 640 438 1313 507 2090 24 280 24 890 0 1170 -80
904 -288 1673 -646 2385 -412 820 -988 1437 -1651 1769 -444 222 -906 313
-1370 269z"/>
<path d="M19280 32191 l-64 -6 -27 -105 c-129 -507 -518 -893 -1022 -1015 -99
-24 -333 -51 -367 -42 -20 5 -37 -26 -108 -193 -117 -277 -196 -587 -239 -935
-23 -194 -23 -636 0 -830 75 -609 276 -1141 586 -1545 300 -391 660 -633 1081
-727 101 -23 138 -26 305 -26 167 0 204 3 305 26 421 94 781 336 1081 727 217
284 398 667 494 1050 82 327 108 542 109 900 0 280 -9 401 -50 638 -205 1202
-975 2056 -1879 2085 -77 3 -169 2 -205 -2z"/>
<path d="M16480 31965 c-159 -419 -287 -940 -354 -1438 -48 -351 -60 -553 -60
-967 0 -413 12 -616 59 -966 235 -1744 1084 -3175 2231 -3761 762 -389 1576
-389 2338 0 160 82 358 209 501 324 118 93 341 298 355 324 10 17 8 17 -30 4
-126 -45 -316 -57 -460 -29 -96 18 -223 62 -286 99 l-43 26 -88 -60 c-259
-175 -529 -285 -828 -337 -139 -25 -442 -25 -580 0 -585 103 -1110 454 -1551
1036 -933 1232 -1253 3219 -799 4966 l44 171 -82 85 c-143 146 -261 335 -320
513 l-24 70 -23 -60z"/>
<path d="M30510 36344 c-429 -36 -751 -111 -1099 -254 -887 -365 -1667 -1084
-2265 -2089 -1146 -1925 -1418 -4647 -696 -6961 593 -1899 1785 -3298 3203
-3759 223 -72 462 -124 702 -152 142 -17 568 -17 710 0 662 77 1258 322 1830
749 615 460 1158 1127 1575 1936 472 914 768 1978 864 3106 22 252 36 541 37
747 0 171 1 177 17 153 9 -14 42 -54 72 -90 31 -36 84 -101 117 -145 75 -98
334 -374 423 -451 98 -84 272 -212 390 -286 207 -129 261 -148 430 -155 144
-6 210 6 328 62 178 84 296 195 557 525 302 382 377 481 597 796 88 127 162
270 187 369 28 107 29 297 1 410 -29 119 -90 294 -153 435 -57 130 -294 595
-339 665 -13 22 -58 103 -98 180 -87 167 -136 238 -221 323 -161 161 -450 298
-649 309 -220 13 -428 -70 -625 -249 -38 -35 -104 -88 -145 -117 -165 -119
-346 -276 -564 -491 -212 -209 -291 -294 -422 -456 l-52 -64 -22 118 c-162
868 -500 1779 -926 2493 -803 1350 -1922 2170 -3169 2325 -116 14 -503 26
-595 18z m415 -624 c716 -61 1368 -377 1978 -960 605 -578 1110 -1423 1434
-2398 591 -1781 544 -3892 -125 -5612 -600 -1546 -1648 -2636 -2814 -2931
-930 -234 -1863 8 -2678 697 -897 757 -1574 2013 -1875 3474 -324 1576 -192
3293 363 4720 604 1555 1656 2645 2833 2935 302 74 595 99 884 75z"/>
<path d="M30420 34568 c-1030 -95 -1974 -845 -2575 -2046 -354 -707 -562
-1478 -642 -2377 -24 -280 -24 -890 0 -1170 75 -845 259 -1561 578 -2246 57
-123 183 -367 197 -381 4 -4 6 43 3 104 -7 215 45 400 162 573 23 33 58 79 80
102 l38 42 -54 138 c-340 863 -474 1917 -372 2928 180 1773 1052 3213 2189
3615 220 78 375 104 621 104 302 0 548 -56 824 -186 l83 -40 68 46 c155 103
350 180 539 214 l104 18 -49 36 c-200 146 -483 299 -705 381 -348 128 -730
179 -1089 145z"/>
<path d="M30385 32190 c-587 -60 -1144 -494 -1473 -1146 -182 -362 -285 -711
-339 -1149 -23 -194 -23 -636 0 -830 76 -622 281 -1153 605 -1571 72 -92 83
-102 164 -144 169 -88 285 -186 373 -314 35 -51 51 -64 130 -103 121 -61 256
-109 395 -140 101 -23 138 -26 305 -26 167 0 204 3 305 26 215 48 415 134 590
255 582 400 971 1128 1076 2017 21 174 24 618 6 785 -40 355 -125 699 -242
975 -52 124 -150 319 -194 388 -32 50 -37 53 -122 81 -199 64 -380 173 -531
319 -121 117 -208 233 -275 366 -29 58 -57 109 -63 113 -19 15 -161 57 -255
77 -109 23 -335 34 -455 21z"/>
<path d="M33631 31983 c-81 -167 -262 -382 -408 -484 l-22 -15 20 -65 c169
-550 269 -1237 269 -1859 0 -1628 -598 -3141 -1540 -3901 -320 -258 -646 -410
-1015 -475 -139 -25 -442 -25 -580 0 -278 49 -545 154 -792 312 l-52 33 -73
-45 c-87 -53 -194 -95 -303 -120 -84 -18 -252 -24 -340 -11 l-50 7 70 -66
c306 -291 763 -550 1161 -659 376 -103 729 -121 1101 -54 786 140 1510 661
2060 1485 1036 1550 1269 3910 576 5835 -26 71 -49 129 -53 129 -3 0 -16 -21
-29 -47z"/>
<path d="M14540 32876 c-19 -8 -50 -15 -69 -15 -49 -1 -111 -41 -151 -98 -19
-26 -42 -54 -51 -61 -37 -26 -133 -260 -145 -352 -8 -62 18 -185 57 -267 17
-36 62 -101 100 -144 58 -66 83 -85 153 -120 72 -35 95 -42 168 -46 76 -5 88
-3 135 20 111 57 203 214 223 382 6 50 4 96 -6 160 -37 235 -59 329 -87 375
-34 55 -108 130 -151 152 -50 25 -131 32 -176 14z"/>
<path d="M13079 32465 c-19 -7 -75 -32 -123 -55 -83 -39 -100 -53 -266 -218
-256 -256 -446 -481 -482 -572 -52 -134 -15 -276 104 -393 51 -50 280 -207
302 -207 3 0 59 -25 123 -56 244 -116 585 -223 717 -224 128 -1 254 58 378
178 98 95 141 168 191 327 58 182 81 311 81 460 1 135 0 143 -32 221 -85 213
-273 402 -427 429 -22 4 -86 25 -141 46 -109 41 -280 79 -348 78 -22 0 -57 -6
-77 -14z"/>
<path d="M38225 29275 c-126 -27 -189 -61 -332 -177 -78 -63 -199 -195 -253
-274 -18 -27 -46 -63 -61 -81 -62 -72 -275 -404 -311 -485 -118 -265 -46 -483
207 -628 64 -37 243 -84 378 -100 89 -10 351 -17 547 -13 52 0 140 0 196 0
100 -2 101 -2 190 42 145 72 219 163 261 321 22 87 23 271 1 365 -24 99 -104
330 -138 395 -33 65 -125 274 -135 310 -17 57 -80 163 -126 209 -59 60 -152
107 -239 121 -81 12 -110 12 -185 -5z"/>
<path d="M36283 28450 c-177 -62 -267 -134 -406 -330 -88 -123 -111 -184 -112
-295 0 -84 3 -96 37 -168 41 -85 118 -174 183 -212 53 -31 187 -80 305 -111
164 -42 372 -49 485 -16 99 30 199 113 242 201 26 52 28 64 27 181 -1 130 -6
155 -72 328 -51 132 -174 315 -249 371 -68 51 -128 68 -258 75 -92 5 -107 3
-182 -24z"/>
<path d="M13145 25115 c-91 -17 -139 -35 -250 -94 -139 -73 -201 -117 -306
-218 -99 -96 -180 -200 -244 -313 -67 -118 -107 -220 -285 -720 -53 -149 -103
-330 -150 -545 -17 -77 -44 -187 -60 -245 -86 -309 -81 -510 15 -706 48 -98
172 -271 264 -367 76 -80 344 -301 496 -409 440 -315 757 -481 1200 -631 140
-47 157 -50 250 -50 243 -1 440 112 691 394 172 193 258 313 424 589 128 213
282 545 360 780 69 205 171 546 181 607 33 187 -48 430 -208 625 -143 175
-513 483 -863 719 -468 314 -717 453 -945 528 -209 68 -404 87 -570 56z"/>
<path d="M16655 23786 c-69 -17 -131 -50 -195 -105 -30 -26 -71 -57 -90 -68
-115 -70 -177 -212 -229 -523 -12 -69 -30 -163 -41 -210 -42 -187 -73 -492
-68 -652 7 -175 48 -285 152 -410 20 -24 59 -72 87 -106 54 -67 265 -232 369
-289 30 -16 104 -57 164 -91 60 -34 144 -75 186 -92 43 -16 109 -46 147 -65
93 -49 170 -62 279 -47 170 23 314 129 389 287 76 160 105 277 166 655 28 177
22 319 -21 454 -15 50 -31 107 -35 126 -30 162 -156 510 -215 595 -33 47 -226
245 -240 245 -5 0 -30 19 -57 42 -117 101 -326 215 -458 248 -91 22 -213 25
-290 6z"/>
<path d="M15798 21430 c-26 -5 -69 -19 -95 -31 -104 -50 -558 -547 -653 -715
-81 -144 -170 -334 -187 -399 -40 -157 22 -333 155 -440 72 -57 237 -140 322
-160 89 -22 478 -32 609 -16 53 6 170 21 261 31 186 23 263 44 347 99 167 109
256 283 238 466 -16 167 -53 286 -133 430 -83 150 -133 241 -199 364 -123 228
-215 308 -379 332 -38 6 -91 17 -119 24 -75 20 -115 23 -167 15z"/>
<path d="M24750 20933 c-589 -33 -917 -57 -1215 -88 -1034 -107 -2655 -413
-3502 -661 -87 -25 -174 -50 -193 -56 -162 -44 -562 -186 -856 -304 -116 -46
-216 -84 -222 -84 -21 0 -258 -98 -477 -197 -106 -48 -320 -162 -420 -223 -33
-20 -98 -58 -145 -85 -203 -114 -450 -309 -543 -427 -22 -29 -68 -82 -102
-118 -87 -94 -269 -325 -349 -443 -173 -258 -292 -579 -327 -887 -28 -243 18
-611 106 -855 112 -309 241 -552 414 -780 69 -92 220 -262 264 -299 l39 -32
-89 -74 c-201 -168 -451 -428 -644 -670 -159 -199 -364 -528 -458 -735 -65
-142 -116 -258 -131 -300 -10 -27 -39 -104 -65 -170 -52 -135 -153 -448 -184
-570 -162 -642 -203 -1431 -111 -2115 27 -192 81 -454 120 -576 117 -367 185
-537 312 -784 107 -209 286 -529 317 -570 16 -19 69 -89 119 -155 51 -66 122
-155 160 -198 69 -80 342 -342 422 -405 25 -20 70 -59 100 -87 85 -80 214
-175 335 -247 153 -92 379 -215 445 -242 30 -13 123 -51 205 -86 301 -127 470
-160 813 -163 377 -2 538 30 866 175 180 79 367 200 601 390 126 101 512 486
627 623 72 86 208 265 353 464 50 68 115 155 146 195 69 88 186 256 304 437
50 75 129 195 176 266 88 132 220 349 349 578 41 72 88 150 106 175 17 25 67
104 110 175 43 72 104 164 136 205 201 263 398 507 465 576 21 22 86 94 143
160 267 306 647 699 1017 1049 l182 172 248 9 c558 20 1331 1 1833 -46 385
-36 1248 -55 1865 -41 446 10 592 21 865 61 158 23 406 56 575 75 250 29 353
50 635 129 455 127 533 159 789 317 57 35 129 87 160 115 31 28 90 73 131 100
124 82 181 124 260 189 41 34 101 81 133 103 142 99 613 561 724 710 193 258
259 360 417 647 95 172 178 393 212 565 26 137 59 434 58 526 -4 233 -94 666
-191 917 -50 131 -153 343 -230 477 -214 368 -639 815 -1341 1413 -351 300
-882 654 -1252 836 -222 110 -291 138 -525 215 -104 35 -220 75 -258 89 -107
42 -1004 261 -1360 333 -208 42 -808 146 -1002 173 -625 90 -1382 142 -2015
139 -217 -1 -420 -3 -450 -5z m-811 -1358 c13 -530 6 -765 -29 -1004 -67 -456
-202 -720 -422 -825 -175 -83 -450 -146 -635 -146 -162 0 -415 80 -638 203
-137 75 -272 189 -327 278 -26 42 -66 185 -88 314 -79 480 -197 1266 -221
1470 -5 44 -11 89 -14 100 -5 23 6 25 445 101 363 63 1116 174 1183 174 16 0
17 -30 17 -494 0 -271 5 -553 10 -627 28 -370 42 -531 50 -604 26 -232 33
-292 39 -308 14 -39 104 405 135 668 14 123 22 199 45 460 6 61 13 297 17 526
l7 417 126 12 c69 7 160 15 201 19 l75 6 7 -130 c3 -71 11 -346 17 -610z
m4396 451 l50 -11 6 -320 c6 -317 8 -335 55 -625 15 -89 62 -307 82 -375 20
-69 35 -28 76 213 32 189 54 461 62 782 4 140 7 255 8 256 0 1 156 -38 346
-86 335 -85 646 -183 865 -272 109 -44 355 -165 422 -206 40 -25 42 -29 48
-87 3 -33 8 -296 9 -585 2 -295 9 -562 15 -610 6 -47 17 -152 26 -235 19 -190
25 -222 36 -203 21 39 91 250 122 374 74 289 97 473 105 831 l7 283 72 -48 72
-47 23 -80 c21 -74 23 -98 22 -330 -1 -316 -40 -787 -90 -1085 -34 -204 -106
-451 -176 -605 -91 -199 -165 -269 -348 -326 -69 -22 -92 -24 -280 -23 -312 1
-697 51 -904 119 -240 78 -389 186 -571 412 -158 196 -250 483 -286 884 -13
147 -7 666 10 849 18 193 31 542 31 858 0 352 -9 320 85 298z m-8018 -726 c24
-259 24 -712 -1 -880 -33 -229 -86 -384 -177 -520 -151 -225 -343 -343 -642
-396 -138 -24 -247 -15 -414 35 -172 51 -365 231 -488 456 -22 39 -55 97 -75
130 -20 33 -51 96 -68 140 -17 44 -52 130 -77 190 -47 113 -77 220 -99 358
l-13 77 121 64 c240 127 476 237 721 336 191 77 488 190 501 190 0 0 4 -125 7
-277 10 -425 57 -804 145 -1163 22 -87 21 -89 51 110 27 177 57 416 76 615 16
168 30 304 45 445 5 47 14 143 20 213 5 71 13 139 16 152 6 26 18 30 214 84
l95 27 12 -96 c6 -52 20 -183 30 -290z m3213 -3010 c190 -10 541 -37 546 -43
2 -2 -94 -11 -213 -20 -612 -50 -1337 -172 -1858 -314 -273 -74 -824 -262
-982 -334 -93 -44 -205 -108 -237 -138 -40 -37 -76 -117 -76 -171 1 -119 110
-220 238 -220 36 0 209 48 377 105 699 236 969 305 1590 404 602 96 1128 149
1705 171 369 14 834 -3 1225 -46 202 -21 561 -73 592 -85 15 -5 99 -25 187
-44 469 -100 1203 -274 1349 -320 706 -223 1109 -415 1715 -817 316 -210 500
-349 752 -567 48 -42 112 -86 148 -103 34 -15 62 -30 62 -32 0 -2 -50 -25
-112 -51 -163 -68 -419 -124 -828 -179 -102 -14 -300 -41 -440 -60 -140 -19
-306 -40 -367 -46 -398 -38 -1748 -30 -2428 15 -454 30 -994 55 -1095 50
l-105 -4 50 27 c112 61 255 126 438 198 76 30 140 54 143 54 7 0 127 52 210
90 33 16 105 45 159 65 55 21 133 53 175 72 41 19 149 64 240 99 91 36 215 89
275 118 61 29 136 62 169 72 32 11 58 24 58 29 0 14 -62 34 -141 45 -137 20
-637 6 -886 -25 -354 -44 -358 -45 -560 -117 -181 -65 -356 -139 -580 -247
-228 -110 -388 -207 -515 -310 -25 -20 -61 -48 -80 -61 -79 -54 -251 -192
-377 -304 -344 -303 -921 -882 -1177 -1179 -43 -51 -113 -128 -155 -172 -42
-44 -101 -111 -132 -150 -31 -38 -64 -76 -73 -84 -10 -8 -68 -79 -129 -158
-164 -211 -175 -225 -206 -263 -15 -19 -68 -100 -117 -180 -48 -80 -102 -163
-119 -186 -17 -23 -85 -135 -150 -250 -134 -236 -296 -499 -362 -589 -24 -33
-102 -148 -172 -255 -166 -251 -551 -772 -716 -967 -115 -137 -458 -478 -572
-570 -436 -350 -771 -460 -1255 -413 -162 16 -273 48 -503 147 -221 95 -545
276 -652 365 -333 277 -590 524 -687 662 -16 22 -53 70 -81 106 -29 36 -91
135 -138 222 -47 86 -97 174 -110 195 -13 21 -52 95 -86 163 -226 457 -355
926 -391 1429 -15 202 -12 689 5 891 40 479 123 832 312 1325 171 448 350 764
631 1114 74 92 300 326 407 421 99 87 306 246 382 292 15 10 51 32 78 50 91
57 268 149 530 273 101 48 257 110 355 141 47 14 146 46 220 70 74 24 167 53
205 64 39 12 108 35 155 52 47 16 169 51 272 78 103 27 192 51 197 54 15 10
793 163 991 195 390 64 472 75 810 106 318 28 517 43 745 55 197 10 881 4
1165 -10z"/>
<path d="M38888 18296 c-87 -31 -320 -197 -479 -340 -64 -58 -171 -187 -242
-291 -26 -38 -68 -98 -92 -133 -119 -168 -96 -367 59 -509 122 -111 412 -236
624 -268 53 -8 120 -19 147 -25 28 -6 68 -8 90 -5 22 4 81 10 132 15 276 24
414 209 518 697 9 39 28 98 43 130 24 51 27 70 27 158 0 87 -3 107 -26 155
-50 105 -176 216 -374 328 -138 79 -210 102 -308 102 -45 -1 -99 -7 -119 -14z"/>
<path d="M39284 16621 c-40 -11 -94 -31 -122 -45 -28 -14 -80 -37 -116 -50
-76 -29 -233 -108 -293 -148 -23 -15 -46 -28 -51 -28 -21 0 -112 -93 -133
-137 -32 -66 -32 -170 0 -236 59 -122 339 -362 543 -464 63 -32 82 -37 143
-37 81 0 122 17 198 84 59 52 84 89 179 260 147 264 182 375 159 510 -6 39
-21 92 -33 118 -29 62 -100 129 -167 160 -75 35 -207 40 -307 13z"/>
<path d="M11660 12985 c-157 -44 -246 -142 -371 -402 -169 -355 -239 -576
-239 -758 0 -127 19 -190 82 -274 118 -156 360 -369 518 -454 104 -56 303
-122 414 -138 146 -20 279 19 355 106 40 46 55 77 74 150 40 154 51 215 77
435 18 158 40 258 67 311 25 47 28 64 28 144 0 82 -3 96 -34 155 -72 139 -192
271 -364 397 -40 30 -119 102 -177 162 -85 87 -118 114 -173 140 -83 40 -175
49 -257 26z"/>
<path d="M12977 11433 c-44 -8 -96 -22 -116 -33 -71 -36 -172 -179 -297 -418
-33 -65 -73 -139 -90 -167 -59 -101 -28 -246 72 -334 52 -45 150 -81 277 -102
91 -14 305 -6 407 16 36 7 85 16 110 20 127 16 230 135 230 264 0 65 -53 221
-105 311 -24 41 -50 95 -98 200 -18 41 -59 105 -90 142 -88 103 -156 126 -300
101z"/>
<path d="M11821 10869 c-127 -25 -312 -212 -463 -469 -75 -128 -93 -165 -113
-234 -28 -95 -7 -184 61 -266 62 -74 401 -265 522 -294 31 -8 111 -29 177 -47
158 -42 277 -46 345 -10 76 40 127 88 155 146 24 49 27 66 27 162 1 83 -4 122
-20 168 -11 33 -28 94 -37 135 -10 41 -31 113 -47 160 -16 47 -40 121 -54 165
-35 114 -76 197 -124 249 -86 93 -299 160 -429 135z"/>
<path d="M23165 8479 c-138 -18 -317 -76 -475 -154 -120 -59 -577 -312 -680
-377 -168 -104 -546 -394 -691 -530 -97 -90 -263 -291 -383 -463 -41 -61 -97
-137 -122 -170 -55 -71 -107 -179 -136 -284 -17 -64 -20 -95 -16 -206 4 -112
9 -143 36 -222 65 -191 154 -326 337 -508 134 -135 308 -272 596 -470 81 -55
205 -145 276 -200 233 -181 423 -318 818 -587 262 -180 602 -358 730 -384 89
-17 223 -13 330 11 164 37 368 159 524 313 99 99 290 338 464 582 53 74 125
176 161 225 81 112 156 237 283 475 55 102 148 271 206 376 143 256 151 277
151 434 0 158 -25 247 -123 442 -316 625 -906 1166 -1696 1555 -188 92 -282
126 -399 142 -86 12 -92 12 -191 0z"/>
<path d="M26631 6944 c-87 -23 -207 -91 -270 -153 -71 -71 -118 -148 -166
-271 -20 -52 -59 -143 -86 -202 -27 -59 -63 -144 -80 -190 -32 -86 -117 -322
-186 -513 -22 -60 -70 -183 -106 -272 -73 -181 -146 -446 -154 -563 -14 -188
97 -369 280 -457 155 -76 302 -101 592 -102 94 -1 234 -6 311 -12 101 -7 158
-7 200 0 32 6 78 11 103 11 48 0 194 24 246 40 16 5 57 14 90 20 160 30 266
89 386 217 77 82 110 144 140 263 18 72 21 102 16 195 -4 61 -13 133 -21 160
-8 28 -22 91 -31 140 -15 83 -39 173 -115 425 -16 52 -41 136 -55 185 -177
618 -329 863 -622 1002 -173 82 -347 111 -472 77z"/>
</g>
</svg>
