<?xml version="1.0" standalone="no"?>
<!DOCTYPE svg PUBLIC "-//W3C//DTD SVG 20010904//EN"
 "http://www.w3.org/TR/2001/REC-SVG-20010904/DTD/svg10.dtd">
<svg version="1.0" xmlns="http://www.w3.org/2000/svg"
 width="5000.000000pt" height="5000.000000pt" viewBox="0 0 5000.000000 5000.000000"
 preserveAspectRatio="xMidYMid meet">

<g transform="translate(0.000000,5000.000000) scale(0.100000,-0.100000)"
fill="#000000" stroke="none">
<path d="M26470 48399 c-220 -30 -293 -43 -365 -66 -334 -105 -674 -415 -841
-768 -90 -190 -162 -470 -171 -665 -16 -318 63 -656 237 -1015 37 -77 66 -141
65 -143 -2 -2 -182 124 -402 279 -806 573 -1205 825 -1648 1040 -662 321
-1365 536 -2105 643 -861 124 -1542 8 -2010 -342 -133 -99 -308 -288 -445
-478 -65 -90 -186 -305 -237 -419 -80 -179 -177 -498 -219 -720 -33 -172 -50
-513 -34 -685 12 -134 63 -375 101 -473 8 -20 14 -41 14 -46 0 -5 -62 16 -137
45 -256 101 -412 130 -660 121 -369 -12 -667 -128 -888 -343 -118 -115 -244
-334 -301 -520 l-28 -91 -40 8 c-145 29 -635 39 -886 18 -69 -5 -201 -14 -295
-19 -256 -15 -387 -27 -416 -38 -15 -6 -98 -22 -185 -37 -88 -14 -249 -41
-359 -60 -110 -19 -281 -48 -381 -64 -99 -17 -201 -39 -227 -50 -26 -11 -123
-38 -215 -61 -226 -54 -588 -153 -637 -174 -22 -10 -78 -29 -124 -42 -46 -14
-102 -36 -125 -49 -23 -13 -122 -52 -221 -85 -99 -34 -214 -78 -255 -97 -41
-19 -151 -65 -245 -103 -293 -117 -534 -230 -758 -354 -38 -21 -72 -34 -76
-30 -235 286 -520 710 -735 1094 -54 96 -106 186 -116 200 -54 79 -338 640
-462 915 -144 320 -252 644 -400 1210 -38 149 -79 289 -90 312 -54 115 -190
164 -299 107 -62 -32 -127 -123 -370 -524 -45 -74 -94 -153 -109 -175 -34 -50
-346 -674 -464 -927 -83 -178 -180 -423 -232 -588 -35 -110 -94 -372 -168
-745 -108 -547 -129 -732 -147 -1269 -12 -349 -4 -626 26 -871 8 -66 19 -172
25 -235 37 -406 143 -962 258 -1360 l39 -135 -48 -95 c-132 -264 -335 -861
-398 -1175 -6 -27 -26 -124 -45 -215 -20 -91 -43 -219 -51 -285 -59 -455 -86
-739 -106 -1130 -9 -180 -16 -237 -49 -395 -55 -262 -85 -384 -115 -470 -14
-41 -38 -113 -51 -159 -14 -47 -37 -106 -50 -133 -13 -26 -33 -70 -44 -97 -37
-94 -158 -336 -210 -421 -53 -85 -208 -303 -355 -500 -43 -58 -149 -183 -234
-279 -86 -96 -171 -192 -190 -213 -43 -49 -341 -321 -451 -412 -47 -38 -141
-106 -210 -151 -125 -82 -154 -98 -519 -280 -106 -53 -219 -113 -250 -133
-339 -220 -519 -392 -702 -669 -167 -253 -273 -561 -346 -998 -26 -158 -26
-627 0 -765 39 -209 131 -427 255 -605 202 -289 547 -502 952 -585 158 -32
464 -28 658 10 42 8 321 82 365 97 16 5 16 1 -4 -48 -126 -317 -190 -549 -241
-869 -20 -126 -23 -180 -23 -415 1 -267 1 -272 33 -415 76 -340 149 -541 252
-684 122 -171 259 -296 405 -369 135 -67 248 -94 442 -104 331 -17 627 91 898
326 38 33 70 59 71 58 2 -2 -10 -129 -47 -477 -23 -223 -80 -663 -110 -855
-21 -133 -42 -231 -105 -480 -60 -238 -143 -507 -260 -850 -259 -757 -402
-1145 -475 -1290 -37 -74 -213 -462 -339 -750 -59 -135 -104 -191 -224 -276
-113 -80 -380 -174 -636 -223 -156 -30 -250 -42 -445 -56 -77 -6 -231 -17
-342 -26 -363 -27 -670 -82 -843 -151 -284 -114 -552 -332 -718 -583 -86 -130
-214 -391 -256 -520 -66 -206 -77 -278 -83 -550 -5 -218 -3 -262 16 -395 45
-312 168 -571 375 -792 228 -242 497 -408 774 -474 48 -11 93 -23 101 -25 9
-3 -13 -21 -52 -44 -77 -45 -239 -161 -377 -269 -123 -96 -469 -442 -547 -546
-176 -233 -277 -435 -352 -700 -48 -169 -64 -295 -65 -510 -1 -242 16 -363 86
-605 58 -204 148 -337 312 -463 187 -145 277 -176 511 -177 92 0 247 30 329
65 37 16 38 16 31 -2 -63 -155 -196 -616 -269 -933 -104 -452 -91 -368 -182
-1195 -13 -126 -30 -279 -36 -340 -7 -63 -12 -269 -12 -480 -1 -375 7 -498 60
-1010 30 -295 106 -754 165 -1005 26 -111 133 -511 166 -620 14 -47 36 -103
49 -125 12 -22 47 -103 77 -180 83 -211 135 -324 169 -368 43 -54 66 -86 141
-197 77 -113 87 -126 244 -311 145 -172 217 -246 389 -400 159 -144 189 -170
235 -200 20 -13 65 -45 100 -71 35 -26 82 -61 104 -77 46 -33 290 -165 326
-176 13 -4 42 -17 64 -28 80 -41 407 -128 620 -165 334 -58 436 -63 640 -27
44 7 112 19 151 25 39 6 84 20 101 30 17 10 64 28 104 39 128 36 393 139 438
169 14 10 41 25 60 32 38 15 156 102 276 202 74 62 245 241 365 382 100 118
254 363 302 481 72 176 104 284 135 445 2 14 11 52 19 85 20 87 34 231 44 467
19 447 -30 836 -186 1468 -44 178 -145 482 -187 565 -38 74 -156 349 -152 354
2 2 43 -30 91 -70 118 -100 159 -130 277 -202 349 -209 742 -317 1172 -320
180 -2 195 0 289 26 180 50 333 129 485 251 108 87 161 145 250 270 136 191
219 366 286 596 19 63 47 154 64 201 44 125 54 202 52 391 -2 299 -31 486
-112 738 -96 297 -171 487 -308 783 -173 373 -239 492 -364 658 l-69 92 48
-28 c27 -15 56 -33 64 -40 57 -47 366 -254 438 -292 48 -26 112 -63 142 -83
30 -21 102 -61 159 -90 58 -29 132 -69 165 -90 64 -39 197 -109 569 -298 l227
-116 -7 -125 c-13 -213 -9 -1118 5 -1311 23 -308 104 -999 152 -1300 26 -161
134 -709 161 -814 64 -254 214 -712 258 -791 16 -28 65 -127 109 -220 116
-248 241 -440 447 -689 55 -67 113 -138 129 -158 15 -21 107 -112 203 -203
308 -290 573 -473 973 -671 384 -190 838 -321 1382 -398 275 -40 437 -49 703
-42 434 11 666 44 966 137 252 78 536 251 790 481 84 76 268 282 355 397 129
172 294 460 376 656 205 491 290 1118 274 2033 l-6 362 23 -5 c12 -2 63 -14
112 -25 50 -11 133 -26 185 -35 52 -8 145 -24 205 -35 61 -11 155 -27 210 -35
55 -8 127 -19 160 -25 33 -5 76 -10 96 -10 26 0 38 -5 42 -18 3 -9 26 -71 52
-137 136 -350 312 -1118 345 -1500 5 -66 10 -250 10 -409 0 -277 -6 -400 -51
-981 -40 -527 -41 -567 -36 -1015 5 -498 29 -815 88 -1190 67 -426 172 -759
394 -1255 72 -162 261 -525 334 -643 71 -114 257 -392 297 -442 74 -94 161
-198 234 -280 42 -47 116 -132 165 -190 215 -252 460 -479 715 -662 492 -353
838 -528 1575 -798 490 -179 1089 -337 1570 -414 1072 -172 1942 -177 3032
-20 525 75 1132 270 1625 520 200 102 553 329 743 478 120 94 331 270 411 342
95 87 314 322 429 459 112 135 359 494 474 689 103 175 254 491 364 761 144
355 285 905 366 1430 88 571 132 1500 101 2165 -42 910 -77 1337 -146 1760
-26 156 -126 567 -163 670 -168 466 -367 926 -571 1323 -34 66 -59 121 -56
124 2 3 152 35 333 73 501 104 872 189 933 216 30 13 127 42 215 65 276 71
629 171 659 186 27 14 425 146 1086 360 162 52 307 101 322 109 15 8 125 48
244 89 118 41 232 84 252 96 20 12 118 53 217 91 217 85 303 123 330 147 19
17 70 41 285 136 125 56 279 134 325 165 23 16 194 105 380 199 445 224 768
394 830 435 28 18 93 56 145 83 52 28 124 69 160 91 36 23 133 82 215 131 83
50 168 103 190 119 22 16 102 71 179 122 76 52 159 112 185 135 82 74 355 276
431 320 29 17 -25 -38 -90 -90 -301 -245 -628 -612 -804 -903 -220 -364 -333
-619 -445 -1001 -62 -212 -86 -421 -79 -681 11 -371 138 -746 358 -1055 91
-128 143 -185 250 -270 155 -124 306 -202 486 -252 94 -26 109 -28 289 -26
199 1 306 14 512 58 169 37 241 60 402 131 223 99 364 186 535 333 48 40 89
72 91 70 4 -5 -114 -280 -152 -354 -42 -83 -143 -387 -187 -565 -156 -632
-205 -1021 -186 -1468 10 -236 24 -380 44 -467 8 -33 17 -71 19 -85 31 -161
63 -269 135 -445 48 -118 202 -363 302 -481 120 -141 291 -320 365 -382 120
-100 238 -187 276 -202 19 -7 46 -22 62 -32 15 -11 64 -33 108 -49 45 -16 95
-37 112 -46 32 -16 232 -83 249 -83 5 0 33 -11 62 -25 29 -14 77 -29 107 -34
375 -65 415 -65 794 1 213 37 540 124 620 165 22 11 51 24 64 28 36 11 280
143 326 176 22 16 69 51 104 77 35 26 80 58 100 71 47 31 141 113 264 229 54
50 102 92 106 92 9 0 177 184 256 280 33 41 82 99 109 129 26 31 82 106 123
166 89 131 109 160 151 212 34 44 86 157 169 368 30 77 65 158 77 180 50 85
200 648 270 1013 66 342 95 568 153 1187 21 226 24 885 5 1050 -6 55 -18 168
-27 250 -8 83 -24 224 -35 315 -10 91 -26 230 -35 310 -9 80 -22 186 -31 235
-26 155 -154 692 -209 880 -49 163 -132 422 -150 468 -7 18 -6 18 31 2 82 -35
237 -65 329 -65 234 1 324 32 511 177 164 126 254 259 312 463 70 242 87 363
86 605 -1 215 -17 341 -65 510 -75 265 -176 467 -352 700 -79 105 -426 451
-547 546 -142 112 -298 223 -375 268 -40 24 -63 42 -54 45 8 2 53 14 101 25
278 67 546 231 774 474 208 222 329 479 375 792 19 133 21 177 16 395 -6 272
-17 344 -83 550 -42 129 -170 390 -256 520 -177 268 -495 514 -788 609 -208
67 -537 114 -985 141 -360 21 -636 66 -868 140 -247 79 -352 136 -464 252 -40
42 -62 79 -103 173 -126 288 -302 676 -339 750 -73 145 -216 533 -475 1290
-117 341 -199 610 -260 850 -57 224 -94 392 -110 505 -20 139 -61 444 -80 600
-22 175 -76 704 -72 707 1 1 33 -25 71 -58 275 -236 565 -342 895 -326 142 7
217 19 310 49 152 48 288 136 407 261 198 208 286 403 385 847 32 144 32 147
32 420 0 253 -2 288 -27 440 -48 292 -120 548 -236 839 -20 49 -20 53 -4 48
10 -4 83 -24 163 -46 244 -68 344 -81 600 -83 124 0 176 4 260 21 222 47 423
130 614 255 212 139 396 369 496 621 102 257 115 333 115 690 0 224 -4 302
-18 390 -73 437 -179 745 -346 998 -183 277 -363 449 -702 669 -31 20 -144 80
-250 133 -365 182 -394 198 -519 280 -69 45 -163 113 -209 151 -142 116 -392
347 -477 440 -295 325 -352 395 -589 724 -102 141 -149 214 -287 440 -82 133
-175 324 -216 443 -66 187 -121 440 -142 657 -6 63 -18 167 -25 230 -8 63 -17
171 -20 240 -13 282 -45 615 -100 1035 -8 66 -31 194 -51 285 -19 91 -39 188
-45 215 -38 189 -208 739 -278 902 l-31 72 39 138 c114 401 137 486 191 726
73 325 131 690 155 977 4 41 13 125 20 185 52 419 36 1188 -36 1670 -44 300
-201 1051 -253 1215 -52 165 -149 410 -232 588 -118 253 -430 877 -464 927
-15 22 -64 101 -109 175 -243 401 -308 492 -370 524 -109 57 -245 8 -299 -107
-11 -23 -52 -164 -90 -312 -101 -384 -222 -782 -291 -953 -85 -210 -131 -311
-284 -622 -307 -624 -653 -1202 -986 -1650 -82 -110 -222 -280 -229 -279 -4 0
-72 36 -152 79 -308 167 -529 272 -825 390 -93 38 -204 84 -245 103 -41 19
-158 63 -260 98 -102 34 -201 73 -220 85 -19 12 -69 32 -110 44 -41 12 -102
32 -135 45 -65 27 -384 114 -640 176 -87 21 -182 47 -210 58 -60 24 -107 33
-375 77 -429 69 -751 125 -778 135 -30 12 -160 24 -417 39 -93 5 -224 14 -290
20 -66 5 -212 11 -325 11 -221 1 -642 29 -786 53 -49 8 -110 17 -135 21 -48 6
-72 22 -248 163 -177 142 -481 446 -842 842 -118 129 -311 337 -429 463 -118
126 -267 287 -332 358 -1005 1112 -1771 1752 -2543 2125 -721 349 -1465 544
-2230 584 -218 11 -303 11 -395 -1z m591 -334 c166 -18 460 -65 634 -102 404
-84 800 -221 1265 -440 373 -175 869 -519 1315 -913 182 -161 741 -720 1035
-1035 118 -126 300 -322 405 -434 669 -719 1091 -1138 1310 -1303 250 -187
572 -359 848 -452 157 -53 473 -124 587 -132 86 -7 186 15 210 45 8 10 23 21
33 25 24 8 17 30 -11 34 -12 2 -22 8 -22 13 0 17 -139 79 -211 94 -109 23
-270 68 -264 73 23 23 736 -28 940 -68 28 -5 86 -14 130 -20 44 -6 98 -18 120
-25 22 -8 112 -26 200 -40 182 -29 421 -75 575 -110 58 -14 149 -34 203 -45
53 -11 110 -26 126 -34 15 -8 104 -35 197 -60 231 -60 594 -171 641 -194 21
-11 69 -30 107 -42 39 -13 84 -31 101 -41 40 -24 194 -87 350 -144 66 -24 141
-55 165 -69 25 -13 104 -48 175 -76 153 -60 647 -293 690 -325 17 -13 67 -42
113 -64 48 -24 82 -47 79 -54 -6 -21 -148 -135 -252 -203 -103 -67 -489 -313
-536 -341 -26 -16 -28 -15 -75 24 -27 22 -77 57 -111 77 -35 20 -89 51 -120
70 -273 160 -571 257 -878 285 -336 31 -497 23 -744 -35 -269 -64 -554 -190
-739 -328 -263 -195 -444 -432 -552 -719 -88 -236 -111 -369 -117 -699 -10
-497 49 -834 214 -1238 90 -219 216 -425 410 -670 89 -113 165 -191 311 -319
157 -136 164 -137 65 -5 -50 65 -111 151 -137 189 -27 39 -56 79 -66 90 -62
70 -284 521 -350 710 -42 122 -90 325 -117 495 -19 116 -21 594 -4 745 39 337
116 541 290 773 188 249 370 386 656 492 249 93 435 123 681 109 284 -15 385
-33 581 -105 54 -20 156 -56 227 -80 70 -25 145 -53 165 -63 l36 -19 -25 -10
c-66 -26 -420 -197 -483 -234 -40 -23 -104 -59 -143 -80 l-72 -38 -6 24 c-3
14 -17 38 -31 54 -14 16 -59 88 -101 158 -41 71 -90 144 -107 162 -33 34 -76
43 -96 19 -20 -25 -39 -132 -45 -256 -4 -68 -11 -144 -17 -170 -8 -39 -6 -68
12 -152 29 -143 118 -448 174 -599 49 -132 198 -443 262 -547 294 -482 418
-658 623 -893 211 -242 351 -393 579 -623 357 -359 588 -574 786 -732 308
-246 480 -356 850 -547 385 -198 669 -326 830 -372 44 -13 184 -54 310 -91
297 -87 315 -91 383 -77 105 22 168 100 160 198 -9 109 -83 171 -259 219 l-99
27 18 22 c9 12 34 42 55 66 20 25 58 75 85 112 104 147 206 288 208 288 2 0
19 -53 40 -117 125 -402 170 -641 168 -898 -1 -131 -6 -182 -28 -283 -47 -222
-117 -395 -204 -501 -120 -147 -460 -319 -758 -383 -98 -21 -133 -23 -344 -22
-191 1 -258 5 -360 23 -69 11 -152 21 -186 21 -278 0 -748 183 -1035 404 -26
19 -49 33 -52 29 -10 -9 31 -82 90 -161 115 -154 325 -340 519 -460 75 -47
305 -156 424 -201 282 -108 720 -131 1060 -58 349 76 680 233 887 422 136 123
257 324 329 543 118 359 134 713 53 1112 -68 331 -225 773 -323 910 l-35 48
96 204 c91 194 227 525 254 616 7 23 16 39 19 35 7 -7 48 -142 84 -273 8 -30
22 -93 31 -140 8 -47 29 -146 45 -220 27 -122 44 -231 70 -450 5 -41 16 -129
24 -195 8 -66 18 -165 21 -220 8 -123 57 -485 90 -660 14 -71 29 -161 34 -200
34 -247 88 -461 201 -795 68 -199 142 -348 361 -725 89 -152 321 -497 406
-603 230 -286 390 -461 587 -641 348 -318 520 -437 941 -647 309 -155 335
-170 490 -278 283 -198 489 -475 599 -806 100 -302 151 -691 127 -958 -25
-272 -126 -509 -293 -687 -103 -110 -332 -233 -535 -287 -79 -21 -109 -23
-288 -22 -197 0 -202 1 -350 38 -332 84 -463 146 -619 295 -131 127 -233 273
-386 557 -57 104 -122 221 -145 259 -110 183 -247 449 -328 640 -119 279 -167
397 -167 406 0 5 -21 51 -47 102 l-48 92 -3 -45 c-2 -25 1 -115 7 -201 31
-440 73 -658 207 -1078 75 -232 171 -433 317 -662 107 -169 286 -516 370 -719
228 -552 310 -897 311 -1305 0 -213 -3 -241 -65 -488 -70 -281 -172 -453 -333
-564 -106 -72 -166 -87 -351 -87 -180 -1 -248 14 -377 81 -244 127 -654 601
-813 940 -23 50 -58 113 -76 140 -19 26 -95 170 -169 318 -109 218 -139 270
-155 270 -61 0 -83 -294 -45 -607 14 -117 31 -210 47 -258 28 -82 96 -223 149
-310 33 -54 34 -58 49 -250 9 -107 25 -283 36 -390 11 -107 26 -265 34 -350
23 -244 43 -414 100 -835 38 -282 52 -365 69 -432 9 -34 25 -103 36 -155 21
-98 73 -292 133 -493 102 -345 414 -1246 570 -1645 84 -214 93 -236 115 -268
28 -41 274 -594 319 -717 38 -106 99 -203 172 -275 52 -52 95 -80 201 -137 74
-39 160 -78 190 -88 30 -9 104 -35 164 -57 287 -104 596 -163 1011 -193 438
-31 502 -37 610 -55 138 -22 379 -103 477 -159 179 -103 350 -260 440 -407
112 -181 184 -348 229 -529 16 -61 22 -128 26 -275 9 -305 -18 -473 -101 -647
-60 -125 -114 -201 -205 -292 -109 -109 -199 -174 -336 -241 -204 -102 -216
-103 -668 -108 -329 -3 -399 -1 -460 13 -199 44 -338 114 -451 225 -81 80 -89
76 -56 -33 65 -215 275 -410 710 -657 36 -20 110 -64 165 -97 55 -32 145 -86
200 -118 221 -129 519 -362 747 -583 310 -302 468 -561 549 -898 46 -195 44
-484 -6 -689 -54 -225 -84 -280 -198 -371 -94 -74 -122 -84 -232 -84 -161 0
-253 45 -433 210 -70 63 -171 151 -226 195 -54 43 -145 131 -202 194 -157 177
-364 361 -406 361 -5 0 5 -27 22 -61 17 -33 42 -103 55 -155 35 -131 106 -324
156 -419 23 -44 88 -150 145 -235 57 -85 117 -186 134 -224 64 -141 158 -460
288 -981 130 -515 195 -999 232 -1725 19 -379 10 -877 -20 -1085 -5 -38 -24
-185 -40 -325 -58 -483 -154 -993 -250 -1320 -15 -52 -40 -140 -55 -195 -15
-55 -42 -127 -60 -160 -18 -33 -53 -112 -78 -175 -87 -220 -120 -283 -210
-395 -13 -16 -49 -71 -80 -121 -74 -120 -326 -408 -508 -579 -196 -185 -362
-314 -544 -421 -100 -59 -282 -142 -350 -159 -38 -9 -86 -23 -105 -30 -36 -13
-94 -27 -285 -69 -221 -48 -291 -57 -398 -51 -119 7 -267 31 -317 51 -19 8
-89 29 -155 48 -125 35 -299 104 -396 154 -140 74 -331 246 -511 459 -150 179
-197 247 -284 414 -22 41 -75 187 -95 259 -9 36 -25 92 -34 125 -21 79 -52
347 -60 527 -20 420 100 1148 274 1661 33 97 67 187 75 200 20 31 209 464 300
687 179 441 182 447 402 762 70 101 171 246 223 323 144 212 241 330 356 435
58 52 155 142 217 199 62 57 135 124 162 148 37 34 46 47 37 56 -16 15 -169
-65 -331 -173 -63 -42 -153 -101 -200 -130 -51 -31 -129 -95 -195 -159 -99
-96 -375 -401 -530 -586 -33 -39 -82 -89 -109 -111 -26 -21 -130 -120 -230
-219 -99 -100 -226 -215 -281 -256 -55 -41 -147 -114 -204 -162 -211 -175
-530 -360 -735 -426 -182 -58 -451 -101 -638 -101 -220 0 -491 146 -638 345
-122 166 -264 494 -300 695 -17 92 -14 393 5 525 35 248 120 500 276 815 93
189 156 300 382 680 86 145 274 415 425 610 91 118 273 312 369 394 39 33 122
104 185 158 62 53 172 156 245 230 145 147 160 175 129 237 -24 45 -68 64
-133 59 -84 -7 -281 -113 -464 -249 -41 -31 -85 -61 -97 -68 -13 -7 -57 -40
-100 -74 -91 -74 -270 -183 -387 -237 -46 -21 -111 -57 -143 -79 -33 -22 -106
-65 -163 -96 -57 -31 -122 -70 -146 -86 -23 -16 -165 -90 -315 -164 -150 -74
-338 -175 -418 -225 -80 -51 -190 -114 -245 -142 -55 -28 -113 -61 -130 -74
-38 -29 -343 -188 -820 -429 -198 -99 -385 -197 -417 -216 -52 -33 -125 -68
-450 -214 -70 -32 -133 -64 -140 -72 -13 -16 -32 -25 -228 -100 -80 -30 -188
-75 -241 -99 -147 -67 -817 -296 -1549 -530 -168 -53 -321 -105 -340 -114 -35
-18 -362 -111 -665 -190 -88 -23 -179 -50 -203 -60 -83 -37 -533 -136 -1527
-335 -841 -169 -1318 -256 -2200 -405 -497 -83 -769 -131 -805 -140 -69 -18
-1509 -244 -1715 -270 -44 -5 -145 -17 -225 -25 -80 -8 -188 -19 -240 -25
-528 -54 -1238 -98 -2134 -131 -361 -13 -1591 -6 -1871 11 -710 42 -1814 156
-2585 265 -58 8 -172 24 -255 35 -82 11 -184 27 -225 35 -70 13 -208 38 -395
71 -103 19 -681 160 -945 231 -113 31 -268 72 -345 93 -77 20 -275 79 -440
129 -165 51 -343 104 -395 117 -157 41 -1651 529 -1990 651 -196 70 -430 159
-615 233 -93 38 -250 100 -347 139 -98 39 -219 88 -270 110 -51 21 -149 62
-218 91 -192 80 -315 133 -570 251 -129 59 -260 117 -290 129 -50 19 -229 109
-1130 568 -353 179 -582 300 -645 340 -28 17 -82 46 -120 63 -39 18 -106 56
-150 85 -44 28 -105 64 -135 79 -30 15 -137 84 -238 154 -100 69 -223 151
-271 181 -49 30 -106 69 -127 85 -21 17 -70 52 -109 78 -38 27 -108 79 -155
118 -47 38 -105 84 -129 102 -25 17 -66 50 -91 72 -26 22 -84 70 -128 107 -44
37 -120 113 -169 170 -107 124 -185 180 -272 197 -52 10 -70 10 -114 -3 -115
-34 -167 -103 -175 -233 -7 -114 34 -183 177 -303 153 -128 243 -217 363 -357
73 -85 135 -160 137 -166 2 -6 -18 7 -45 29 -77 65 -213 149 -300 187 -80 36
-174 57 -174 40 0 -5 35 -41 79 -80 176 -161 535 -633 733 -968 36 -60 109
-183 161 -271 92 -156 257 -475 309 -599 87 -206 147 -414 173 -597 19 -135
22 -435 5 -528 -36 -201 -178 -529 -300 -695 -147 -199 -418 -345 -638 -345
-187 0 -456 43 -638 101 -123 39 -367 164 -514 262 -63 42 -171 123 -240 179
-69 57 -161 130 -205 163 -44 32 -165 143 -270 246 -104 103 -208 202 -229
219 -22 17 -67 63 -100 103 -34 41 -91 107 -127 148 -37 41 -118 133 -180 204
-165 188 -319 333 -419 395 -47 29 -137 88 -200 130 -162 108 -315 188 -331
173 -9 -9 0 -22 37 -56 27 -24 100 -91 162 -148 62 -57 159 -147 217 -199 115
-105 212 -223 356 -435 52 -77 153 -222 223 -323 221 -317 220 -315 411 -782
96 -235 270 -635 289 -665 32 -49 141 -393 185 -580 11 -49 32 -137 45 -195
34 -140 69 -354 97 -580 30 -251 31 -543 0 -790 -23 -194 -27 -215 -64 -345
-38 -133 -89 -265 -126 -325 -18 -29 -36 -62 -41 -74 -12 -33 -116 -180 -168
-238 -26 -29 -59 -69 -74 -89 -52 -70 -255 -266 -348 -336 -95 -71 -183 -119
-295 -163 -33 -13 -64 -27 -70 -31 -13 -9 -155 -53 -225 -69 -30 -7 -68 -19
-84 -27 -43 -22 -163 -43 -306 -54 -134 -10 -161 -7 -415 47 -349 74 -509 126
-680 222 -44 25 -100 56 -125 69 -132 73 -333 239 -554 458 -248 247 -366 387
-479 566 -39 62 -87 130 -120 168 -15 18 -27 36 -27 41 0 4 -15 41 -34 82 -19
40 -49 109 -66 153 -18 44 -41 102 -52 129 -11 28 -28 62 -38 77 -11 14 -31
69 -46 120 -14 52 -34 121 -44 154 -112 361 -211 879 -275 1435 -9 74 -21 171
-26 215 -6 44 -15 114 -20 155 -16 131 -23 708 -10 945 24 454 65 899 101
1115 5 30 16 98 25 150 28 167 65 337 116 539 204 796 254 943 379 1117 76
107 176 272 212 351 37 83 93 247 123 360 13 50 38 119 55 152 17 34 26 61 22
61 -42 0 -230 -170 -467 -421 -55 -59 -127 -126 -160 -150 -33 -24 -112 -91
-175 -149 -185 -170 -244 -208 -358 -230 -84 -17 -220 -8 -258 16 -67 42 -157
121 -185 164 -60 90 -116 318 -127 510 -15 262 15 456 104 679 69 172 130 273
271 448 190 237 616 597 928 784 234 141 321 193 385 229 435 247 645 442 710
657 32 108 25 113 -50 38 -107 -109 -231 -173 -420 -221 -91 -23 -108 -24
-460 -24 -324 0 -375 3 -455 20 -314 68 -622 299 -767 578 -103 196 -134 365
-125 682 4 118 12 222 21 263 53 239 201 537 345 699 81 90 263 228 378 286
79 40 316 113 430 132 65 10 186 24 268 30 488 35 598 45 765 72 236 37 372
72 621 158 429 149 596 280 692 545 45 123 291 676 319 717 68 99 529 1386
685 1913 60 201 112 395 133 493 11 52 27 121 36 155 17 67 31 150 69 432 57
421 77 591 100 835 8 85 23 243 34 350 11 107 27 283 36 390 15 192 16 196 49
250 53 87 121 228 149 310 16 48 33 141 47 258 38 313 16 607 -45 607 -16 0
-46 -52 -155 -270 -74 -148 -150 -292 -169 -318 -18 -27 -51 -88 -74 -135
-159 -342 -569 -817 -815 -945 -129 -67 -197 -82 -377 -81 -140 0 -168 3 -225
23 -116 41 -230 135 -318 263 -63 92 -131 296 -188 568 -25 117 -25 437 0 600
51 336 123 579 293 990 84 203 263 550 370 719 146 229 242 430 317 662 134
420 176 638 207 1078 6 86 9 176 7 201 l-3 45 -48 -92 c-26 -51 -47 -97 -47
-102 0 -9 -48 -127 -167 -406 -81 -191 -218 -457 -328 -640 -23 -38 -88 -155
-145 -259 -155 -288 -257 -433 -392 -562 -156 -147 -278 -205 -613 -290 -149
-38 -152 -38 -350 -39 -179 0 -210 3 -288 23 -203 54 -432 177 -535 287 -226
242 -324 567 -293 980 31 423 140 791 310 1043 119 178 249 312 416 428 155
108 181 123 490 278 421 210 593 329 941 647 197 180 357 355 587 641 85 106
318 452 406 603 131 225 161 282 186 348 14 37 43 103 65 147 49 97 150 365
186 492 14 50 30 100 35 110 6 10 27 94 49 186 21 92 52 221 69 286 36 140 56
277 71 471 28 379 42 536 50 595 5 36 14 103 19 150 25 218 43 335 71 460 16
74 37 173 46 220 20 108 43 196 104 390 92 293 117 364 124 352 4 -7 42 -117
85 -245 95 -280 173 -476 297 -740 l93 -199 -35 -48 c-98 -137 -255 -579 -323
-910 -63 -308 -67 -611 -12 -865 77 -359 208 -622 394 -790 207 -189 538 -346
887 -422 340 -73 778 -50 1060 58 119 45 349 154 424 201 194 120 404 306 519
460 59 79 100 152 90 161 -3 4 -26 -10 -52 -29 -287 -221 -757 -404 -1035
-404 -34 0 -117 -10 -186 -21 -102 -18 -169 -22 -360 -23 -211 -1 -246 1 -344
22 -298 64 -638 236 -758 383 -87 106 -157 279 -204 501 -56 262 -30 585 76
963 34 121 100 335 104 335 2 0 104 -141 208 -288 27 -37 65 -87 85 -112 21
-24 46 -54 55 -66 l18 -22 -99 -27 c-176 -48 -250 -110 -259 -219 -8 -98 55
-176 160 -198 68 -14 86 -10 383 77 127 37 266 78 310 91 161 46 445 174 830
372 370 191 542 301 850 547 341 272 928 855 1365 1355 205 235 329 411 623
893 64 104 213 415 262 547 56 151 145 456 174 599 18 84 20 113 12 152 -6 26
-13 102 -17 170 -6 124 -25 231 -45 256 -20 24 -63 15 -96 -19 -17 -18 -66
-91 -107 -162 -42 -70 -87 -142 -101 -158 -14 -16 -28 -40 -31 -54 l-6 -24
-72 38 c-39 21 -103 57 -143 80 -63 37 -417 208 -483 234 l-25 10 36 19 c20
10 95 38 165 63 71 24 173 60 227 80 196 72 297 90 581 105 246 14 432 -16
681 -109 286 -106 468 -243 656 -492 174 -232 251 -436 290 -773 17 -151 15
-629 -4 -745 -27 -170 -75 -373 -117 -495 -66 -189 -288 -640 -350 -710 -10
-11 -39 -51 -66 -90 -26 -38 -87 -124 -137 -189 -99 -132 -92 -131 65 5 146
128 222 206 311 319 194 245 320 451 410 670 165 404 224 741 214 1238 -6 330
-29 463 -117 699 -108 287 -289 524 -552 719 -242 180 -604 319 -964 370 -225
31 -656 -4 -884 -73 -182 -54 -367 -133 -512 -219 -32 -19 -86 -50 -120 -70
-35 -20 -84 -54 -110 -75 -26 -22 -49 -39 -53 -39 -3 0 -61 35 -128 78 -67 43
-196 125 -287 182 -195 123 -274 180 -397 291 l-91 82 50 33 c66 45 539 269
703 334 72 28 150 63 175 76 24 14 99 45 165 69 156 57 310 120 350 144 17 10
62 28 101 41 38 12 86 31 107 42 47 23 410 134 641 194 93 25 182 52 197 60
16 8 73 23 126 34 54 11 145 31 203 45 154 35 393 81 575 110 88 14 178 32
200 40 22 7 76 19 120 25 44 6 103 15 130 20 187 36 588 67 970 76 l330 7 -3
-99 c-9 -278 80 -521 285 -776 129 -159 328 -272 543 -307 78 -13 300 -26 300
-18 0 3 -33 18 -72 33 -278 104 -436 243 -523 456 -87 214 -126 595 -81 793
48 214 165 403 309 501 211 143 534 183 914 114 157 -29 257 -65 470 -171 139
-69 188 -98 205 -122 108 -157 356 -420 502 -532 139 -108 299 -214 401 -266
55 -28 111 -59 125 -69 49 -35 340 -165 495 -222 451 -166 934 -249 1445 -249
233 0 572 23 557 38 -2 2 -55 8 -118 13 -248 22 -539 70 -769 127 -58 14 -134
32 -170 40 -283 60 -757 267 -1106 482 -152 94 -424 293 -589 431 -322 269
-549 580 -668 915 -41 117 -49 144 -78 285 -30 141 -32 465 -6 645 37 242 145
594 243 785 149 292 366 554 577 694 160 107 336 172 604 225 445 88 823 74
1428 -54 94 -20 194 -40 224 -46 131 -25 601 -164 766 -227 301 -114 646 -273
890 -409 374 -209 946 -588 1603 -1061 344 -247 477 -349 734 -559 109 -89
209 -170 223 -180 15 -10 61 -45 103 -78 304 -238 375 -289 433 -305 41 -12
93 3 113 32 14 19 14 19 53 -5 189 -119 496 -231 788 -287 105 -20 436 -62
442 -56 1 1 -61 19 -140 40 -318 85 -630 221 -844 368 -239 165 -545 449 -710
662 -48 61 -105 132 -127 157 -86 97 -270 359 -385 549 -88 144 -205 406 -249
555 -49 166 -62 253 -62 422 0 73 5 156 11 185 65 326 173 570 326 734 81 88
223 199 308 241 57 29 184 70 257 84 173 31 452 33 719 4z m-18075 -2785 c116
-389 203 -605 443 -1090 252 -512 549 -1035 771 -1360 218 -318 212 -310 475
-645 44 -56 124 -149 178 -207 l98 -106 -24 -64 c-37 -96 -80 -178 -152 -283
-36 -53 -65 -98 -65 -100 0 -11 71 20 144 65 61 36 110 77 173 145 l88 93 99
-74 c54 -41 175 -122 270 -181 332 -208 313 -193 305 -231 -12 -60 -127 -264
-220 -391 -47 -65 -41 -81 23 -62 76 22 191 92 288 176 52 45 101 90 109 99 8
10 27 24 43 32 28 14 32 13 116 -35 97 -55 442 -219 542 -257 73 -28 222 -67
320 -84 108 -18 101 -8 70 -115 -73 -251 -196 -524 -343 -763 -132 -214 -269
-422 -348 -528 -288 -385 -1092 -1210 -1489 -1527 -212 -169 -422 -314 -595
-411 -265 -148 -869 -436 -994 -475 l-54 -17 -47 51 c-55 57 -139 183 -227
335 -107 188 -210 374 -246 445 -39 78 -177 401 -177 414 0 5 17 11 38 15 42
6 297 134 417 209 376 234 539 401 695 712 104 208 182 470 168 565 -3 22 -8
18 -53 -38 -132 -164 -185 -225 -283 -326 -117 -119 -184 -173 -433 -354 -223
-161 -314 -219 -503 -319 -88 -46 -165 -88 -171 -93 -32 -26 -324 892 -385
1212 -17 89 -51 251 -75 358 -24 107 -48 219 -53 248 l-9 53 46 26 c262 148
415 263 584 437 153 158 281 325 380 497 33 58 119 258 115 269 -2 5 -47 -34
-101 -86 -98 -94 -297 -233 -585 -410 -63 -38 -201 -127 -308 -198 -107 -71
-196 -127 -198 -125 -10 10 -46 448 -53 649 -9 259 -8 719 2 898 7 119 8 122
30 122 50 0 165 73 321 202 113 93 322 346 397 480 35 64 84 204 74 214 -5 6
-96 -51 -107 -67 -3 -3 -32 -23 -65 -44 -200 -128 -452 -297 -522 -352 -46
-35 -83 -60 -83 -55 0 46 161 868 206 1052 32 130 146 442 221 609 117 256
428 871 516 1019 l91 153 14 -48 c7 -26 51 -176 98 -333z m32656 220 c85 -142
398 -763 511 -1011 75 -167 189 -479 221 -609 45 -184 206 -1006 206 -1052 0
-5 -37 20 -82 55 -71 55 -323 224 -523 352 -33 21 -62 41 -65 44 -11 16 -102
73 -107 67 -10 -10 39 -150 74 -214 75 -134 284 -387 397 -480 156 -129 271
-202 321 -202 22 0 23 -3 30 -122 10 -179 11 -639 2 -898 -7 -201 -43 -639
-53 -649 -2 -2 -91 54 -198 125 -107 71 -245 160 -308 198 -288 177 -487 316
-585 410 -54 52 -99 91 -101 86 -4 -11 82 -211 115 -269 99 -172 227 -339 380
-497 169 -174 322 -289 584 -437 l46 -26 -9 -53 c-5 -29 -29 -141 -53 -248
-24 -107 -58 -269 -75 -358 -61 -320 -353 -1238 -385 -1212 -6 5 -83 47 -171
93 -189 100 -280 158 -503 319 -249 181 -316 235 -433 354 -98 101 -151 162
-283 326 -45 56 -50 60 -53 38 -14 -95 64 -357 168 -565 156 -311 319 -478
695 -712 120 -75 375 -203 418 -209 20 -4 37 -10 37 -15 0 -13 -138 -336 -177
-414 -36 -71 -139 -257 -246 -445 -88 -152 -172 -278 -227 -335 l-47 -51 -54
17 c-125 39 -730 328 -994 475 -377 211 -684 457 -1181 951 -574 569 -840 875
-1073 1234 -298 460 -423 710 -521 1044 -31 107 -38 97 70 115 98 17 247 56
320 84 100 38 445 202 542 257 84 48 88 49 116 35 16 -8 35 -22 43 -32 8 -9
57 -54 109 -99 97 -84 212 -154 288 -176 64 -19 70 -3 23 62 -93 127 -208 331
-220 391 -8 38 -27 23 305 231 95 59 216 140 270 181 l99 74 88 -93 c63 -68
112 -109 173 -145 73 -45 144 -76 144 -65 0 2 -29 47 -65 100 -72 105 -115
187 -152 283 l-24 64 98 106 c54 58 134 151 178 207 263 335 257 327 475 645
222 325 519 848 771 1360 237 479 327 700 439 1075 44 149 88 298 97 332 10
35 20 60 23 55 4 -4 45 -72 92 -152z m-28670 -31857 c-2 -10 -6 -254 -9 -543
-4 -460 -2 -567 16 -865 30 -471 51 -644 121 -965 67 -310 160 -569 311 -873
120 -240 222 -411 323 -542 116 -148 371 -377 389 -348 3 5 -21 65 -54 133
-69 143 -115 263 -171 440 -38 122 -166 582 -214 770 -14 52 -36 131 -49 175
-106 355 -187 892 -215 1435 -6 113 -17 298 -25 413 -8 114 -15 297 -15 406
l0 199 133 -60 c330 -149 1224 -517 1517 -625 52 -19 163 -60 245 -90 202 -74
372 -132 810 -274 204 -66 546 -179 762 -249 215 -71 420 -136 455 -145 35 -9
179 -50 321 -93 l257 -77 0 -126 c0 -179 -18 -658 -31 -824 -9 -115 -21 -180
-69 -370 -33 -127 -75 -271 -94 -320 -18 -50 -62 -162 -96 -250 -34 -88 -81
-212 -104 -275 -72 -193 -107 -254 -280 -485 -88 -118 -138 -186 -239 -323
-26 -36 -72 -91 -102 -123 -30 -32 -55 -61 -55 -65 0 -12 134 5 194 26 175 60
408 221 602 416 268 269 391 497 528 979 139 492 173 734 185 1291 l6 321 160
-44 c88 -25 183 -51 211 -59 l52 -14 7 -357 c21 -967 -45 -1523 -231 -1961
-142 -334 -414 -710 -659 -911 -360 -295 -656 -388 -1300 -407 -382 -12 -762
37 -1220 156 -263 69 -456 143 -695 267 -182 94 -243 131 -433 265 -323 228
-659 587 -871 932 -62 100 -236 452 -286 576 -113 284 -253 850 -324 1310 -24
155 -92 679 -115 890 -43 388 -63 827 -54 1207 l6 281 201 -104 c158 -81 200
-108 198 -121z m19131 -1763 c22 -41 58 -109 81 -150 24 -41 69 -131 101 -200
32 -69 78 -165 103 -215 119 -240 341 -812 402 -1035 114 -415 168 -848 210
-1658 6 -112 15 -283 20 -380 26 -491 1 -1315 -56 -1842 -57 -527 -212 -1194
-371 -1590 -77 -193 -244 -542 -328 -685 -118 -202 -319 -488 -459 -655 -183
-219 -538 -545 -789 -726 -426 -307 -708 -451 -1242 -634 -408 -140 -754 -205
-1460 -272 -208 -19 -298 -22 -680 -22 -457 0 -634 10 -1025 55 -443 51 -705
97 -1071 190 -398 100 -522 137 -880 265 -646 229 -978 396 -1429 717 -203
144 -449 370 -612 560 -33 40 -116 135 -184 212 -247 281 -427 544 -617 902
-165 311 -349 752 -418 1003 -126 462 -180 952 -179 1635 0 369 8 593 25 745
3 25 16 207 30 405 53 776 41 1166 -49 1640 -73 381 -125 599 -217 902 -27 91
-47 168 -45 170 3 3 42 0 88 -6 166 -22 418 -50 623 -71 116 -11 253 -25 305
-30 123 -13 385 -35 630 -54 854 -67 1854 -70 3045 -10 478 24 972 53 996 58
13 3 33 -34 87 -153 227 -504 355 -981 431 -1616 36 -294 73 -729 86 -1005 3
-69 10 -174 15 -235 20 -225 50 -672 71 -1045 18 -320 20 -400 10 -473 -18
-136 1 -142 89 -29 56 71 64 89 110 232 111 345 237 1208 240 1640 2 277 -22
729 -51 980 -75 644 -224 1216 -443 1703 -14 32 -26 60 -26 62 0 3 15 5 33 5
61 0 458 49 642 80 33 5 249 40 480 76 562 88 841 134 1140 189 138 25 347 61
465 80 118 20 303 51 410 70 107 19 339 59 515 90 324 57 744 135 961 179 65
13 126 23 134 22 8 0 32 -35 53 -76z"/>
<path d="M18025 34580 c-1441 -82 -2808 -855 -3881 -2195 -1153 -1440 -1885
-3403 -2073 -5560 -35 -395 -44 -635 -44 -1095 0 -460 9 -700 44 -1095 239
-2750 1366 -5168 3059 -6567 805 -665 1701 -1058 2665 -1169 256 -30 704 -30
960 0 345 40 623 100 950 208 1002 329 1929 1005 2701 1968 1153 1440 1885
3403 2073 5560 35 393 44 634 44 1090 1 866 -69 1604 -228 2407 -494 2492
-1736 4558 -3394 5642 -671 438 -1396 704 -2141 786 -207 22 -539 31 -735 20z
m684 -615 c826 -94 1615 -445 2336 -1039 290 -238 629 -583 881 -897 1076
-1335 1771 -3186 1954 -5204 36 -400 45 -605 45 -1095 0 -490 -9 -695 -45
-1095 -196 -2161 -981 -4131 -2178 -5467 -68 -76 -125 -138 -128 -138 -3 0 21
33 54 73 432 533 801 1205 1052 1917 498 1414 563 3055 179 4530 -560 2152
-1996 3754 -3739 4169 -306 73 -581 105 -910 105 -255 0 -403 -12 -635 -50
-255 -42 -490 -104 -725 -190 -9 -4 9 -15 45 -28 174 -67 378 -188 533 -318
l93 -78 122 21 c1011 172 2003 -115 2867 -830 150 -123 458 -433 590 -590 624
-752 1056 -1686 1269 -2748 264 -1310 152 -2746 -305 -3934 -37 -96 -67 -187
-67 -204 0 -16 7 -70 16 -119 21 -111 22 -313 1 -421 -8 -44 -19 -116 -25
-160 -54 -446 -358 -828 -777 -979 -148 -53 -203 -61 -407 -61 -177 0 -197 2
-290 28 -218 61 -376 151 -530 302 -299 294 -411 659 -337 1105 39 230 43 253
69 335 60 190 152 338 302 485 161 158 324 251 538 306 133 35 356 44 488 20
179 -33 349 -104 494 -206 78 -56 210 -183 251 -243 39 -58 33 -75 75 193 146
916 70 1869 -217 2725 -329 982 -924 1802 -1673 2305 -390 262 -832 438 -1280
510 -173 28 -418 43 -580 35 -207 -9 -196 -5 -234 -83 -37 -76 -123 -210 -186
-292 -342 -444 -909 -720 -1479 -720 -79 0 -330 25 -346 35 -8 5 -155 -157
-263 -290 -334 -413 -618 -941 -805 -1500 -386 -1152 -386 -2468 0 -3620 163
-486 388 -930 678 -1335 l32 -45 -46 50 c-980 1056 -1557 2668 -1556 4350 1
1079 229 2105 677 3036 l75 157 -42 68 c-92 153 -178 362 -215 529 -10 44 -21
83 -25 87 -15 19 -296 -497 -417 -765 -863 -1918 -867 -4291 -9 -6214 25 -57
71 -153 102 -215 70 -141 59 -130 -43 42 -183 309 -318 568 -463 890 -471
1048 -769 2209 -880 3435 -36 400 -45 605 -45 1095 0 490 9 695 45 1095 183
2017 879 3871 1954 5204 252 314 591 659 881 897 780 642 1632 997 2540 1058
120 8 533 -4 664 -19z"/>
<path d="M31865 34580 c-1441 -82 -2808 -855 -3881 -2195 -1153 -1440 -1885
-3403 -2073 -5560 -35 -395 -44 -635 -44 -1095 0 -460 9 -700 44 -1095 239
-2750 1366 -5168 3059 -6567 805 -665 1701 -1058 2665 -1169 256 -30 704 -30
960 0 345 40 623 100 950 208 1002 329 1929 1005 2701 1968 1153 1440 1885
3403 2073 5560 35 393 44 634 44 1090 1 866 -69 1604 -228 2407 -494 2492
-1736 4558 -3394 5642 -671 438 -1396 704 -2141 786 -207 22 -539 31 -735 20z
m684 -615 c826 -94 1615 -445 2336 -1039 290 -238 629 -583 881 -897 1076
-1335 1771 -3186 1954 -5204 36 -400 45 -605 45 -1095 0 -490 -9 -695 -45
-1095 -196 -2161 -981 -4131 -2178 -5467 -68 -76 -125 -138 -128 -138 -3 0 21
33 54 73 432 533 801 1205 1052 1917 498 1414 563 3055 179 4530 -560 2152
-1996 3754 -3739 4169 -337 81 -803 126 -1068 104 l-93 -8 88 -65 c166 -121
347 -314 446 -472 37 -59 46 -67 72 -68 59 0 331 -50 465 -84 525 -134 1016
-391 1480 -775 150 -123 458 -433 590 -590 905 -1089 1410 -2586 1410 -4181 0
-1375 -379 -2695 -1072 -3728 -111 -166 -359 -492 -374 -492 -1 0 34 57 78
128 210 335 375 687 506 1077 386 1152 386 2468 0 3620 -329 982 -924 1802
-1673 2305 -458 307 -1024 508 -1510 536 l-110 7 -80 -83 c-452 -465 -1113
-664 -1743 -524 l-114 25 -39 -27 c-208 -144 -540 -457 -727 -684 -373 -455
-653 -968 -850 -1555 -386 -1152 -386 -2468 0 -3620 163 -486 388 -930 678
-1335 l32 -45 -46 50 c-382 411 -733 957 -983 1530 -713 1628 -763 3610 -136
5295 196 526 442 989 760 1427 l74 102 -30 98 c-61 195 -100 472 -88 622 l5
66 -60 -65 c-523 -569 -978 -1349 -1268 -2170 -568 -1615 -568 -3505 0 -5120
91 -256 208 -536 316 -752 70 -141 59 -130 -43 42 -183 309 -318 568 -463 890
-471 1048 -769 2209 -880 3435 -36 400 -45 605 -45 1095 0 490 9 695 45 1095
183 2017 879 3871 1954 5204 252 314 591 659 881 897 780 642 1632 997 2540
1058 120 8 533 -4 664 -19z m-2286 -12426 c418 -85 754 -383 891 -791 95 -282
69 -633 -67 -903 -112 -224 -325 -432 -552 -539 -283 -135 -631 -150 -918 -42
-660 249 -963 1001 -657 1631 58 119 115 200 210 298 106 111 188 174 310 236
187 96 326 129 538 130 108 1 169 -4 245 -20z"/>
</g>
</svg>
