<?xml version="1.0" standalone="no"?>
<!DOCTYPE svg PUBLIC "-//W3C//DTD SVG 20010904//EN"
 "http://www.w3.org/TR/2001/REC-SVG-20010904/DTD/svg10.dtd">
<svg version="1.0" xmlns="http://www.w3.org/2000/svg"
 width="5000.000000pt" height="5000.000000pt" viewBox="0 0 5000.000000 5000.000000"
 preserveAspectRatio="xMidYMid meet">

<g transform="translate(0.000000,5000.000000) scale(0.100000,-0.100000)"
fill="#000000" stroke="none">
<path d="M2751 49958 c-10 -24 -26 -68 -35 -98 -10 -30 -30 -89 -46 -130 -16
-41 -37 -102 -48 -135 -11 -33 -41 -118 -67 -190 -68 -190 -110 -310 -140
-400 -15 -44 -36 -102 -48 -130 -11 -27 -31 -81 -43 -120 -13 -38 -44 -128
-69 -200 -26 -71 -61 -173 -80 -225 -18 -52 -54 -153 -80 -225 -26 -71 -61
-173 -79 -225 -45 -128 -95 -268 -151 -425 -26 -71 -60 -168 -75 -215 -16 -47
-52 -148 -80 -225 -29 -77 -65 -178 -80 -225 -27 -80 -52 -150 -145 -410 -47
-133 -116 -328 -159 -450 -67 -190 -116 -327 -156 -440 -22 -63 -58 -164 -79
-225 -43 -123 -88 -248 -156 -440 -25 -71 -61 -173 -80 -225 -34 -99 -72 -205
-150 -425 -26 -71 -62 -175 -81 -230 -69 -197 -103 -292 -149 -420 -25 -71
-62 -175 -81 -230 -71 -201 -103 -293 -149 -420 -26 -71 -61 -173 -79 -225
-39 -112 -92 -261 -135 -381 l-31 -86 2 -994 3 -994 69 155 c38 85 100 225
138 310 38 85 80 178 93 205 13 28 50 111 83 185 33 74 74 167 92 205 28 60
153 339 395 880 35 77 74 165 88 195 14 30 54 120 90 200 36 80 106 237 157
350 51 113 129 288 175 390 136 303 211 471 240 535 16 33 56 123 90 200 35
77 104 232 155 345 51 113 121 268 155 345 35 77 74 165 88 195 14 30 54 120
90 200 36 80 106 237 157 350 51 113 129 288 175 390 142 319 212 473 245 545
18 39 56 124 85 190 93 210 206 459 210 464 22 22 337 -287 476 -467 149 -193
162 -214 151 -246 -6 -17 -55 -130 -110 -251 -54 -121 -123 -274 -152 -340
-29 -66 -61 -129 -69 -139 -9 -10 -45 -38 -81 -62 -36 -23 -85 -62 -110 -85
-25 -23 -70 -61 -100 -84 -112 -87 -518 -504 -579 -594 -14 -20 -48 -63 -76
-96 -29 -33 -65 -78 -81 -101 -44 -62 -117 -158 -124 -164 -4 -3 -15 -21 -25
-40 -10 -19 -32 -53 -50 -75 -28 -35 -144 -210 -263 -395 -19 -30 -43 -66 -52
-80 -10 -15 -30 -48 -44 -75 -15 -28 -42 -75 -61 -105 -19 -30 -46 -77 -61
-105 -14 -27 -38 -72 -53 -100 -53 -93 -210 -410 -241 -485 -18 -41 -40 -93
-49 -115 -10 -22 -39 -94 -65 -160 -26 -66 -54 -134 -62 -152 -8 -17 -14 -36
-14 -43 0 -6 -12 -37 -26 -68 -40 -88 -41 -91 -69 -187 -14 -49 -30 -99 -35
-110 -14 -31 -37 -106 -45 -145 -3 -19 -10 -44 -15 -55 -16 -37 -50 -158 -50
-179 0 -12 -10 -52 -21 -91 -11 -38 -26 -109 -33 -157 -8 -48 -19 -102 -25
-120 -6 -18 -16 -71 -22 -118 -5 -47 -16 -134 -23 -195 -7 -60 -17 -126 -21
-145 -4 -19 -9 -64 -10 -100 -1 -36 -8 -128 -15 -205 -16 -183 -19 -245 -26
-590 l-6 -290 -53 -120 c-29 -66 -106 -237 -170 -380 -65 -143 -155 -343 -200
-445 -138 -309 -215 -480 -266 -592 l-49 -108 2 -3086 3 -3086 1060 1707 c583
940 1063 1713 1067 1719 4 6 22 -7 45 -34 53 -64 170 -187 223 -234 24 -23 58
-55 75 -72 44 -45 214 -195 258 -229 24 -17 37 -34 34 -44 -2 -9 -626 -1017
-1386 -2241 l-1381 -2225 0 -2125 c0 -1782 2 -2121 13 -2105 8 11 26 43 42 70
15 28 52 92 82 142 29 51 79 137 110 190 31 54 77 134 103 178 26 44 57 99 69
122 11 23 34 61 50 85 17 25 45 72 63 105 37 68 115 202 161 278 17 28 50 85
73 128 24 44 48 85 54 92 6 7 30 48 54 92 24 43 64 114 91 158 46 76 81 136
210 360 32 55 79 136 105 180 26 44 57 99 69 122 11 23 34 61 49 85 16 24 45
71 63 104 39 70 117 205 162 279 17 28 49 84 72 126 23 42 51 89 62 105 11 16
33 54 48 84 15 30 40 73 55 95 15 22 43 69 62 105 20 36 56 99 81 140 24 41
70 119 101 172 132 229 169 293 220 380 29 51 64 112 77 135 30 53 112 192
152 258 17 28 49 84 72 125 23 41 57 101 76 132 70 118 103 175 144 248 23 41
62 109 87 150 42 70 80 135 215 367 29 51 77 135 107 185 29 51 64 112 77 135
13 23 46 80 73 125 27 46 74 126 104 178 30 52 69 118 85 145 17 28 44 73 60
100 16 28 26 41 22 30 -4 -11 -13 -54 -21 -95 -7 -41 -17 -97 -23 -125 -5 -27
-15 -150 -22 -272 -13 -245 -1 -575 26 -708 8 -38 22 -108 31 -155 17 -86 77
-313 94 -353 5 -12 29 -76 54 -142 72 -195 180 -397 320 -600 101 -146 389
-407 533 -482 29 -16 53 -33 53 -40 0 -6 -22 -40 -48 -75 -27 -35 -62 -83 -78
-108 -16 -25 -50 -72 -75 -105 -25 -33 -62 -85 -83 -115 -44 -67 -137 -198
-191 -270 -21 -29 -56 -79 -77 -109 -21 -31 -67 -96 -103 -146 -35 -49 -96
-135 -134 -190 -39 -55 -90 -125 -113 -156 -135 -176 -399 -546 -541 -759 -43
-63 -111 -162 -152 -220 -42 -58 -98 -139 -126 -180 -28 -41 -59 -84 -69 -95
-18 -20 -102 -139 -199 -281 -26 -40 -64 -92 -83 -115 -19 -24 -56 -75 -82
-114 -26 -38 -78 -113 -116 -165 -37 -52 -98 -138 -135 -190 -37 -52 -94 -134
-128 -182 -34 -47 -96 -134 -137 -192 -41 -58 -103 -145 -138 -193 -34 -49
-84 -121 -111 -161 -27 -39 -64 -91 -83 -114 -32 -40 -85 -116 -186 -263 -26
-38 -66 -95 -89 -125 -47 -63 -110 -151 -188 -265 -31 -44 -91 -129 -135 -190
-44 -60 -104 -146 -135 -190 -30 -44 -91 -129 -135 -190 -44 -60 -105 -146
-135 -190 -119 -171 -169 -242 -210 -295 -23 -30 -58 -80 -78 -110 -46 -68
-139 -199 -192 -270 -21 -29 -56 -79 -77 -109 -21 -31 -65 -94 -98 -141 l-60
-85 0 -1988 0 -1988 48 63 c27 35 65 88 85 118 20 30 73 105 116 165 44 61
105 146 136 190 30 44 89 127 130 185 41 58 102 143 135 190 33 47 94 132 135
190 42 58 98 139 126 180 28 41 59 84 69 95 18 20 102 139 199 281 26 40 64
92 83 115 19 24 56 76 82 114 26 39 78 113 116 165 37 52 98 138 135 190 37
52 94 134 128 182 34 47 95 133 135 190 39 56 83 116 96 132 l24 29 16 -53 c9
-30 16 -61 16 -71 0 -17 55 -203 91 -309 53 -158 97 -278 111 -305 8 -16 21
-48 28 -70 11 -37 117 -276 141 -319 6 -10 39 -73 73 -140 132 -254 365 -637
463 -759 21 -27 57 -74 81 -105 207 -272 621 -664 834 -789 31 -18 69 -44 85
-57 16 -13 66 -44 113 -68 47 -25 113 -60 147 -79 l61 -34 -89 -150 c-48 -83
-97 -163 -107 -180 -10 -16 -79 -131 -152 -255 -73 -124 -145 -244 -159 -267
-14 -22 -33 -54 -42 -70 -9 -15 -68 -113 -131 -218 -63 -104 -215 -359 -338
-565 -123 -206 -276 -463 -341 -571 -65 -107 -126 -209 -136 -227 -19 -32
-333 -558 -596 -997 -83 -137 -160 -272 -173 -300 -74 -163 -72 -360 7 -518
87 -176 209 -273 429 -339 117 -35 115 -35 910 -43 631 -5 1112 -14 1118 -20
2 -1 -6 -72 -17 -156 -54 -412 -74 -861 -51 -1134 6 -66 19 -248 31 -405 11
-157 27 -314 35 -349 8 -35 21 -105 29 -155 40 -256 110 -575 181 -828 6 -22
-15 -23 -161 -8 -126 12 -337 28 -530 41 -82 5 -206 13 -275 19 -69 5 -228 16
-355 25 -126 9 -284 20 -350 25 -66 5 -221 16 -345 24 -124 9 -247 18 -275 21
-27 2 -156 12 -285 20 -129 8 -287 20 -350 25 -63 5 -162 12 -220 16 -58 3
-130 8 -160 10 -112 9 -331 25 -540 39 -118 8 -273 19 -345 25 -338 26 -392
29 -422 30 l-33 0 0 -1155 c0 -917 3 -1155 13 -1155 18 -1 469 -33 632 -46
142 -10 346 -25 565 -40 124 -8 277 -19 340 -24 63 -5 219 -16 345 -25 127 -8
282 -19 345 -24 63 -5 192 -14 285 -20 94 -6 226 -15 295 -21 275 -22 380 -30
480 -35 58 -3 155 -10 215 -15 138 -12 355 -28 550 -41 250 -16 572 -38 710
-49 72 -6 227 -17 345 -25 222 -15 394 -28 610 -45 69 -5 141 -10 160 -10 29
0 47 -11 110 -71 167 -157 421 -365 570 -466 487 -329 935 -499 1590 -602 391
-61 615 -81 926 -81 334 0 610 35 941 121 636 164 1062 344 1470 622 l103 70
92 -7 c51 -3 152 -10 223 -16 149 -12 535 -39 673 -47 57 -3 95 -10 97 -17 1
-6 8 -65 15 -131 14 -149 65 -413 132 -695 52 -222 121 -481 137 -522 6 -13
31 -93 57 -178 26 -85 49 -161 52 -168 3 -10 -46 -11 -244 -7 -137 2 -591 7
-1009 10 -418 3 -924 7 -1125 10 -201 3 -657 7 -1015 10 -357 3 -848 7 -1090
10 -242 3 -726 7 -1075 10 -349 3 -819 7 -1045 10 -225 3 -716 7 -1090 10
-374 3 -855 7 -1070 10 -214 3 -705 7 -1090 10 -385 3 -846 7 -1025 10 -179 2
-698 7 -1155 10 -456 4 -878 8 -937 10 l-108 3 0 -2149 0 -2149 58 26 c31 15
66 28 77 31 11 2 313 -7 670 -21 358 -14 720 -28 805 -31 85 -3 443 -17 795
-30 352 -13 712 -27 800 -30 88 -3 450 -16 805 -30 355 -13 715 -27 800 -30
85 -3 448 -16 805 -30 358 -14 720 -27 805 -30 85 -3 385 -14 665 -25 504 -19
642 -24 945 -35 85 -3 322 -12 525 -20 204 -8 374 -15 380 -15 5 0 -24 -32
-65 -71 -94 -89 -668 -647 -1205 -1170 -93 -91 -195 -189 -225 -217 l-55 -52
3455 0 3455 0 192 168 c105 92 283 246 394 342 111 96 278 240 369 320 92 80
259 224 370 320 112 96 281 243 376 325 95 83 261 227 369 320 109 94 275 238
370 320 425 370 425 370 464 369 20 0 110 -10 201 -22 451 -60 802 -60 1213
-2 139 20 168 26 395 81 516 125 1170 434 1554 734 28 22 77 60 109 85 315
244 808 707 1020 955 167 196 196 231 251 305 31 41 69 92 86 113 l30 38 6
-28 c3 -15 10 -66 16 -113 56 -451 107 -659 245 -1000 33 -80 160 -334 207
-414 l36 -60 -77 -44 c-42 -25 -112 -65 -156 -90 -44 -24 -99 -57 -122 -73
-23 -16 -44 -29 -47 -29 -4 0 -57 -30 -119 -66 -61 -37 -155 -92 -207 -122
-52 -30 -126 -75 -165 -98 -38 -24 -97 -58 -130 -75 -33 -17 -82 -46 -110 -64
-27 -18 -75 -45 -105 -62 -30 -16 -77 -43 -105 -60 -170 -102 -218 -130 -285
-168 -41 -23 -97 -55 -125 -72 -27 -16 -95 -56 -150 -88 -55 -32 -134 -78
-175 -103 -41 -25 -109 -64 -150 -87 -41 -23 -97 -55 -125 -72 -47 -28 -160
-95 -300 -175 -33 -19 -82 -49 -110 -65 -27 -17 -95 -56 -150 -88 -55 -32
-134 -78 -175 -103 -41 -24 -100 -58 -130 -74 -30 -17 -82 -47 -115 -68 -33
-20 -94 -56 -135 -80 -184 -105 -257 -148 -292 -171 -20 -13 -69 -42 -108 -64
-110 -61 -271 -155 -400 -233 -41 -25 -110 -65 -153 -88 -44 -24 -85 -48 -92
-54 -7 -6 -48 -30 -92 -54 -43 -23 -100 -56 -128 -73 -173 -104 -218 -130
-285 -168 -41 -23 -97 -55 -125 -72 -58 -35 -185 -110 -229 -135 -29 -17 79
-18 2367 -18 l2398 0 181 168 c99 92 242 223 317 291 75 68 138 126 141 130 5
6 284 265 444 411 46 41 143 131 217 199 204 190 244 226 379 350 175 161 347
321 458 425 94 88 95 88 136 82 156 -23 236 -29 431 -30 227 0 346 11 575 55
406 77 726 221 1100 494 64 46 286 239 345 299 231 235 428 541 519 806 16 47
30 86 31 87 1 2 38 -8 83 -21 75 -23 318 -82 385 -93 53 -10 65 4 -226 -264
-93 -84 -213 -194 -267 -244 -116 -107 -299 -276 -465 -430 -66 -62 -154 -143
-196 -181 -42 -38 -156 -143 -254 -234 -97 -91 -217 -201 -265 -245 -106 -97
-293 -270 -455 -420 -66 -61 -171 -158 -233 -216 -63 -57 -160 -147 -217 -199
-57 -52 -179 -165 -271 -250 -93 -85 -173 -159 -179 -166 -5 -6 -64 -60 -130
-119 -66 -60 -156 -143 -200 -184 -44 -42 -163 -153 -265 -246 -102 -94 -205
-189 -230 -212 l-45 -43 990 1 990 0 141 187 c160 214 883 1174 1236 1643 207
275 247 323 310 371 86 66 114 80 192 103 62 18 141 17 1051 -10 94 -3 357
-10 585 -15 228 -5 471 -12 540 -15 69 -2 262 -7 430 -10 168 -3 325 -8 350
-11 76 -9 137 -33 228 -93 93 -61 95 -64 212 -216 41 -54 102 -133 135 -176
33 -42 85 -110 115 -149 30 -40 75 -98 100 -130 25 -32 69 -89 98 -126 28 -38
113 -148 187 -244 75 -96 159 -206 188 -244 28 -37 72 -94 97 -126 25 -32 69
-89 98 -126 28 -38 113 -148 187 -244 75 -96 159 -206 188 -244 28 -38 63 -81
75 -97 l24 -29 1094 0 1095 0 -108 91 c-59 50 -157 132 -217 182 -61 51 -145
121 -187 157 -42 36 -125 106 -185 155 -59 50 -142 119 -185 155 -42 36 -125
106 -184 155 -59 50 -142 119 -185 155 -42 36 -125 106 -185 155 -59 50 -145
122 -190 160 -45 39 -142 120 -216 181 -74 61 -181 151 -239 200 -332 279
-481 403 -625 523 -88 73 -163 136 -167 140 -4 3 68 7 160 7 353 3 788 57
1147 143 132 31 247 61 298 77 l47 16 43 -33 c23 -18 76 -63 118 -99 42 -36
136 -115 210 -176 74 -61 181 -151 239 -200 315 -264 473 -397 558 -469 52
-44 112 -93 132 -110 21 -16 104 -86 185 -155 82 -69 162 -136 179 -150 17
-13 65 -54 107 -90 42 -36 122 -103 179 -150 56 -47 140 -116 185 -155 45 -38
104 -88 130 -110 55 -45 271 -226 580 -485 114 -96 234 -196 266 -222 l58 -48
1427 0 1427 0 -27 21 c-15 12 -62 42 -106 68 -78 46 -157 95 -322 200 -48 31
-135 85 -193 121 -58 36 -148 92 -200 125 -52 33 -130 82 -172 108 -102 64
-276 172 -388 242 -49 31 -139 87 -200 125 -144 90 -269 168 -380 239 -49 32
-101 64 -115 71 -14 7 -61 36 -105 65 -86 56 -141 90 -250 156 -38 24 -109 68
-156 98 -48 31 -129 82 -180 114 -52 32 -143 89 -204 127 -60 38 -152 95 -203
127 -51 32 -128 81 -172 108 -43 28 -133 84 -200 125 -66 41 -156 98 -200 125
-43 28 -126 79 -184 115 -104 64 -252 157 -351 221 -27 18 -81 51 -120 74 -38
22 -106 64 -150 92 -90 58 -234 149 -312 196 l-52 32 95 55 c315 182 599 379
824 573 131 114 399 384 497 503 132 158 299 393 395 554 184 310 398 769 501
1075 23 67 25 70 58 74 19 2 90 -2 159 -8 237 -20 386 -32 540 -41 85 -6 211
-14 280 -20 69 -5 229 -16 355 -25 127 -9 284 -20 350 -25 66 -4 192 -13 280
-19 88 -6 214 -15 280 -21 66 -5 221 -17 345 -25 124 -8 284 -20 355 -25 72
-6 204 -16 295 -21 91 -6 215 -14 275 -19 61 -4 184 -13 275 -19 91 -6 221
-15 290 -21 69 -5 184 -15 255 -20 72 -6 200 -15 285 -20 85 -6 211 -14 280
-20 69 -5 229 -16 355 -25 127 -9 284 -20 350 -25 66 -4 192 -13 280 -19 88
-6 212 -15 275 -21 63 -5 162 -12 220 -16 58 -3 130 -8 160 -10 122 -10 324
-24 475 -33 151 -10 232 -16 540 -41 72 -6 202 -15 290 -20 88 -6 216 -15 285
-20 160 -13 537 -39 660 -47 429 -26 866 226 1070 618 172 331 172 745 -1
1069 -23 41 -63 118 -90 170 -27 52 -76 147 -110 210 -33 63 -82 156 -108 205
-26 50 -72 137 -103 195 -30 58 -80 152 -110 210 -30 58 -79 150 -108 205 -29
55 -76 145 -105 200 -29 55 -76 145 -105 200 -29 55 -74 141 -100 190 -55 105
-127 242 -197 375 -28 52 -132 250 -233 440 -100 190 -193 367 -207 394 l-24
49 36 121 c149 492 243 882 300 1242 8 50 21 120 29 155 8 35 24 192 35 349
12 157 25 339 31 405 30 348 -10 916 -108 1550 l-8 50 74 48 c41 26 98 60 126
74 28 14 64 35 80 46 16 11 63 39 105 62 42 23 99 55 126 72 173 104 218 130
285 168 41 23 98 55 125 72 28 16 93 55 145 85 52 30 131 77 175 103 44 27
114 67 155 90 41 23 98 55 125 72 47 28 160 95 300 175 33 19 83 49 110 65 28
17 93 55 145 85 52 30 128 75 168 99 41 24 92 55 115 68 23 13 83 47 132 76
200 116 293 170 360 211 39 24 97 58 130 75 33 17 73 41 89 52 16 11 63 39
105 62 42 23 99 55 126 72 173 104 218 130 285 168 41 23 98 55 125 72 28 16
93 55 145 85 52 30 131 77 175 103 44 27 114 67 155 90 41 23 98 55 125 72 28
17 71 42 98 57 l47 27 0 721 0 720 -22 -5 c-13 -3 -90 -31 -173 -62 -198 -74
-202 -76 -330 -123 -60 -22 -141 -52 -180 -67 -38 -14 -142 -53 -230 -85 -88
-32 -245 -91 -350 -130 -104 -39 -255 -95 -335 -125 -80 -29 -237 -88 -350
-130 -113 -42 -270 -101 -350 -130 -80 -30 -237 -88 -350 -130 -113 -42 -272
-102 -355 -132 -82 -30 -179 -66 -215 -80 -36 -13 -112 -42 -170 -63 -58 -21
-136 -50 -175 -65 -38 -14 -119 -45 -180 -67 -60 -22 -137 -51 -170 -63 -33
-12 -112 -42 -175 -65 -63 -24 -142 -53 -175 -65 -33 -12 -112 -42 -175 -65
-63 -24 -142 -53 -175 -65 -33 -12 -109 -41 -170 -63 -60 -23 -140 -52 -177
-66 -37 -14 -70 -21 -72 -17 -3 5 -28 64 -55 132 -49 126 -114 277 -192 449
-41 91 -200 392 -261 494 -16 27 -27 49 -26 50 3 2 36 14 178 66 58 21 137 50
175 65 39 14 144 54 235 87 91 33 192 71 225 83 33 13 110 41 170 63 61 23
196 73 300 112 105 39 255 95 335 125 80 29 237 88 350 130 113 42 273 102
355 132 83 30 179 66 215 80 36 13 112 42 170 63 58 21 137 50 175 65 39 14
117 44 175 65 58 21 137 50 175 65 39 14 117 44 175 65 58 21 137 50 175 65
39 14 117 44 175 65 58 21 137 50 175 65 61 23 267 99 460 170 33 12 157 58
275 103 118 44 303 113 410 152 107 40 265 99 350 131 l155 58 3 385 c1 212 0
386 -4 386 -3 0 -144 -32 -312 -71 -169 -39 -336 -78 -372 -86 -36 -8 -81 -18
-100 -23 -19 -5 -64 -15 -100 -23 -214 -49 -715 -165 -829 -193 -35 -9 -91
-22 -125 -29 -87 -19 -160 -36 -436 -100 -352 -81 -616 -143 -645 -152 -13 -4
-7 8 23 42 23 26 52 66 66 89 13 23 53 85 88 138 123 189 220 355 324 554 34
67 67 130 73 140 20 37 129 279 136 304 6 20 73 185 81 198 1 2 39 12 85 22
151 36 292 69 404 95 61 15 128 30 150 35 22 4 69 15 105 23 36 8 146 34 245
57 99 23 227 52 285 66 114 27 166 39 340 79 63 15 169 40 235 55 66 16 157
37 203 47 l82 18 0 1272 c0 700 -1 1273 -3 1273 -2 0 -52 -9 -113 -21 -60 -11
-131 -24 -159 -29 -27 -5 -122 -22 -210 -39 -88 -17 -198 -37 -245 -45 -47 -8
-170 -31 -275 -51 -104 -20 -212 -40 -240 -45 -42 -7 -281 -51 -550 -101 -33
-6 -67 -13 -76 -15 -12 -3 -18 5 -22 28 -50 280 -167 838 -197 938 -6 19 -24
83 -40 143 l-28 107 21 5 c19 4 78 15 297 55 30 6 114 21 185 35 123 23 179
33 490 91 72 13 157 29 190 35 67 12 101 18 290 54 72 13 182 34 245 45 63 12
171 32 240 45 69 13 142 26 163 30 l37 6 0 181 0 180 -52 -6 c-29 -4 -168 -18
-308 -31 -140 -13 -392 -38 -560 -54 -168 -17 -420 -41 -560 -55 -140 -14
-343 -34 -450 -45 -107 -11 -231 -22 -275 -26 -44 -3 -90 -8 -101 -10 -19 -4
-27 9 -69 123 -119 318 -342 857 -407 987 -47 92 -47 92 19 99 246 25 547 55
1123 110 146 14 306 30 355 36 50 6 207 21 350 35 143 14 328 32 410 40 83 8
222 22 310 30 88 9 172 18 188 21 l27 6 0 1429 c0 786 -2 1429 -4 1429 -4 0
-184 -104 -401 -232 -115 -68 -408 -240 -655 -386 -80 -47 -194 -114 -255
-150 -60 -36 -130 -77 -155 -91 -159 -93 -266 -122 -377 -102 -135 24 -237 96
-316 223 -24 40 -131 219 -237 398 -106 179 -212 357 -235 395 -23 39 -123
205 -221 370 -178 300 -426 716 -622 1045 l-104 175 7 170 c8 188 -8 537 -30
650 -7 39 -16 88 -20 110 -3 22 -13 65 -22 95 -73 264 -120 383 -240 620 -109
214 -124 240 -182 318 -72 97 -394 379 -551 484 l-25 16 30 12 c17 7 44 16 60
20 128 33 199 55 251 79 34 16 76 32 93 36 17 3 33 11 36 16 13 20 34 7 63
-38 16 -27 96 -160 178 -298 81 -137 187 -315 234 -395 48 -80 174 -291 280
-470 106 -179 225 -379 265 -445 87 -146 258 -433 515 -865 106 -179 225 -379
265 -445 39 -66 138 -232 220 -370 82 -137 187 -315 235 -395 48 -80 133 -223
189 -317 57 -95 105 -173 108 -173 3 0 71 39 152 86 80 48 211 125 291 172 80
47 177 104 215 127 39 23 138 82 220 130 83 48 197 115 255 150 130 77 379
223 443 259 l47 28 0 600 c0 578 -1 599 -18 586 -20 -14 -228 -186 -552 -456
-107 -90 -218 -174 -247 -187 -28 -14 -83 -30 -121 -37 -140 -24 -272 23 -392
140 -68 65 -86 95 -741 1252 -369 652 -760 1342 -869 1535 -143 252 -196 353
-189 362 6 6 29 21 52 32 23 12 73 46 111 76 38 30 72 55 76 55 11 0 217 168
333 271 55 49 104 89 107 89 5 0 512 -887 660 -1155 12 -22 218 -385 457 -807
388 -685 437 -766 452 -755 16 12 229 188 659 546 l222 185 0 2118 0 2118
-207 -173 c-115 -96 -341 -283 -503 -417 -162 -134 -412 -341 -555 -459 -143
-118 -326 -270 -407 -338 -160 -134 -163 -133 -66 18 20 30 50 81 67 112 17
31 42 75 55 96 14 21 46 79 71 127 26 49 53 100 61 114 8 14 31 61 52 105 21
44 43 89 49 100 6 11 23 49 38 85 15 36 37 88 49 115 30 65 106 255 111 277 2
9 19 61 38 115 18 54 42 125 52 158 9 33 23 80 31 105 7 25 19 65 26 90 12 40
28 57 169 175 159 132 651 539 792 654 l77 64 0 613 c0 338 -2 614 -5 614 -4
0 -601 -499 -728 -608 -9 -8 -19 -13 -21 -11 -2 2 1 40 5 84 4 44 9 112 10
150 1 39 6 88 11 109 14 57 24 527 15 701 0 11 0 43 1 70 l2 50 355 300 355
300 0 1244 0 1244 -84 -7 c-158 -12 -292 -48 -433 -118 -121 -59 -201 -119
-379 -285 -87 -81 -186 -171 -220 -200 l-60 -52 -48 122 c-27 67 -57 140 -67
162 -9 22 -31 74 -49 115 -31 75 -188 392 -241 485 -15 28 -39 73 -53 100 -15
28 -42 75 -61 105 -19 30 -46 77 -61 105 -14 27 -34 60 -44 75 -9 14 -33 50
-52 80 -119 185 -235 360 -263 395 -18 22 -40 56 -50 75 -10 19 -21 37 -25 40
-7 6 -80 102 -124 164 -16 23 -52 68 -81 101 -28 33 -62 76 -76 96 -61 90
-467 507 -579 594 -30 23 -75 61 -100 84 -25 23 -74 62 -110 85 -36 24 -87 61
-113 83 -27 22 -61 47 -75 54 -15 8 -63 39 -107 70 -68 48 -122 82 -216 135
-10 6 -27 18 -36 26 -10 9 -45 29 -78 45 -33 16 -79 41 -102 56 -24 15 -73 42
-110 60 -38 18 -104 52 -148 74 -44 23 -106 53 -137 68 -36 17 -55 32 -51 39
4 6 36 45 72 86 142 163 352 356 501 462 129 91 385 206 610 273 203 60 234
76 260 131 26 54 19 103 -21 149 -78 88 -702 290 -1204 389 -489 96 -853 131
-1375 130 -927 -2 -1468 -87 -2004 -315 -257 -109 -573 -293 -736 -429 -98
-82 -334 -312 -444 -432 -54 -60 -103 -108 -110 -108 -6 -1 -29 -9 -51 -20
-22 -11 -46 -19 -54 -20 -18 0 -138 -44 -176 -64 -16 -9 -36 -16 -43 -16 -7 0
-56 -20 -108 -45 -51 -25 -98 -45 -103 -45 -21 0 -498 -242 -551 -280 -14 -9
-45 -28 -70 -40 -25 -12 -83 -48 -130 -78 -47 -31 -103 -67 -125 -81 -22 -14
-58 -39 -80 -56 -22 -17 -61 -43 -87 -58 -27 -15 -74 -49 -105 -75 -32 -26
-74 -58 -93 -69 -20 -12 -45 -30 -57 -40 -11 -10 -46 -40 -78 -68 -32 -27 -68
-56 -79 -64 -12 -8 -50 -43 -86 -77 -36 -34 -83 -78 -105 -96 -43 -37 -189
-182 -296 -294 -147 -154 -458 -518 -525 -614 -13 -19 -42 -60 -64 -90 -22
-30 -55 -76 -73 -103 -17 -26 -36 -46 -42 -44 -5 2 -29 32 -53 68 -23 35 -67
100 -97 144 -77 113 -153 226 -205 306 -25 37 -112 168 -195 290 -82 121 -168
249 -190 284 -22 34 -55 82 -73 106 -29 40 -209 308 -322 479 -40 61 -277 415
-342 510 -13 19 -44 64 -68 100 -24 36 -75 112 -114 169 -39 57 -81 120 -93
140 -12 20 -47 72 -77 116 -77 111 -156 228 -191 284 -16 26 -48 72 -70 102
-22 30 -55 79 -73 109 -18 30 -47 73 -63 95 -27 36 -83 120 -189 280 -19 30
-75 113 -125 186 -94 138 -173 256 -238 355 -22 33 -49 73 -60 89 -44 63 -184
270 -220 329 -21 34 -51 76 -65 95 -15 19 -45 63 -67 97 -22 35 -80 123 -130
195 -49 73 -107 160 -128 193 -21 34 -52 79 -68 101 -17 22 -49 69 -73 105
-23 36 -105 157 -181 270 -76 113 -147 219 -159 237 l-21 32 -1332 1 -1333 0
-56 -117 c-31 -65 -77 -161 -101 -213 -43 -90 -95 -201 -183 -385 -67 -140
-171 -361 -345 -730 -65 -137 -140 -296 -167 -352 -210 -442 -241 -507 -294
-618 -25 -55 -69 -147 -97 -205 -27 -58 -71 -150 -97 -205 -26 -55 -68 -144
-94 -197 -25 -54 -67 -142 -92 -195 -25 -54 -63 -134 -84 -178 -21 -44 -138
-291 -261 -550 -122 -258 -243 -515 -270 -570 -66 -139 -134 -285 -147 -317
-10 -25 -14 -27 -39 -17 -15 6 -35 12 -43 15 -8 2 -53 17 -100 35 -47 17 -98
34 -115 39 -16 4 -47 14 -67 23 -21 9 -38 14 -38 11 0 -3 -8 0 -18 5 -11 6
-52 19 -93 31 -41 11 -99 28 -129 36 -30 9 -68 18 -83 20 -15 2 -35 8 -45 13
-9 5 -30 11 -47 14 -16 3 -68 15 -115 26 -47 12 -97 24 -111 26 -14 1 -43 8
-65 14 -21 6 -91 20 -154 31 -63 11 -137 25 -165 30 -42 8 -134 20 -270 35
-16 2 -52 6 -80 10 -165 19 -614 26 -686 11 -33 -8 -38 -6 -51 20 -8 16 -97
184 -197 374 -100 190 -220 417 -266 505 -46 88 -118 225 -160 305 -42 80
-101 192 -132 250 -60 116 -121 230 -205 390 -30 58 -80 152 -110 210 -30 58
-77 148 -105 200 -28 52 -76 145 -108 205 -32 61 -80 153 -108 205 -28 52 -69
131 -92 175 -23 44 -64 123 -92 175 -78 145 -519 984 -569 1080 -24 47 -72
139 -106 205 l-63 120 -2405 3 -2405 2 -18 -22 c-10 -13 -45 -61 -78 -108 -33
-47 -93 -132 -134 -190 -42 -58 -98 -139 -126 -180 -28 -41 -59 -84 -69 -95
-18 -20 -106 -144 -201 -285 -28 -41 -59 -84 -68 -95 -10 -11 -47 -61 -82
-112 -64 -93 -120 -171 -259 -367 -41 -58 -102 -144 -135 -190 -113 -160 -206
-291 -271 -381 -35 -49 -86 -122 -112 -160 -26 -39 -68 -98 -93 -130 -25 -33
-59 -80 -75 -105 -47 -70 -140 -201 -305 -429 -34 -46 -77 -107 -95 -135 -19
-28 -70 -100 -114 -161 -44 -60 -104 -146 -135 -190 -30 -44 -91 -129 -135
-190 -44 -60 -105 -146 -135 -190 -91 -131 -168 -239 -210 -295 -21 -29 -56
-79 -77 -109 -21 -31 -67 -96 -103 -146 -35 -49 -95 -134 -132 -188 l-68 -99
-40 6 c-22 2 -65 10 -95 15 -56 11 -95 17 -300 46 -118 17 -630 26 -716 13
-95 -15 -122 -19 -174 -29 -270 -51 -700 -212 -882 -330 -72 -47 -130 -84
-153 -99 -79 -50 -240 -179 -318 -253 -13 -12 -51 -48 -85 -80 -68 -64 -205
-212 -230 -249 -9 -13 -25 -32 -35 -43 -10 -11 -33 -40 -50 -65 -17 -25 -33
-47 -37 -50 -6 -6 -83 -123 -128 -195 -37 -61 -142 -266 -142 -280 0 -5 -12
-32 -25 -60 -14 -27 -25 -55 -25 -60 0 -6 -9 -28 -20 -50 -11 -22 -20 -46 -20
-55 0 -9 -4 -20 -9 -25 -10 -10 -31 -81 -58 -192 -16 -68 -28 -78 -44 -37 -5
15 -33 63 -63 108 -29 44 -88 140 -132 211 -43 72 -95 153 -116 182 -21 29
-38 54 -38 57 0 6 -88 128 -145 203 -22 28 -51 68 -65 88 -184 265 -521 659
-774 905 l-78 76 45 80 c24 43 59 105 78 136 80 135 104 177 144 249 23 42 51
89 62 105 11 16 36 58 55 94 20 36 56 99 81 140 24 41 70 120 102 175 32 55
79 136 105 180 26 44 60 103 75 130 31 58 90 161 170 295 31 52 84 142 117
200 34 58 74 128 91 155 17 28 50 85 73 128 24 44 48 85 54 92 6 7 30 48 54
92 24 43 64 114 91 158 26 44 73 123 103 175 30 52 76 131 102 175 26 44 60
103 75 130 31 58 90 161 170 295 31 52 84 142 117 200 34 58 74 128 91 155 17
28 50 85 73 128 24 44 48 85 54 92 6 7 30 48 54 92 24 43 64 114 91 158 26 44
73 123 103 175 99 171 159 274 183 317 13 23 41 72 63 110 21 37 53 93 71 123
l33 55 -841 3 c-665 2 -844 -1 -853 -10 -7 -7 -539 -863 -1184 -1902 -644
-1038 -1178 -1899 -1187 -1912 l-16 -24 -41 25 c-22 14 -75 41 -116 61 -41 19
-114 55 -162 80 -49 24 -92 44 -98 44 -6 0 -53 20 -104 45 -52 25 -101 45
-108 45 -7 0 -29 8 -48 19 -19 10 -52 24 -73 31 -22 7 -36 17 -34 24 3 6 485
786 1072 1731 587 946 1069 1726 1072 1733 4 9 -586 12 -2931 12 l-2936 0 -24
-52 c-62 -136 -216 -480 -286 -638 -43 -96 -115 -256 -160 -355 -45 -99 -106
-236 -136 -304 -31 -68 -68 -153 -85 -188 -16 -35 -48 -105 -70 -156 -22 -50
-44 -95 -48 -99 -4 -4 -94 -12 -201 -18 -233 -12 -455 -33 -644 -61 -76 -11
-140 -18 -142 -17 -1 2 47 113 108 248 60 135 136 304 168 375 32 72 69 155
83 185 14 30 54 120 90 200 36 80 103 231 150 335 47 105 121 270 165 368 l80
177 -820 0 -819 0 -18 -42z m19133 -511 c11 -17 41 -72 66 -122 26 -49 177
-335 334 -635 158 -300 312 -592 343 -650 30 -58 76 -145 102 -195 133 -253
165 -313 214 -408 30 -56 78 -147 107 -202 29 -55 77 -147 108 -205 71 -137
125 -240 197 -375 32 -60 79 -150 105 -200 26 -49 72 -137 103 -195 30 -58
130 -247 221 -420 186 -353 182 -331 58 -310 -324 55 -770 70 -1067 35 -27 -4
-63 -8 -80 -10 -136 -15 -228 -27 -270 -35 -27 -5 -102 -19 -165 -30 -63 -11
-133 -25 -154 -31 -22 -6 -51 -13 -65 -14 -14 -2 -64 -14 -111 -26 -47 -11
-98 -23 -115 -26 -16 -3 -38 -9 -47 -14 -10 -5 -30 -11 -45 -13 -15 -2 -53
-11 -83 -20 -30 -8 -88 -25 -129 -36 -41 -12 -82 -25 -93 -31 -10 -5 -18 -8
-18 -5 0 3 -17 -2 -37 -11 -21 -9 -51 -19 -68 -23 -16 -5 -68 -22 -115 -39
-47 -18 -92 -33 -101 -36 -9 -2 -38 -12 -65 -23 -134 -54 -215 -86 -272 -108
-149 -55 -679 -323 -817 -413 -22 -14 -47 -30 -56 -36 -9 -5 -36 -23 -60 -40
-24 -16 -52 -34 -61 -40 -17 -10 -137 -94 -188 -130 -183 -132 -236 -171 -273
-203 -24 -20 -75 -62 -112 -92 -208 -168 -472 -414 -600 -560 -95 -108 -124
-138 -129 -132 -3 3 -6 19 -6 35 0 16 -5 48 -11 71 -6 22 -17 68 -26 101 -22
86 -49 166 -74 221 -48 104 -141 292 -173 348 l-34 60 36 55 c20 31 46 67 58
81 22 25 107 145 205 290 28 41 58 83 66 92 18 20 125 171 204 288 28 41 59
84 68 95 10 11 47 61 82 112 68 99 139 199 259 368 41 58 103 145 137 193 34
48 84 120 112 160 28 40 70 98 94 130 24 31 60 82 80 112 46 68 139 199 192
270 21 29 56 79 77 109 21 31 66 95 101 143 70 98 182 256 272 383 33 46 94
132 135 190 132 186 198 278 249 353 28 40 70 98 94 130 24 31 60 82 80 112
21 30 66 96 102 145 35 50 96 135 135 190 39 55 100 141 135 190 35 50 97 136
137 193 40 57 100 141 133 188 89 124 203 285 265 373 30 43 79 111 108 152
29 41 66 93 82 117 16 23 33 42 37 42 5 0 17 -15 27 -33z m-16861 -1537 c555
-21 978 -87 1337 -208 298 -101 628 -272 850 -440 99 -75 469 -445 595 -596
55 -66 122 -144 149 -175 69 -80 244 -315 452 -611 369 -522 443 -647 712
-1205 267 -552 356 -770 487 -1184 175 -555 262 -1071 316 -1861 12 -171 6
-582 -9 -695 l-7 -50 -91 90 c-50 50 -114 124 -143 164 -62 89 -91 111 -150
111 -90 0 -135 -56 -190 -236 -79 -257 -97 -448 -63 -649 12 -66 32 -155 45
-198 l25 -77 -37 29 c-100 80 -251 262 -329 397 -30 51 -50 75 -72 84 -43 18
-89 15 -119 -8 -41 -30 -124 -145 -164 -226 -84 -170 -103 -281 -84 -489 l8
-88 -40 20 c-93 48 -346 90 -460 77 -144 -16 -221 -67 -221 -147 0 -23 6 -53
14 -67 17 -31 63 -175 101 -316 25 -90 26 -111 23 -247 -2 -92 -7 -152 -14
-159 -9 -9 -29 5 -79 51 -74 70 -178 221 -271 393 -69 129 -110 166 -181 166
-24 0 -53 -6 -64 -12 -30 -19 -180 -221 -228 -309 -92 -168 -121 -311 -104
-505 6 -66 10 -120 9 -121 -1 -1 -46 21 -100 48 -174 90 -352 139 -518 141
-106 1 -157 -22 -189 -88 -29 -60 -18 -103 41 -169 25 -28 61 -72 78 -98 37
-53 159 -299 168 -338 5 -25 2 -28 -45 -44 l-51 -17 -48 27 c-42 25 -189 129
-202 144 -3 3 -51 45 -107 94 -279 241 -562 592 -747 926 -215 387 -330 716
-387 1111 -29 204 -37 683 -15 935 22 242 52 513 76 685 112 798 129 1367 59
1980 -47 415 -61 504 -105 680 -45 184 -115 386 -197 575 -36 83 -232 455
-265 503 -10 15 -40 65 -67 112 -53 95 -76 131 -214 340 -83 126 -206 295
-414 570 -142 187 -322 368 -553 554 -120 96 -228 159 -422 246 -78 35 -139
67 -135 71 29 27 492 146 768 198 316 59 498 82 775 101 335 22 460 23 813 10z
m27800 -317 c26 -38 67 -97 91 -133 56 -85 305 -456 332 -495 26 -36 103 -151
164 -245 25 -37 86 -128 135 -200 50 -73 99 -146 109 -163 11 -18 40 -61 65
-97 25 -35 64 -93 86 -127 22 -34 108 -161 190 -283 172 -254 228 -341 223
-346 -2 -2 -40 -8 -84 -14 -83 -11 -152 -23 -219 -38 -123 -28 -365 -100 -380
-113 -5 -5 -16 -9 -25 -9 -8 0 -37 -11 -65 -25 -27 -13 -56 -25 -63 -25 -15 0
-47 -13 -159 -66 -39 -19 -74 -34 -76 -34 -8 0 -275 -148 -343 -191 -83 -51
-297 -191 -304 -199 -3 -3 -23 -17 -45 -32 -77 -50 -250 -203 -363 -318 -137
-142 -208 -245 -310 -455 -104 -214 -120 -254 -155 -390 -9 -33 -20 -79 -26
-101 -6 -23 -11 -55 -11 -71 0 -55 -3 -53 -135 97 -54 61 -273 279 -370 367
l-79 72 31 63 c17 35 107 223 199 418 92 195 189 400 215 455 27 55 71 148 99
207 48 101 84 178 203 428 27 58 70 148 94 200 54 112 130 274 183 385 21 44
59 123 83 175 77 164 378 800 429 907 27 57 72 151 100 210 77 164 122 253
128 253 3 0 27 -30 53 -67z m11917 -23 c463 -25 822 -77 1281 -186 181 -43
406 -109 422 -123 4 -4 -57 -36 -135 -71 -194 -87 -302 -150 -422 -246 -231
-186 -411 -367 -553 -554 -208 -275 -331 -444 -414 -570 -138 -209 -161 -245
-214 -340 -27 -47 -57 -97 -67 -112 -33 -48 -229 -420 -265 -503 -82 -189
-152 -391 -197 -575 -44 -176 -58 -265 -105 -680 -70 -613 -53 -1182 59 -1980
24 -172 54 -443 76 -685 22 -252 14 -731 -15 -935 -30 -209 -75 -393 -140
-580 -39 -113 -165 -383 -247 -531 -185 -334 -468 -685 -747 -926 -56 -49
-104 -91 -107 -94 -13 -15 -160 -119 -202 -144 l-48 -27 -51 17 c-47 16 -50
19 -45 44 9 39 131 285 168 338 17 26 53 70 78 98 59 66 70 109 41 169 -32 66
-83 89 -189 88 -166 -2 -344 -51 -518 -141 -54 -27 -99 -49 -100 -48 -1 1 3
55 9 121 17 194 -12 337 -104 505 -48 88 -198 290 -228 309 -11 6 -40 12 -64
12 -71 0 -112 -37 -181 -166 -93 -172 -197 -323 -271 -393 -50 -46 -70 -60
-79 -51 -7 7 -12 67 -14 159 -3 136 -2 157 23 247 38 141 84 285 101 316 8 14
14 44 14 67 0 80 -77 131 -221 147 -114 13 -367 -29 -460 -77 l-40 -20 8 88
c19 208 0 319 -84 489 -40 81 -123 196 -164 226 -30 23 -76 26 -119 8 -22 -9
-42 -33 -72 -84 -78 -135 -229 -317 -329 -397 l-37 -29 25 77 c86 272 81 525
-18 847 -55 180 -100 236 -190 236 -59 0 -88 -22 -150 -111 -29 -40 -93 -114
-143 -164 l-91 -90 -7 50 c-15 113 -21 524 -9 695 54 790 141 1306 316 1861
131 414 220 632 487 1184 269 558 343 683 712 1205 208 296 383 531 452 611
27 31 94 109 149 175 126 151 496 521 595 596 289 219 690 407 1095 512 415
109 1158 166 1745 136z m640 -1861 c58 -27 119 -56 135 -65 17 -9 75 -40 130
-68 154 -80 277 -150 334 -190 28 -20 55 -36 60 -36 4 0 50 -29 100 -65 51
-36 105 -72 120 -80 15 -7 55 -36 87 -62 32 -27 70 -56 84 -65 103 -65 459
-395 537 -497 15 -20 49 -58 75 -86 47 -49 58 -63 178 -220 33 -44 75 -97 93
-119 18 -21 49 -64 69 -95 20 -31 47 -69 61 -86 13 -16 48 -68 77 -115 29 -47
63 -96 76 -110 12 -14 31 -43 42 -65 12 -22 45 -77 74 -122 73 -113 133 -214
222 -378 65 -117 205 -401 236 -475 17 -41 37 -86 44 -100 7 -14 19 -43 26
-65 7 -22 16 -44 20 -50 4 -5 13 -28 20 -50 7 -22 16 -44 20 -50 4 -5 13 -28
20 -50 7 -22 16 -44 20 -50 3 -5 12 -30 19 -55 7 -25 17 -49 21 -55 4 -5 13
-28 19 -50 7 -22 16 -49 21 -60 4 -11 20 -58 34 -105 15 -47 31 -93 37 -102 5
-10 9 -24 9 -33 0 -8 7 -36 15 -62 42 -135 84 -296 95 -373 5 -30 14 -77 20
-105 6 -27 15 -77 19 -110 4 -33 13 -91 19 -130 27 -166 45 -335 56 -525 3
-41 8 -118 12 -170 11 -164 14 -932 4 -977 -6 -24 -12 -80 -15 -125 -2 -46 -7
-119 -11 -163 -3 -44 -6 -87 -6 -95 0 -8 -4 -53 -10 -100 -5 -47 -11 -106 -13
-131 -4 -55 -14 -128 -20 -149 -3 -8 -7 -35 -10 -60 -6 -52 -20 -134 -35 -205
-6 -27 -15 -77 -20 -110 -5 -33 -14 -89 -21 -125 -6 -36 -12 -74 -13 -85 -1
-11 -14 -58 -28 -105 -15 -47 -30 -100 -33 -119 -3 -18 -12 -47 -19 -65 -7
-17 -14 -35 -14 -41 -1 -5 -6 -23 -12 -40 -5 -16 -11 -42 -14 -56 -4 -27 -59
-213 -77 -264 -6 -16 -24 -70 -40 -120 -16 -49 -34 -97 -39 -107 -5 -9 -23
-54 -40 -100 -18 -45 -47 -114 -65 -153 -18 -38 -41 -90 -51 -115 -10 -25 -28
-62 -41 -82 -13 -21 -23 -43 -23 -50 0 -6 -24 -55 -53 -107 -29 -53 -59 -109
-67 -126 -8 -16 -20 -37 -26 -45 -7 -8 -30 -47 -51 -86 -135 -250 -387 -587
-592 -791 -97 -97 -298 -283 -357 -330 -21 -17 -52 -43 -69 -58 -16 -15 -48
-38 -70 -52 -22 -14 -58 -42 -81 -62 -23 -20 -70 -56 -105 -81 -35 -25 -70
-52 -79 -60 -9 -8 -65 -47 -125 -87 -61 -40 -117 -79 -125 -86 -8 -8 -28 -21
-45 -30 -16 -8 -39 -24 -51 -35 -11 -11 -40 -29 -65 -41 -24 -11 -71 -38 -104
-60 -119 -78 -523 -291 -552 -291 -7 0 -13 -4 -13 -9 0 -5 -12 -12 -27 -16
-25 -6 -112 -41 -200 -81 -17 -8 -45 -17 -62 -20 -17 -4 -34 -11 -37 -15 -3
-5 -22 -9 -43 -9 -21 0 -41 -3 -45 -7 -7 -7 -80 -24 -166 -39 -19 -3 -44 -9
-55 -14 -27 -11 -65 -17 -223 -35 -73 -8 -136 -17 -141 -19 -4 -3 -79 -13
-167 -22 -122 -13 -241 -16 -507 -15 l-347 2 -25 -25 c-29 -29 -31 -53 -7 -83
16 -20 94 -39 244 -58 18 -2 67 -10 108 -16 41 -6 87 -13 101 -14 15 -2 42 -6
60 -10 38 -9 49 -10 169 -22 82 -8 299 -8 613 0 144 3 147 3 147 -18 0 -71 89
-174 320 -366 166 -139 370 -344 401 -404 15 -27 48 -89 73 -137 153 -286 246
-594 261 -863 13 -233 14 -295 5 -445 -26 -418 -171 -862 -385 -1184 -113
-170 -310 -352 -470 -435 -131 -68 -383 -123 -670 -148 -260 -22 -669 -22
-835 1 -487 66 -805 190 -1090 425 -30 25 -58 51 -63 58 -14 22 -298 255 -304
249 -8 -8 9 -33 173 -251 163 -218 206 -269 324 -381 135 -128 378 -292 509
-344 28 -11 62 -26 74 -34 21 -14 242 -93 337 -121 145 -43 237 -66 303 -76
l73 -11 13 -46 c22 -83 136 -169 319 -243 154 -61 332 -154 507 -264 136 -86
265 -174 310 -214 67 -58 145 -111 230 -154 52 -26 80 -49 110 -87 22 -29 58
-66 80 -83 22 -18 85 -80 140 -138 153 -161 259 -293 415 -514 38 -55 106
-149 150 -210 43 -60 96 -139 116 -175 20 -36 47 -78 59 -95 12 -16 37 -59 55
-95 18 -36 40 -76 50 -90 19 -28 131 -247 208 -410 278 -583 569 -1344 698
-1828 90 -338 234 -1017 249 -1182 4 -36 13 -103 20 -150 36 -225 47 -554 27
-800 -21 -264 -51 -520 -67 -561 -3 -8 -16 -66 -30 -129 -92 -427 -237 -828
-443 -1230 -36 -69 -69 -130 -74 -137 -5 -6 -28 -46 -52 -90 -91 -167 -275
-453 -331 -513 -17 -19 -43 -51 -56 -70 -61 -91 -286 -330 -399 -425 -177
-149 -405 -314 -455 -329 -11 -3 -44 -22 -73 -41 -30 -19 -57 -35 -60 -35 -4
0 -47 -20 -97 -44 -256 -127 -510 -196 -825 -226 -319 -30 -427 -33 -740 -21
-452 16 -650 34 -900 80 -396 73 -810 206 -1121 361 -188 94 -464 264 -559
345 -216 183 -258 209 -274 169 -8 -22 -7 -24 136 -191 69 -81 188 -205 265
-274 132 -121 405 -327 509 -385 27 -15 114 -64 194 -109 80 -45 156 -86 169
-90 13 -4 94 -39 180 -77 86 -39 199 -83 251 -98 130 -39 150 -47 150 -64 0
-37 130 -183 298 -333 128 -115 255 -244 327 -333 29 -36 77 -88 108 -116 30
-28 66 -73 80 -100 22 -43 46 -83 138 -224 29 -45 89 -152 212 -380 142 -264
232 -469 397 -905 20 -55 59 -152 85 -215 95 -231 210 -605 271 -885 13 -60
26 -117 30 -125 5 -15 21 -92 85 -405 56 -277 135 -850 160 -1165 18 -212 18
-669 1 -875 -36 -425 -42 -493 -52 -526 -5 -19 -16 -78 -24 -130 -63 -408
-287 -1247 -408 -1529 -11 -25 -32 -79 -48 -120 -117 -312 -319 -672 -513
-915 -120 -151 -172 -209 -317 -353 -461 -459 -854 -715 -1345 -877 -113 -37
-372 -102 -475 -120 -19 -3 -73 -12 -120 -21 -238 -42 -529 -71 -798 -80 -295
-10 -602 32 -976 132 -644 173 -1027 364 -1586 792 -248 190 -379 302 -670
572 -240 223 -556 507 -714 644 -280 241 -701 668 -836 846 -79 106 -113 128
-140 95 -11 -13 -6 -32 30 -113 92 -205 226 -463 317 -610 122 -196 166 -299
278 -650 122 -382 168 -652 159 -931 -2 -79 -7 -147 -10 -152 -3 -5 -9 -73
-14 -151 -6 -79 -15 -177 -20 -218 -6 -41 -17 -122 -25 -180 -35 -256 -170
-832 -259 -1107 -14 -43 -42 -130 -61 -193 -145 -462 -401 -1006 -637 -1352
-169 -247 -261 -359 -468 -567 -194 -195 -347 -325 -516 -441 -387 -264 -624
-394 -1029 -562 -389 -161 -718 -256 -1125 -323 -564 -93 -1094 -76 -1585 51
-304 78 -597 192 -885 341 -167 87 -400 234 -400 253 0 3 35 12 78 19 317 52
819 192 1187 331 331 125 783 359 1055 544 248 170 502 393 661 583 217 258
412 599 515 898 225 653 313 1578 208 2195 -79 462 -164 780 -303 1128 -106
265 -322 722 -515 1091 -245 469 -438 756 -706 1052 l-70 77 25 16 c13 9 79
67 147 129 68 62 148 131 178 154 58 43 114 92 300 262 213 195 391 389 479
521 24 36 60 83 81 105 20 22 59 76 85 120 27 44 59 91 71 105 13 14 74 128
136 253 62 125 128 258 147 295 18 37 83 195 143 351 60 157 118 301 128 321
36 71 151 455 286 955 7 28 79 311 159 630 80 319 170 669 199 777 30 109 80
307 111 440 85 365 300 1233 346 1398 288 1025 988 2996 1141 3213 11 15 49
96 84 178 35 83 86 188 113 232 27 45 79 141 117 212 82 157 171 290 275 408
43 49 87 108 98 131 26 52 28 132 5 165 -35 49 -116 63 -201 35 -42 -14 -244
-106 -297 -136 -19 -10 -227 -95 -481 -197 -208 -83 -325 -132 -404 -169 -73
-33 -446 -148 -656 -202 -153 -39 -812 -191 -1035 -239 -218 -47 -408 -83
-770 -146 -324 -56 -951 -170 -1275 -231 -673 -127 -750 -140 -1330 -234 -507
-83 -1182 -174 -1845 -249 -400 -46 -1143 -109 -1600 -136 -140 -8 -347 -22
-460 -30 -113 -8 -299 -19 -415 -25 -115 -5 -329 -18 -475 -27 -234 -16 -445
-18 -1815 -18 -2266 0 -2856 20 -4020 135 -562 56 -844 92 -1495 196 -887 141
-1230 219 -2115 485 -556 168 -1525 485 -1770 579 -55 22 -228 84 -385 138
-157 55 -334 118 -395 142 -60 23 -252 93 -425 155 -644 231 -626 224 -893
353 -352 171 -452 187 -561 90 -51 -44 -72 -98 -61 -156 8 -45 65 -145 136
-242 136 -184 289 -449 363 -630 11 -25 55 -124 98 -220 203 -447 412 -1036
614 -1725 239 -815 338 -1303 444 -2190 22 -181 51 -415 65 -520 25 -189 71
-624 100 -950 9 -93 29 -312 45 -485 16 -173 38 -434 50 -580 11 -146 27 -323
36 -395 29 -246 136 -885 180 -1080 81 -350 117 -492 140 -552 14 -38 36 -97
48 -133 44 -123 127 -334 135 -344 5 -6 48 -85 96 -176 48 -91 97 -178 109
-195 11 -16 64 -100 116 -186 121 -200 383 -593 425 -639 18 -19 66 -82 107
-140 93 -131 179 -237 289 -354 47 -50 123 -133 168 -185 45 -51 148 -157 229
-235 195 -187 717 -658 766 -691 21 -14 73 -56 115 -93 105 -91 282 -229 354
-275 32 -21 111 -77 175 -126 144 -109 334 -243 427 -303 146 -94 393 -237
455 -263 36 -15 118 -52 183 -81 64 -30 120 -54 123 -54 3 0 112 -42 242 -94
412 -164 585 -224 967 -335 256 -75 375 -102 660 -150 631 -107 1219 -167
1725 -177 151 -3 298 -10 325 -15 79 -16 1130 -23 1450 -10 363 15 714 46 970
87 49 8 158 21 240 29 83 8 173 19 200 25 28 5 104 16 170 25 66 9 149 23 185
30 l65 14 38 -37 c51 -49 121 -163 146 -238 28 -85 39 -161 51 -371 15 -236 0
-523 -55 -1083 -26 -259 -31 -677 -11 -855 35 -310 103 -628 182 -856 141
-405 444 -749 860 -977 68 -37 124 -71 124 -77 0 -5 -22 -58 -49 -116 -45 -99
-67 -136 -186 -319 -24 -36 -54 -88 -68 -115 -63 -125 -158 -225 -361 -376
-327 -243 -570 -354 -941 -428 -380 -76 -735 -66 -1027 29 -258 85 -589 268
-782 434 -78 67 -213 219 -279 314 -114 163 -258 459 -342 702 -26 74 -55 155
-65 180 -16 42 -31 90 -78 250 -32 108 -50 208 -63 340 -15 152 -14 200 12
402 34 272 39 288 147 473 39 66 107 192 152 279 45 87 91 175 104 195 12 20
39 74 61 121 21 47 57 126 81 175 155 331 260 684 334 1126 30 173 30 213 2
195 -11 -7 -122 -277 -122 -297 0 -23 -130 -282 -218 -435 -156 -272 -495
-764 -827 -1201 -149 -196 -238 -258 -614 -422 -62 -28 -163 -80 -224 -117
-96 -57 -249 -144 -456 -256 -83 -45 -421 -214 -466 -233 -59 -25 -350 -130
-510 -185 -77 -26 -174 -61 -215 -78 -213 -88 -582 -213 -871 -296 -265 -76
-699 -76 -1244 0 -752 105 -1328 286 -1865 585 -294 163 -750 558 -985 852
-274 342 -448 636 -590 997 -59 148 -201 571 -256 760 -17 58 -50 168 -74 245
-81 261 -205 734 -205 784 -1 14 -10 67 -20 116 -46 209 -84 557 -81 740 3
194 59 515 101 575 22 32 192 374 250 502 36 81 41 100 30 113 -27 33 -61 11
-140 -95 -85 -112 -375 -421 -547 -581 -308 -288 -343 -316 -411 -338 -33 -10
-74 -28 -90 -40 -17 -11 -37 -21 -44 -21 -8 0 -41 -13 -74 -29 -105 -51 -218
-98 -284 -119 -36 -11 -96 -32 -135 -46 -38 -14 -126 -35 -195 -46 -69 -12
-147 -31 -175 -41 -27 -11 -147 -45 -265 -76 -118 -30 -255 -66 -305 -79 -130
-35 -342 -70 -645 -109 -697 -90 -1033 -85 -1510 22 -141 31 -432 119 -573
172 -324 124 -724 353 -1007 578 -181 144 -417 392 -556 584 -160 222 -221
325 -338 571 -112 234 -160 363 -312 853 -40 125 -49 166 -93 385 -103 524
-126 770 -126 1355 0 296 5 470 18 625 9 118 21 289 27 380 16 262 79 744 127
970 43 205 142 607 179 730 20 63 49 165 65 226 15 61 39 142 52 180 13 38 31
94 40 124 52 177 132 394 206 557 28 62 51 115 51 119 0 3 44 81 97 172 95
163 126 206 275 384 116 138 177 252 163 307 -4 14 -15 37 -25 51 l-19 27 163
71 c90 40 166 72 170 72 3 0 72 38 154 83 81 46 169 96 196 111 104 58 377
264 509 385 114 103 370 383 400 436 11 20 -3 45 -26 45 -21 0 -102 -57 -177
-125 -35 -32 -65 -47 -135 -69 -49 -15 -144 -45 -210 -66 -101 -33 -135 -39
-210 -40 -184 -2 -648 56 -910 115 -60 13 -171 36 -245 50 -323 63 -610 165
-962 341 -138 69 -355 203 -428 264 -25 21 -70 57 -100 79 -64 48 -228 207
-287 278 -86 103 -274 395 -341 529 -22 44 -54 104 -71 132 -32 55 -58 116
-172 400 -134 333 -242 795 -309 1327 -16 132 -32 249 -34 260 -3 11 -12 121
-20 245 -9 124 -18 250 -20 280 -7 100 21 669 50 1025 65 801 144 1262 310
1810 119 395 370 917 617 1285 293 437 578 770 1092 1280 196 194 245 236 418
353 116 78 156 111 173 138 5 8 59 44 119 79 149 87 273 178 375 274 118 112
161 163 324 381 164 218 181 243 173 251 -6 6 -290 -227 -304 -249 -21 -33
-190 -158 -311 -231 -51 -31 -76 -39 -140 -45 -97 -10 -232 3 -308 29 -31 11
-69 20 -83 20 -57 0 -328 65 -443 106 -190 69 -432 208 -593 342 -104 86 -275
296 -332 406 -25 50 -63 124 -83 163 -50 96 -85 211 -112 363 -20 107 -23 159
-23 355 1 446 60 749 222 1135 89 212 102 235 212 394 147 214 421 474 534
507 28 8 106 21 205 34 131 17 229 39 244 55 9 10 22 20 29 22 20 7 -39 77
-70 85 -14 3 -37 14 -51 24 -14 9 -56 27 -95 39 -38 12 -88 30 -110 40 -22 10
-69 24 -105 30 -90 16 -255 80 -380 147 -153 82 -192 102 -440 221 -232 112
-302 154 -500 301 -336 249 -759 669 -961 953 -238 335 -377 568 -472 794
-336 798 -548 1923 -531 2804 7 311 56 772 120 1110 146 780 323 1355 578
1875 166 337 311 556 584 879 91 107 382 400 488 490 l79 68 7 -44 c3 -23 7
-176 7 -338 1 -388 -23 -725 -89 -1225 -28 -214 -55 -459 -82 -735 -17 -175
-17 -735 1 -895 35 -327 116 -641 244 -935 253 -587 568 -998 1074 -1403 61
-49 127 -99 147 -113 20 -14 34 -29 32 -33 -11 -17 -86 -21 -216 -9 -74 6
-148 8 -163 4 -15 -3 -44 -21 -64 -39 -29 -28 -36 -42 -40 -83 -5 -46 0 -58
66 -181 108 -203 179 -293 316 -402 89 -72 221 -131 291 -131 30 0 62 29 70
63 6 25 -2 36 -80 110 -47 45 -113 106 -146 136 -34 30 -88 90 -121 135 l-60
81 99 12 c204 24 412 119 472 216 l17 28 18 -88 c43 -218 54 -243 110 -243 79
0 101 102 70 330 -27 206 -102 435 -182 562 -12 21 -23 40 -23 42 0 3 30 -6
67 -18 156 -53 316 -155 424 -270 223 -236 271 -288 328 -353 35 -40 72 -73
82 -73 26 0 38 71 27 155 -14 101 -91 301 -147 382 -40 59 -51 84 -74 183 -53
232 -57 363 -16 505 19 65 86 205 99 205 3 0 18 -24 34 -53 115 -206 264 -380
391 -454 103 -60 177 -82 321 -93 175 -15 327 8 412 60 50 31 47 32 -133 85
-51 15 -234 83 -243 90 -1 1 9 42 24 91 41 140 44 153 44 253 0 124 -28 239
-91 368 -27 57 -49 105 -49 107 0 2 28 2 63 -1 239 -19 405 -125 555 -352 42
-64 106 -154 141 -201 36 -47 91 -120 123 -162 33 -43 63 -78 68 -78 32 0 39
97 15 207 -36 170 -89 296 -179 428 -35 51 -44 76 -63 175 -13 63 -30 169 -38
236 -12 102 -12 130 -1 185 15 68 64 199 75 199 3 -1 24 -26 46 -57 72 -100
253 -277 347 -338 123 -79 296 -160 408 -190 118 -32 282 -43 370 -26 64 13
143 56 137 74 -2 6 -32 16 -68 23 -125 25 -247 89 -316 165 -145 160 -226 383
-226 624 1 83 17 203 32 232 4 8 37 -15 92 -66 213 -193 460 -319 672 -343 94
-11 110 -10 191 10 49 12 113 33 142 46 57 26 124 73 124 86 0 9 -45 18 -128
25 -77 7 -158 30 -254 71 -46 20 -98 43 -115 50 l-33 14 54 108 c76 152 122
273 151 398 40 171 56 315 48 422 l-6 94 24 -6 c67 -19 195 -95 273 -164 65
-56 103 -100 153 -176 36 -55 109 -166 162 -246 53 -80 107 -173 121 -208 14
-34 30 -61 35 -59 6 2 18 26 28 53 38 105 -1 352 -80 509 -72 142 -170 262
-274 333 -78 53 -250 139 -323 161 -81 25 -194 28 -236 6 -55 -28 -70 -60 -70
-145 0 -186 -37 -476 -74 -576 -14 -36 -15 -27 -15 131 -2 499 -85 1229 -196
1725 -86 386 -249 885 -394 1207 -23 50 -41 93 -41 96 0 3 55 -17 122 -44 68
-28 184 -76 258 -106 147 -61 827 -389 955 -461 220 -125 372 -218 409 -251
23 -20 61 -52 86 -71 25 -19 88 -73 140 -121 52 -47 117 -103 144 -123 170
-129 425 -379 518 -509 67 -92 189 -288 267 -425 19 -35 60 -86 90 -115 42
-39 57 -62 67 -100 7 -28 18 -55 23 -60 6 -6 11 -18 11 -27 0 -18 84 -187 105
-209 7 -9 14 -20 14 -24 -1 -15 86 -131 130 -173 33 -33 55 -46 96 -54 48 -10
58 -9 94 9 82 42 96 124 41 246 -22 48 -61 162 -64 185 -2 14 -8 41 -14 60
-10 32 -49 217 -56 265 -1 11 -7 36 -13 55 -6 19 -11 44 -11 55 0 11 -6 58
-12 105 -14 108 -15 446 -2 525 5 33 15 90 21 127 6 36 17 86 25 110 8 24 17
61 21 83 4 22 10 49 15 60 4 11 20 52 35 90 15 39 33 84 40 100 7 17 19 46 26
65 27 72 170 321 239 419 25 35 52 73 60 85 86 126 351 383 525 509 60 43 193
123 255 153 302 146 475 204 720 240 140 21 396 25 570 9 149 -14 328 -35 375
-45 153 -32 202 -43 220 -51 11 -4 63 -20 115 -35 160 -46 255 -88 570 -255
25 -13 47 -27 50 -30 3 -3 30 -20 60 -37 93 -55 236 -146 266 -170 29 -23 128
-100 194 -150 99 -77 340 -344 340 -378 0 -4 10 -21 23 -38 26 -36 62 -108 89
-180 30 -78 69 -199 73 -221 2 -11 6 -35 9 -53 3 -18 7 -36 10 -41 10 -15 27
-146 31 -231 5 -93 -12 -343 -25 -375 -4 -11 -13 -60 -19 -109 -7 -49 -21
-109 -32 -132 -10 -24 -19 -48 -19 -53 0 -6 -4 -11 -9 -11 -5 0 -13 -15 -16
-32 -4 -18 -16 -52 -26 -75 -11 -23 -19 -48 -19 -55 0 -7 -6 -24 -13 -38 -20
-39 -55 -141 -62 -182 -4 -21 -11 -38 -15 -38 -4 0 -11 -17 -15 -37 -4 -21
-13 -49 -21 -64 -7 -15 -16 -45 -20 -68 -4 -23 -11 -44 -15 -47 -5 -3 -9 -16
-9 -29 0 -23 -56 -143 -80 -172 -6 -7 -21 -29 -35 -50 -14 -21 -30 -45 -36
-53 -6 -9 -23 -34 -37 -57 -72 -110 -130 -174 -299 -330 -38 -34 -50 -52 -44
-62 7 -11 15 -11 47 0 22 7 41 13 44 14 28 3 143 55 171 77 20 15 40 28 43 28
25 0 174 113 283 217 24 22 63 50 87 63 64 32 84 54 117 126 16 34 44 82 62
106 18 24 42 60 55 81 12 20 26 43 32 50 42 52 78 109 94 150 10 26 21 47 26
47 5 0 12 10 15 23 4 12 20 43 36 68 16 25 32 60 35 77 4 18 10 32 14 32 4 0
12 19 19 43 7 23 19 51 26 63 7 11 28 63 45 115 18 52 36 98 41 104 5 5 9 24
9 42 0 25 9 42 40 73 22 22 40 44 40 50 0 5 21 34 48 64 61 70 101 120 131
165 88 133 706 705 947 877 23 16 73 54 111 85 76 63 419 289 436 289 4 0 26
12 50 27 43 28 70 43 242 130 191 97 413 192 765 326 69 27 325 113 375 128
17 4 62 17 100 29 39 12 86 25 105 29 19 5 69 18 110 29 42 12 91 24 110 27
18 3 36 8 40 10 4 2 40 11 81 20 115 26 150 33 199 40 24 4 47 8 51 11 3 2 26
6 50 9 24 3 57 8 72 11 41 9 62 11 267 34 202 23 546 33 625 19 28 -5 111 -16
185 -24 198 -21 442 -59 464 -72 6 -4 31 -10 56 -14 25 -4 94 -20 154 -35 105
-26 108 -28 88 -43 -108 -79 -157 -117 -240 -185 -54 -43 -108 -89 -122 -102
-57 -54 -163 -160 -173 -175 -7 -9 -32 -39 -57 -67 -86 -96 -270 -353 -270
-376 0 -4 -11 -22 -24 -39 -13 -18 -35 -54 -48 -82 -14 -27 -42 -84 -62 -125
-32 -64 -73 -159 -83 -195 -1 -5 -18 -57 -38 -115 -44 -131 -58 -178 -80 -260
-10 -36 -24 -87 -32 -113 -8 -27 -13 -51 -10 -53 3 -3 1 -20 -5 -37 -24 -75
-71 -452 -76 -607 0 -8 -3 -55 -7 -105 -12 -191 -11 -316 6 -480 26 -245 36
-312 58 -385 35 -116 63 -214 68 -245 6 -36 51 -156 64 -169 5 -6 9 -17 9 -25
0 -9 16 -47 35 -85 19 -39 35 -75 35 -82 0 -7 3 -14 8 -16 4 -1 16 -21 27 -42
11 -22 25 -45 31 -51 7 -6 22 -31 34 -55 20 -40 95 -147 111 -160 4 -3 23 -26
43 -53 77 -102 268 -295 331 -335 22 -14 58 -40 80 -58 22 -17 74 -48 115 -68
41 -21 88 -44 103 -53 33 -17 258 -85 264 -79 3 2 18 0 34 -4 49 -14 35 16
-16 33 -47 16 -219 126 -271 174 -17 15 -44 40 -60 54 -16 14 -50 50 -75 80
-26 30 -59 67 -73 82 -15 16 -38 51 -51 78 -14 27 -29 49 -34 49 -4 0 -16 19
-27 41 -10 23 -23 47 -29 53 -18 19 -135 262 -141 295 -4 17 -10 31 -13 31 -4
0 -13 24 -21 53 -7 28 -16 59 -20 67 -11 22 -33 110 -38 153 -2 20 -8 40 -13
43 -5 3 -9 25 -9 50 0 24 -4 52 -9 62 -6 9 -17 96 -25 192 -24 268 -9 865 30
1186 2 23 6 60 9 83 2 22 6 49 9 58 3 10 7 34 10 53 2 19 9 55 16 79 6 23 9
45 7 48 -3 2 1 19 8 36 7 18 16 48 19 68 3 20 11 49 17 65 6 16 13 38 14 49 2
11 9 38 17 60 27 72 49 140 53 155 14 66 144 320 224 438 20 30 44 68 54 85
11 18 31 46 46 62 15 17 45 53 66 80 34 43 189 200 305 310 19 18 50 40 68 49
17 9 32 20 32 24 0 4 22 21 50 37 27 17 50 33 50 37 0 4 24 20 53 34 28 14 59
32 68 40 8 8 64 39 124 69 l109 56 114 -57 c62 -32 115 -61 118 -66 3 -5 32
-22 65 -38 32 -17 59 -34 59 -38 0 -4 23 -20 50 -37 28 -16 50 -33 50 -37 0
-4 15 -15 33 -24 17 -9 48 -31 67 -49 116 -110 271 -267 305 -310 21 -27 51
-63 66 -80 15 -16 35 -44 46 -62 10 -17 34 -55 54 -85 80 -118 210 -372 224
-438 4 -15 26 -83 53 -155 8 -22 15 -49 17 -60 1 -11 8 -33 14 -49 6 -16 14
-45 17 -65 3 -20 12 -50 19 -68 7 -17 11 -34 8 -36 -2 -3 1 -25 7 -48 7 -24
14 -60 16 -79 3 -19 7 -43 10 -53 3 -9 7 -36 9 -58 3 -23 7 -60 9 -83 39 -321
54 -918 30 -1186 -8 -96 -19 -183 -25 -192 -5 -10 -9 -38 -9 -62 0 -25 -4 -47
-9 -50 -5 -3 -11 -23 -13 -43 -5 -43 -27 -131 -38 -153 -4 -8 -13 -39 -20 -67
-8 -29 -17 -53 -21 -53 -3 0 -9 -14 -13 -31 -6 -33 -123 -276 -141 -295 -6 -6
-19 -30 -29 -53 -11 -22 -23 -41 -27 -41 -5 0 -20 -22 -34 -49 -13 -27 -36
-62 -51 -78 -14 -15 -47 -52 -73 -82 -25 -30 -59 -66 -75 -80 -16 -14 -43 -39
-60 -54 -52 -48 -224 -158 -271 -174 -51 -17 -65 -47 -16 -33 16 4 31 6 34 4
6 -6 231 62 264 79 15 9 62 32 103 53 41 20 93 51 115 68 22 18 58 44 80 58
63 40 254 233 331 335 20 27 39 50 43 53 16 13 91 120 111 160 12 24 27 49 34
55 6 6 20 29 31 51 11 21 23 41 28 42 4 2 7 9 7 16 0 7 16 43 35 82 19 38 35
76 35 85 0 8 4 19 9 25 13 13 58 133 64 169 5 31 33 129 68 245 22 73 32 140
58 385 17 164 18 289 6 480 -4 50 -7 97 -7 105 -5 155 -52 532 -76 607 -6 17
-8 34 -5 37 3 2 -2 26 -10 53 -8 26 -22 77 -32 113 -22 82 -36 129 -80 260
-20 58 -37 110 -38 115 -10 36 -51 131 -83 195 -20 41 -48 98 -62 125 -13 28
-35 64 -48 82 -13 17 -24 35 -24 39 0 15 -171 262 -212 304 -24 25 -59 66 -79
90 -20 25 -81 91 -135 146 -115 118 -230 214 -436 365 -20 15 -17 17 88 43 60
15 129 31 154 35 25 4 50 10 56 14 22 13 266 51 464 72 74 8 158 19 185 24 79
14 423 4 625 -19 205 -23 226 -25 267 -34 15 -3 48 -8 72 -11 24 -3 47 -7 50
-9 4 -3 27 -7 51 -11 49 -7 84 -14 199 -40 41 -9 77 -18 81 -20 4 -2 22 -7 40
-10 19 -3 68 -15 110 -27 41 -11 91 -24 110 -29 19 -4 67 -17 105 -29 39 -12
84 -25 100 -29 50 -15 306 -101 375 -128 352 -134 574 -229 765 -326 172 -87
199 -102 242 -130 24 -15 46 -27 50 -27 17 0 360 -226 436 -289 38 -31 88 -69
111 -85 81 -58 334 -272 490 -415 243 -222 366 -347 491 -500 28 -34 68 -83
90 -110 102 -124 131 -168 143 -216 7 -27 22 -67 32 -88 11 -21 20 -45 20 -53
0 -9 6 -30 14 -47 8 -18 28 -66 46 -107 61 -141 114 -255 126 -267 7 -7 18
-29 25 -50 10 -30 46 -88 89 -140 6 -7 20 -30 32 -50 13 -21 37 -57 55 -81 18
-24 46 -72 62 -106 33 -72 53 -94 117 -126 24 -13 63 -41 87 -63 109 -104 258
-217 283 -217 3 0 23 -13 43 -28 28 -22 143 -74 171 -77 3 -1 22 -7 44 -14 32
-11 40 -11 47 0 6 10 -6 28 -44 62 -169 156 -227 220 -299 330 -14 23 -31 48
-37 57 -6 8 -22 32 -36 53 -14 21 -29 43 -35 50 -24 29 -80 149 -80 172 0 13
-4 26 -9 29 -4 3 -11 24 -15 47 -4 23 -13 53 -20 68 -8 15 -17 43 -21 64 -4
20 -10 37 -14 37 -4 0 -18 33 -30 73 -13 39 -27 81 -32 92 -4 11 -16 40 -24
65 -41 117 -56 154 -83 212 -29 60 -37 91 -48 168 -2 19 -9 58 -15 85 -5 28
-16 113 -23 190 -16 186 -4 356 35 491 5 17 11 40 13 50 5 23 47 149 74 220
27 72 63 144 89 180 13 17 23 34 23 38 0 34 241 301 340 378 66 50 165 127
194 150 30 24 173 115 266 170 30 17 57 34 60 37 3 3 25 17 50 30 315 167 410
209 570 255 52 15 104 31 115 35 18 8 67 19 220 51 47 10 226 31 375 45 118
11 365 13 456 4 306 -30 490 -86 834 -253 62 -30 195 -110 255 -153 174 -126
439 -383 525 -509 8 -12 35 -50 60 -85 69 -98 212 -347 239 -419 7 -19 19 -48
26 -65 7 -16 25 -61 40 -100 15 -38 31 -79 35 -90 5 -11 11 -38 15 -60 4 -22
13 -59 21 -83 8 -24 19 -74 25 -110 6 -37 16 -94 21 -127 13 -79 12 -417 -2
-525 -6 -47 -12 -94 -12 -105 0 -11 -5 -36 -11 -55 -6 -19 -12 -44 -13 -55 -7
-48 -46 -233 -56 -265 -6 -19 -12 -46 -14 -60 -3 -23 -42 -137 -64 -185 -55
-122 -41 -204 41 -246 36 -18 46 -19 94 -9 41 8 63 21 96 54 45 43 133 161
127 169 -2 3 5 13 14 24 20 22 108 192 108 210 0 6 7 24 14 40 17 32 47 127
51 159 2 11 10 42 18 70 22 71 37 140 37 173 0 17 11 43 26 60 14 17 23 31 20
31 -4 0 9 23 29 51 19 28 35 57 35 64 0 8 10 26 23 42 13 15 34 48 46 73 13
25 32 55 44 68 11 12 17 22 14 22 -4 0 3 17 16 38 25 39 64 108 103 178 12 22
33 58 46 80 14 21 26 44 26 49 1 6 17 30 35 55 70 95 107 148 107 155 0 5 16
27 35 51 19 23 35 44 35 47 0 5 88 135 135 200 19 26 33 47 30 47 -3 0 30 47
72 105 43 57 110 148 148 201 39 53 93 123 120 155 28 33 69 83 93 112 43 52
125 143 281 311 151 162 395 396 501 481 21 17 69 55 106 85 88 71 149 116
254 186 47 32 86 61 88 66 2 4 31 24 65 44 34 19 82 49 107 65 150 97 350 208
350 194 0 -3 -46 -69 -101 -147 -222 -310 -366 -558 -585 -1003 -272 -555
-384 -817 -502 -1175 -101 -306 -135 -427 -187 -660 -111 -496 -194 -1226
-196 -1725 0 -158 -1 -167 -15 -131 -37 100 -74 390 -74 576 0 85 -15 117 -70
145 -42 22 -155 19 -236 -6 -73 -22 -245 -108 -323 -161 -104 -71 -202 -191
-274 -333 -79 -157 -118 -404 -80 -509 10 -27 23 -51 28 -53 6 -2 21 25 35 59
14 35 68 128 121 208 53 80 126 191 162 246 50 76 88 120 153 176 78 69 206
145 273 164 l24 6 -6 -94 c-8 -107 8 -251 48 -422 29 -125 75 -246 151 -398
l54 -108 -33 -14 c-17 -7 -69 -30 -115 -50 -96 -41 -177 -64 -254 -71 -83 -7
-128 -16 -128 -25 0 -13 67 -60 124 -86 29 -13 93 -34 142 -46 81 -20 97 -21
191 -10 212 24 459 150 672 343 55 51 88 74 92 66 15 -29 31 -149 32 -232 0
-241 -81 -464 -226 -624 -69 -76 -191 -140 -316 -165 -36 -7 -66 -17 -68 -23
-6 -18 73 -61 137 -74 88 -17 252 -6 370 26 112 30 285 111 408 190 94 61 275
238 347 338 22 31 43 56 46 57 11 0 60 -131 75 -199 11 -55 11 -83 -1 -185 -8
-67 -25 -173 -38 -236 -19 -99 -28 -124 -63 -175 -90 -132 -143 -258 -179
-428 -24 -110 -17 -207 15 -207 5 0 35 35 68 78 32 42 87 115 123 162 35 47
99 137 141 201 150 227 316 333 556 352 34 3 62 3 62 1 0 -2 -22 -50 -49 -107
-63 -129 -91 -244 -91 -368 0 -100 3 -113 44 -253 15 -49 25 -90 24 -91 -9 -7
-192 -75 -243 -90 -127 -37 -155 -47 -160 -56 -8 -12 50 -46 108 -64 138 -41
387 -39 519 6 193 65 371 240 524 516 16 29 31 53 34 53 13 0 80 -140 99 -205
41 -142 37 -273 -16 -505 -23 -99 -34 -124 -74 -183 -56 -81 -133 -281 -147
-382 -11 -84 1 -155 27 -155 10 0 47 33 82 73 57 65 105 117 328 353 108 115
268 217 424 270 37 12 67 21 67 18 0 -2 -11 -21 -23 -42 -80 -127 -155 -356
-182 -562 -31 -228 -9 -330 70 -330 56 0 67 25 110 243 l18 88 17 -28 c60 -97
268 -192 472 -216 l99 -12 -60 -81 c-33 -45 -87 -105 -121 -135 -33 -30 -99
-91 -146 -136 -78 -74 -86 -85 -80 -110 8 -34 40 -63 70 -63 70 0 202 59 291
131 137 109 208 199 316 402 66 123 71 135 66 181 -4 41 -11 55 -40 83 -20 18
-49 36 -64 39 -15 4 -89 2 -163 -4 -130 -12 -205 -8 -216 9 -2 4 12 19 32 33
148 100 409 330 569 501 275 292 474 602 652 1015 128 294 209 608 244 935 18
160 18 720 1 895 -27 276 -54 521 -82 735 -107 819 -119 1392 -39 1955 59 422
101 592 230 932 93 247 312 649 550 1012 119 182 94 172 259 95z m-40740
-11947 l35 -14 -25 -17 c-58 -38 -185 -135 -226 -173 -24 -22 -44 -36 -44 -30
0 6 20 42 44 79 24 37 54 88 66 113 12 25 27 51 33 58 11 14 61 8 117 -16z
m40558 -4580 c29 -42 69 -102 89 -132 20 -30 73 -110 119 -177 46 -68 80 -123
76 -123 -12 0 -83 51 -142 100 -30 26 -89 69 -130 95 -134 86 -280 175 -331
201 -50 25 -57 44 -16 44 12 0 78 15 147 34 69 19 127 35 130 35 3 0 29 -34
58 -77z m-29721 -7627 c1 0 -9 -43 -22 -95 -67 -268 -118 -788 -145 -1485 -14
-348 0 -735 35 -970 46 -305 116 -657 159 -802 34 -112 121 -326 166 -408 36
-66 155 -208 146 -175 -56 198 -94 477 -106 775 -34 816 -45 1434 -31 1727 17
349 48 755 77 1008 14 124 28 249 31 278 5 43 9 52 22 47 9 -3 117 -37 241
-75 934 -285 1390 -383 2660 -570 238 -35 322 -46 605 -80 44 -5 174 -19 289
-30 115 -11 210 -21 211 -22 1 -2 -1 -120 -6 -263 -5 -143 -13 -424 -19 -625
-12 -398 -22 -536 -75 -1005 -38 -331 -46 -378 -101 -580 -48 -173 -103 -322
-181 -484 -35 -73 -62 -136 -59 -138 19 -19 198 169 281 295 100 153 200 353
250 497 22 65 71 264 95 385 63 320 100 781 100 1255 0 242 15 623 24 632 4 4
252 -14 325 -23 l44 -6 -7 -56 c-3 -31 -11 -154 -16 -272 -32 -704 -42 -899
-55 -1025 -8 -77 -29 -273 -45 -435 -36 -344 -68 -570 -111 -765 -47 -220
-135 -572 -164 -660 -29 -87 -95 -224 -148 -307 -32 -51 -39 -55 -156 -106
-171 -75 -385 -129 -602 -152 -163 -17 -639 -23 -861 -11 -827 46 -1572 141
-2016 257 -273 71 -473 149 -672 262 -335 191 -474 340 -598 637 -51 122 -62
165 -131 500 -50 241 -57 296 -76 590 -9 132 -27 353 -40 490 -38 383 -46 577
-54 1400 -5 418 -11 767 -14 775 -3 8 -8 27 -11 41 -6 26 -3 26 377 -99 210
-69 383 -126 384 -127z m17802 -420 c-13 -752 -28 -1009 -80 -1410 -37 -290
-43 -326 -80 -515 -68 -353 -121 -525 -228 -745 -112 -230 -245 -383 -403
-465 -229 -119 -646 -182 -1107 -166 -402 14 -590 56 -864 193 -141 70 -234
139 -311 228 -84 100 -134 187 -193 340 -135 346 -225 769 -287 1340 -61 552
-105 988 -102 991 5 3 422 61 425 58 2 -2 -3 -32 -12 -66 -34 -139 -42 -232
-42 -518 0 -232 3 -303 18 -385 84 -460 160 -730 267 -946 41 -82 84 -154 98
-163 5 -3 2 32 -5 77 -27 170 -43 339 -53 557 -5 124 -15 347 -21 495 -7 149
-9 342 -6 430 5 153 34 415 57 522 l11 50 292 47 c161 26 326 54 367 62 41 8
172 32 290 53 118 22 433 80 700 129 606 112 680 125 684 121 17 -18 28 -321
33 -844 5 -649 7 -609 -47 -1075 -58 -511 -66 -564 -114 -743 -14 -53 -26 -99
-26 -102 0 -39 127 121 195 245 106 194 205 542 234 820 20 195 31 560 25 843
-6 287 -17 438 -54 721 -12 87 -19 163 -17 170 2 8 356 78 363 72 0 -1 -3
-190 -7 -421z m-6749 -692 c0 -104 -5 -370 -10 -593 -5 -223 -14 -612 -20
-865 -11 -473 -21 -617 -66 -895 -71 -449 -132 -694 -234 -950 -58 -146 -134
-245 -279 -361 -86 -70 -140 -99 -236 -127 -280 -83 -909 -124 -1335 -88 -611
53 -847 114 -1100 286 -62 42 -272 252 -349 348 -107 133 -186 275 -251 453
-71 192 -128 614 -150 1119 -34 779 -38 1443 -10 1673 l13 107 174 0 c95 0
173 -1 173 -2 0 -2 -7 -55 -15 -119 -50 -401 -40 -994 26 -1559 73 -628 156
-992 260 -1131 34 -47 89 -100 89 -86 0 2 -9 40 -20 83 -18 74 -19 113 -17
674 1 477 -2 647 -16 860 -17 252 -24 753 -12 915 2 39 10 136 16 217 l11 146
1077 5 c833 4 1131 8 1320 21 135 8 247 13 250 10 13 -13 10 -1159 -4 -1729
-18 -737 -32 -879 -123 -1320 -63 -303 -101 -423 -183 -587 -33 -65 -56 -118
-52 -118 5 0 33 16 63 37 76 50 205 183 267 273 63 93 173 303 225 430 50 121
113 366 127 495 29 263 53 1595 33 1835 -7 74 -16 250 -22 390 -6 140 -12 269
-14 286 l-4 31 151 10 c84 5 173 10 200 11 l47 2 0 -187z m-2085 -6333 c327
-15 1125 -69 1465 -100 780 -71 1697 -227 2149 -366 110 -34 203 -66 581 -203
320 -115 576 -228 767 -338 51 -29 95 -53 97 -53 13 0 530 -309 641 -384 139
-93 519 -379 630 -475 123 -105 849 -829 969 -965 280 -319 440 -569 739
-1164 388 -769 525 -1123 628 -1622 68 -330 80 -423 86 -680 16 -667 -112
-1415 -312 -1820 -21 -41 -41 -86 -47 -99 -26 -68 -201 -329 -314 -466 -300
-366 -772 -685 -1424 -962 -365 -155 -910 -310 -1330 -378 -232 -37 -593 -75
-789 -83 -436 -17 -982 19 -1266 84 -459 106 -659 180 -943 348 -324 193 -549
456 -652 764 -41 125 -87 306 -115 460 -71 380 -75 675 -20 1237 54 544 58
899 14 1250 -17 137 -70 284 -144 400 -52 81 -174 205 -253 258 -106 71 -126
80 -332 141 l-85 25 0 333 c0 266 -4 359 -18 463 -53 380 -139 697 -252 930
-131 268 -373 463 -704 565 -164 50 -724 151 -1056 189 -167 19 -479 34 -590
27 -329 -20 -673 -96 -957 -211 -221 -91 -375 -180 -590 -342 -239 -180 -401
-359 -497 -550 -125 -250 -233 -705 -312 -1315 -25 -196 -19 -186 -96 -168
-24 6 -75 15 -115 20 -73 10 -187 36 -305 68 -52 14 -63 20 -63 38 0 49 32
341 55 494 13 91 27 199 30 240 4 41 15 138 25 215 80 587 92 699 97 951 10
454 -43 867 -159 1239 -84 269 -183 441 -341 591 -51 49 -129 110 -173 137
-169 100 -433 197 -659 241 -346 67 -1688 105 -2205 63 -234 -20 -537 -52
-640 -68 -332 -52 -587 -159 -712 -298 -52 -58 -108 -160 -109 -200 -2 -75
-13 -64 -109 96 -52 87 -104 172 -116 188 -29 39 -224 404 -224 419 0 3 12 1
26 -4 14 -6 58 -10 99 -10 81 0 320 56 835 197 254 69 714 184 1190 298 107
25 245 59 306 75 177 46 334 77 683 135 590 99 846 124 1311 132 773 12 1664
-77 2480 -247 294 -62 637 -144 855 -206 171 -48 692 -221 995 -329 102 -36
264 -93 360 -127 416 -143 984 -391 1236 -539 102 -59 368 -231 464 -299 198
-140 259 -185 400 -295 85 -67 205 -159 265 -205 61 -47 207 -161 325 -255
118 -94 233 -183 255 -198 307 -214 356 -249 710 -502 58 -41 206 -117 220
-111 33 12 -27 137 -128 264 -208 264 -510 572 -811 827 -324 274 -761 619
-951 750 -456 315 -664 436 -1025 595 -392 174 -562 242 -841 339 -96 33 -257
90 -359 126 -239 86 -896 305 -918 306 -33 2 12 9 308 44 294 34 542 58 780
74 180 12 728 12 985 1z m-6852 -1329 c342 -19 751 -51 830 -66 168 -32 416
-119 527 -185 177 -105 284 -256 368 -522 108 -338 160 -740 149 -1143 -4
-164 -16 -289 -51 -570 -25 -198 -48 -371 -51 -385 -3 -14 -10 -77 -15 -140
-6 -63 -24 -209 -40 -325 -16 -115 -32 -252 -36 -303 -6 -80 -9 -92 -23 -87
-9 4 -61 22 -116 41 -55 19 -180 65 -278 101 -141 52 -176 69 -173 82 27 87
89 579 111 876 35 465 8 1021 -65 1359 -42 190 -119 365 -194 435 l-25 24 5
-54 c3 -30 9 -78 13 -106 5 -29 2 -164 -5 -300 -8 -137 -18 -345 -24 -463 -11
-246 -26 -461 -40 -570 -5 -41 -12 -109 -15 -150 -24 -301 -102 -910 -118
-926 -1 -1 -38 15 -82 36 -44 21 -113 53 -153 70 -41 17 -126 63 -190 102 -65
39 -143 86 -176 104 -90 53 -273 180 -449 314 -62 46 -146 107 -187 135 -87
59 -214 157 -349 270 -53 45 -112 92 -131 105 -110 76 -819 738 -942 878 -51
59 -131 148 -178 198 -120 128 -166 184 -249 304 -40 58 -82 115 -93 127 -19
20 -20 33 -17 206 l4 184 30 43 c57 83 216 163 404 205 174 39 408 66 911 105
140 10 855 5 1113 -9z m5447 -1746 c299 -28 849 -121 1038 -176 250 -72 415
-197 506 -383 75 -154 154 -429 196 -686 37 -225 45 -426 32 -772 -7 -171 -14
-313 -16 -315 -7 -7 -308 -54 -314 -49 -3 3 1 47 8 98 17 127 26 382 18 503
-8 127 -41 318 -73 432 -40 140 -116 276 -140 251 -10 -10 -21 -176 -39 -568
-19 -425 -36 -719 -42 -735 -3 -7 -101 -17 -292 -30 -244 -15 -359 -17 -782
-11 -442 6 -736 17 -796 31 -11 2 -162 11 -335 20 -418 20 -668 35 -703 42
l-29 5 7 96 c8 112 32 295 47 367 32 140 150 447 251 650 55 109 225 398 262
442 12 16 40 50 62 78 l39 49 -50 -28 c-139 -80 -377 -287 -499 -436 -258
-315 -355 -572 -398 -1052 l-12 -138 -26 0 c-60 1 -399 46 -408 54 -3 3 5 65
16 138 12 73 33 210 48 303 64 422 145 747 230 916 52 105 152 240 229 309
292 263 624 442 990 534 326 82 576 97 975 61z"/>
<path d="M19630 38774 c-158 -42 -334 -168 -512 -364 -106 -116 -150 -177
-260 -358 -234 -387 -253 -431 -253 -577 1 -112 16 -164 83 -273 73 -121 252
-278 396 -347 95 -45 257 -99 386 -127 93 -20 133 -23 350 -23 l245 0 59 29
c68 33 187 141 221 200 32 56 92 246 104 331 26 177 21 355 -14 528 -7 40 -30
164 -51 277 -55 307 -99 414 -224 541 -79 81 -163 131 -269 163 -67 20 -187
20 -261 0z"/>
<path d="M21015 38246 c-22 -7 -53 -20 -70 -28 -49 -26 -150 -139 -184 -206
-37 -73 -78 -219 -86 -306 -6 -64 -39 -260 -56 -337 -27 -123 -6 -306 46 -394
38 -65 113 -143 173 -182 144 -92 292 -103 482 -36 66 23 84 35 148 100 53 55
82 96 112 156 59 123 72 191 60 321 -11 107 -18 150 -65 371 -14 66 -30 142
-35 169 -26 129 -181 322 -293 364 -67 25 -167 29 -232 8z"/>
<path d="M20465 36696 c-5 -2 -37 -9 -70 -16 -118 -25 -305 -114 -362 -173
-117 -120 -125 -248 -24 -394 46 -68 174 -194 248 -246 104 -72 130 -82 228
-82 79 0 97 3 145 28 69 36 103 67 150 139 65 99 108 214 125 334 20 146 19
170 -12 232 -59 116 -162 173 -323 178 -52 2 -99 2 -105 0z"/>
<path d="M17145 36580 c-779 -40 -1551 -311 -2245 -788 -428 -294 -858 -700
-1203 -1134 -914 -1150 -1487 -2649 -1641 -4293 -53 -565 -53 -1215 0 -1780
206 -2192 1168 -4131 2604 -5251 443 -346 955 -619 1460 -778 413 -130 797
-188 1240 -188 265 0 437 13 680 54 709 117 1427 444 2038 928 73 58 160 126
192 151 91 71 472 457 606 614 997 1167 1625 2735 1788 4470 53 565 53 1215 0
1780 -140 1494 -635 2892 -1410 3987 -342 482 -761 926 -1194 1264 -442 345
-955 619 -1460 778 -465 146 -970 211 -1455 186z m567 -526 c170 -17 372 -52
523 -90 1611 -405 2978 -1923 3600 -3999 189 -632 303 -1292 345 -2002 22
-368 11 -916 -25 -1313 -111 -1203 -460 -2328 -1018 -3285 -275 -470 -587
-876 -948 -1231 -305 -301 -568 -507 -893 -703 -120 -72 -396 -216 -396 -206
0 2 31 20 69 39 398 201 861 578 1213 988 886 1030 1404 2465 1457 4034 64
1905 -570 3692 -1714 4827 -642 638 -1399 1013 -2210 1097 -142 15 -488 15
-630 0 -591 -61 -1151 -276 -1673 -643 -62 -44 -111 -81 -109 -83 2 -2 51 -10
110 -18 185 -27 346 -75 532 -161 629 -291 1038 -996 985 -1696 -10 -138 -14
-161 -52 -309 -82 -321 -232 -584 -463 -815 -333 -333 -731 -503 -1215 -519
-395 -13 -763 106 -1095 354 -190 142 -392 388 -510 620 l-28 55 -39 -115
c-463 -1368 -495 -2976 -88 -4390 398 -1378 1198 -2511 2206 -3121 238 -144
568 -293 797 -359 92 -27 96 -38 6 -15 -407 104 -872 320 -1254 583 -241 166
-425 320 -664 556 -751 739 -1334 1763 -1670 2931 -223 778 -331 1563 -331
2410 0 1053 169 2031 513 2960 255 692 604 1328 1021 1860 259 331 620 693
915 918 639 489 1301 765 2016 841 182 19 531 20 717 0z m1580 -10107 c241
-63 443 -192 593 -380 66 -82 147 -227 180 -322 9 -27 21 -59 26 -70 31 -71
47 -300 30 -427 -34 -254 -140 -475 -312 -648 -255 -258 -615 -375 -970 -314
-355 61 -651 283 -809 608 -28 56 -62 146 -77 201 -25 91 -27 116 -27 280 0
163 3 189 26 277 98 361 366 651 711 768 73 25 110 33 227 54 14 3 88 3 165 1
109 -2 161 -9 237 -28z m-2735 -2973 c-3 -3 -12 -4 -19 -1 -8 3 -5 6 6 6 11 1
17 -2 13 -5z m40 -10 c-3 -3 -12 -4 -19 -1 -8 3 -5 6 6 6 11 1 17 -2 13 -5z"/>
<path d="M31565 36580 c-871 -45 -1738 -381 -2485 -964 -706 -550 -1300 -1297
-1754 -2206 -509 -1019 -795 -2125 -877 -3385 -25 -385 -13 -1016 27 -1440
206 -2192 1168 -4131 2604 -5251 443 -346 955 -619 1460 -778 413 -130 797
-188 1240 -188 265 0 437 13 680 54 709 117 1427 444 2038 928 73 58 160 126
192 151 91 71 472 457 606 614 997 1167 1625 2735 1788 4470 53 565 53 1215 0
1780 -140 1494 -635 2892 -1410 3987 -342 482 -761 926 -1194 1264 -442 345
-955 619 -1460 778 -465 146 -970 211 -1455 186z m567 -526 c170 -17 372 -52
523 -90 1611 -405 2978 -1923 3600 -3999 189 -632 303 -1292 345 -2002 22
-368 11 -916 -25 -1313 -111 -1203 -460 -2328 -1018 -3285 -275 -470 -587
-876 -948 -1231 -305 -301 -568 -507 -893 -703 -120 -72 -396 -216 -396 -206
0 2 31 20 69 39 398 201 861 578 1213 988 987 1147 1516 2803 1457 4553 -28
829 -174 1575 -455 2320 -26 69 -50 125 -54 125 -4 0 -15 -21 -25 -47 -57
-151 -153 -313 -286 -478 -235 -294 -570 -499 -964 -591 -113 -26 -134 -28
-360 -28 -212 -1 -253 2 -353 22 -614 124 -1112 548 -1320 1122 -92 253 -107
341 -106 610 0 194 3 227 27 341 118 558 476 1015 972 1242 183 84 281 112
570 165 l40 7 -144 89 c-465 285 -953 453 -1466 506 -142 15 -488 15 -630 0
-921 -95 -1782 -574 -2467 -1372 -986 -1147 -1516 -2803 -1457 -4553 43 -1278
387 -2444 1010 -3432 35 -56 65 -100 67 -98 2 2 -1 38 -7 80 -36 253 34 545
183 770 83 125 249 268 405 349 430 222 943 143 1287 -199 224 -222 333 -502
321 -825 -12 -341 -169 -639 -442 -843 -278 -208 -660 -272 -989 -167 l-89 29
39 -41 c92 -95 315 -279 480 -395 300 -212 706 -413 1017 -503 92 -27 96 -38
6 -15 -407 104 -872 320 -1254 583 -241 166 -425 320 -664 556 -751 739 -1334
1763 -1670 2931 -223 778 -331 1563 -331 2410 0 1053 169 2031 513 2960 255
692 604 1328 1021 1860 259 331 620 693 915 918 639 489 1301 765 2016 841
182 19 531 20 717 0z m-1155 -13080 c-3 -3 -12 -4 -19 -1 -8 3 -5 6 6 6 11 1
17 -2 13 -5z m40 -10 c-3 -3 -12 -4 -19 -1 -8 3 -5 6 6 6 11 1 17 -2 13 -5z"/>
<path d="M38575 34621 c-302 -79 -498 -174 -767 -374 -130 -95 -258 -202 -301
-251 -73 -80 -114 -230 -103 -373 17 -208 95 -346 355 -631 157 -171 374 -313
536 -350 196 -46 348 -66 445 -59 195 13 354 210 424 527 9 41 23 102 31 135
36 148 45 206 71 450 16 153 18 495 3 584 -23 142 -125 271 -269 340 -68 32
-84 36 -175 39 -89 2 -116 -2 -250 -37z"/>
<path d="M39820 33706 c-25 -7 -65 -23 -90 -36 -46 -23 -180 -125 -180 -138
-1 -4 -32 -41 -71 -82 -126 -136 -203 -261 -266 -434 -22 -60 -25 -82 -21
-160 4 -73 9 -101 31 -143 103 -200 339 -347 617 -384 206 -27 220 -26 307 31
90 58 125 105 174 233 34 92 43 128 47 200 5 94 -13 357 -30 422 -5 22 -13 78
-17 125 -10 107 -49 193 -122 269 -74 76 -141 105 -249 108 -47 1 -105 -4
-130 -11z"/>
<path d="M38910 32379 c-181 -15 -322 -55 -440 -125 -69 -41 -91 -61 -132
-119 -70 -99 -89 -140 -95 -205 -6 -59 23 -194 54 -254 36 -71 164 -188 258
-238 22 -11 87 -36 145 -55 96 -32 113 -35 192 -30 114 6 194 42 284 129 73
70 138 186 174 311 12 40 28 90 37 112 37 95 33 216 -8 298 -73 142 -220 197
-469 176z"/>
<path d="M9140 28819 c-208 -24 -385 -78 -725 -221 -507 -214 -766 -423 -933
-753 -92 -183 -126 -342 -126 -605 -1 -278 21 -387 112 -564 57 -110 181 -269
283 -361 146 -133 440 -281 676 -339 232 -58 367 -59 527 -5 230 77 421 249
560 504 189 347 277 664 331 1195 9 85 20 182 25 215 14 100 24 226 22 293 -6
168 -72 333 -178 442 -116 120 -230 181 -377 200 -82 11 -94 11 -197 -1z"/>
<path d="M10430 27753 c-82 -23 -147 -61 -207 -122 -96 -96 -132 -180 -228
-531 -31 -113 -72 -250 -91 -305 -85 -246 -119 -417 -112 -570 4 -88 8 -108
34 -155 56 -105 209 -235 338 -287 205 -84 543 -85 745 -1 128 53 190 99 267
200 90 116 130 251 120 398 -23 305 -268 1022 -417 1216 -45 58 -137 127 -201
150 -68 24 -173 27 -248 7z"/>
<path d="M9108 25924 c-109 -20 -290 -78 -362 -117 -156 -83 -265 -263 -266
-438 0 -78 40 -209 103 -338 79 -159 139 -246 236 -341 129 -128 254 -186 424
-196 97 -7 153 4 262 49 93 38 349 231 391 294 9 15 36 50 58 78 55 67 133
219 158 308 14 51 20 106 21 187 1 139 -21 218 -88 309 -69 94 -165 149 -334
192 -103 26 -487 34 -603 13z"/>
<path d="M37190 18613 c-19 -2 -78 -12 -130 -23 -52 -10 -129 -24 -170 -29
-166 -23 -521 -146 -695 -242 -146 -81 -265 -172 -392 -302 -99 -102 -128
-140 -180 -233 -173 -306 -240 -542 -259 -903 -10 -195 17 -314 123 -541 85
-181 170 -297 336 -457 225 -216 456 -337 889 -467 754 -227 1125 -198 1417
110 163 171 246 343 316 654 68 302 80 414 79 750 0 317 -11 445 -55 657 -69
335 -163 530 -338 704 -150 149 -326 249 -529 300 -100 25 -130 29 -246 27
-72 0 -147 -3 -166 -5z"/>
<path d="M39153 17769 c-179 -30 -369 -171 -457 -339 -77 -146 -110 -279 -137
-545 -25 -245 -6 -953 30 -1110 68 -298 142 -418 339 -549 181 -120 341 -163
567 -153 137 6 231 23 329 57 75 26 244 119 317 176 125 96 283 293 364 454
52 102 66 166 68 292 1 95 -5 136 -32 258 -42 179 -83 288 -173 455 -91 167
-162 271 -389 565 -63 81 -187 220 -228 256 -171 148 -396 217 -598 183z"/>
<path d="M37892 15265 c-159 -25 -350 -79 -437 -122 -207 -105 -384 -280 -485
-482 -78 -156 -103 -388 -60 -556 61 -240 288 -477 580 -605 239 -105 445
-156 719 -179 264 -21 487 57 666 233 164 162 274 395 331 701 22 122 22 415
-1 499 -59 219 -266 416 -510 485 -79 22 -253 40 -450 45 -178 4 -217 2 -353
-19z"/>
<path d="M9991 14625 c-29 -8 -90 -34 -135 -57 -66 -34 -102 -63 -196 -157
-119 -120 -183 -206 -285 -388 -31 -55 -77 -127 -103 -159 -66 -81 -191 -262
-298 -428 -49 -76 -112 -165 -141 -197 -104 -116 -138 -220 -131 -402 4 -106
7 -120 38 -183 52 -106 143 -191 271 -252 138 -66 206 -83 369 -89 123 -5 149
-2 285 26 280 57 612 169 794 270 143 78 253 205 303 349 34 99 32 347 -6 597
-37 245 -102 574 -132 665 -57 171 -170 312 -302 377 -70 35 -82 38 -176 40
-66 2 -119 -2 -155 -12z"/>
<path d="M11438 13460 c-103 -18 -270 -133 -384 -266 -91 -105 -231 -351 -255
-447 -19 -77 -7 -173 31 -248 69 -136 123 -178 318 -248 239 -86 430 -92 541
-18 80 55 148 126 179 189 45 91 56 192 48 418 -7 207 -30 341 -71 425 -47 96
-153 172 -275 195 -58 11 -65 11 -132 0z"/>
<path d="M10407 12454 c-37 -7 -108 -32 -158 -54 -49 -22 -94 -40 -99 -40 -14
0 -244 -119 -385 -199 -175 -99 -252 -189 -275 -322 -26 -146 38 -287 173
-382 77 -54 255 -149 339 -180 68 -26 166 -48 290 -67 92 -14 176 -1 252 37
82 41 101 59 159 146 68 102 108 195 135 317 36 159 40 173 64 235 33 88 33
232 -1 295 -60 114 -153 187 -271 214 -81 19 -130 19 -223 0z"/>
<path d="M49920 15186 c-41 -29 -208 -141 -370 -251 -162 -109 -335 -226 -385
-260 -49 -34 -202 -137 -340 -230 -242 -163 -408 -275 -815 -550 -107 -73
-287 -194 -400 -270 -113 -76 -279 -188 -370 -250 -91 -61 -271 -183 -400
-270 -129 -87 -296 -200 -370 -250 -74 -50 -224 -152 -334 -226 -116 -78 -212
-150 -231 -174 -49 -60 -84 -136 -97 -214 -11 -62 -9 -80 10 -173 25 -113 23
-109 357 -703 84 -148 167 -297 185 -330 18 -33 101 -181 185 -330 83 -148
167 -297 185 -330 33 -61 255 -457 584 -1042 101 -181 196 -350 211 -378 26
-47 115 -206 532 -950 99 -176 195 -347 213 -380 18 -33 101 -181 185 -330 83
-148 167 -297 185 -330 30 -56 106 -190 583 -1040 101 -181 197 -352 212 -380
15 -27 98 -176 185 -330 86 -154 206 -368 266 -475 l109 -195 3 864 2 864
-107 191 c-59 105 -184 328 -278 496 -95 168 -187 332 -205 365 -31 57 -98
176 -537 960 -99 176 -195 347 -213 380 -18 33 -112 202 -210 375 -97 173
-262 468 -367 655 -105 187 -274 489 -376 670 -101 182 -197 353 -212 380 -15
28 -101 181 -190 340 -90 160 -245 436 -345 615 -100 179 -184 327 -185 330
-2 3 58 47 133 97 75 50 209 140 297 200 88 60 286 194 440 298 154 103 354
239 445 300 242 163 537 363 770 520 113 76 279 188 370 250 253 171 691 466
733 494 l37 25 0 513 c0 282 -1 513 -2 512 -2 0 -37 -24 -78 -53z"/>
<path d="M49850 12900 c-80 -49 -158 -98 -175 -108 -16 -11 -178 -111 -360
-222 -181 -111 -346 -213 -365 -225 -19 -12 -146 -91 -281 -174 -208 -127
-257 -162 -313 -221 -97 -103 -136 -195 -136 -319 1 -99 32 -175 144 -346 121
-184 136 -207 273 -420 60 -93 143 -222 185 -285 41 -63 101 -155 133 -205
115 -180 192 -298 290 -448 55 -84 127 -195 160 -247 33 -52 96 -150 140 -217
44 -68 110 -169 146 -225 37 -57 105 -161 151 -233 46 -71 100 -154 119 -184
l34 -54 3 777 2 777 -43 67 c-24 37 -70 108 -102 157 -123 192 -194 301 -290
448 -55 84 -120 184 -144 223 -25 38 -78 120 -118 182 -40 62 -73 116 -73 121
0 5 7 12 17 15 13 5 325 196 710 435 l42 26 1 498 c0 273 -1 497 -2 497 -2 0
-68 -41 -148 -90z"/>
<path d="M37950 4563 c-145 -25 -283 -89 -374 -173 -84 -79 -133 -154 -169
-260 -25 -70 -30 -102 -30 -180 -1 -117 13 -181 65 -287 49 -102 110 -166 317
-333 84 -69 213 -174 286 -235 73 -60 201 -166 285 -235 84 -69 174 -143 200
-165 25 -22 90 -76 144 -120 54 -44 158 -129 231 -190 73 -60 176 -146 230
-190 54 -44 117 -96 140 -115 42 -35 227 -188 485 -400 224 -185 434 -359 579
-478 75 -62 178 -147 230 -190 51 -42 112 -93 136 -112 23 -19 113 -93 200
-165 87 -71 190 -157 230 -190 39 -33 102 -85 140 -115 37 -30 103 -84 145
-120 42 -36 107 -90 145 -120 37 -30 104 -85 148 -122 l81 -68 4103 0 4103 0
0 1659 0 1658 -47 6 c-27 3 -140 14 -253 26 -113 11 -266 28 -340 36 -234 26
-419 46 -615 66 -104 10 -273 28 -375 38 -102 11 -297 32 -435 46 -372 39
-583 61 -855 90 -135 14 -330 34 -435 45 -104 11 -298 31 -430 45 -132 14
-325 34 -430 45 -297 31 -638 67 -900 95 -132 14 -325 34 -430 45 -104 10
-298 31 -430 45 -132 14 -325 34 -430 45 -104 11 -298 31 -430 45 -132 14
-325 34 -430 45 -104 11 -298 31 -430 45 -485 51 -857 90 -1285 135 -102 10
-295 31 -430 45 -135 14 -328 35 -430 45 -102 11 -293 31 -425 45 -132 14
-325 34 -430 45 -104 11 -298 31 -430 45 -132 14 -328 34 -435 45 -107 11
-229 24 -270 30 -75 9 -173 11 -220 3z"/>
<path d="M27858 1312 c-58 -75 -303 -401 -546 -724 l-442 -588 2290 0 2291 0
-30 43 c-17 23 -60 80 -97 127 -36 47 -83 108 -104 135 -21 28 -67 87 -101
132 -35 45 -100 128 -143 185 -44 57 -100 130 -126 163 -25 33 -69 89 -96 125
-28 36 -66 85 -85 110 -137 179 -272 351 -280 356 -13 8 -106 12 -439 19 -162
3 -347 8 -410 10 -63 3 -227 7 -365 10 -137 3 -306 8 -375 10 -69 2 -253 7
-410 10 -157 3 -317 8 -357 10 l-72 5 -103 -138z"/>
</g>
</svg>
