<?xml version="1.0" standalone="no"?>
<!DOCTYPE svg PUBLIC "-//W3C//DTD SVG 20010904//EN"
 "http://www.w3.org/TR/2001/REC-SVG-20010904/DTD/svg10.dtd">
<svg version="1.0" xmlns="http://www.w3.org/2000/svg"
 width="5000.000000pt" height="5000.000000pt" viewBox="0 0 5000.000000 5000.000000"
 preserveAspectRatio="xMidYMid meet">

<g transform="translate(0.000000,5000.000000) scale(0.100000,-0.100000)"
fill="#000000" stroke="none">
<path d="M27068 44305 c-2 -3 -56 -7 -119 -10 -63 -3 -139 -10 -169 -15 -30
-5 -82 -12 -115 -14 -91 -8 -158 -16 -175 -21 -9 -3 -51 -10 -95 -16 -113 -15
-105 -14 -270 -48 -299 -61 -762 -189 -905 -249 -14 -6 -77 -31 -140 -56 -157
-61 -211 -85 -385 -173 -181 -91 -294 -154 -358 -199 -26 -19 -49 -34 -52 -34
-6 0 -90 -59 -175 -124 -67 -51 -130 -112 -212 -206 l-48 -54 -50 56 c-224
251 -525 483 -856 660 -49 26 -109 59 -134 72 -163 90 -443 197 -644 247 -45
11 -99 25 -121 30 -95 24 -237 50 -320 59 -49 6 -121 15 -158 20 -234 34 -746
45 -947 22 -253 -30 -298 -36 -410 -56 -242 -43 -389 -83 -820 -221 -184 -59
-282 -98 -540 -217 -89 -41 -235 -122 -329 -182 -132 -84 -391 -306 -391 -335
0 -4 -13 -25 -30 -46 -39 -49 -42 -114 -6 -150 45 -45 87 -49 376 -35 313 14
261 13 445 7 220 -7 349 -16 450 -32 50 -8 144 -21 210 -30 66 -10 129 -21
140 -25 11 -5 40 -12 65 -16 42 -6 171 -44 215 -64 11 -5 38 -14 60 -21 120
-36 385 -184 524 -292 171 -133 331 -323 458 -542 38 -66 200 -398 227 -466
52 -131 85 -227 101 -295 39 -167 53 -230 53 -244 0 -8 6 -64 13 -125 6 -60
12 -182 13 -270 l1 -160 -110 -21 c-60 -11 -209 -46 -330 -76 -121 -31 -283
-70 -360 -88 -194 -44 -468 -138 -815 -280 -52 -22 -205 -82 -340 -135 -584
-229 -998 -417 -1478 -672 -530 -281 -870 -487 -1213 -732 -57 -41 -201 -143
-319 -227 -118 -84 -261 -190 -317 -236 -56 -46 -167 -136 -246 -200 -79 -64
-168 -138 -198 -165 -30 -27 -92 -80 -139 -118 -146 -117 -245 -210 -549 -510
-421 -416 -627 -645 -972 -1081 -323 -408 -474 -638 -721 -1094 -337 -624
-390 -744 -800 -1820 -226 -593 -281 -756 -473 -1381 -53 -173 -124 -397 -156
-499 -33 -102 -96 -309 -140 -460 -99 -338 -253 -809 -539 -1645 -120 -352
-244 -716 -276 -810 -31 -93 -77 -222 -101 -285 -80 -209 -160 -424 -189 -510
-15 -47 -38 -99 -50 -116 -12 -16 -33 -52 -47 -80 -33 -66 -89 -164 -125 -216
-16 -24 -43 -72 -59 -108 -16 -36 -70 -119 -119 -185 -49 -66 -138 -193 -199
-283 -186 -275 -231 -339 -282 -404 -27 -35 -106 -145 -174 -246 -68 -100
-149 -219 -181 -265 -31 -45 -55 -84 -53 -87 2 -3 -37 -57 -86 -120 -98 -126
-260 -340 -330 -436 -24 -34 -77 -106 -118 -160 -103 -137 -321 -462 -418
-624 -360 -602 -601 -1212 -677 -1710 -44 -286 -61 -561 -46 -747 12 -159 65
-426 130 -659 47 -169 194 -435 277 -500 21 -18 50 -54 64 -80 36 -71 93 -107
173 -112 74 -5 125 16 174 72 33 37 40 59 72 203 25 113 107 476 130 573 l18
75 1 -180 c5 -696 63 -1340 162 -1790 55 -251 137 -474 282 -762 60 -118 194
-310 302 -433 126 -142 344 -354 445 -431 41 -32 89 -69 105 -82 56 -45 91
-57 165 -57 69 0 70 0 108 41 82 90 90 131 57 296 -23 116 -47 437 -32 423 3
-3 31 -56 62 -119 77 -155 123 -220 229 -326 117 -117 134 -129 301 -218 180
-96 266 -127 352 -127 63 0 65 -1 60 -23 -93 -424 -106 -477 -245 -1007 -114
-433 -204 -738 -272 -930 -46 -127 -89 -250 -246 -697 -36 -104 -81 -228 -101
-278 -104 -264 -388 -1077 -511 -1465 -104 -327 -313 -1025 -346 -1155 -167
-654 -241 -1388 -216 -2120 21 -601 75 -1223 129 -1475 39 -183 104 -448 123
-500 11 -30 44 -136 73 -235 78 -264 124 -385 235 -625 53 -112 208 -406 255
-479 13 -22 50 -86 81 -143 157 -283 485 -753 722 -1033 112 -132 408 -426
502 -498 357 -275 483 -362 744 -509 337 -191 778 -373 1156 -478 96 -26 182
-51 190 -54 8 -3 121 -26 250 -51 200 -39 275 -49 509 -65 154 -11 280 -16
289 -11 10 6 31 -1 64 -22 81 -50 186 -40 244 25 73 79 71 130 -11 355 -36 98
-81 230 -99 293 -19 63 -61 205 -94 315 -108 356 -141 533 -177 930 -30 345
-48 1094 -30 1330 3 39 10 151 15 250 19 323 64 774 85 845 2 8 18 105 35 214
16 110 32 201 34 203 2 3 7 -15 11 -39 22 -132 70 -306 160 -574 228 -681 572
-1199 1102 -1657 54 -46 142 -125 195 -174 87 -80 174 -149 403 -319 39 -28
113 -77 165 -109 86 -52 126 -75 240 -136 19 -11 42 -19 52 -19 9 0 20 -5 23
-10 15 -23 86 -50 135 -50 125 0 209 98 197 231 -9 107 -47 426 -63 544 -12
84 -17 187 -17 345 0 293 14 386 113 750 28 102 62 228 77 280 14 52 56 167
95 255 38 88 92 215 121 282 28 67 53 121 54 119 2 -2 -8 -81 -21 -177 -28
-197 -46 -379 -41 -424 2 -16 6 -66 10 -110 16 -194 84 -450 184 -687 57 -137
117 -242 200 -352 32 -43 62 -92 65 -109 14 -71 99 -137 176 -137 43 0 107 29
137 61 51 56 56 87 64 369 5 146 12 282 16 302 l8 37 39 -87 c37 -81 67 -141
216 -427 111 -212 236 -421 317 -530 101 -135 379 -536 518 -745 286 -432 475
-891 516 -1255 64 -578 74 -992 30 -1295 -11 -75 -101 -400 -151 -546 -76
-224 -122 -369 -140 -449 -10 -44 -26 -100 -34 -124 -21 -56 -20 -87 3 -137
56 -124 210 -164 631 -164 152 0 217 4 295 19 55 11 145 27 200 35 106 16 403
89 438 108 12 6 69 26 127 43 177 55 361 137 753 336 109 55 437 259 562 348
44 32 107 75 140 95 33 21 81 55 106 77 26 21 109 80 185 130 77 51 173 120
215 154 41 35 113 90 160 124 46 34 120 91 164 127 44 36 177 146 295 243 118
97 242 201 275 231 33 31 83 73 110 95 100 78 293 257 441 407 297 302 396
414 598 679 44 57 110 142 146 189 164 209 758 1137 864 1348 157 314 274 622
345 907 39 157 41 106 5 -175 -26 -208 -30 -278 -25 -519 l2 -135 42 -42 c63
-63 111 -67 241 -24 148 50 337 147 461 236 61 43 135 96 165 117 147 100 534
463 654 612 83 104 235 332 348 520 58 98 273 503 307 580 50 113 137 369 162
479 17 72 36 153 43 180 l12 49 50 -59 c146 -171 254 -312 421 -554 95 -137
122 -188 209 -390 69 -161 176 -538 254 -890 33 -151 35 -504 5 -730 -15 -110
-54 -446 -62 -539 -12 -133 72 -231 197 -231 49 0 120 27 135 50 3 5 14 10 23
10 10 0 33 8 52 19 114 61 154 84 240 136 52 32 127 81 165 109 229 170 316
239 403 319 53 49 141 128 195 174 287 249 484 473 701 798 105 158 271 495
356 725 82 221 181 564 205 708 4 24 9 42 11 39 2 -2 18 -93 34 -203 17 -109
33 -206 35 -214 24 -83 70 -570 95 -1002 21 -379 10 -1032 -25 -1423 -36 -398
-70 -574 -177 -930 -33 -110 -75 -252 -94 -315 -18 -63 -63 -195 -99 -293 -69
-191 -78 -242 -49 -300 39 -77 93 -110 176 -110 47 0 67 5 106 30 33 21 54 28
64 22 9 -5 135 0 289 11 234 16 309 26 509 65 129 25 242 48 250 51 8 3 94 28
190 54 378 105 819 287 1156 478 261 147 387 234 744 509 94 72 390 366 502
498 237 280 565 750 722 1033 31 57 68 121 81 143 47 73 202 367 255 479 113
244 153 350 230 610 32 107 67 220 78 250 11 30 37 127 57 215 20 88 43 182
51 209 57 196 121 888 144 1548 25 735 -49 1468 -216 2123 -35 136 -245 839
-351 1170 -128 402 -402 1186 -506 1450 -20 50 -65 173 -101 275 -35 102 -101
289 -146 415 -154 434 -257 768 -355 1150 -26 99 -75 288 -110 420 -35 132
-73 290 -85 350 -12 61 -32 155 -46 209 -13 54 -24 103 -24 107 0 5 27 9 61 9
84 0 181 35 356 128 247 130 392 277 519 527 36 72 69 132 71 135 14 13 -10
-308 -31 -422 -31 -169 -24 -209 56 -297 37 -40 39 -41 106 -41 51 0 78 5 109
23 203 111 613 519 793 787 163 243 330 638 396 935 23 104 81 462 98 605 36
291 59 720 69 1260 l2 125 49 -220 c26 -121 58 -260 71 -310 12 -49 26 -110
30 -135 30 -185 107 -267 240 -258 81 5 135 39 169 107 14 27 45 66 70 87 90
79 223 318 275 495 62 213 118 500 131 662 15 199 -8 530 -56 805 -84 483
-332 1096 -667 1652 -98 163 -335 515 -425 633 -43 55 -101 134 -131 176 -60
85 -177 240 -310 411 -85 108 -89 115 -70 128 10 7 19 20 19 28 0 8 -50 65
-112 127 -78 79 -133 146 -186 227 -42 63 -144 210 -227 325 -83 116 -188 265
-233 332 -45 68 -121 176 -168 240 -48 65 -98 143 -112 173 -14 30 -41 80 -60
110 -57 89 -122 201 -122 209 0 4 -17 35 -39 68 -21 32 -53 104 -71 159 -18
54 -60 169 -92 254 -120 313 -163 435 -323 905 -90 264 -210 620 -268 790
-177 519 -332 997 -407 1255 -39 135 -111 371 -160 525 -49 154 -125 399 -170
545 -198 644 -326 999 -724 2010 -161 410 -279 659 -529 1120 -246 453 -396
680 -716 1084 -345 436 -551 665 -972 1081 -304 300 -403 393 -549 510 -47 38
-109 91 -139 118 -30 27 -119 101 -198 165 -79 64 -190 154 -246 200 -56 46
-199 152 -317 236 -118 84 -262 186 -319 227 -338 242 -648 430 -1162 705
-525 280 -921 461 -1529 699 -135 53 -288 113 -340 135 -107 43 -181 72 -320
124 -237 88 -324 116 -450 146 -315 74 -470 112 -541 131 l-75 20 12 77 c7 42
19 102 28 132 8 30 24 89 35 130 41 155 75 253 143 410 43 102 202 394 299
550 48 76 234 346 260 375 207 236 332 362 464 467 169 134 214 167 337 251
113 77 426 257 446 257 4 0 59 23 122 51 63 28 133 57 155 64 22 7 85 30 140
50 121 45 284 103 550 194 110 38 224 78 254 89 l53 19 -37 29 c-21 16 -52 41
-69 55 -17 15 -85 61 -151 102 -66 42 -136 86 -155 98 -156 100 -476 253 -625
298 -39 12 -79 25 -90 30 -27 13 -149 49 -205 60 -25 6 -74 17 -110 26 -36 9
-99 23 -140 30 -41 7 -100 18 -130 25 -55 11 -144 19 -425 39 -143 11 -518 14
-527 6z m370 -271 c120 -4 172 -10 172 -18 0 -6 16 -34 35 -63 63 -94 247
-197 382 -213 85 -10 225 -1 229 15 2 6 -41 27 -96 49 -107 41 -240 130 -274
181 l-18 28 26 -7 c14 -3 76 -15 138 -26 62 -10 142 -26 178 -35 36 -9 99 -24
140 -35 41 -10 105 -27 143 -39 37 -11 97 -30 135 -41 37 -11 76 -24 87 -29
11 -6 63 -27 115 -46 105 -41 127 -54 89 -57 -32 -2 -40 -3 -62 -13 -9 -4 -26
-5 -37 -2 -11 3 -20 1 -20 -5 0 -5 -12 -9 -27 -8 -16 1 -32 1 -38 0 -5 -1 -28
-3 -50 -5 -52 -4 -77 -9 -93 -19 -7 -4 -19 -5 -27 -2 -7 2 -15 1 -17 -4 -2 -5
-23 -12 -48 -14 -25 -3 -45 -5 -45 -6 0 -1 -19 -3 -42 -4 -23 -2 -58 -11 -78
-20 -20 -10 -43 -15 -51 -12 -8 3 -14 2 -14 -3 0 -9 -45 -21 -102 -27 -20 -2
-75 -20 -123 -39 -47 -19 -98 -36 -113 -39 -15 -2 -27 -5 -27 -6 0 -1 -11 -4
-25 -6 -14 -3 -46 -15 -71 -29 -26 -13 -49 -21 -53 -18 -3 4 -6 1 -6 -6 0 -7
-4 -9 -10 -6 -5 3 -10 1 -10 -5 0 -6 -4 -8 -10 -5 -5 3 -10 1 -10 -5 0 -6 -4
-8 -10 -5 -5 3 -10 1 -10 -5 0 -6 -4 -8 -10 -5 -5 3 -10 1 -10 -5 0 -6 -4 -8
-10 -5 -5 3 -10 1 -10 -6 0 -7 -3 -10 -6 -6 -4 3 -30 -6 -58 -20 -28 -15 -54
-26 -58 -25 -5 1 -8 -2 -8 -7 0 -10 -79 -58 -86 -53 -2 1 -13 -7 -24 -18 -12
-12 -25 -18 -30 -15 -6 4 -10 2 -10 -2 0 -5 -12 -14 -27 -20 -37 -15 -87 -46
-91 -56 -2 -4 -8 -5 -13 -1 -5 3 -12 -2 -15 -10 -3 -9 -10 -13 -15 -10 -5 3
-9 1 -9 -4 0 -10 -93 -79 -99 -74 -2 2 -8 -3 -13 -12 -5 -9 -14 -16 -20 -16
-6 0 -30 -16 -54 -35 -24 -20 -46 -35 -49 -35 -3 0 -17 -13 -31 -30 -14 -16
-30 -28 -34 -25 -5 3 -14 -4 -20 -15 -6 -11 -16 -20 -21 -20 -14 0 -122 -98
-129 -116 -3 -8 -47 -56 -98 -106 -146 -147 -242 -250 -242 -259 0 -5 -7 -9
-15 -9 -8 0 -23 -13 -33 -29 -17 -27 -109 -136 -164 -194 -16 -16 -28 -33 -28
-38 0 -5 -6 -9 -13 -9 -7 0 -20 -13 -30 -29 -34 -58 -152 -217 -173 -233 -12
-10 -36 -43 -53 -73 -17 -31 -40 -64 -51 -75 -11 -11 -20 -22 -20 -25 0 -3 0
-9 0 -14 0 -5 -17 -28 -39 -51 -21 -23 -55 -75 -76 -114 -21 -39 -43 -76 -51
-82 -8 -6 -11 -14 -7 -17 3 -4 1 -7 -5 -7 -7 0 -11 -3 -11 -7 3 -19 -3 -32
-25 -57 -13 -16 -37 -65 -54 -109 -17 -45 -47 -109 -67 -141 -19 -33 -38 -71
-41 -85 -14 -59 -46 -159 -65 -200 -11 -24 -23 -67 -25 -95 -3 -28 -10 -53
-15 -57 -6 -3 -10 -10 -9 -15 1 -5 -9 -11 -20 -14 l-22 -5 21 -19 c21 -19 29
-56 12 -56 -11 0 -20 -49 -26 -137 -3 -37 -8 -69 -13 -71 -5 -1 -7 -15 -4 -31
2 -16 -3 -39 -11 -52 -10 -16 -15 -53 -16 -108 -1 -46 -6 -89 -11 -96 -5 -6
-7 -14 -4 -17 3 -3 0 -26 -7 -49 -7 -24 -13 -62 -14 -84 -4 -119 -3 -115 -33
-115 -42 0 -46 -10 -16 -41 20 -21 24 -31 16 -45 -5 -11 -12 -50 -15 -89 -4
-38 -11 -71 -16 -73 -6 -2 -7 -10 -4 -18 3 -9 1 -26 -6 -40 -6 -13 -16 -34
-21 -46 -6 -13 -12 -45 -15 -73 -3 -27 -9 -51 -14 -53 -5 -2 -7 -12 -4 -22 3
-11 1 -20 -5 -20 -6 0 -8 -9 -5 -20 3 -11 0 -20 -6 -20 -5 0 -8 -7 -5 -15 4
-8 2 -15 -2 -15 -5 0 -15 -13 -22 -29 -9 -19 -18 -28 -28 -24 -17 6 -18 -1 -2
-26 9 -14 8 -29 -2 -65 -7 -25 -15 -46 -19 -46 -3 0 -7 -12 -7 -26 -1 -14 -9
-33 -18 -43 -9 -9 -33 -53 -54 -97 -22 -43 -53 -94 -70 -112 -17 -18 -32 -36
-33 -40 -2 -4 -18 -24 -37 -44 -19 -20 -40 -48 -47 -62 -17 -32 -117 -156
-126 -156 -9 0 -122 -92 -132 -108 -5 -7 -12 -10 -18 -7 -5 4 -9 2 -9 -4 0
-11 -74 -57 -100 -63 -8 -2 -21 -9 -28 -15 -7 -7 -22 -13 -33 -13 -11 0 -30
-5 -41 -11 -11 -6 -46 -12 -77 -14 -341 -17 -394 -17 -447 -5 -30 7 -54 17
-54 22 0 5 -4 7 -9 3 -10 -6 -84 25 -89 38 -2 4 -8 5 -13 1 -5 -3 -9 0 -9 6 0
6 -4 8 -10 5 -5 -3 -10 -1 -10 5 0 6 -4 8 -10 5 -5 -3 -10 -2 -10 2 0 5 -21
20 -47 33 -27 14 -50 28 -51 33 -2 4 -7 5 -12 2 -4 -2 -19 6 -33 19 -14 13
-28 22 -30 19 -3 -2 -14 7 -25 21 -10 14 -21 23 -24 21 -5 -6 -121 123 -137
152 -6 12 -23 35 -37 50 -46 50 -122 175 -129 215 -2 11 -18 48 -35 82 -37 77
-55 138 -59 195 -1 24 -7 53 -13 65 -20 37 -39 120 -48 214 -8 78 -7 99 6 124
17 34 12 47 -11 28 -21 -18 -28 -8 -31 48 -1 26 -4 72 -6 102 -1 30 -7 58 -12
61 -5 4 -10 56 -11 116 -1 61 -5 115 -9 121 -4 6 -9 64 -11 129 -3 65 -10 149
-16 186 -6 38 -9 77 -6 88 3 10 1 21 -4 24 -5 3 -6 26 -2 50 3 27 1 57 -7 75
-7 17 -13 50 -14 75 0 25 -4 45 -8 45 -4 0 -7 28 -7 63 1 74 -3 110 -13 118
-5 3 -9 28 -10 57 -2 29 -6 52 -9 52 -3 0 -6 28 -7 61 0 34 -4 64 -10 68 -9 6
-43 143 -48 196 -1 17 -19 73 -39 125 -21 52 -39 106 -42 119 -6 38 -26 79
-87 180 -31 52 -56 103 -56 112 0 10 -7 24 -14 32 -27 26 -135 191 -130 198 2
4 -3 10 -12 13 -8 3 -13 10 -10 15 3 5 -1 14 -9 21 -8 7 -15 18 -15 24 0 7
-16 27 -35 46 -19 18 -33 35 -31 37 1 2 -17 24 -41 50 -23 26 -43 53 -43 60 0
7 -4 13 -10 13 -5 0 -10 7 -10 15 0 8 -56 75 -125 147 -69 73 -132 140 -139
148 -25 30 -105 100 -113 100 -5 0 -23 13 -41 29 -17 17 -32 28 -32 25 0 -2
-18 8 -40 22 -22 15 -40 31 -40 35 0 5 -5 9 -10 9 -6 0 -23 11 -38 25 -15 14
-37 28 -49 31 -13 4 -23 10 -23 16 0 5 -4 6 -10 3 -5 -3 -10 -1 -10 6 0 7 -3
10 -6 6 -8 -7 -126 51 -136 67 -4 6 -8 7 -8 3 0 -5 -12 0 -28 11 -15 11 -46
25 -70 31 -23 7 -42 16 -42 22 0 6 -4 8 -9 5 -10 -6 -113 33 -122 47 -3 5 -10
9 -15 9 -5 0 -25 8 -44 18 -19 9 -41 15 -47 13 -7 -3 -13 0 -13 6 0 6 -7 8
-15 5 -8 -4 -15 -1 -15 5 0 6 -7 8 -15 5 -8 -4 -15 -1 -15 5 0 6 -7 8 -15 5
-8 -4 -15 -1 -15 5 0 6 -7 8 -15 5 -8 -4 -15 -1 -15 6 0 6 -4 9 -9 5 -5 -3
-26 4 -46 16 -20 12 -47 22 -60 22 -14 0 -25 3 -25 7 0 5 -9 6 -20 3 -11 -3
-20 -1 -20 5 0 6 -9 8 -20 5 -11 -3 -20 -1 -20 5 0 6 -9 8 -20 5 -12 -3 -20 0
-20 6 0 7 -5 9 -10 6 -6 -4 -16 -2 -23 3 -14 11 -64 26 -92 27 -67 3 -155 19
-155 28 0 6 -3 8 -6 4 -3 -3 -25 0 -49 8 -24 7 -55 10 -69 8 -14 -3 -26 -1
-26 4 0 5 -16 7 -35 5 -19 -2 -35 0 -35 5 0 5 -16 7 -35 5 -19 -2 -35 0 -35 6
0 14 -64 24 -147 23 -46 -1 -73 3 -73 10 0 6 -8 8 -18 5 -9 -3 -33 -1 -52 4
-19 6 -75 11 -124 11 -55 0 -95 4 -104 11 -10 9 -55 12 -144 10 -72 -1 -148 3
-171 9 -31 8 -50 8 -77 -1 -19 -6 -51 -10 -70 -8 -33 3 -28 7 80 60 245 120
523 220 950 341 92 26 350 86 395 91 142 18 212 27 225 31 8 2 47 7 85 10 39
4 90 8 115 10 25 3 119 7 210 9 l165 4 -60 -28 c-267 -125 -523 -240 -533
-240 -7 0 -12 -6 -12 -14 0 -19 38 -26 150 -27 75 -1 114 5 185 26 50 14 101
28 113 31 28 6 228 105 286 142 23 14 57 41 78 60 l36 34 139 -11 c76 -7 165
-16 198 -21 129 -19 205 -33 205 -40 0 -8 -219 -204 -269 -241 -47 -34 -228
-117 -284 -130 -48 -12 -177 -69 -177 -80 0 -4 24 -13 53 -19 43 -10 83 -9
204 3 132 14 164 21 252 55 56 22 132 58 169 81 71 43 193 154 257 234 30 37
42 46 59 41 17 -4 120 -51 187 -84 8 -4 51 -18 95 -30 43 -12 84 -26 89 -30 6
-4 27 -13 49 -20 21 -7 65 -24 96 -39 l58 -26 -78 -121 c-85 -134 -209 -284
-291 -355 -68 -57 -183 -139 -197 -139 -5 0 -35 -11 -67 -25 -31 -14 -87 -34
-123 -44 l-67 -19 40 -8 c59 -13 189 -11 280 4 63 11 111 29 225 85 137 67
150 76 237 163 89 89 177 211 224 308 13 25 26 46 29 46 15 0 244 -149 305
-198 6 -4 30 -22 55 -39 25 -17 66 -51 93 -75 l47 -43 -110 -123 c-142 -159
-163 -177 -469 -408 -106 -80 -298 -207 -356 -237 -27 -13 -114 -46 -192 -72
-78 -27 -140 -51 -138 -55 10 -17 162 -21 279 -9 150 15 300 61 450 136 273
138 435 267 659 526 l58 67 43 -50 c24 -28 69 -87 101 -133 32 -45 70 -98 85
-117 24 -31 102 -160 158 -261 11 -20 26 -46 33 -58 12 -18 12 -25 0 -43 -8
-13 -28 -45 -45 -73 -95 -155 -220 -293 -440 -484 -333 -289 -447 -355 -738
-432 -103 -27 -117 -34 -97 -42 23 -8 237 -4 341 8 171 19 498 159 661 282
145 110 326 295 420 430 28 40 53 73 56 73 7 0 78 -135 222 -420 55 -107 106
-204 114 -214 24 -32 33 -7 24 69 -15 133 -19 160 -39 235 -10 41 -26 105 -35
143 -9 37 -27 98 -41 135 -14 37 -27 74 -29 82 -2 8 -9 29 -15 45 -6 17 -13
38 -16 49 -3 17 -34 92 -104 256 -16 36 -56 115 -91 175 -34 61 -68 122 -76
137 -8 15 -19 30 -24 33 -5 4 -16 19 -24 35 -14 27 -13 29 33 81 76 85 164
169 204 195 20 13 39 28 42 33 8 13 242 161 254 161 5 0 12 -21 16 -46 8 -58
65 -189 115 -262 87 -129 252 -249 446 -326 87 -34 154 -48 299 -61 90 -9 85
5 -25 70 -169 100 -246 165 -398 334 -150 167 -176 218 -195 384 l-6 48 104
49 c57 27 150 67 207 90 57 23 136 54 174 69 39 16 111 42 162 58 l91 30 38
-76 c48 -99 186 -238 278 -281 159 -73 202 -90 256 -100 82 -15 252 -15 281 0
l23 13 -27 14 c-15 7 -67 29 -116 48 -122 46 -247 138 -387 283 -63 65 -121
148 -112 158 6 5 131 42 168 49 32 6 106 23 200 45 66 16 122 26 198 36 12 1
46 7 75 13 126 26 124 26 152 -32 34 -72 107 -150 190 -203 135 -86 233 -121
360 -130 80 -6 164 8 130 21 -11 5 -60 31 -110 59 -70 40 -115 75 -201 162
-106 105 -152 160 -143 169 3 2 36 6 74 10 39 3 95 9 125 13 81 10 242 12 438
6z m-3693 -8595 c605 -51 1241 -288 1789 -666 1408 -973 2365 -2833 2541
-4943 148 -1773 -253 -3532 -1113 -4879 -530 -830 -1210 -1462 -1967 -1826
-529 -255 -1005 -366 -1570 -366 -458 -1 -852 73 -1278 238 -1876 725 -3236
2972 -3386 5593 -94 1631 256 3188 1002 4465 708 1211 1739 2043 2857 2305
376 89 723 113 1125 79z m-8162 -5289 c372 -31 732 -177 1050 -427 114 -89
364 -348 459 -474 181 -241 357 -565 466 -859 295 -791 332 -1727 101 -2565
-124 -452 -355 -916 -619 -1240 -228 -282 -509 -511 -795 -650 -828 -403
-1754 -149 -2395 656 -595 747 -869 1835 -731 2910 129 1002 601 1861 1276
2318 321 218 642 324 1030 339 22 1 93 -3 158 -8z m15990 0 c372 -31 732 -177
1050 -427 114 -89 364 -348 459 -474 181 -241 357 -565 466 -859 295 -791 332
-1727 101 -2565 -124 -452 -355 -916 -619 -1240 -228 -282 -509 -511 -795
-650 -828 -403 -1754 -149 -2395 656 -595 747 -869 1835 -731 2910 129 1002
601 1861 1276 2318 321 218 642 324 1030 339 22 1 93 -3 158 -8z m-20439
-3080 c-55 -190 -141 -405 -270 -671 -166 -345 -485 -972 -516 -1014 -15 -22
-55 -78 -88 -125 -33 -47 -81 -113 -108 -146 -278 -359 -387 -518 -564 -819
-50 -84 -271 -453 -335 -558 -30 -48 -78 -131 -107 -185 -59 -107 -143 -256
-261 -462 -105 -184 -166 -306 -231 -468 -146 -361 -311 -929 -353 -1220 -21
-143 -41 -383 -41 -497 0 -64 -4 -80 -58 -209 l-16 -39 -8 29 c-4 16 -17 82
-28 147 -18 105 -21 161 -20 530 0 403 5 521 35 797 20 176 38 264 90 440 138
463 325 877 590 1305 84 136 382 585 405 610 10 11 62 85 116 165 54 80 169
240 257 355 88 116 187 248 221 294 34 46 95 128 136 183 41 55 93 124 115
154 22 31 86 117 143 192 57 75 134 178 171 227 37 50 123 173 191 274 69 104
161 226 210 280 101 111 267 352 312 453 17 38 32 67 34 65 2 -1 -8 -41 -22
-87z m26114 -995 c34 -44 107 -142 164 -217 57 -75 121 -161 143 -192 22 -30
74 -99 115 -154 41 -55 102 -137 136 -183 34 -46 133 -178 221 -294 88 -115
203 -275 257 -355 54 -80 106 -154 116 -165 23 -25 321 -474 405 -610 265
-428 452 -842 590 -1305 52 -176 70 -264 90 -440 30 -276 35 -394 35 -797 1
-369 -2 -425 -20 -530 -11 -65 -24 -131 -28 -147 l-8 -29 -16 39 c-9 22 -31
75 -48 119 l-32 80 -4 375 c-4 314 -8 395 -24 500 -46 281 -103 475 -220 751
-90 211 -359 747 -437 873 -90 143 -316 442 -479 631 -83 97 -181 235 -335
475 -258 400 -282 449 -455 935 -84 233 -223 651 -238 710 -9 37 -5 33 72 -70z
m-20497 -4918 c167 -53 632 -168 889 -222 612 -127 813 -163 1085 -195 98 -11
181 -22 183 -24 2 -2 -17 -51 -42 -108 -101 -234 -201 -650 -227 -948 -22
-245 4 -737 50 -965 51 -253 122 -507 215 -772 31 -88 73 -173 86 -173 14 0
14 17 15 690 l0 595 27 175 c102 648 159 919 247 1174 107 308 102 298 136
292 17 -3 122 -10 235 -16 113 -6 268 -15 345 -20 77 -5 153 -10 168 -10 l29
0 -43 -77 c-107 -197 -131 -246 -180 -363 -28 -69 -65 -165 -81 -215 -16 -49
-42 -124 -58 -165 -25 -67 -98 -309 -180 -595 -62 -214 -80 -451 -80 -1009 0
-453 1 -472 46 -811 14 -110 29 -228 31 -262 5 -57 3 -63 -13 -63 -32 -1 -324
30 -429 45 -55 8 -147 19 -205 25 -107 11 -455 70 -565 95 -33 8 -98 21 -145
30 -114 22 -199 47 -360 108 -127 48 -139 55 -195 113 -33 34 -80 92 -104 130
-23 38 -91 141 -149 229 -231 350 -334 550 -422 820 -53 163 -205 734 -312
1175 -32 135 -66 268 -73 295 -8 28 -24 109 -35 180 -50 317 -62 435 -67 664
-6 226 -5 234 13 229 11 -3 85 -26 165 -51z m13178 -187 c-5 -30 -13 -102 -18
-160 -6 -58 -17 -157 -26 -220 -8 -63 -22 -167 -31 -230 -19 -142 -108 -517
-184 -775 -16 -55 -34 -120 -40 -145 -14 -68 -58 -181 -165 -430 -54 -124
-112 -259 -130 -300 -48 -112 -250 -472 -350 -625 -62 -96 -168 -212 -230
-253 -24 -16 -71 -34 -103 -41 -32 -6 -128 -29 -213 -51 -501 -129 -744 -181
-1054 -224 -328 -45 -623 -57 -880 -36 -112 10 -256 28 -262 33 -1 1 20 80 47
174 47 164 75 294 223 1028 128 631 162 844 177 1090 18 289 9 451 -31 563 -6
18 -9 35 -7 37 2 3 101 11 219 20 118 8 243 17 278 20 l63 6 -7 -48 c-3 -26
-18 -106 -31 -178 -59 -315 -106 -695 -119 -960 -7 -132 -41 -384 -76 -555
-25 -120 -222 -864 -246 -927 -11 -29 25 -10 57 30 136 165 313 478 432 762
75 178 157 443 187 605 17 91 36 188 41 215 5 28 16 104 25 170 21 167 81 540
116 722 16 84 29 161 29 172 0 28 7 30 127 46 861 116 1119 160 1369 232 l100
29 -7 -50 c-4 -28 -19 -103 -33 -166 -14 -63 -30 -146 -36 -185 -6 -38 -25
-135 -41 -215 -16 -80 -39 -194 -50 -255 -11 -60 -31 -162 -44 -225 -13 -63
-31 -158 -39 -210 -17 -104 -62 -305 -101 -445 -47 -170 -29 -177 71 -27 107
160 175 283 232 417 28 66 69 165 92 219 100 238 244 706 290 943 10 54 26
130 35 168 9 39 15 89 12 112 l-4 42 46 17 c25 9 96 38 156 64 104 45 138 59
141 56 1 0 -2 -26 -7 -56z m6222 -4925 c119 -445 217 -745 418 -1278 73 -191
149 -403 171 -470 21 -67 75 -225 120 -352 124 -349 346 -1004 389 -1150 22
-71 66 -218 99 -325 94 -304 199 -665 226 -780 86 -360 153 -821 186 -1275 26
-360 4 -997 -55 -1615 -21 -222 -57 -480 -70 -500 -3 -4 -20 -79 -40 -166 -54
-242 -200 -743 -231 -791 -8 -12 -23 -46 -35 -75 -41 -105 -197 -400 -186
-353 2 11 23 85 45 165 88 321 137 557 187 915 13 99 32 232 41 295 10 74 18
218 21 405 5 255 2 313 -17 475 -60 520 -166 1044 -265 1312 -25 68 -95 295
-154 504 -60 210 -139 469 -176 575 -95 275 -215 606 -265 729 -221 550 -330
924 -399 1360 -51 323 -105 841 -122 1170 -20 384 3 1249 38 1450 l6 35 9 -35
c5 -19 32 -120 59 -225z m-16391 -430 c453 -56 965 -129 1055 -151 33 -7 146
-32 250 -54 203 -44 237 -54 555 -162 297 -101 767 -312 1035 -463 61 -34 117
-64 125 -67 24 -9 185 -129 185 -137 0 -4 -34 -36 -75 -71 -112 -95 -215 -197
-389 -385 -298 -323 -486 -575 -648 -865 -202 -364 -387 -905 -359 -1051 19
-102 119 -129 184 -50 20 25 68 122 82 166 7 22 30 76 50 120 20 44 65 145
100 225 34 80 66 150 71 156 5 6 33 60 62 120 110 223 248 435 427 658 268
334 637 691 919 887 290 202 656 381 999 488 300 94 907 226 1242 271 324 43
367 48 450 54 598 40 588 40 947 28 609 -21 1475 -112 1978 -208 271 -52 692
-153 832 -200 62 -20 332 -122 340 -128 7 -5 -74 -296 -120 -431 -89 -260
-278 -724 -312 -765 -7 -8 -56 -94 -110 -190 -116 -208 -181 -317 -251 -423
l-52 -77 -6 62 c-23 220 -63 400 -107 476 -59 104 -155 135 -285 92 -38 -13
-163 -61 -279 -107 -115 -47 -275 -109 -355 -138 -80 -30 -188 -70 -240 -90
-52 -20 -196 -69 -320 -110 -505 -166 -809 -291 -862 -353 -37 -44 -45 -72
-77 -257 -17 -93 -55 -306 -85 -473 -30 -167 -78 -453 -106 -635 -28 -183 -69
-433 -92 -557 -22 -124 -42 -241 -45 -262 -5 -33 -9 -37 -52 -48 -25 -7 -77
-20 -116 -31 -38 -10 -140 -35 -225 -55 -85 -19 -184 -44 -220 -54 -36 -11
-144 -35 -240 -53 -257 -51 -233 -49 -225 -20 11 46 54 337 69 473 27 238 39
506 33 745 -15 579 -108 851 -306 896 -32 7 -391 -17 -601 -41 -312 -36 -809
-125 -1120 -201 -279 -69 -510 -181 -609 -296 -44 -52 -53 -74 -150 -410 -63
-217 -96 -369 -165 -758 -30 -170 -73 -391 -96 -489 -22 -99 -40 -188 -40
-199 0 -18 -10 -18 -277 -13 -304 7 -401 15 -663 52 -866 124 -1438 263 -2005
486 -124 49 -509 217 -760 331 -161 73 -504 252 -768 402 -112 64 -118 69
-112 93 4 15 8 114 11 222 6 274 23 500 57 765 8 61 20 164 27 230 14 143 51
353 119 680 27 132 57 294 66 360 18 130 106 697 130 835 8 47 15 108 15 135
-1 89 -54 170 -135 205 -77 34 -306 41 -595 20 -253 -18 -411 -30 -560 -40
-283 -20 -558 -51 -760 -85 -551 -93 -893 -156 -919 -169 -15 -8 -41 -28 -58
-44 l-31 -28 -6 25 c-18 87 -75 361 -80 389 -3 20 -1 32 5 32 6 0 72 27 146
61 475 212 1119 407 1638 493 389 65 979 124 1615 161 146 8 290 17 320 19
141 10 810 -4 930 -19z m-8376 -445 c1 -200 -10 -512 -34 -945 -6 -99 -15
-287 -20 -417 -11 -269 -28 -431 -70 -668 -16 -91 -36 -214 -44 -275 -15 -109
-51 -241 -120 -445 -20 -58 -43 -134 -52 -170 -24 -97 -137 -471 -204 -670
-58 -172 -124 -409 -175 -625 -14 -60 -39 -152 -56 -204 -98 -307 -173 -632
-219 -951 -63 -441 -87 -1225 -47 -1555 38 -307 109 -651 253 -1229 88 -352
233 -651 533 -1101 187 -279 184 -275 177 -275 -3 0 -59 75 -126 168 -66 92
-133 183 -148 202 -16 19 -73 109 -128 200 -55 91 -111 181 -123 200 -70 109
-379 677 -430 790 -18 41 -46 102 -61 135 -50 107 -178 541 -235 799 -20 87
-37 162 -40 166 -13 20 -49 278 -70 500 -59 618 -81 1255 -55 1615 33 454 100
915 186 1275 27 115 132 476 226 780 33 107 77 254 99 325 43 146 265 801 389
1150 45 127 99 285 120 352 22 67 98 279 171 470 72 191 163 444 203 561 l71
214 14 -79 c9 -49 14 -158 15 -293z m6381 -867 c-69 -496 -119 -839 -135 -923
-11 -58 -28 -166 -39 -240 -11 -74 -29 -196 -41 -270 -54 -362 -63 -506 -53
-825 5 -126 6 -288 3 -358 l-5 -128 -86 71 -87 72 -6 76 c-19 224 -26 375 -26
537 0 297 -30 889 -51 1020 -17 107 -53 275 -60 275 -17 0 -88 -271 -144 -555
-78 -390 -96 -544 -96 -812 0 -112 -2 -203 -5 -203 -8 0 -153 121 -238 200
-333 306 -411 381 -488 467 -303 343 -365 427 -564 774 -201 349 -246 431
-279 511 l-33 78 36 -6 c44 -6 240 22 527 76 324 61 612 100 915 125 41 3 116
11 166 16 50 6 242 21 425 34 184 12 342 23 352 24 14 1 16 -5 12 -36z m11174
-1245 c19 -140 31 -333 31 -493 l0 -152 -51 -64 c-146 -183 -506 -556 -728
-754 -195 -174 -499 -425 -514 -425 -4 0 -7 25 -7 56 0 30 -4 97 -10 147 -5
51 -17 164 -26 252 -15 157 -46 351 -64 410 -5 17 -14 49 -20 73 -6 23 -15 42
-20 42 -34 0 -92 -217 -140 -520 -17 -107 -35 -220 -40 -250 -9 -51 -22 -202
-36 -401 l-5 -85 -82 -51 c-98 -61 -153 -89 -272 -140 l-91 -39 28 134 c15 74
50 283 78 465 28 183 84 521 126 752 41 231 77 434 81 452 5 31 10 34 161 94
85 34 300 110 476 169 177 59 350 119 386 132 36 14 139 53 230 87 188 71 304
117 405 160 39 17 75 31 81 31 7 0 16 -33 23 -82z m-3860 -1065 c38 -170 46
-269 46 -588 0 -378 -16 -570 -81 -965 -37 -228 -38 -230 -79 -230 -19 0 -78
-7 -132 -15 -289 -43 -578 -79 -762 -95 -131 -11 -250 -25 -396 -45 -55 -8
-128 -16 -162 -19 -70 -5 -70 -5 -53 69 20 89 69 460 90 679 5 60 10 236 10
390 -1 247 -2 278 -15 256 -22 -40 -69 -179 -135 -405 -34 -115 -107 -352
-161 -525 -55 -173 -109 -351 -120 -396 -11 -44 -24 -85 -27 -91 -4 -6 -74
-14 -171 -18 -156 -7 -163 -7 -157 11 22 72 90 379 116 524 63 358 102 549
140 695 69 264 117 416 137 431 34 27 158 83 251 114 252 84 923 207 1337 245
349 32 311 35 324 -22z m6532 -2573 c78 -27 123 -56 181 -117 59 -64 83 -111
113 -226 47 -179 52 -373 15 -532 -5 -22 -10 -54 -10 -71 0 -18 -12 -72 -26
-120 -14 -49 -32 -114 -39 -144 -41 -177 -149 -418 -236 -527 -60 -75 -159
-163 -184 -163 -32 0 -60 83 -86 260 -6 41 -19 113 -29 160 -10 47 -28 135
-40 195 -45 226 -64 303 -101 415 -21 63 -55 182 -75 264 -46 189 -45 274 3
379 54 115 166 209 279 236 70 16 171 12 235 -9z m-14923 -460 c155 -82 217
-234 179 -433 -9 -45 -21 -116 -27 -157 -11 -72 -32 -161 -64 -273 -8 -29 -26
-95 -40 -147 -14 -52 -39 -144 -55 -205 -17 -60 -37 -147 -45 -192 -17 -92
-29 -117 -63 -132 -57 -26 -107 0 -202 105 -45 50 -61 79 -102 184 -26 69 -48
133 -49 143 0 9 -11 63 -24 120 -65 272 -72 482 -25 722 21 108 84 203 166
252 77 45 112 54 203 50 74 -3 93 -7 148 -37z m11415 -280 c50 -15 80 -33 122
-72 125 -114 151 -265 75 -437 -15 -36 -42 -109 -60 -161 -50 -151 -151 -347
-216 -419 -88 -97 -177 -147 -199 -111 -3 5 -19 87 -36 182 -16 95 -41 238
-55 317 -14 79 -36 171 -51 205 -38 90 -43 210 -12 291 33 89 123 176 210 204
82 26 141 26 222 1z m7440 -25 c81 -21 132 -50 195 -108 61 -59 93 -109 121
-189 34 -99 73 -310 78 -424 11 -224 -30 -524 -91 -672 -13 -32 -26 -70 -30
-87 -4 -16 -33 -77 -64 -135 -31 -58 -64 -123 -73 -145 -14 -36 -157 -287
-214 -375 -13 -19 -64 -81 -115 -138 -83 -92 -101 -107 -181 -147 -95 -48
-128 -54 -153 -29 -32 32 -32 26 9 664 8 129 17 323 20 430 2 107 7 292 11
410 6 206 5 220 -19 330 -37 169 -39 182 -27 256 16 98 58 180 128 246 117
111 259 151 405 113z m-23370 -618 c65 -33 141 -110 169 -175 25 -55 34 -169
19 -227 -5 -22 -23 -87 -39 -145 -50 -179 -104 -409 -128 -545 -13 -71 -30
-168 -38 -215 -20 -109 -46 -364 -46 -446 0 -56 -3 -65 -24 -79 -29 -19 -44
-13 -122 49 -182 146 -307 465 -354 901 -20 190 9 467 70 649 40 121 123 208
234 248 74 27 186 20 259 -15z m14686 -534 c-181 -530 -503 -1174 -882 -1761
-184 -284 -494 -745 -621 -922 -129 -180 -361 -464 -491 -601 -55 -58 -167
-177 -250 -264 -147 -154 -272 -273 -490 -465 -60 -52 -133 -118 -164 -146
-60 -55 -261 -221 -326 -269 -22 -16 -89 -73 -150 -125 -148 -129 -293 -245
-389 -311 -43 -30 -153 -110 -245 -178 -91 -69 -222 -160 -291 -204 -69 -43
-172 -111 -230 -151 -121 -82 -279 -174 -465 -270 l-130 -67 170 166 c94 91
218 210 277 263 195 178 592 554 697 661 124 126 464 496 682 742 343 386 503
587 1201 1519 527 704 582 775 824 1058 205 238 256 298 359 426 44 55 99 122
121 150 23 28 67 83 98 121 99 125 149 184 269 323 65 75 131 151 146 169 106
124 214 223 281 259 25 12 46 23 47 24 1 0 -20 -66 -48 -147z m-5012 -1714
c70 -34 105 -71 141 -147 33 -74 37 -146 16 -282 -33 -200 -17 -869 26 -1075
23 -113 29 -129 75 -189 20 -27 33 -52 28 -57 -16 -16 -166 -13 -225 4 -58 18
-211 115 -227 145 -5 9 -32 45 -59 80 -52 64 -176 289 -188 339 -4 15 -15 45
-26 66 -53 106 -80 384 -59 607 13 132 43 288 66 344 24 57 89 130 143 159 99
54 185 55 289 6z m621 -545 c71 -29 123 -97 136 -180 5 -28 1 -65 -14 -120
-28 -106 -40 -243 -40 -457 l-1 -177 -32 16 c-106 55 -226 246 -323 514 -62
170 -52 282 33 362 59 56 164 75 241 42z"/>
<path d="M23185 33594 c-426 -51 -807 -181 -1200 -407 l-70 -41 83 -38 c100
-45 236 -132 314 -199 l57 -50 58 30 c315 159 711 251 1076 251 510 0 981
-148 1434 -450 893 -593 1524 -1701 1718 -3011 64 -436 72 -990 20 -1449 -117
-1032 -533 -1999 -1145 -2661 l-89 -96 17 -59 c26 -92 23 -393 -5 -494 -11
-41 -19 -77 -18 -79 2 -2 50 37 107 85 829 714 1395 1816 1577 3069 46 320 55
453 56 865 0 468 -18 692 -85 1076 -141 803 -452 1559 -889 2164 -577 800
-1340 1314 -2176 1466 -243 44 -608 56 -840 28z"/>
<path d="M23375 32100 c-174 -15 -409 -69 -526 -118 l-39 -17 -4 -145 c-10
-373 -149 -701 -407 -959 -249 -249 -558 -385 -927 -407 l-107 -7 -32 -76
c-94 -224 -179 -513 -232 -791 -100 -524 -100 -1114 0 -1640 206 -1080 783
-1934 1568 -2319 250 -123 496 -191 735 -203 l48 -2 27 79 c57 170 130 286
261 415 136 134 286 220 463 264 241 61 478 35 705 -75 l104 -50 83 88 c508
540 825 1274 926 2148 30 259 30 685 0 950 -125 1102 -626 2029 -1361 2518
-194 129 -456 246 -675 301 -161 41 -439 62 -610 46z"/>
<path d="M20215 30973 c-175 -456 -290 -950 -352 -1518 -25 -230 -25 -920 0
-1155 25 -230 53 -416 93 -616 269 -1346 984 -2470 1956 -3076 424 -264 874
-417 1353 -459 178 -16 503 -6 670 20 209 33 200 28 110 67 -151 65 -307 188
-404 317 l-41 54 -173 6 c-371 13 -687 94 -1037 268 -304 151 -536 322 -810
598 -515 516 -902 1232 -1104 2041 -71 281 -106 487 -148 860 -17 154 -17 822
0 990 45 440 114 786 240 1184 l46 149 -44 36 c-83 66 -201 185 -257 259 -31
39 -57 72 -58 72 -1 0 -19 -44 -40 -97z"/>
<path d="M15353 29219 c-172 -16 -372 -73 -528 -151 -90 -46 -255 -149 -255
-160 0 -5 15 -8 33 -8 41 0 124 -24 200 -57 l58 -26 87 41 c205 97 352 127
587 119 183 -5 288 -28 444 -96 508 -218 904 -757 1055 -1433 52 -232 60 -313
60 -613 0 -212 -4 -306 -17 -388 -61 -397 -184 -734 -373 -1025 -30 -45 -54
-87 -54 -91 0 -5 13 -37 30 -72 16 -35 34 -93 39 -128 6 -35 12 -65 14 -68 7
-6 140 173 202 272 65 102 178 331 223 450 45 119 97 305 126 451 41 201 56
368 56 599 0 231 -15 398 -56 599 -222 1116 -1037 1870 -1931 1785z"/>
<path d="M15354 28459 c-80 -12 -180 -43 -177 -56 51 -259 -12 -481 -186 -653
-85 -84 -196 -147 -311 -177 -58 -15 -219 -21 -285 -11 -17 3 -25 -11 -52 -89
-176 -507 -141 -1138 90 -1613 95 -195 250 -400 393 -518 267 -220 581 -304
886 -236 l67 15 16 57 c24 82 61 148 112 203 98 105 205 149 362 149 l97 0 35
48 c153 203 275 484 328 752 55 281 57 586 6 863 -84 450 -313 842 -625 1071
-72 53 -227 134 -305 159 -129 42 -310 56 -451 36z"/>
<path d="M13830 27903 c-85 -220 -146 -476 -176 -733 -23 -201 -15 -608 15
-795 68 -421 203 -780 411 -1092 329 -496 773 -785 1283 -834 158 -15 329 -1
491 41 174 45 337 120 260 120 -27 0 -135 61 -178 100 l-43 40 -99 -27 c-133
-35 -382 -44 -519 -18 -586 108 -1067 615 -1290 1356 -78 262 -109 517 -102
839 7 309 40 518 124 775 l26 80 -49 65 c-27 36 -62 93 -77 128 -16 34 -30 62
-32 62 -2 0 -22 -48 -45 -107z"/>
<path d="M31343 29219 c-461 -41 -909 -319 -1227 -762 -229 -320 -388 -727
-458 -1172 -30 -191 -33 -694 -5 -875 50 -320 142 -622 260 -856 l34 -67 32
60 c18 33 54 81 81 108 l48 47 -30 72 c-101 235 -170 510 -198 790 -18 171 -8
533 19 701 117 723 488 1306 1001 1574 190 98 365 141 580 141 149 0 265 -18
387 -61 48 -16 95 -33 105 -36 10 -3 38 13 73 42 32 26 82 58 111 73 30 14 54
29 54 33 0 9 -171 87 -250 114 -109 37 -239 64 -360 75 -126 11 -125 11 -257
-1z"/>
<path d="M31345 28459 c-248 -35 -506 -189 -693 -412 -317 -377 -472 -921
-421 -1477 21 -239 92 -504 183 -690 l41 -84 60 -16 c202 -54 355 -249 355
-454 0 -27 8 -36 58 -68 429 -273 908 -224 1295 132 277 255 471 670 527 1130
13 110 13 401 0 510 -29 236 -92 464 -173 630 l-32 65 -87 2 c-354 7 -627 269
-663 635 l-6 67 -52 11 c-154 31 -266 37 -392 19z"/>
<path d="M33027 28018 c-20 -29 -58 -75 -85 -102 l-50 -48 24 -58 c60 -148
127 -413 156 -620 20 -143 17 -594 -4 -737 -99 -652 -383 -1180 -807 -1498
-94 -71 -259 -160 -369 -199 -251 -90 -574 -89 -824 0 -93 34 -213 94 -302
151 l-69 44 -79 -40 c-44 -23 -97 -44 -119 -47 -22 -4 -42 -10 -44 -14 -3 -5
24 -31 60 -59 323 -254 719 -378 1092 -342 135 13 307 53 413 96 434 177 790
527 1025 1010 85 175 120 265 168 431 82 279 117 537 117 849 0 310 -36 570
-115 844 -41 140 -136 391 -149 391 -1 0 -19 -24 -39 -52z"/>
</g>
</svg>
