<?xml version="1.0" standalone="no"?>
<!DOCTYPE svg PUBLIC "-//W3C//DTD SVG 20010904//EN"
 "http://www.w3.org/TR/2001/REC-SVG-20010904/DTD/svg10.dtd">
<svg version="1.0" xmlns="http://www.w3.org/2000/svg"
 width="5000.000000pt" height="5000.000000pt" viewBox="0 0 5000.000000 5000.000000"
 preserveAspectRatio="xMidYMid meet">

<g transform="translate(0.000000,5000.000000) scale(0.100000,-0.100000)"
fill="#000000" stroke="none">
<path d="M23350 40609 c-118 -6 -282 -9 -365 -9 -178 0 -577 -17 -690 -30
-184 -21 -467 -61 -560 -79 -55 -10 -185 -35 -290 -55 -104 -20 -307 -65 -450
-101 -143 -35 -321 -78 -395 -96 -74 -17 -189 -51 -255 -75 -247 -88 -313
-113 -415 -154 -139 -56 -419 -167 -605 -240 -410 -160 -884 -379 -1315 -608
-528 -280 -869 -486 -1211 -731 -57 -41 -201 -143 -319 -227 -118 -84 -262
-192 -320 -239 -58 -47 -141 -114 -185 -150 -44 -36 -82 -65 -85 -65 -9 0
-114 224 -144 305 -30 84 -65 210 -100 365 -57 246 -70 298 -103 395 -36 104
-110 251 -174 345 -101 149 -255 258 -446 317 -116 35 -317 39 -428 9 -222
-61 -412 -181 -649 -407 -212 -203 -372 -417 -493 -662 -283 -571 -410 -1057
-464 -1767 -22 -290 1 -603 66 -913 72 -340 186 -707 286 -917 l50 -105 -92
-175 c-210 -400 -292 -593 -661 -1560 -226 -595 -271 -727 -470 -1370 -55
-179 -127 -408 -159 -510 -33 -102 -96 -309 -140 -460 -84 -286 -235 -754
-416 -1285 -58 -170 -178 -526 -268 -790 -160 -470 -203 -592 -323 -905 -32
-85 -74 -200 -92 -254 -18 -55 -50 -127 -71 -159 -22 -33 -39 -64 -39 -68 0
-8 -65 -120 -122 -209 -19 -30 -46 -80 -60 -110 -14 -30 -63 -107 -109 -170
-47 -63 -136 -190 -199 -283 -214 -313 -238 -346 -287 -409 -27 -35 -93 -128
-145 -208 -52 -80 -118 -174 -145 -210 -58 -76 -123 -177 -118 -182 2 -2 -36
-55 -86 -118 -133 -171 -250 -326 -310 -411 -30 -42 -88 -121 -131 -176 -90
-118 -327 -470 -425 -633 -335 -556 -583 -1169 -667 -1652 -48 -275 -71 -606
-56 -805 13 -162 69 -449 131 -662 52 -177 185 -416 275 -495 25 -21 56 -60
70 -87 34 -68 88 -102 169 -107 133 -9 210 73 240 258 4 25 18 86 30 135 13
50 45 189 71 310 l49 220 2 -125 c14 -736 42 -1129 114 -1570 65 -404 119
-583 269 -900 113 -241 216 -401 365 -570 124 -140 343 -352 445 -431 41 -32
89 -69 105 -82 56 -45 91 -57 165 -57 69 0 70 0 108 41 80 89 90 146 53 321
-19 90 -42 410 -28 398 3 -3 31 -57 62 -120 89 -179 151 -260 291 -384 71 -63
123 -98 235 -157 184 -98 270 -129 355 -129 35 0 64 -4 64 -9 0 -4 -11 -53
-24 -107 -14 -54 -34 -148 -46 -209 -12 -60 -50 -218 -85 -350 -35 -132 -84
-321 -110 -420 -98 -381 -195 -698 -345 -1120 -50 -143 -121 -343 -156 -445
-36 -102 -81 -225 -101 -275 -104 -264 -388 -1077 -511 -1465 -85 -267 -306
-1001 -340 -1130 -166 -621 -247 -1405 -222 -2146 21 -629 90 -1385 140 -1537
5 -15 30 -116 55 -224 26 -108 55 -214 65 -237 9 -23 38 -114 64 -204 116
-405 226 -649 539 -1197 130 -229 422 -670 562 -851 210 -272 525 -606 703
-744 383 -299 625 -455 982 -631 286 -142 622 -270 912 -349 98 -27 181 -51
185 -53 5 -3 130 -28 278 -56 234 -43 303 -52 519 -66 152 -9 253 -12 259 -6
5 5 29 -3 59 -22 41 -26 61 -32 107 -32 66 0 109 22 155 78 28 36 31 45 31
110 -1 63 -8 92 -59 227 -32 85 -82 234 -111 330 -29 96 -69 228 -89 293 -71
233 -112 418 -140 627 -76 571 -87 1486 -26 2140 5 58 12 139 15 180 8 103 33
305 45 360 5 25 23 135 40 244 17 110 32 202 34 204 2 2 7 -16 11 -40 24 -148
129 -512 206 -713 95 -249 249 -561 355 -720 201 -302 391 -524 622 -727 58
-51 165 -147 238 -214 157 -142 451 -368 570 -438 34 -19 85 -51 115 -71 29
-19 58 -35 64 -35 6 0 27 -11 45 -25 19 -14 53 -31 75 -37 22 -7 55 -23 73
-36 63 -47 178 -42 238 10 58 51 76 98 71 182 -5 75 -36 355 -61 546 -36 276
-29 564 19 794 13 63 58 242 100 398 62 224 92 316 147 443 38 88 92 215 121
282 28 67 52 121 54 120 2 -3 0 -20 -31 -242 -34 -238 -38 -336 -21 -478 28
-233 73 -405 170 -647 65 -163 123 -266 228 -404 25 -33 48 -73 51 -89 14 -71
99 -137 176 -137 43 0 107 29 137 61 51 56 56 87 64 369 5 146 12 283 17 305
8 38 9 39 17 15 12 -38 145 -307 225 -460 133 -250 254 -454 327 -552 202
-267 611 -877 713 -1061 84 -151 204 -430 247 -572 45 -151 82 -340 93 -475 6
-74 20 -232 31 -350 31 -312 21 -725 -21 -905 -31 -129 -98 -366 -136 -479
-85 -253 -126 -382 -140 -446 -8 -36 -24 -90 -34 -121 -35 -98 -21 -158 50
-223 78 -70 236 -96 583 -96 158 0 219 4 295 20 54 10 143 26 199 34 111 17
398 88 441 110 15 7 68 26 119 40 128 38 238 83 453 188 324 157 402 198 540
285 227 143 551 361 590 397 14 13 93 69 176 124 83 55 179 124 215 154 35 30
91 74 124 96 33 23 100 75 149 114 48 40 127 105 175 144 171 140 397 328 456
380 33 29 109 95 170 146 217 183 623 598 792 807 218 269 384 489 478 631
350 531 622 965 697 1114 157 313 266 596 344 896 41 160 42 126 3 -198 -24
-198 -29 -275 -24 -337 4 -44 7 -122 6 -173 -2 -104 9 -133 64 -170 55 -38
116 -39 220 -2 148 52 342 151 460 236 61 43 135 96 165 117 147 100 534 462
654 612 155 194 352 512 528 850 134 258 124 237 199 438 52 139 76 223 131
462 l14 59 82 -99 c140 -169 157 -191 231 -292 223 -304 264 -374 369 -618 61
-145 187 -579 237 -821 48 -228 55 -520 20 -789 -25 -185 -57 -486 -62 -560
-3 -59 0 -76 19 -109 37 -63 89 -99 152 -104 66 -5 92 0 137 31 19 12 52 28
74 35 22 6 56 23 75 37 18 14 39 25 45 25 6 0 35 16 64 35 30 20 81 52 115 71
119 70 413 296 570 438 73 67 180 163 238 214 231 203 421 425 622 727 106
159 260 471 355 720 77 201 182 565 206 713 4 24 9 42 11 40 2 -2 17 -94 34
-204 17 -109 35 -219 40 -244 12 -55 37 -257 45 -360 3 -41 10 -122 15 -180
61 -654 50 -1569 -26 -2140 -28 -210 -69 -396 -140 -627 -20 -65 -56 -183 -79
-263 -45 -153 -89 -281 -150 -444 -47 -126 -47 -193 2 -253 45 -56 88 -78 154
-78 46 0 66 6 107 32 30 19 54 27 59 22 6 -6 107 -3 259 6 216 14 285 23 519
66 149 28 274 53 278 56 5 3 88 27 185 53 290 79 626 207 912 349 357 176 599
332 982 631 154 120 442 418 633 655 275 341 649 935 882 1397 135 269 208
455 289 740 26 90 55 181 64 204 10 23 39 129 65 237 25 108 50 209 55 224 50
152 119 908 140 1537 17 508 -16 1065 -91 1519 -29 178 -104 537 -135 647 -48
169 -266 891 -336 1110 -123 388 -407 1201 -511 1465 -20 50 -65 173 -101 275
-35 102 -106 302 -156 445 -150 422 -247 739 -345 1120 -26 99 -75 288 -110
420 -35 132 -73 290 -85 350 -12 61 -32 155 -46 209 -13 54 -24 103 -24 107 0
5 29 9 64 9 85 0 171 31 355 129 112 59 164 94 235 157 140 124 202 205 291
384 31 63 59 117 62 120 14 12 -9 -308 -28 -398 -37 -175 -27 -232 53 -321 38
-41 39 -41 108 -41 74 0 109 12 165 57 17 13 64 50 105 82 102 79 321 291 445
431 149 169 252 329 365 570 150 317 204 496 269 900 72 440 107 926 112 1520
1 102 4 162 9 145 4 -16 33 -144 64 -284 32 -140 62 -265 67 -278 5 -13 9 -34
9 -45 0 -12 10 -57 21 -101 36 -133 109 -193 225 -185 80 5 137 42 171 110 13
26 42 62 64 80 85 68 227 323 278 499 62 213 118 500 131 662 15 199 -8 530
-56 805 -84 483 -332 1096 -667 1652 -98 163 -335 515 -425 633 -43 55 -101
134 -131 176 -60 85 -177 240 -310 411 -85 108 -89 115 -70 128 10 7 19 20 19
28 0 8 -50 65 -112 127 -78 79 -133 146 -186 227 -42 63 -144 210 -227 325
-83 116 -188 265 -233 332 -45 68 -121 176 -168 240 -48 65 -98 143 -112 173
-14 30 -41 80 -60 110 -57 89 -122 201 -122 209 0 4 -17 35 -39 68 -21 32 -53
104 -71 159 -18 54 -60 169 -92 254 -120 313 -163 435 -323 905 -90 264 -210
620 -268 790 -181 531 -332 999 -416 1285 -44 151 -107 358 -140 460 -32 102
-104 331 -159 510 -199 643 -244 775 -470 1370 -356 933 -422 1090 -619 1477
l-113 223 51 101 c105 209 230 603 304 956 65 312 88 624 66 913 -54 710 -181
1196 -464 1767 -121 245 -281 459 -493 662 -237 226 -427 346 -649 407 -111
30 -312 26 -428 -9 -191 -59 -345 -168 -446 -317 -107 -157 -185 -343 -235
-560 -15 -63 -36 -155 -47 -205 -32 -137 -67 -262 -95 -340 -34 -93 -145 -325
-156 -325 -5 0 -52 35 -104 78 -53 42 -141 114 -197 160 -56 46 -199 152 -317
236 -118 84 -262 186 -319 227 -342 245 -683 451 -1211 731 -431 229 -905 448
-1315 608 -186 73 -466 184 -605 240 -102 41 -168 66 -415 154 -66 24 -181 58
-255 75 -74 18 -252 61 -395 96 -143 36 -345 81 -450 101 -104 20 -235 45
-290 55 -90 17 -354 55 -555 79 -118 14 -584 33 -657 27 -37 -3 -143 -1 -236
4 -265 13 -879 18 -1117 8z m975 -409 c83 -6 254 -13 380 -15 127 -3 262 -9
300 -14 39 -5 117 -15 175 -21 58 -6 134 -18 170 -25 36 -8 81 -16 100 -19
141 -22 303 -50 405 -72 66 -13 197 -40 290 -59 169 -35 262 -59 445 -116 334
-104 488 -154 520 -168 14 -6 86 -33 160 -60 74 -28 185 -71 245 -96 115 -49
395 -161 625 -250 313 -122 1089 -508 1485 -739 55 -32 147 -85 205 -118 190
-109 494 -303 615 -393 39 -29 147 -105 240 -170 220 -153 373 -267 510 -380
61 -51 135 -111 165 -135 30 -24 47 -40 37 -37 -139 51 -565 96 -787 84 -117
-7 -317 -38 -400 -63 -190 -56 -367 -205 -476 -401 -85 -151 -127 -393 -105
-606 16 -167 61 -331 122 -457 49 -100 59 -112 193 -245 101 -101 171 -161
246 -210 113 -75 225 -133 237 -122 8 9 -27 86 -63 138 -34 50 -165 334 -202
439 -17 47 -46 119 -66 160 -52 109 -86 268 -86 405 0 206 40 317 154 431 80
80 137 106 266 124 121 17 459 -21 575 -65 87 -33 93 -39 62 -59 -13 -9 -46
-45 -72 -79 -74 -96 -131 -152 -239 -236 -54 -42 -109 -84 -121 -93 -22 -17
-23 -16 -75 54 -29 39 -85 126 -123 192 -72 124 -117 190 -124 182 -2 -2 11
-91 31 -198 39 -211 83 -358 198 -653 104 -268 186 -419 363 -665 206 -286
341 -435 656 -726 l66 -61 -30 -69 c-16 -38 -51 -116 -78 -174 -55 -120 -143
-348 -154 -400 -22 -108 -98 -357 -164 -539 -41 -114 -44 -131 -67 -396 -10
-111 9 -160 134 -343 58 -86 133 -197 166 -246 33 -49 79 -109 101 -135 23
-25 70 -84 105 -131 64 -85 153 -193 265 -321 33 -38 143 -148 245 -246 114
-109 196 -196 214 -227 38 -66 113 -136 181 -170 60 -29 167 -56 225 -56 67 0
176 30 259 71 69 34 104 61 204 158 159 154 459 489 515 575 127 195 193 475
179 755 -5 102 -12 134 -52 261 -45 138 -46 145 -29 158 11 7 58 40 106 73
131 92 241 234 290 374 l23 64 48 -122 c53 -136 119 -308 325 -847 130 -340
298 -836 407 -1200 26 -85 89 -290 141 -455 53 -165 129 -415 170 -555 42
-140 98 -322 125 -405 28 -82 95 -287 149 -455 54 -168 176 -528 270 -800 95
-272 201 -585 237 -695 131 -402 297 -816 421 -1052 53 -100 187 -289 278
-390 51 -56 138 -171 195 -255 120 -179 240 -345 345 -478 41 -52 100 -133
131 -179 31 -46 76 -106 99 -134 24 -27 80 -102 126 -166 45 -64 160 -218 255
-343 338 -442 774 -1091 958 -1423 179 -323 282 -556 394 -893 88 -263 126
-418 141 -573 6 -57 12 -115 15 -129 26 -143 38 -1052 16 -1185 -26 -151 -44
-226 -52 -213 -5 7 -21 45 -35 83 -84 221 -246 562 -355 746 -55 93 -86 133
-161 205 -69 66 -98 102 -115 141 -67 162 -183 224 -284 153 -69 -50 -84 -142
-49 -310 27 -131 61 -366 62 -437 1 -32 -4 -116 -11 -188 -7 -71 -19 -204 -27
-295 -8 -91 -19 -196 -23 -235 -5 -38 -21 -178 -35 -310 -59 -534 -139 -995
-207 -1184 -86 -239 -261 -617 -331 -716 -19 -27 -57 -91 -83 -142 -27 -51
-52 -90 -57 -87 -4 3 -8 38 -8 79 0 158 -60 532 -125 775 -13 47 -26 97 -29
113 -4 15 3 111 15 215 24 215 23 372 -5 437 -60 142 -232 184 -342 84 -20
-19 -21 -19 -47 2 -31 24 -33 20 -11 -22 14 -28 14 -34 -1 -71 -9 -22 -20 -88
-26 -147 -36 -377 -121 -815 -197 -1021 -11 -30 -33 -107 -48 -170 -29 -121
-56 -176 -138 -274 -78 -94 -101 -115 -176 -161 -64 -39 -75 -43 -78 -28 -11
63 -46 182 -64 217 -37 72 -110 177 -165 236 l-52 57 -6 198 c-7 211 -16 263
-61 322 -33 44 -99 68 -150 54 -87 -23 -164 -161 -164 -291 0 -28 -2 -30 -40
-30 -22 0 -40 -4 -40 -9 0 -5 14 -32 31 -59 l30 -49 -11 -119 c-16 -166 -29
-838 -19 -954 5 -52 16 -115 24 -140 8 -25 23 -96 34 -157 25 -139 81 -383
172 -748 173 -693 277 -1030 518 -1665 71 -190 148 -401 170 -470 22 -69 74
-222 116 -340 122 -342 330 -957 396 -1170 211 -684 309 -1025 349 -1210 183
-856 213 -1618 110 -2740 -26 -278 -51 -454 -80 -559 -6 -20 -26 -108 -46
-196 -20 -88 -46 -196 -60 -240 -83 -280 -149 -485 -169 -524 -12 -25 -38 -80
-56 -121 -39 -87 -175 -341 -294 -550 -45 -80 -93 -165 -105 -190 -13 -25 -33
-58 -45 -75 -13 -16 -62 -95 -110 -175 -48 -80 -103 -167 -124 -195 -21 -27
-90 -122 -153 -210 -350 -485 -749 -857 -1328 -1238 -360 -236 -909 -517
-1228 -628 l-53 -18 7 22 c58 180 149 581 188 822 68 423 90 733 83 1160 -7
437 -51 824 -127 1123 -11 42 -47 194 -81 337 -33 143 -71 298 -84 345 -25 90
-79 333 -115 515 -52 268 -204 775 -284 950 -38 81 -121 218 -170 278 -19 23
-91 128 -161 232 -70 105 -152 223 -183 263 -62 82 -152 149 -214 158 -31 5
-48 17 -81 57 -240 289 -749 764 -1047 977 -152 108 -161 110 -69 14 112 -117
203 -222 375 -435 202 -251 424 -570 424 -611 0 -13 11 -61 24 -108 71 -257
100 -399 126 -614 11 -93 18 -172 16 -175 -3 -4 0 -60 6 -126 23 -269 -50
-739 -174 -1125 -55 -170 -197 -531 -246 -623 -156 -294 -427 -652 -635 -839
l-74 -67 -6 138 c-14 299 -69 505 -208 770 -176 336 -615 877 -828 1021 -81
54 -127 72 -266 100 l-110 23 -100 98 c-55 54 -138 128 -185 164 -47 37 -101
82 -120 100 -19 18 -53 42 -75 53 l-41 20 7 79 c19 207 6 543 -21 543 -5 0
-23 -46 -41 -102 -27 -89 -84 -248 -164 -463 -38 -103 -134 -321 -206 -472
-38 -80 -81 -173 -95 -207 -14 -33 -34 -74 -44 -91 -10 -16 -49 -88 -87 -160
-248 -465 -407 -733 -547 -919 -189 -252 -571 -615 -853 -810 l-96 -67 6 53
c3 29 13 108 21 175 37 300 49 495 50 763 1 326 -15 484 -73 714 -48 187 -78
258 -123 286 -68 41 -153 17 -190 -54 -19 -38 -20 -41 -3 -180 l18 -141 -68
-210 c-108 -335 -188 -540 -329 -840 -62 -133 -94 -195 -268 -520 -96 -178
-220 -388 -318 -535 -42 -63 -114 -176 -160 -250 -46 -74 -128 -196 -181 -270
-53 -75 -113 -162 -134 -194 -82 -129 -227 -329 -340 -470 -66 -82 -139 -172
-161 -201 -46 -57 -283 -312 -464 -499 -114 -117 -228 -223 -435 -406 -59 -52
-138 -122 -174 -155 -68 -61 -240 -203 -321 -265 -25 -19 -92 -75 -150 -125
-165 -143 -255 -215 -390 -310 -69 -49 -187 -135 -263 -193 -76 -57 -195 -140
-265 -184 -69 -44 -174 -113 -232 -153 -59 -40 -158 -101 -221 -137 -501 -286
-885 -430 -1404 -528 -63 -12 -215 -22 -215 -15 0 3 29 47 65 97 179 249 273
438 400 808 171 496 210 948 135 1536 -48 370 -127 655 -256 913 -148 298
-544 888 -666 994 -84 72 -260 254 -313 322 -24 31 -66 82 -92 113 -27 31 -62
75 -78 97 -46 64 -182 223 -269 315 -45 47 -124 134 -176 194 -52 60 -129 147
-171 195 -42 47 -97 111 -121 141 -24 30 -67 73 -96 95 -54 41 -63 56 -124
214 -24 62 -21 81 37 278 26 88 30 115 20 123 -15 12 -91 -43 -120 -86 -16
-25 -19 -26 -30 -10 -12 15 -14 14 -20 -16 -4 -18 -19 -46 -34 -63 -163 -181
-325 -512 -380 -775 l-18 -85 -21 68 c-55 176 -104 404 -109 507 -10 204 47
620 127 941 22 86 45 170 51 185 6 16 15 53 19 82 10 61 -6 127 -38 152 -17
13 -14 20 55 118 40 58 70 109 67 113 -5 9 -73 -26 -135 -70 -19 -14 -57 -42
-84 -61 -237 -171 -440 -373 -622 -619 -192 -260 -355 -517 -410 -651 -86
-205 -221 -713 -238 -892 -8 -80 11 -84 -179 36 -114 72 -144 97 -262 221 -73
77 -160 176 -194 220 -79 104 -262 380 -296 447 -15 29 -43 80 -64 113 -20 33
-74 130 -120 215 -46 85 -107 193 -135 240 -66 112 -86 164 -135 353 -22 87
-45 169 -50 182 -9 23 -44 190 -85 404 -8 47 -22 146 -31 221 -8 75 -24 179
-36 231 -32 144 -31 154 48 439 13 47 24 95 24 108 0 41 222 360 424 611 172
213 263 318 375 435 92 96 83 94 -69 -14 -283 -202 -821 -701 -1019 -944 -219
-270 -257 -330 -404 -628 l-92 -186 -70 -34 c-161 -77 -344 -217 -438 -336
-29 -37 -96 -121 -149 -187 -301 -379 -467 -712 -631 -1265 -112 -375 -178
-710 -206 -1040 -28 -322 -40 -965 -21 -1115 32 -264 91 -538 172 -800 60
-197 153 -414 225 -528 l24 -39 -23 7 c-49 16 -450 222 -608 312 -466 269
-896 595 -1221 928 -180 184 -251 272 -533 656 -38 52 -109 162 -159 244 -49
83 -102 168 -117 190 -62 91 -382 679 -439 805 -18 41 -44 96 -56 121 -20 39
-86 244 -169 524 -14 44 -40 152 -60 240 -20 88 -40 176 -46 196 -29 105 -54
281 -80 559 -103 1122 -73 1884 110 2740 40 185 138 526 349 1210 66 213 274
828 396 1170 42 118 94 271 116 340 22 69 99 280 170 470 132 348 226 616 300
855 105 337 338 1269 390 1558 11 61 26 132 34 157 8 25 19 88 24 140 10 116
-3 788 -19 954 l-11 119 30 49 c17 27 31 54 31 59 0 5 -18 9 -40 9 -38 0 -40
2 -40 30 0 46 -21 131 -42 175 -83 167 -253 158 -311 -16 -11 -32 -18 -106
-22 -244 l-6 -198 -52 -57 c-55 -59 -128 -164 -165 -236 -18 -35 -53 -154 -64
-217 -3 -15 -14 -11 -78 28 -75 46 -98 67 -176 161 -82 98 -109 153 -138 274
-15 63 -37 140 -48 170 -76 206 -161 644 -197 1021 -6 59 -17 125 -26 147 -15
37 -15 43 -1 71 22 42 20 46 -11 22 -26 -21 -27 -21 -47 -2 -110 100 -282 58
-342 -84 -28 -65 -29 -222 -5 -437 12 -104 19 -200 15 -215 -3 -16 -16 -66
-29 -113 -65 -243 -125 -617 -125 -775 0 -41 -4 -76 -8 -79 -5 -3 -30 36 -57
87 -26 51 -64 115 -83 142 -70 99 -245 477 -331 716 -68 189 -148 650 -207
1184 -14 132 -30 272 -35 310 -4 39 -15 144 -23 235 -8 91 -20 224 -27 295 -7
72 -12 156 -11 188 1 71 35 306 62 437 35 168 20 260 -49 310 -101 71 -217 9
-284 -153 -17 -39 -46 -75 -115 -141 -75 -72 -106 -112 -161 -205 -109 -184
-271 -525 -355 -746 -14 -38 -30 -76 -35 -83 -8 -13 -26 62 -52 213 -22 133
-10 1042 16 1185 3 14 9 72 15 129 15 155 53 310 141 573 112 337 215 570 394
893 184 332 620 981 958 1423 95 125 210 279 255 343 46 64 102 139 126 166
23 28 68 88 99 134 31 46 90 127 131 179 103 130 222 295 346 480 57 85 143
198 190 250 78 85 300 397 300 421 0 6 23 56 51 112 80 160 251 602 352 912
36 110 142 423 237 695 94 272 216 632 270 800 54 168 121 373 149 455 27 83
83 265 125 405 41 140 117 390 170 555 52 165 115 370 141 455 103 345 274
852 382 1135 63 165 150 392 193 505 129 341 221 570 228 570 4 0 19 -38 34
-83 75 -236 284 -438 545 -528 115 -39 310 -63 403 -49 87 14 208 54 300 99
76 38 100 52 206 127 59 42 200 182 191 191 -5 4 -136 -38 -182 -58 -85 -37
-522 -15 -730 37 -273 68 -417 266 -403 555 3 55 8 102 11 105 4 4 42 -27 86
-68 96 -90 193 -143 345 -188 107 -32 110 -32 200 -21 107 14 225 42 316 76
284 103 491 190 610 257 484 273 643 388 962 694 285 275 582 666 736 970 50
97 164 391 226 579 42 127 125 519 113 531 -7 8 -52 -58 -124 -182 -38 -66
-94 -153 -123 -192 -52 -70 -53 -71 -75 -54 -12 9 -67 51 -121 93 -108 84
-165 140 -239 236 -26 34 -59 70 -72 79 -14 9 -21 20 -17 24 58 57 492 123
654 100 129 -18 186 -44 266 -124 114 -114 154 -225 154 -431 0 -137 -34 -296
-86 -405 -20 -41 -49 -113 -66 -160 -37 -105 -168 -389 -202 -439 -36 -52 -71
-129 -63 -138 12 -11 124 47 237 122 75 49 145 109 246 210 134 133 144 145
193 245 97 198 146 474 122 690 -22 206 -84 368 -195 506 -130 162 -284 253
-496 294 -140 27 -466 3 -600 -44 -204 -73 -248 -90 -294 -113 -28 -14 -65
-36 -83 -49 -17 -13 -36 -24 -41 -24 -10 0 -142 142 -142 153 0 3 30 29 68 58
37 29 117 93 177 143 137 114 290 228 510 381 94 65 202 141 240 170 121 90
425 284 615 393 58 33 150 86 205 118 396 231 1172 617 1485 739 230 89 510
201 625 250 61 25 171 68 245 96 74 27 146 54 160 60 32 14 186 64 520 168
183 57 276 81 445 116 94 19 224 46 290 59 102 22 264 50 405 72 19 3 64 11
100 19 66 14 160 26 350 45 58 5 253 15 434 20 182 6 332 12 334 14 9 9 770 6
907 -4z m-9532 -1079 c41 -11 93 -29 115 -40 143 -73 258 -271 328 -565 127
-529 161 -634 288 -881 152 -295 335 -546 570 -778 159 -158 280 -260 434
-365 59 -40 118 -84 132 -97 42 -39 180 -124 221 -137 22 -6 39 -13 39 -16 0
-9 -72 -106 -120 -162 -26 -30 -81 -107 -122 -171 -98 -151 -238 -344 -361
-496 -102 -127 -421 -446 -544 -544 -272 -217 -707 -463 -1019 -578 -134 -49
-343 -110 -406 -118 -55 -7 -118 13 -180 55 -68 47 -224 208 -273 282 -24 38
-49 70 -54 72 -24 8 -198 273 -252 383 -117 239 -269 775 -308 1090 -50 396
-16 868 99 1370 54 233 158 515 298 806 100 208 240 399 416 567 214 204 380
306 541 332 75 11 76 11 158 -9z m18347 -13 c133 -42 278 -140 456 -310 176
-168 316 -359 416 -567 140 -291 244 -573 298 -806 115 -502 149 -974 99
-1370 -39 -315 -191 -851 -308 -1090 -54 -110 -228 -375 -252 -383 -5 -2 -30
-34 -54 -72 -49 -74 -205 -235 -273 -282 -62 -42 -125 -62 -180 -55 -63 8
-272 69 -406 118 -312 115 -747 361 -1019 578 -123 98 -442 417 -544 544 -123
152 -263 345 -361 496 -41 64 -96 141 -122 171 -48 56 -120 153 -120 162 0 3
17 10 39 16 41 13 179 98 221 137 14 13 73 57 132 97 154 105 275 207 434 365
235 232 418 483 570 778 127 247 161 352 288 881 70 294 185 492 328 565 22
11 72 29 111 39 83 22 148 19 247 -12z m774 -5085 c15 -96 4 -212 -32 -329
-18 -58 -80 -143 -139 -189 -59 -46 -83 -55 -83 -32 0 12 -101 216 -146 293
l-24 42 35 6 c75 14 212 94 292 171 43 41 81 74 84 75 4 0 9 -17 13 -37z"/>
<path d="M23230 35920 c-846 -44 -1659 -353 -2378 -905 -874 -670 -1567 -1638
-2022 -2825 -220 -574 -383 -1209 -470 -1837 -93 -674 -109 -1427 -44 -2113
237 -2505 1518 -4645 3309 -5527 450 -222 908 -355 1405 -409 195 -21 597 -21
789 0 623 68 1192 261 1736 589 1050 632 1906 1706 2441 3065 513 1300 693
2823 508 4282 -154 1210 -542 2321 -1141 3264 -836 1314 -2026 2167 -3308
2370 -271 42 -565 59 -825 46z m515 -481 c605 -51 1241 -288 1789 -666 1408
-973 2365 -2833 2541 -4943 148 -1773 -253 -3532 -1113 -4879 -530 -830 -1210
-1462 -1967 -1826 -529 -255 -1005 -366 -1570 -366 -458 -1 -852 73 -1278 238
-1876 725 -3236 2972 -3386 5593 -94 1631 256 3188 1002 4465 708 1211 1739
2043 2857 2305 376 89 723 113 1125 79z"/>
<path d="M23185 33594 c-426 -51 -807 -181 -1200 -407 l-70 -41 83 -38 c100
-45 236 -132 314 -199 l57 -50 58 30 c315 159 711 251 1076 251 510 0 981
-148 1434 -450 893 -593 1524 -1701 1718 -3011 64 -436 72 -990 20 -1449 -117
-1032 -533 -1999 -1145 -2661 l-89 -96 17 -59 c26 -92 23 -393 -5 -494 -11
-41 -19 -77 -18 -79 2 -2 50 37 107 85 829 714 1395 1816 1577 3069 46 320 55
453 56 865 0 468 -18 692 -85 1076 -141 803 -452 1559 -889 2164 -577 800
-1340 1314 -2176 1466 -243 44 -608 56 -840 28z"/>
<path d="M23375 32100 c-174 -15 -409 -69 -526 -118 l-39 -17 -4 -145 c-10
-373 -149 -701 -407 -959 -249 -249 -558 -385 -927 -407 l-107 -7 -32 -76
c-94 -224 -179 -513 -232 -791 -100 -524 -100 -1114 0 -1640 206 -1080 783
-1934 1568 -2319 250 -123 496 -191 735 -203 l48 -2 27 79 c57 170 130 286
261 415 136 134 286 220 463 264 241 61 478 35 705 -75 l104 -50 83 88 c508
540 825 1274 926 2148 30 259 30 685 0 950 -125 1102 -626 2029 -1361 2518
-194 129 -456 246 -675 301 -161 41 -439 62 -610 46z"/>
<path d="M20215 30973 c-175 -456 -290 -950 -352 -1518 -25 -230 -25 -920 0
-1155 25 -230 53 -416 93 -616 269 -1346 984 -2470 1956 -3076 424 -264 874
-417 1353 -459 178 -16 503 -6 670 20 209 33 200 28 110 67 -151 65 -307 188
-404 317 l-41 54 -173 6 c-371 13 -687 94 -1037 268 -304 151 -536 322 -810
598 -515 516 -902 1232 -1104 2041 -71 281 -106 487 -148 860 -17 154 -17 822
0 990 45 440 114 786 240 1184 l46 149 -44 36 c-83 66 -201 185 -257 259 -31
39 -57 72 -58 72 -1 0 -19 -44 -40 -97z"/>
<path d="M33982 31395 c-114 -32 -160 -63 -312 -209 -242 -235 -419 -447 -456
-548 -24 -65 -22 -163 4 -222 49 -109 98 -162 358 -388 34 -29 101 -75 150
-102 49 -28 117 -69 152 -92 111 -75 259 -86 382 -28 123 58 202 138 305 307
28 47 83 114 135 165 92 92 118 132 145 227 23 78 16 217 -14 296 -41 107
-155 265 -281 390 -104 104 -128 122 -215 165 -95 47 -100 49 -199 51 -66 2
-119 -2 -154 -12z"/>
<path d="M34453 27080 c-69 -13 -141 -42 -227 -93 -80 -47 -142 -105 -235
-222 -36 -44 -148 -179 -250 -300 -218 -258 -230 -273 -266 -345 -15 -30 -35
-64 -46 -75 -29 -32 -69 -128 -81 -195 -13 -79 2 -183 38 -254 15 -28 37 -85
51 -126 45 -136 108 -254 175 -326 81 -86 541 -460 698 -568 208 -142 301
-189 403 -206 177 -30 331 27 518 194 79 71 303 342 400 486 39 58 84 119 99
135 33 38 93 123 114 163 9 17 56 71 106 119 68 68 96 104 120 156 80 169 60
341 -58 514 -52 75 -215 241 -318 324 -44 35 -134 107 -200 159 -206 166 -588
386 -758 439 -79 24 -209 34 -283 21z"/>
<path d="M11699 25657 c-142 -51 -190 -81 -282 -176 -88 -92 -349 -453 -584
-806 -250 -375 -609 -976 -653 -1093 -30 -78 -35 -166 -16 -261 36 -175 166
-475 308 -712 82 -135 271 -419 360 -540 30 -41 94 -134 141 -207 101 -154
158 -214 244 -255 205 -96 425 -36 581 156 27 34 84 118 127 187 42 69 115
181 160 250 46 69 185 306 309 527 225 401 295 509 436 668 111 125 158 257
145 407 -8 94 -24 151 -108 378 -119 322 -187 483 -347 820 -48 102 -111 237
-139 300 -119 265 -261 378 -486 387 -93 4 -106 2 -196 -30z"/>
<path d="M35694 24592 c-88 -31 -164 -83 -218 -150 -28 -35 -101 -114 -162
-175 -61 -62 -134 -146 -163 -187 -28 -41 -67 -95 -87 -120 -81 -103 -121
-235 -102 -339 11 -62 56 -158 100 -214 40 -50 180 -158 248 -191 82 -40 259
-112 320 -130 116 -34 264 -11 366 58 143 97 216 193 348 456 118 235 140 302
141 430 0 103 -1 108 -38 183 -32 65 -51 89 -115 143 -42 36 -97 77 -122 92
-25 14 -79 47 -121 73 -42 26 -104 57 -137 68 -77 26 -187 27 -258 3z"/>
<path d="M14079 23450 c-84 -24 -204 -72 -255 -101 -21 -12 -68 -38 -104 -58
-114 -62 -248 -217 -305 -351 -46 -110 -104 -309 -126 -435 -43 -244 6 -500
108 -558 21 -12 43 11 43 44 0 68 94 250 206 396 35 46 64 88 64 93 0 5 18 29
40 55 l40 46 29 -64 c16 -36 34 -82 41 -103 7 -22 33 -84 58 -139 24 -55 86
-224 137 -375 51 -151 106 -315 124 -365 32 -93 34 -103 100 -390 48 -207 116
-592 130 -735 11 -110 34 -460 51 -790 5 -107 15 -296 21 -420 14 -255 8 -714
-15 -1225 -12 -254 -14 -550 -12 -1285 4 -994 5 -1024 52 -1370 83 -618 156
-997 230 -1205 62 -173 95 -259 108 -280 7 -11 27 -56 45 -100 18 -44 37 -84
41 -90 4 -5 18 -30 32 -55 200 -363 389 -680 467 -785 37 -49 85 -115 106
-145 22 -30 69 -89 105 -130 36 -41 86 -100 110 -130 68 -85 121 -139 304
-308 240 -222 372 -340 520 -467 71 -60 176 -150 233 -200 152 -132 425 -348
524 -415 187 -127 617 -373 894 -513 201 -101 369 -178 680 -308 143 -61 301
-127 350 -149 231 -99 511 -178 978 -275 206 -43 623 -98 1027 -136 288 -26
1458 -39 1930 -20 202 9 690 38 1110 67 128 9 294 32 379 53 42 11 99 23 126
26 28 4 86 13 130 21 44 8 154 23 245 34 91 11 219 29 285 40 66 12 145 25
175 30 30 4 102 20 160 35 58 15 125 31 150 36 73 15 327 78 445 110 61 17
151 41 200 54 50 13 128 38 174 55 46 16 91 30 101 30 23 0 222 62 320 100
162 62 311 129 387 174 23 14 81 39 129 56 48 17 101 42 118 56 17 15 85 65
152 113 135 96 266 201 423 338 58 51 142 124 186 161 102 88 351 335 531 527
343 367 652 789 910 1245 48 85 111 196 141 245 245 417 519 1241 642 1930 17
94 49 258 71 365 22 107 63 323 90 478 28 156 52 287 54 290 2 4 18 90 36 192
40 236 121 654 153 790 14 58 35 155 47 215 255 1292 441 1999 697 2660 100
259 437 961 555 1155 24 41 60 102 78 135 18 33 43 76 55 95 12 19 41 67 65
105 25 39 82 122 129 185 119 163 143 195 171 235 30 43 48 68 160 219 l84
114 27 -65 c24 -56 69 -225 96 -358 13 -63 43 -60 108 10 48 52 55 67 93 188
39 125 42 139 44 267 2 153 -13 321 -35 395 -8 28 -22 75 -31 105 -44 155
-204 338 -366 419 -112 57 -179 75 -275 76 -81 0 -95 -3 -143 -30 -64 -35 -97
-71 -130 -144 -21 -45 -24 -64 -20 -125 3 -45 13 -86 26 -112 24 -47 113 -131
148 -140 13 -3 24 -9 24 -13 0 -4 -28 -21 -62 -39 -35 -17 -117 -61 -183 -96
-225 -121 -701 -355 -782 -385 -45 -16 -116 -47 -159 -69 -44 -22 -97 -45
-119 -52 -37 -12 -253 -95 -455 -175 -144 -57 -269 -105 -276 -105 -17 0 -294
-115 -380 -158 -54 -28 -110 -53 -124 -57 -30 -8 -169 -69 -295 -130 -102 -49
-219 -98 -350 -148 -49 -19 -135 -53 -190 -75 -55 -22 -170 -61 -255 -87 -443
-132 -503 -144 -1175 -239 -288 -41 -472 -64 -595 -76 -284 -26 -339 -31 -400
-35 -327 -23 -530 -37 -730 -50 -129 -8 -298 -20 -375 -26 -220 -17 -1054 -19
-1510 -4 -489 16 -867 33 -915 40 -19 3 -336 7 -704 10 -368 2 -751 8 -850 14
-100 6 -293 16 -431 21 -338 14 -526 26 -740 49 -313 34 -393 41 -695 56 -162
8 -317 18 -345 21 -27 2 -144 11 -260 19 -763 53 -1519 180 -2387 401 -245 62
-627 195 -876 305 -73 33 -136 59 -139 59 -4 0 -47 20 -97 44 -402 194 -526
258 -649 338 -272 174 -265 170 -512 340 -49 34 -128 94 -175 133 -47 39 -112
90 -144 114 -32 24 -82 65 -111 91 l-51 47 37 21 c70 40 119 134 119 227 0
106 -61 204 -155 250 -57 27 -163 30 -246 5z m2672 -2293 c167 -53 632 -168
889 -222 612 -127 813 -163 1085 -195 98 -11 181 -22 183 -24 2 -2 -17 -51
-42 -108 -101 -234 -201 -650 -227 -948 -22 -245 4 -737 50 -965 51 -253 122
-507 215 -772 31 -88 73 -173 86 -173 14 0 14 17 15 690 l0 595 27 175 c102
648 159 919 247 1174 107 308 102 298 136 292 17 -3 122 -10 235 -16 113 -6
268 -15 345 -20 77 -5 153 -10 168 -10 l29 0 -43 -77 c-107 -197 -131 -246
-180 -363 -28 -69 -65 -165 -81 -215 -16 -49 -42 -124 -58 -165 -25 -67 -98
-309 -180 -595 -62 -214 -80 -451 -80 -1009 0 -453 1 -472 46 -811 14 -110 29
-228 31 -262 5 -57 3 -63 -13 -63 -32 -1 -324 30 -429 45 -55 8 -147 19 -205
25 -107 11 -455 70 -565 95 -33 8 -98 21 -145 30 -114 22 -199 47 -360 108
-127 48 -139 55 -195 113 -33 34 -80 92 -104 130 -23 38 -91 141 -149 229
-231 350 -334 550 -422 820 -53 163 -205 734 -312 1175 -32 135 -66 268 -73
295 -8 28 -24 109 -35 180 -50 317 -62 435 -67 664 -6 226 -5 234 13 229 11
-3 85 -26 165 -51z m13178 -187 c-5 -30 -13 -102 -18 -160 -6 -58 -17 -157
-26 -220 -8 -63 -22 -167 -31 -230 -19 -142 -108 -517 -184 -775 -16 -55 -34
-120 -40 -145 -14 -68 -58 -181 -165 -430 -54 -124 -112 -259 -130 -300 -48
-112 -250 -472 -350 -625 -62 -96 -168 -212 -230 -253 -24 -16 -71 -34 -103
-41 -32 -6 -128 -29 -213 -51 -501 -129 -744 -181 -1054 -224 -328 -45 -623
-57 -880 -36 -112 10 -256 28 -262 33 -1 1 20 80 47 174 47 164 75 294 223
1028 128 631 162 844 177 1090 18 289 9 451 -31 563 -6 18 -9 35 -7 37 2 3
101 11 219 20 118 8 243 17 278 20 l63 6 -7 -48 c-3 -26 -18 -106 -31 -178
-59 -315 -106 -695 -119 -960 -7 -132 -41 -384 -76 -555 -25 -120 -222 -864
-246 -927 -11 -29 25 -10 57 30 136 165 313 478 432 762 75 178 157 443 187
605 17 91 36 188 41 215 5 28 16 104 25 170 21 167 81 540 116 722 16 84 29
161 29 172 0 28 7 30 127 46 861 116 1119 160 1369 232 l100 29 -7 -50 c-4
-28 -19 -103 -33 -166 -14 -63 -30 -146 -36 -185 -6 -38 -25 -135 -41 -215
-16 -80 -39 -194 -50 -255 -11 -60 -31 -162 -44 -225 -13 -63 -31 -158 -39
-210 -17 -104 -62 -305 -101 -445 -47 -170 -29 -177 71 -27 107 160 175 283
232 417 28 66 69 165 92 219 100 238 244 706 290 943 10 54 26 130 35 168 9
39 15 89 12 112 l-4 42 46 17 c25 9 96 38 156 64 104 45 138 59 141 56 1 0 -2
-26 -7 -56z m-10169 -5355 c453 -56 965 -129 1055 -151 33 -7 146 -32 250 -54
203 -44 237 -54 555 -162 297 -101 767 -312 1035 -463 61 -34 117 -64 125 -67
24 -9 185 -129 185 -137 0 -4 -34 -36 -75 -71 -112 -95 -215 -197 -389 -385
-298 -323 -486 -575 -648 -865 -202 -364 -387 -905 -359 -1051 19 -102 119
-129 184 -50 20 25 68 122 82 166 7 22 30 76 50 120 20 44 65 145 100 225 34
80 66 150 71 156 5 6 33 60 62 120 110 223 248 435 427 658 268 334 637 691
919 887 290 202 656 381 999 488 300 94 907 226 1242 271 324 43 367 48 450
54 598 40 588 40 947 28 609 -21 1475 -112 1978 -208 271 -52 692 -153 832
-200 62 -20 332 -122 340 -128 7 -5 -74 -296 -120 -431 -89 -260 -278 -724
-312 -765 -7 -8 -56 -94 -110 -190 -116 -208 -181 -317 -251 -423 l-52 -77 -6
62 c-23 220 -63 400 -107 476 -59 104 -155 135 -285 92 -38 -13 -163 -61 -279
-107 -115 -47 -275 -109 -355 -138 -80 -30 -188 -70 -240 -90 -52 -20 -196
-69 -320 -110 -505 -166 -809 -291 -862 -353 -37 -44 -45 -72 -77 -257 -17
-93 -55 -306 -85 -473 -30 -167 -78 -453 -106 -635 -28 -183 -69 -433 -92
-557 -22 -124 -42 -241 -45 -262 -5 -33 -9 -37 -52 -48 -25 -7 -77 -20 -116
-31 -38 -10 -140 -35 -225 -55 -85 -19 -184 -44 -220 -54 -36 -11 -144 -35
-240 -53 -257 -51 -233 -49 -225 -20 11 46 54 337 69 473 27 238 39 506 33
745 -15 579 -108 851 -306 896 -32 7 -391 -17 -601 -41 -312 -36 -809 -125
-1120 -201 -279 -69 -510 -181 -609 -296 -44 -52 -53 -74 -150 -410 -63 -217
-96 -369 -165 -758 -30 -170 -73 -391 -96 -489 -22 -99 -40 -188 -40 -199 0
-18 -10 -18 -277 -13 -304 7 -401 15 -663 52 -866 124 -1438 263 -2005 486
-124 49 -509 217 -760 331 -161 73 -504 252 -768 402 -112 64 -118 69 -112 93
4 15 8 114 11 222 6 274 23 500 57 765 8 61 20 164 27 230 14 143 51 353 119
680 27 132 57 294 66 360 18 130 106 697 130 835 8 47 15 108 15 135 -1 89
-54 170 -135 205 -77 34 -306 41 -595 20 -253 -18 -411 -30 -560 -40 -283 -20
-558 -51 -760 -85 -551 -93 -893 -156 -919 -169 -15 -8 -41 -28 -58 -44 l-31
-28 -6 25 c-18 87 -75 361 -80 389 -3 20 -1 32 5 32 6 0 72 27 146 61 475 212
1119 407 1638 493 389 65 979 124 1615 161 146 8 290 17 320 19 141 10 810 -4
930 -19z m-1995 -1312 c-69 -496 -119 -839 -135 -923 -11 -58 -28 -166 -39
-240 -11 -74 -29 -196 -41 -270 -54 -362 -63 -506 -53 -825 5 -126 6 -288 3
-358 l-5 -128 -86 71 -87 72 -6 76 c-19 224 -26 375 -26 537 0 297 -30 889
-51 1020 -17 107 -53 275 -60 275 -17 0 -88 -271 -144 -555 -78 -390 -96 -544
-96 -812 0 -112 -2 -203 -5 -203 -8 0 -153 121 -238 200 -333 306 -411 381
-488 467 -303 343 -365 427 -564 774 -201 349 -246 431 -279 511 l-33 78 36
-6 c44 -6 240 22 527 76 324 61 612 100 915 125 41 3 116 11 166 16 50 6 242
21 425 34 184 12 342 23 352 24 14 1 16 -5 12 -36z m11174 -1245 c19 -140 31
-333 31 -493 l0 -152 -51 -64 c-146 -183 -506 -556 -728 -754 -195 -174 -499
-425 -514 -425 -4 0 -7 25 -7 56 0 30 -4 97 -10 147 -5 51 -17 164 -26 252
-15 157 -46 351 -64 410 -5 17 -14 49 -20 73 -6 23 -15 42 -20 42 -34 0 -92
-217 -140 -520 -17 -107 -35 -220 -40 -250 -9 -51 -22 -202 -36 -401 l-5 -85
-82 -51 c-98 -61 -153 -89 -272 -140 l-91 -39 28 134 c15 74 50 283 78 465 28
183 84 521 126 752 41 231 77 434 81 452 5 31 10 34 161 94 85 34 300 110 476
169 177 59 350 119 386 132 36 14 139 53 230 87 188 71 304 117 405 160 39 17
75 31 81 31 7 0 16 -33 23 -82z m-3860 -1065 c38 -170 46 -269 46 -588 0 -378
-16 -570 -81 -965 -37 -228 -38 -230 -79 -230 -19 0 -78 -7 -132 -15 -289 -43
-578 -79 -762 -95 -131 -11 -250 -25 -396 -45 -55 -8 -128 -16 -162 -19 -70
-5 -70 -5 -53 69 20 89 69 460 90 679 5 60 10 236 10 390 -1 247 -2 278 -15
256 -22 -40 -69 -179 -135 -405 -34 -115 -107 -352 -161 -525 -55 -173 -109
-351 -120 -396 -11 -44 -24 -85 -27 -91 -4 -6 -74 -14 -171 -18 -156 -7 -163
-7 -157 11 22 72 90 379 116 524 63 358 102 549 140 695 69 264 117 416 137
431 34 27 158 83 251 114 252 84 923 207 1337 245 349 32 311 35 324 -22z"/>
<path d="M12425 21997 c-135 -35 -271 -162 -326 -306 -54 -141 -140 -406 -164
-506 -14 -60 -53 -190 -86 -287 -47 -143 -59 -190 -59 -241 0 -81 19 -143 60
-201 40 -55 157 -147 231 -180 75 -35 302 -92 439 -111 63 -8 137 -20 164 -26
27 -5 95 -12 150 -16 166 -10 259 31 338 147 52 78 69 138 75 270 14 279 -61
648 -187 925 -115 253 -135 286 -232 384 -112 113 -179 150 -285 156 -38 3
-90 -1 -118 -8z"/>
<path d="M33288 17374 c-32 -7 -76 -23 -98 -34 -21 -11 -52 -20 -68 -20 -42 0
-141 -28 -199 -56 -65 -31 -213 -144 -313 -238 -41 -39 -125 -113 -185 -165
-61 -52 -157 -140 -215 -195 -172 -164 -368 -347 -479 -447 -297 -267 -352
-326 -392 -417 -75 -171 -30 -445 118 -717 118 -219 371 -553 563 -745 123
-123 112 -117 394 -251 80 -38 192 -50 282 -30 66 15 180 89 250 162 53 56
199 247 274 359 24 36 63 90 86 120 24 30 116 149 205 263 158 203 468 552
598 672 141 131 180 175 218 252 38 77 38 77 38 202 -1 105 -4 137 -23 191
-60 169 -230 476 -358 645 -230 304 -286 367 -364 409 -98 54 -218 68 -332 40z"/>
<path d="M12629 15897 c-137 -47 -262 -148 -358 -290 -189 -281 -464 -910
-561 -1285 -32 -122 -60 -336 -60 -452 1 -222 43 -343 163 -463 120 -120 226
-170 547 -262 321 -91 594 -137 1020 -170 253 -20 441 -19 511 1 139 42 266
142 321 254 44 91 77 241 88 395 6 77 9 394 8 705 -2 412 1 607 11 720 20 237
-5 327 -128 451 -77 78 -166 123 -361 187 -304 100 -502 148 -833 202 -218 36
-280 37 -368 7z"/>
<path d="M34219 15357 c-20 -8 -65 -30 -100 -49 -35 -19 -80 -38 -100 -42 -58
-10 -122 -59 -194 -145 -37 -45 -70 -81 -75 -81 -15 0 -196 -186 -272 -280
-163 -200 -299 -392 -313 -440 -5 -14 -18 -41 -31 -60 -40 -62 -56 -131 -53
-222 4 -73 9 -93 45 -168 42 -86 136 -222 203 -293 46 -49 146 -129 189 -151
62 -32 137 -39 217 -21 106 23 155 62 291 231 109 135 313 365 408 460 56 55
143 144 195 198 64 66 112 106 150 126 71 35 136 106 181 194 33 65 35 76 35
165 0 94 -1 98 -43 178 -57 108 -198 254 -292 303 -173 91 -209 104 -310 107
-62 2 -107 -1 -131 -10z"/>
<path d="M31905 13912 c-115 -40 -190 -99 -268 -210 -93 -135 -128 -200 -163
-309 -19 -58 -45 -119 -58 -134 -36 -43 -49 -93 -44 -170 7 -90 40 -156 121
-239 113 -117 177 -161 381 -263 218 -110 254 -119 373 -97 80 15 97 23 224
105 105 68 166 132 287 301 55 77 81 104 117 123 61 32 119 100 146 170 43
113 10 278 -76 379 -40 48 -180 150 -245 180 -98 44 -333 120 -409 131 -40 6
-105 20 -144 31 -87 24 -176 25 -242 2z"/>
<path d="M12925 12814 c-186 -10 -388 -35 -442 -56 -204 -75 -318 -245 -311
-464 2 -75 0 -85 -26 -124 -83 -126 -91 -265 -23 -409 42 -91 174 -222 275
-274 179 -94 493 -188 688 -207 135 -13 342 -12 406 1 126 27 211 94 268 213
65 137 70 166 69 401 -1 167 2 219 15 253 97 268 -98 566 -424 648 -65 16
-337 26 -495 18z"/>
<path d="M14801 12540 c-24 -11 -51 -20 -60 -20 -34 0 -118 -49 -156 -91 -85
-95 -185 -243 -263 -389 -138 -259 -164 -384 -108 -505 39 -85 105 -144 218
-193 83 -36 107 -42 218 -52 90 -8 149 -8 210 -1 106 14 297 74 347 110 21 15
63 39 93 54 35 17 64 40 80 64 25 36 25 40 22 209 -3 202 -23 285 -116 479
-13 28 -34 82 -47 120 -19 60 -32 79 -88 135 -51 51 -78 70 -120 83 -73 23
-174 22 -230 -3z"/>
</g>
</svg>
