<?xml version="1.0" standalone="no"?>
<!DOCTYPE svg PUBLIC "-//W3C//DTD SVG 20010904//EN"
 "http://www.w3.org/TR/2001/REC-SVG-20010904/DTD/svg10.dtd">
<svg version="1.0" xmlns="http://www.w3.org/2000/svg"
 width="5000.000000pt" height="5000.000000pt" viewBox="0 0 5000.000000 5000.000000"
 preserveAspectRatio="xMidYMid meet">

<g transform="translate(0.000000,5000.000000) scale(0.100000,-0.100000)"
fill="#000000" stroke="none">
<path d="M42575 49445 c-45 -16 -80 -52 -197 -202 -198 -256 -466 -423 -781
-487 -103 -21 -308 -43 -537 -56 -303 -18 -389 -32 -589 -99 -253 -85 -560
-291 -756 -507 -184 -203 -283 -332 -412 -539 -113 -180 -179 -306 -224 -428
-40 -108 -123 -410 -142 -517 -42 -232 -60 -546 -47 -813 16 -326 52 -518 146
-789 63 -180 155 -479 180 -588 52 -220 42 -463 -25 -605 -52 -110 -207 -262
-406 -397 -163 -111 -279 -196 -410 -298 -60 -47 -124 -96 -141 -108 l-32 -22
-55 25 c-30 13 -136 51 -234 85 -98 34 -194 70 -213 82 -78 46 -518 179 -892
268 -92 23 -189 50 -215 61 -26 11 -128 33 -227 50 -100 16 -271 45 -381 64
-110 19 -271 46 -358 60 -86 14 -170 30 -185 36 -30 12 -160 24 -417 39 -93 5
-225 14 -292 20 -67 6 -238 12 -380 14 -226 4 -644 29 -662 41 -4 2 -60 11
-125 19 -127 17 -122 15 -181 60 -302 234 -607 535 -1150 1135 -27 31 -178
193 -335 362 -157 168 -389 418 -517 555 -868 934 -1575 1505 -2286 1849 -485
234 -935 387 -1422 483 -134 27 -182 36 -318 57 -252 40 -708 64 -868 46 -295
-33 -443 -72 -584 -153 -406 -235 -672 -601 -770 -1063 -9 -44 -22 -100 -28
-125 -15 -63 -17 -379 -2 -475 35 -231 108 -460 222 -695 39 -80 69 -147 67
-148 -1 -2 -51 31 -111 74 -59 43 -144 103 -188 134 -44 31 -190 135 -325 230
-587 416 -1028 688 -1425 881 -194 94 -233 111 -493 219 -265 109 -754 256
-1128 339 -144 32 -421 78 -639 106 -22 3 -137 11 -255 19 -729 45 -1293 -108
-1690 -456 -143 -126 -346 -370 -431 -518 -146 -256 -178 -327 -259 -570 -53
-157 -93 -310 -121 -455 -33 -173 -50 -515 -34 -685 13 -137 64 -376 101 -473
8 -20 14 -41 14 -46 0 -5 -57 14 -127 41 -272 107 -415 133 -668 125 -370 -12
-668 -127 -890 -343 -118 -115 -244 -334 -301 -520 l-28 -91 -40 8 c-142 28
-649 38 -891 18 -66 -5 -196 -14 -290 -19 -256 -15 -387 -27 -416 -38 -15 -6
-98 -22 -185 -37 -88 -14 -249 -41 -359 -60 -110 -19 -281 -48 -381 -64 -99
-17 -201 -39 -227 -50 -26 -11 -123 -38 -215 -61 -377 -90 -814 -222 -893
-269 -20 -12 -101 -44 -180 -70 -79 -27 -177 -61 -217 -76 l-72 -27 -73 56
c-176 137 -303 231 -447 330 -236 161 -384 303 -441 421 -78 163 -79 401 -4
688 13 51 67 223 119 382 105 322 119 372 146 519 58 318 58 835 -1 1171 -23
134 -95 405 -143 537 -103 284 -315 613 -609 947 -300 340 -717 572 -1112 620
-49 6 -196 18 -325 26 -437 27 -600 61 -813 166 -145 72 -333 225 -428 351
-128 169 -204 228 -291 228 -102 0 -271 -105 -429 -267 -216 -221 -313 -422
-360 -748 -53 -371 10 -654 193 -867 76 -88 158 -144 338 -230 275 -131 311
-151 392 -211 141 -105 220 -235 227 -369 6 -134 -53 -425 -131 -643 -48 -136
-182 -379 -317 -575 -273 -399 -303 -452 -435 -769 -138 -331 -194 -524 -245
-851 -35 -222 -45 -350 -45 -600 -1 -465 44 -684 208 -1010 125 -250 211 -367
367 -499 64 -54 83 -69 234 -182 166 -125 306 -261 395 -384 68 -95 86 -127
144 -260 71 -164 104 -282 139 -507 l14 -87 -86 -104 c-47 -58 -102 -130 -121
-161 -19 -30 -84 -124 -145 -208 -60 -84 -132 -198 -160 -253 -29 -55 -75
-143 -104 -195 -69 -124 -139 -292 -217 -520 -54 -159 -86 -262 -169 -545 -8
-27 -23 -95 -34 -150 -11 -55 -34 -163 -51 -240 -31 -145 -45 -242 -94 -660
-22 -182 -33 -326 -51 -655 -15 -257 -20 -303 -55 -470 -55 -261 -85 -383
-115 -470 -14 -41 -38 -113 -51 -159 -14 -47 -40 -114 -58 -150 -19 -36 -37
-77 -41 -91 -16 -51 -154 -328 -205 -410 -53 -85 -211 -307 -353 -497 -73 -96
-218 -266 -401 -467 -86 -93 -336 -325 -477 -440 -46 -38 -140 -106 -209 -151
-125 -82 -154 -98 -517 -279 -105 -52 -224 -117 -265 -143 -130 -84 -281 -195
-351 -257 -160 -144 -355 -404 -455 -607 -94 -191 -177 -478 -229 -794 -26
-157 -26 -627 0 -765 26 -142 101 -349 172 -475 58 -104 170 -250 250 -326
188 -179 485 -326 785 -390 154 -32 438 -29 635 7 65 12 317 77 388 101 16 5
16 1 -4 -48 -117 -294 -188 -546 -236 -837 -25 -154 -27 -189 -27 -442 0 -273
0 -276 32 -420 76 -341 149 -541 252 -684 122 -171 259 -296 405 -369 135 -67
248 -94 442 -104 331 -17 627 91 898 326 38 33 70 59 71 58 2 -2 -10 -129 -47
-477 -43 -411 -116 -932 -149 -1060 -11 -41 -29 -115 -40 -165 -77 -344 -202
-736 -532 -1665 -98 -277 -207 -552 -243 -615 -21 -35 -174 -375 -325 -720
-57 -130 -93 -177 -205 -262 -75 -57 -150 -92 -335 -153 -253 -85 -505 -125
-970 -155 -484 -32 -774 -80 -985 -164 -237 -95 -495 -290 -649 -490 -113
-146 -260 -428 -320 -613 -65 -199 -77 -277 -83 -548 -5 -217 -3 -262 16 -395
46 -316 168 -571 380 -796 227 -241 493 -404 769 -470 48 -11 93 -23 101 -25
9 -3 -13 -21 -52 -44 -80 -46 -246 -165 -377 -269 -119 -94 -421 -390 -507
-496 -291 -360 -437 -739 -459 -1190 -18 -350 79 -772 221 -965 82 -111 288
-271 400 -311 167 -59 426 -50 604 21 36 14 51 16 47 8 -14 -34 -130 -399
-165 -520 -46 -158 -173 -701 -195 -833 -9 -49 -22 -155 -31 -235 -9 -80 -25
-219 -35 -310 -11 -91 -26 -230 -35 -310 -8 -80 -21 -194 -27 -255 -19 -177
-16 -821 5 -1050 57 -617 87 -845 153 -1187 43 -224 59 -292 135 -578 83 -308
108 -388 135 -435 12 -22 47 -103 77 -180 82 -209 135 -324 169 -368 42 -52
62 -81 151 -212 41 -60 97 -135 123 -166 27 -30 76 -88 109 -129 79 -96 247
-280 256 -280 4 0 52 -42 106 -92 123 -116 217 -198 264 -229 20 -13 65 -45
100 -71 35 -26 82 -61 104 -77 49 -35 267 -152 350 -188 215 -91 490 -159 892
-219 124 -18 263 -14 408 11 44 7 112 19 151 25 39 6 84 20 101 30 17 10 64
28 104 39 125 35 392 138 436 167 15 10 48 28 73 40 46 22 129 83 260 191 105
87 326 324 430 462 51 68 160 233 160 242 0 5 13 30 29 56 27 44 46 88 117
273 13 36 34 108 45 160 11 52 29 135 40 185 27 125 38 232 49 481 19 430 -18
740 -161 1374 -50 222 -156 555 -211 665 -41 82 -157 350 -153 354 2 2 43 -30
91 -70 171 -146 295 -224 517 -325 260 -119 551 -185 882 -200 211 -9 363 19
542 102 155 71 374 237 461 349 177 229 296 464 366 723 13 48 38 125 55 172
48 130 62 265 51 490 -14 289 -34 400 -111 640 -94 291 -172 491 -310 786
-177 381 -239 494 -366 662 l-63 84 47 -27 c27 -16 64 -40 83 -55 105 -80 340
-236 430 -285 57 -31 122 -69 145 -85 22 -15 87 -51 145 -80 58 -29 118 -62
134 -73 35 -24 270 -148 589 -310 l237 -120 -7 -111 c-13 -190 -9 -1153 5
-1336 29 -357 122 -1138 162 -1355 47 -255 126 -649 146 -730 82 -328 211
-707 305 -895 39 -80 87 -178 105 -218 38 -84 159 -280 248 -401 463 -633
1024 -1071 1742 -1360 367 -147 948 -275 1424 -312 248 -19 797 3 980 40 461
92 691 195 1032 462 142 111 347 327 484 508 122 163 286 444 366 631 212 490
300 1132 285 2058 l-7 362 23 -5 c12 -2 54 -12 92 -21 39 -8 120 -24 180 -34
61 -11 162 -28 225 -39 63 -12 160 -28 215 -36 55 -8 127 -19 160 -25 33 -5
76 -10 95 -10 l36 0 56 -147 c143 -376 315 -1119 348 -1508 15 -178 12 -668
-5 -909 -8 -116 -28 -362 -43 -546 -25 -308 -27 -376 -27 -850 0 -414 4 -551
18 -700 70 -739 131 -1027 313 -1488 119 -301 187 -452 322 -707 128 -244 158
-294 315 -528 157 -236 204 -294 618 -763 239 -270 471 -466 854 -723 416
-277 754 -435 1515 -707 253 -91 855 -254 1155 -313 395 -78 912 -139 1450
-172 256 -16 792 -6 1095 20 748 64 1206 151 1685 319 633 222 1051 456 1575
881 215 175 343 295 497 462 226 247 296 337 510 659 178 268 294 480 433 794
206 468 350 977 450 1592 95 588 143 1558 110 2239 -39 811 -54 1016 -101
1420 -31 271 -66 463 -129 710 -65 254 -73 280 -188 575 -158 404 -279 677
-457 1024 -37 70 -64 130 -61 133 2 3 164 38 358 78 550 114 851 184 918 214
25 10 108 36 185 56 277 72 581 157 635 177 59 21 408 138 1050 351 486 161
852 290 897 317 19 11 126 56 238 100 212 82 278 112 307 137 19 17 104 58
247 120 130 55 326 153 376 188 21 14 191 102 378 196 187 94 356 181 376 193
20 13 115 63 211 112 96 49 197 103 224 122 27 18 79 48 115 66 36 18 109 60
163 92 53 32 165 100 250 151 84 51 171 105 193 121 22 16 102 70 177 121 76
51 159 112 184 134 60 52 371 286 416 311 l33 19 -20 -23 c-11 -12 -42 -41
-70 -63 -102 -81 -337 -304 -433 -411 -201 -224 -296 -351 -429 -576 -195
-330 -293 -557 -404 -934 -62 -214 -84 -406 -76 -676 13 -419 152 -794 430
-1155 84 -110 306 -279 459 -349 193 -90 346 -115 601 -98 311 20 578 84 823
195 221 100 347 180 518 326 48 40 88 72 91 70 5 -5 -130 -316 -145 -334 -15
-18 -128 -335 -160 -450 -45 -161 -126 -525 -159 -715 -56 -321 -74 -593 -61
-892 12 -269 22 -363 55 -513 15 -66 31 -140 35 -165 5 -25 15 -65 24 -90 122
-367 251 -572 575 -918 139 -148 370 -339 452 -372 19 -8 49 -24 67 -36 17
-12 70 -36 117 -53 47 -17 99 -38 114 -46 16 -8 82 -30 147 -50 66 -19 135
-44 154 -54 19 -11 64 -25 100 -31 36 -6 88 -16 115 -21 28 -6 112 -15 189
-21 148 -12 198 -7 491 44 253 44 493 110 660 181 82 35 301 153 350 188 279
202 276 200 439 347 173 156 266 252 394 405 166 199 179 216 250 321 88 130
92 136 129 182 35 44 87 157 169 366 29 75 67 163 84 195 27 53 92 272 175
598 146 565 249 1370 262 2035 6 342 -3 511 -53 950 -19 168 -41 370 -49 450
-17 163 -31 269 -46 350 -25 131 -154 673 -190 798 -35 121 -151 486 -165 520
-4 8 11 6 47 -8 178 -71 437 -80 604 -21 112 40 318 200 400 311 55 75 101
177 139 309 170 583 80 1185 -250 1673 -105 156 -176 238 -370 428 -221 216
-425 380 -628 502 -44 27 -77 48 -75 48 2 1 55 14 117 30 278 71 539 231 760
465 215 228 337 481 383 800 19 133 21 178 16 395 -6 271 -18 349 -83 548 -60
185 -207 467 -320 613 -154 200 -412 395 -649 490 -211 84 -501 132 -985 164
-465 30 -717 70 -970 155 -185 61 -260 96 -335 153 -112 85 -148 132 -205 262
-151 345 -304 685 -325 720 -48 84 -167 393 -331 863 -256 730 -378 1119 -444
1417 -11 50 -29 124 -40 165 -33 128 -106 649 -149 1060 -37 348 -49 475 -47
477 1 1 33 -25 71 -58 128 -110 272 -201 396 -249 225 -87 548 -103 778 -39
294 82 559 336 688 657 65 164 81 220 130 437 l37 170 0 275 c1 238 -2 294
-22 415 -53 322 -116 549 -241 864 -20 49 -20 53 -4 48 10 -4 83 -24 163 -46
232 -64 295 -74 585 -85 343 -14 797 163 1061 413 123 117 247 300 314 462
110 264 135 414 127 773 -4 199 -9 267 -31 389 -92 528 -234 852 -515 1177
-109 127 -192 203 -331 301 -175 125 -244 166 -443 265 -363 181 -392 197
-517 279 -69 45 -163 113 -209 151 -141 115 -391 347 -477 440 -282 309 -358
403 -589 724 -101 141 -145 208 -287 440 -201 327 -315 680 -358 1100 -6 58
-17 161 -25 230 -8 69 -19 208 -25 310 -16 293 -27 416 -70 770 -27 226 -44
331 -75 475 -19 88 -41 196 -50 240 -9 44 -22 103 -30 130 -9 28 -33 111 -55
185 -109 374 -227 688 -329 875 -30 55 -80 148 -110 206 -31 59 -102 171 -158
250 -57 79 -124 176 -149 214 -26 39 -69 96 -95 128 -31 37 -49 68 -49 85 0
39 39 276 60 362 36 150 129 370 206 485 108 162 225 280 429 434 391 293 481
404 657 801 117 263 153 474 152 890 -1 545 -88 973 -301 1480 -122 289 -153
344 -415 725 -108 158 -192 301 -264 450 -109 226 -193 562 -194 770 0 73 3
87 38 156 21 42 55 97 77 123 54 66 173 153 285 207 52 26 165 81 250 122 217
106 304 182 405 355 73 126 115 302 115 487 0 202 -56 477 -130 640 -66 145
-249 387 -355 467 -68 52 -186 112 -269 137 -79 24 -79 24 -131 6z m-34972
-509 c62 -93 261 -285 372 -358 306 -202 577 -267 1295 -313 277 -18 451 -76
683 -229 260 -173 576 -554 755 -911 65 -131 105 -244 153 -440 64 -260 74
-355 74 -705 -1 -432 -11 -489 -176 -985 -155 -469 -183 -598 -184 -865 -1
-365 79 -563 325 -810 99 -98 196 -176 365 -291 135 -92 183 -128 445 -328
244 -187 382 -306 511 -438 194 -199 267 -319 337 -554 106 -352 132 -665 83
-994 -31 -209 -47 -263 -141 -485 -137 -324 -195 -428 -399 -710 -144 -200
-230 -301 -381 -452 -120 -120 -160 -153 -218 -182 -216 -109 -643 -195 -902
-182 -231 11 -386 63 -546 184 -147 111 -223 241 -249 427 -22 155 -22 438 1
670 43 440 9 978 -81 1289 -121 417 -324 687 -765 1016 -364 272 -467 365
-639 580 -143 177 -218 298 -321 514 -161 338 -204 540 -204 961 1 321 6 353
126 774 27 96 59 198 69 227 11 29 30 90 43 136 13 46 61 161 109 258 97 198
133 293 182 489 106 425 102 661 -15 878 -94 174 -185 281 -327 383 -89 63
-301 172 -448 230 -150 59 -220 122 -275 250 -46 107 -43 355 5 528 49 173 98
260 225 396 38 42 70 80 70 86 0 18 6 11 43 -44z m35173 -48 c118 -126 170
-219 219 -390 48 -173 51 -421 5 -528 -55 -128 -125 -191 -275 -250 -147 -58
-359 -167 -448 -230 -142 -102 -233 -209 -327 -383 -117 -217 -121 -453 -15
-878 45 -176 83 -286 156 -437 99 -210 161 -311 462 -756 81 -119 116 -187
201 -384 79 -183 116 -283 161 -441 31 -108 37 -149 50 -330 12 -180 12 -224
0 -349 -17 -169 -53 -316 -126 -509 -83 -223 -217 -474 -304 -571 -79 -88
-260 -174 -580 -276 -535 -170 -658 -217 -792 -306 -263 -174 -387 -402 -443
-815 -32 -233 -36 -432 -14 -705 23 -301 23 -531 0 -670 -62 -371 -161 -591
-355 -794 -120 -124 -255 -203 -418 -245 -134 -34 -245 -24 -484 44 -190 54
-416 177 -604 330 -115 93 -200 160 -235 184 -105 74 -416 359 -466 428 -28
37 -59 80 -70 94 -114 153 -143 190 -175 227 -25 28 -59 94 -100 190 -34 81
-75 178 -91 215 -66 153 -111 426 -111 667 0 251 27 431 105 689 70 235 143
355 337 554 129 132 267 251 511 438 259 198 309 235 440 324 244 166 394 300
513 457 183 244 234 617 140 1038 -14 63 -74 264 -133 445 -175 533 -184 580
-185 1015 0 238 4 331 17 425 21 143 84 405 128 530 137 387 521 892 837 1101
232 153 406 211 683 229 754 48 1045 124 1354 357 105 78 279 256 325 332 22
34 25 36 34 20 6 -11 38 -49 73 -86z m-15715 -823 c252 -28 575 -84 805 -140
254 -62 655 -201 869 -300 44 -20 115 -52 157 -70 278 -118 726 -406 1093
-700 420 -338 972 -887 1860 -1854 391 -425 893 -926 1109 -1105 243 -202 614
-408 918 -510 188 -63 525 -136 628 -136 60 0 135 24 170 54 16 13 35 26 41
28 18 6 1 28 -22 28 -10 0 -19 3 -19 8 0 4 -27 22 -60 40 -41 23 -118 48 -236
78 -97 24 -179 44 -183 45 -3 0 3 4 14 8 24 9 378 -3 515 -18 324 -35 384 -42
389 -45 3 -3 60 -12 125 -21 66 -9 128 -21 139 -26 10 -6 121 -28 245 -49 251
-43 321 -57 527 -102 77 -17 179 -39 228 -49 48 -10 100 -25 115 -33 15 -8
113 -37 218 -65 251 -67 572 -164 620 -189 21 -10 70 -29 107 -42 37 -12 87
-32 110 -45 34 -19 223 -97 311 -129 13 -4 16 -10 9 -17 -7 -7 -24 -4 -54 10
-181 84 -356 127 -476 117 -152 -12 -359 -70 -458 -127 -94 -54 -236 -190
-327 -315 -60 -81 -145 -269 -182 -401 -53 -187 -71 -313 -70 -498 0 -181 18
-306 65 -450 41 -123 198 -438 270 -538 51 -72 159 -177 182 -177 8 0 6 12
-18 111 -8 31 -23 121 -34 200 -12 79 -32 216 -46 304 -57 358 -58 364 -52
515 7 192 48 396 112 560 52 132 168 278 290 365 97 69 165 89 333 101 85 6
113 4 162 -11 l59 -18 -43 -56 c-101 -130 -181 -303 -232 -503 -21 -85 -26
-124 -25 -227 0 -68 -2 -128 -6 -133 -6 -11 -85 192 -123 315 -26 86 -42 87
-80 3 -48 -106 -55 -175 -55 -561 0 -326 2 -358 23 -465 57 -281 96 -408 219
-705 180 -438 248 -560 485 -882 330 -449 566 -680 973 -952 198 -133 517
-316 702 -402 257 -121 739 -262 1128 -330 177 -31 507 -34 600 -6 102 32 175
123 175 220 0 32 -24 94 -46 118 -13 14 -10 21 31 65 51 55 146 189 217 306
66 108 154 322 190 458 30 117 88 430 88 478 0 25 1 26 14 7 19 -28 97 -230
139 -360 74 -228 97 -398 85 -625 -15 -314 -93 -606 -209 -785 -53 -82 -217
-284 -298 -368 -114 -119 -278 -241 -418 -311 -101 -51 -166 -70 -266 -81 -37
-4 -67 -11 -67 -15 0 -5 37 -23 83 -41 74 -29 95 -32 212 -37 251 -8 483 63
732 226 317 208 492 475 602 917 32 126 61 303 61 366 0 188 84 -207 131 -611
5 -47 14 -110 19 -140 5 -30 16 -140 24 -245 16 -199 46 -426 95 -705 16 -91
39 -223 51 -295 20 -120 59 -295 79 -355 5 -14 26 -79 46 -145 97 -316 155
-447 327 -745 28 -47 73 -125 101 -175 101 -175 322 -493 463 -665 189 -231
338 -393 494 -537 353 -327 542 -458 965 -669 160 -80 313 -159 340 -177 103
-65 252 -173 309 -225 127 -116 274 -309 348 -457 157 -311 256 -858 219
-1200 -29 -263 -131 -497 -293 -670 -102 -109 -317 -226 -518 -283 -90 -25
-106 -27 -305 -26 l-210 1 -160 42 c-329 86 -444 142 -604 295 -130 126 -230
271 -384 556 -54 101 -118 216 -142 255 -142 236 -282 521 -410 835 -93 231
-164 388 -179 397 -11 7 0 -241 20 -437 32 -314 77 -523 186 -865 83 -259 174
-450 336 -700 77 -120 261 -473 332 -640 199 -465 299 -827 331 -1195 20 -226
3 -396 -66 -670 -84 -331 -235 -533 -456 -611 -56 -20 -85 -23 -224 -23 -180
-1 -248 14 -377 81 -242 126 -659 607 -810 934 -19 41 -52 102 -74 135 -21 32
-100 181 -174 329 -153 304 -161 312 -194 215 -49 -145 -19 -653 49 -835 29
-77 82 -184 136 -275 l39 -66 15 -194 c9 -107 25 -283 36 -390 11 -107 26
-265 34 -350 14 -146 43 -404 65 -570 59 -456 84 -619 104 -697 9 -34 25 -103
36 -155 18 -84 52 -212 123 -460 83 -289 420 -1266 570 -1653 75 -192 106
-266 127 -295 22 -32 283 -619 317 -714 38 -105 98 -202 172 -275 52 -52 94
-81 201 -137 74 -39 160 -79 190 -89 30 -9 109 -37 175 -60 271 -97 608 -161
995 -189 463 -34 517 -39 621 -56 135 -23 375 -104 471 -159 110 -63 203 -134
298 -230 159 -159 303 -433 371 -706 16 -61 22 -128 26 -275 9 -305 -18 -473
-102 -648 -76 -159 -150 -252 -291 -371 -110 -91 -217 -156 -339 -204 -154
-61 -212 -67 -619 -67 l-361 0 -116 29 c-164 41 -279 102 -386 205 -94 90 -99
86 -58 -39 50 -155 166 -289 375 -434 149 -104 270 -178 638 -391 83 -49 191
-117 238 -152 291 -212 383 -288 573 -473 304 -296 462 -555 542 -891 47 -197
44 -481 -6 -689 -53 -222 -84 -280 -193 -367 -107 -85 -125 -91 -252 -86 -172
8 -238 41 -428 216 -64 60 -161 142 -214 185 -53 42 -144 129 -201 194 -120
135 -265 271 -346 325 -31 21 -59 38 -64 38 -4 0 6 -27 23 -61 17 -33 42 -102
55 -152 70 -266 159 -455 332 -704 116 -167 171 -316 312 -848 146 -552 197
-805 251 -1255 15 -130 49 -562 60 -780 19 -380 10 -876 -20 -1090 -6 -41 -26
-201 -45 -355 -59 -479 -114 -780 -216 -1170 -81 -311 -112 -412 -144 -470
-18 -33 -53 -112 -78 -175 -87 -220 -120 -283 -210 -395 -13 -16 -49 -71 -80
-121 -52 -83 -120 -166 -325 -394 -193 -213 -502 -476 -694 -587 -114 -67
-308 -159 -363 -172 -27 -7 -77 -21 -110 -31 -84 -26 -161 -45 -300 -74 -260
-55 -290 -58 -430 -47 -155 13 -238 26 -285 46 -19 8 -89 30 -155 49 -125 35
-299 104 -396 154 -124 65 -330 244 -460 399 -40 48 -93 111 -118 138 -65 74
-144 197 -217 336 -22 41 -75 187 -95 259 -9 36 -25 92 -34 125 -21 79 -53
354 -61 530 -11 250 35 697 106 1020 91 410 176 697 258 868 55 112 200 448
277 637 183 451 198 479 437 821 83 118 182 261 221 318 108 162 229 311 299
371 34 30 108 97 163 150 55 53 141 132 190 176 104 91 108 95 94 109 -15 15
-181 -78 -421 -235 -167 -110 -230 -158 -310 -236 -95 -93 -390 -419 -523
-579 -33 -39 -80 -88 -105 -108 -25 -20 -128 -119 -230 -220 -102 -101 -230
-217 -285 -258 -55 -41 -147 -114 -204 -162 -57 -47 -156 -121 -220 -164 -138
-92 -384 -219 -496 -256 -184 -61 -461 -107 -653 -107 -224 0 -493 144 -642
345 -122 165 -264 494 -300 695 -15 81 -15 378 0 496 15 122 52 281 90 389 18
50 43 123 57 163 14 41 74 171 133 291 94 190 164 315 383 681 88 147 286 431
434 621 120 155 368 401 538 536 28 22 125 114 217 204 139 137 168 170 173
200 14 80 -47 135 -142 127 -84 -7 -281 -113 -464 -249 -41 -31 -85 -61 -97
-68 -13 -7 -57 -40 -100 -74 -91 -74 -270 -183 -387 -237 -46 -21 -111 -57
-143 -79 -33 -22 -106 -65 -163 -96 -57 -31 -123 -71 -147 -87 -25 -17 -153
-84 -286 -148 -236 -115 -365 -186 -476 -261 -30 -20 -104 -63 -165 -94 -60
-32 -137 -75 -170 -96 -83 -53 -417 -227 -810 -423 -181 -91 -367 -187 -412
-214 -79 -47 -157 -84 -462 -222 -74 -33 -144 -69 -155 -79 -12 -11 -113 -55
-226 -99 -113 -43 -230 -92 -260 -107 -89 -46 -654 -239 -1386 -475 -254 -81
-475 -155 -491 -164 -31 -15 -260 -80 -635 -180 -114 -31 -221 -62 -237 -71
-30 -15 -81 -28 -361 -91 -325 -73 -1347 -281 -1910 -389 -218 -42 -1044 -188
-1415 -250 -522 -88 -801 -136 -835 -145 -69 -18 -1390 -226 -1680 -265 -58
-8 -172 -21 -255 -29 -82 -9 -193 -20 -245 -26 -548 -56 -1247 -99 -2128 -131
-376 -13 -1595 -7 -1877 10 -283 18 -788 60 -1160 97 -137 13 -293 29 -345 34
-342 33 -1390 173 -1645 220 -60 11 -150 27 -200 36 -143 24 -263 51 -515 114
-129 32 -266 66 -305 75 -38 9 -153 39 -255 67 -102 28 -248 68 -325 88 -77
20 -275 79 -440 129 -165 51 -343 104 -395 117 -153 40 -1699 546 -2015 659
-551 198 -1543 604 -2005 820 -91 42 -207 95 -259 116 -51 21 -278 133 -505
248 -226 115 -526 267 -666 339 -325 165 -563 290 -620 327 -25 16 -78 43
-118 62 -40 18 -99 50 -130 72 -31 21 -97 60 -147 87 -81 43 -189 114 -385
254 -36 25 -104 69 -152 98 -48 29 -90 57 -92 61 -3 4 -49 38 -103 75 -54 37
-136 98 -183 137 -47 38 -105 84 -129 102 -44 32 -59 44 -228 187 -48 41 -119
112 -157 158 -158 192 -301 249 -442 176 -52 -26 -63 -37 -91 -93 -28 -53 -33
-74 -33 -129 0 -110 42 -178 180 -292 142 -118 241 -215 362 -357 73 -85 135
-160 137 -166 2 -6 -18 7 -45 29 -75 63 -217 151 -302 188 -80 35 -157 52
-166 38 -3 -5 27 -37 66 -72 165 -148 538 -634 720 -940 85 -142 205 -345 248
-419 71 -123 258 -506 275 -563 8 -30 29 -90 46 -134 39 -100 84 -291 99 -414
15 -125 15 -418 0 -500 -36 -201 -178 -530 -300 -695 -149 -201 -418 -345
-642 -345 -192 0 -469 46 -653 107 -112 37 -358 164 -495 256 -63 42 -162 116
-220 163 -58 48 -148 119 -200 158 -52 39 -183 156 -290 261 -107 105 -213
206 -235 224 -22 19 -69 69 -105 111 -158 187 -416 473 -513 568 -86 85 -143
129 -314 241 -240 158 -407 251 -422 236 -14 -14 -10 -18 94 -109 50 -44 135
-123 190 -176 55 -53 129 -120 163 -150 70 -60 191 -209 299 -371 39 -57 138
-200 221 -318 239 -342 254 -369 437 -821 80 -198 272 -639 290 -666 19 -30
122 -332 150 -443 13 -53 36 -145 50 -206 14 -60 32 -137 40 -170 23 -97 62
-336 86 -535 38 -311 27 -725 -26 -980 -34 -166 -110 -392 -161 -476 -16 -27
-34 -61 -41 -76 -16 -37 -115 -177 -166 -235 -23 -26 -60 -70 -81 -97 -121
-150 -371 -368 -494 -430 -148 -74 -338 -145 -462 -171 -19 -4 -48 -14 -64
-22 -42 -22 -161 -43 -301 -54 -145 -11 -259 6 -605 88 -230 55 -445 139 -570
223 -25 16 -49 30 -53 30 -18 0 -182 121 -321 238 -99 83 -375 359 -491 492
-107 122 -153 183 -204 270 -30 52 -70 107 -124 175 -34 42 -75 132 -189 419
-11 28 -28 62 -38 77 -11 14 -31 69 -46 120 -14 52 -34 121 -44 154 -40 128
-115 432 -154 626 -36 173 -103 634 -136 939 -6 52 -15 120 -20 150 -53 312
-30 1232 45 1885 50 426 100 677 251 1243 146 548 191 671 305 830 100 139
197 310 240 421 42 110 109 322 109 347 0 8 16 47 36 86 26 51 31 69 20 65
-69 -27 -273 -212 -444 -403 -45 -51 -116 -118 -159 -150 -43 -32 -130 -106
-193 -164 -63 -58 -133 -120 -155 -137 -100 -77 -209 -108 -350 -101 -78 4
-89 7 -139 42 -76 52 -151 126 -175 173 -29 58 -76 223 -95 335 -22 125 -22
391 -2 508 38 215 118 417 235 595 148 226 440 517 736 735 55 41 132 97 170
126 39 29 140 93 225 142 369 215 491 289 640 393 209 145 325 279 375 434 41
125 36 129 -58 38 -109 -105 -233 -169 -399 -208 l-115 -26 -389 4 c-449 4
-464 6 -659 101 -332 160 -564 448 -632 784 -26 126 -26 531 0 649 52 240 199
540 346 705 101 112 303 256 433 309 197 81 378 120 638 138 74 6 236 17 360
26 247 18 530 60 713 106 64 17 207 61 316 99 259 89 428 177 522 271 74 73
134 170 172 275 34 95 295 682 317 714 21 29 52 103 127 295 150 387 487 1364
570 1653 71 248 105 376 123 460 11 52 27 121 36 155 20 78 45 241 104 697 22
166 51 424 65 570 8 85 23 243 34 350 11 107 27 283 36 390 l15 194 39 66
c138 232 164 319 202 649 16 146 7 389 -17 461 -33 97 -41 89 -194 -215 -74
-148 -153 -297 -174 -329 -22 -33 -55 -94 -74 -135 -151 -327 -568 -808 -810
-934 -129 -67 -197 -82 -377 -81 -139 0 -168 3 -224 23 -221 78 -372 280 -456
611 -69 274 -86 444 -66 670 32 368 132 730 331 1195 71 167 255 520 332 640
162 250 253 441 336 700 109 342 154 551 186 865 20 196 31 444 20 437 -15 -9
-86 -166 -179 -397 -128 -314 -268 -599 -410 -835 -24 -39 -88 -154 -142 -255
-151 -281 -232 -399 -366 -537 -161 -166 -297 -233 -647 -321 -143 -36 -148
-36 -350 -36 -192 -1 -211 1 -300 26 -201 56 -416 174 -518 283 -162 173 -264
407 -293 670 -37 342 62 889 219 1200 74 148 221 341 348 457 57 52 206 160
309 225 28 18 181 97 340 177 423 211 612 342 965 669 337 311 723 798 968
1222 138 238 163 285 187 349 14 37 43 102 65 146 77 154 188 472 251 720 16
63 38 153 50 200 79 315 98 434 119 760 13 189 35 436 49 536 5 38 15 112 21
164 28 223 94 567 148 775 l19 70 6 -180 c19 -571 203 -1043 508 -1305 143
-123 343 -238 510 -294 132 -44 240 -59 384 -54 117 5 138 8 213 37 45 18 82
36 82 41 0 4 -30 11 -67 15 -100 11 -165 30 -266 81 -140 70 -304 192 -418
311 -81 84 -245 286 -298 368 -116 179 -194 471 -209 785 -12 227 11 397 85
625 42 130 120 332 139 360 13 19 14 18 14 -7 0 -48 58 -361 88 -478 36 -136
124 -350 190 -458 71 -117 166 -251 217 -306 41 -44 44 -51 31 -65 -22 -24
-46 -86 -46 -118 0 -97 73 -188 175 -220 93 -28 423 -25 600 6 268 47 669 153
903 237 322 117 787 381 1142 648 285 215 479 419 758 799 237 322 305 444
485 882 123 297 162 424 219 705 21 107 23 139 23 465 0 386 -7 455 -55 561
-38 84 -54 83 -80 -3 -38 -123 -117 -326 -123 -315 -4 5 -6 65 -6 133 1 103
-4 142 -25 227 -51 200 -131 373 -232 503 l-43 56 59 18 c49 15 77 17 162 11
168 -12 236 -32 333 -101 122 -87 238 -233 290 -365 64 -164 105 -368 112
-560 6 -151 5 -157 -52 -515 -14 -88 -34 -225 -46 -304 -11 -79 -26 -169 -34
-200 -24 -99 -26 -111 -18 -111 23 0 131 105 182 177 72 100 229 415 270 538
47 144 65 269 65 450 1 185 -17 311 -70 498 -37 132 -122 320 -182 401 -91
125 -233 261 -327 315 -99 57 -306 115 -458 127 -120 10 -295 -33 -476 -117
-41 -19 -44 -19 -63 -3 -18 17 -14 20 112 70 72 29 146 61 164 72 18 11 63 29
102 42 38 12 87 32 108 42 48 25 369 122 620 189 105 28 203 57 218 65 15 8
67 23 115 33 49 10 151 32 228 49 206 45 276 59 527 102 124 21 235 43 245 48
11 6 68 18 129 26 60 8 132 20 159 25 28 5 84 12 125 15 41 4 104 11 140 16
121 18 334 29 660 36 l325 7 -3 -82 c-5 -109 14 -268 45 -365 44 -139 147
-320 255 -446 125 -147 324 -256 528 -289 76 -12 300 -26 300 -19 0 3 -28 15
-62 28 -35 12 -107 45 -161 72 -191 98 -300 212 -372 391 -91 223 -128 618
-76 815 51 195 137 342 258 443 65 54 211 125 307 149 172 43 413 43 654 -1
156 -28 256 -64 469 -170 139 -69 188 -98 205 -122 83 -121 273 -331 403 -447
143 -128 370 -287 510 -357 50 -25 102 -54 117 -65 15 -10 73 -39 130 -64 57
-25 125 -57 153 -71 130 -67 514 -191 750 -242 373 -80 858 -112 1235 -81 137
11 251 27 215 29 -243 16 -627 77 -875 138 -58 14 -141 34 -185 44 -290 65
-743 264 -1091 478 -253 156 -598 424 -774 601 -373 375 -567 800 -586 1285
-11 285 29 534 142 873 94 285 210 497 386 707 247 296 483 429 914 514 446
89 828 74 1429 -54 94 -20 194 -40 224 -46 131 -25 601 -164 766 -227 361
-137 736 -315 1030 -489 546 -323 1615 -1066 2083 -1447 269 -219 400 -323
647 -510 156 -118 179 -133 227 -146 42 -12 99 5 115 35 9 16 13 15 50 -8 78
-50 260 -135 373 -175 191 -68 424 -120 654 -148 117 -13 205 -17 161 -7 -170
41 -416 124 -592 199 -263 113 -558 328 -837 608 -227 229 -550 649 -735 956
-49 80 -181 347 -181 365 0 4 -11 33 -24 64 -73 174 -106 345 -106 548 0 155
10 218 67 413 78 265 193 449 378 607 141 120 237 170 406 212 169 42 469 49
770 16z m15800 -5656 c-12 -19 -21 -30 -21 -26 0 12 33 67 38 63 1 -2 -6 -19
-17 -37z m-29889 -28766 c-2 -10 -6 -254 -9 -543 -4 -460 -2 -567 16 -865 30
-471 51 -644 121 -965 67 -310 160 -569 311 -873 120 -240 222 -411 323 -542
116 -148 371 -377 389 -348 3 5 -21 65 -54 133 -69 143 -115 263 -171 440 -38
122 -166 582 -214 770 -14 52 -36 131 -49 175 -106 355 -187 892 -215 1435 -6
113 -17 298 -25 413 -8 114 -15 297 -15 406 l0 199 133 -60 c330 -149 1224
-517 1517 -625 52 -19 163 -60 245 -90 202 -74 372 -132 810 -274 204 -66 546
-179 762 -249 215 -71 420 -136 455 -145 35 -9 179 -50 321 -93 l257 -77 0
-126 c0 -179 -18 -658 -31 -824 -9 -115 -21 -180 -69 -370 -33 -127 -75 -271
-94 -320 -18 -50 -62 -162 -96 -250 -34 -88 -81 -212 -104 -275 -72 -193 -107
-254 -280 -485 -88 -118 -138 -186 -239 -323 -26 -36 -72 -91 -102 -123 -30
-32 -55 -61 -55 -65 0 -12 134 5 194 26 175 60 408 221 602 416 268 269 391
497 528 979 139 492 173 734 185 1291 l6 321 160 -44 c88 -25 183 -51 211 -59
l52 -14 7 -357 c21 -967 -45 -1523 -231 -1961 -142 -334 -414 -710 -659 -911
-360 -295 -656 -388 -1300 -407 -382 -12 -762 37 -1220 156 -263 69 -456 143
-695 267 -182 94 -243 131 -433 265 -323 228 -659 587 -871 932 -62 100 -236
452 -286 576 -113 284 -253 850 -324 1310 -24 155 -92 679 -115 890 -43 388
-63 827 -54 1207 l6 281 201 -104 c158 -81 200 -108 198 -121z m19131 -1763
c22 -41 58 -109 81 -150 24 -41 69 -131 101 -200 32 -69 78 -165 103 -215 119
-240 341 -812 402 -1035 114 -415 168 -848 210 -1658 6 -112 15 -283 20 -380
26 -491 1 -1315 -56 -1842 -57 -527 -212 -1194 -371 -1590 -77 -193 -244 -542
-328 -685 -118 -202 -319 -488 -459 -655 -183 -219 -538 -545 -789 -726 -426
-307 -708 -451 -1242 -634 -408 -140 -754 -205 -1460 -272 -208 -19 -298 -22
-680 -22 -457 0 -634 10 -1025 55 -443 51 -705 97 -1071 190 -398 100 -522
137 -880 265 -646 229 -978 396 -1429 717 -203 144 -449 370 -612 560 -33 40
-116 135 -184 212 -247 281 -427 544 -617 902 -165 311 -349 752 -418 1003
-126 462 -180 952 -179 1635 0 369 8 593 25 745 3 25 16 207 30 405 53 776 41
1166 -49 1640 -73 381 -125 599 -217 902 -27 91 -47 168 -45 170 3 3 42 0 88
-6 166 -22 418 -50 623 -71 116 -11 253 -25 305 -30 123 -13 385 -35 630 -54
854 -67 1854 -70 3045 -10 478 24 972 53 996 58 13 3 33 -34 87 -153 227 -504
355 -981 431 -1616 36 -294 73 -729 86 -1005 3 -69 10 -174 15 -235 20 -225
50 -672 71 -1045 18 -320 20 -400 10 -473 -18 -136 1 -142 89 -29 56 71 64 89
110 232 111 345 237 1208 240 1640 2 277 -22 729 -51 980 -75 644 -224 1216
-443 1703 -14 32 -26 60 -26 62 0 3 15 5 33 5 61 0 458 49 642 80 33 5 249 40
480 76 562 88 841 134 1140 189 138 25 347 61 465 80 118 20 303 51 410 70
107 19 339 59 515 90 324 57 744 135 961 179 65 13 126 23 134 22 8 0 32 -35
53 -76z"/>
<path d="M18030 34580 c-1441 -79 -2812 -854 -3886 -2195 -1154 -1442 -1887
-3407 -2073 -5560 -35 -397 -44 -636 -44 -1095 0 -459 9 -698 44 -1095 238
-2745 1367 -5168 3059 -6567 702 -579 1513 -970 2321 -1118 297 -55 500 -72
824 -72 324 0 527 17 824 72 1220 223 2382 970 3307 2125 1154 1442 1887 3407
2073 5560 35 397 44 636 44 1095 0 459 -9 698 -44 1095 -264 3047 -1628 5686
-3599 6962 -469 303 -961 521 -1483 658 -411 107 -934 159 -1367 135z m679
-615 c826 -94 1615 -445 2336 -1039 290 -238 629 -583 881 -897 1076 -1335
1771 -3186 1954 -5204 36 -400 45 -605 45 -1095 0 -490 -9 -695 -45 -1095
-196 -2161 -981 -4131 -2178 -5467 -68 -76 -125 -138 -128 -138 -3 0 21 33 54
73 432 533 801 1205 1052 1917 498 1414 563 3055 179 4530 -560 2152 -1996
3754 -3739 4169 -306 73 -581 105 -910 105 -255 0 -403 -12 -635 -50 -255 -42
-490 -104 -725 -190 -9 -4 9 -15 45 -28 174 -67 378 -188 533 -318 l93 -78
122 21 c1011 172 2003 -115 2867 -830 150 -123 458 -433 590 -590 624 -752
1056 -1686 1269 -2748 264 -1310 152 -2746 -305 -3934 -37 -96 -67 -187 -67
-204 0 -16 7 -70 16 -119 21 -111 22 -313 1 -421 -8 -44 -19 -116 -25 -160
-54 -446 -358 -828 -777 -979 -148 -53 -203 -61 -407 -61 -177 0 -197 2 -290
28 -218 61 -376 151 -530 302 -299 294 -411 659 -337 1105 39 230 43 253 69
335 60 190 152 338 302 485 161 158 324 251 538 306 133 35 356 44 488 20 179
-33 349 -104 494 -206 78 -56 210 -183 251 -243 39 -58 33 -75 75 193 146 916
70 1869 -217 2725 -329 982 -924 1802 -1673 2305 -390 262 -832 438 -1280 510
-173 28 -418 43 -580 35 -207 -9 -196 -5 -234 -83 -37 -76 -123 -210 -186
-292 -342 -444 -909 -720 -1479 -720 -79 0 -330 25 -346 35 -8 5 -155 -157
-263 -290 -334 -413 -618 -941 -805 -1500 -386 -1152 -386 -2468 0 -3620 163
-486 388 -930 678 -1335 l32 -45 -46 50 c-980 1056 -1557 2668 -1556 4350 1
1079 229 2105 677 3036 l75 157 -42 68 c-92 153 -178 362 -215 529 -10 44 -21
83 -25 87 -15 19 -296 -497 -417 -765 -863 -1918 -867 -4291 -9 -6214 25 -57
71 -153 102 -215 70 -141 59 -130 -43 42 -183 309 -318 568 -463 890 -471
1048 -769 2209 -880 3435 -36 400 -45 605 -45 1095 0 490 9 695 45 1095 183
2017 879 3871 1954 5204 252 314 591 659 881 897 780 642 1632 997 2540 1058
120 8 533 -4 664 -19z"/>
<path d="M31870 34580 c-1441 -79 -2812 -854 -3886 -2195 -1154 -1442 -1887
-3407 -2073 -5560 -35 -397 -44 -636 -44 -1095 0 -459 9 -698 44 -1095 238
-2745 1367 -5168 3059 -6567 702 -579 1513 -970 2321 -1118 297 -55 500 -72
824 -72 324 0 527 17 824 72 1220 223 2382 970 3307 2125 1154 1442 1887 3407
2073 5560 35 397 44 636 44 1095 0 459 -9 698 -44 1095 -264 3047 -1628 5686
-3599 6962 -469 303 -961 521 -1483 658 -411 107 -934 159 -1367 135z m679
-615 c826 -94 1615 -445 2336 -1039 290 -238 629 -583 881 -897 1076 -1335
1771 -3186 1954 -5204 36 -400 45 -605 45 -1095 0 -490 -9 -695 -45 -1095
-196 -2161 -981 -4131 -2178 -5467 -68 -76 -125 -138 -128 -138 -3 0 21 33 54
73 432 533 801 1205 1052 1917 498 1414 563 3055 179 4530 -560 2152 -1996
3754 -3739 4169 -337 81 -803 126 -1068 104 l-93 -8 88 -65 c166 -121 347
-314 446 -472 37 -59 46 -67 72 -68 59 0 331 -50 465 -84 525 -134 1016 -391
1480 -775 150 -123 458 -433 590 -590 905 -1089 1410 -2586 1410 -4181 0
-1375 -379 -2695 -1072 -3728 -111 -166 -359 -492 -374 -492 -1 0 34 57 78
128 210 335 375 687 506 1077 386 1152 386 2468 0 3620 -329 982 -924 1802
-1673 2305 -458 307 -1024 508 -1510 536 l-110 7 -80 -83 c-452 -465 -1113
-664 -1743 -524 l-114 25 -39 -27 c-208 -144 -540 -457 -727 -684 -373 -455
-653 -968 -850 -1555 -386 -1152 -386 -2468 0 -3620 163 -486 388 -930 678
-1335 l32 -45 -46 50 c-382 411 -733 957 -983 1530 -713 1628 -763 3610 -136
5295 196 526 442 989 760 1427 l74 102 -30 98 c-61 195 -100 472 -88 622 l5
66 -60 -65 c-523 -569 -978 -1349 -1268 -2170 -568 -1615 -568 -3505 0 -5120
91 -256 208 -536 316 -752 70 -141 59 -130 -43 42 -183 309 -318 568 -463 890
-471 1048 -769 2209 -880 3435 -36 400 -45 605 -45 1095 0 490 9 695 45 1095
183 2017 879 3871 1954 5204 252 314 591 659 881 897 780 642 1632 997 2540
1058 120 8 533 -4 664 -19z m-2286 -12426 c418 -85 754 -383 891 -791 95 -282
69 -633 -67 -903 -112 -224 -325 -432 -552 -539 -283 -135 -631 -150 -918 -42
-660 249 -963 1001 -657 1631 58 119 115 200 210 298 106 111 188 174 310 236
187 96 326 129 538 130 108 1 169 -4 245 -20z"/>
</g>
</svg>
