<?xml version="1.0" standalone="no"?>
<!DOCTYPE svg PUBLIC "-//W3C//DTD SVG 20010904//EN"
 "http://www.w3.org/TR/2001/REC-SVG-20010904/DTD/svg10.dtd">
<svg version="1.0" xmlns="http://www.w3.org/2000/svg"
 width="5000.000000pt" height="5000.000000pt" viewBox="0 0 5000.000000 5000.000000"
 preserveAspectRatio="xMidYMid meet">

<g transform="translate(0.000000,5000.000000) scale(0.100000,-0.100000)"
fill="#000000" stroke="none">
<path d="M9775 49220 c-656 -27 -1564 -201 -2218 -426 -89 -31 -193 -66 -232
-78 -74 -24 -349 -133 -525 -209 -244 -104 -625 -301 -865 -448 -150 -92 -484
-309 -565 -368 -47 -34 -114 -83 -150 -109 -125 -90 -272 -211 -440 -362 -268
-241 -403 -379 -644 -660 -123 -142 -182 -217 -293 -365 -52 -69 -254 -376
-294 -447 -24 -43 -48 -78 -54 -78 -12 -1 -42 -22 -148 -102 -42 -32 -79 -58
-83 -58 -4 0 -41 -30 -83 -68 -42 -37 -93 -80 -114 -96 -21 -15 -64 -53 -95
-85 -31 -31 -75 -73 -97 -93 -93 -85 -323 -335 -378 -410 -28 -39 -35 -48
-106 -131 -22 -26 -46 -58 -52 -69 -6 -12 -37 -53 -69 -92 -32 -39 -65 -86
-75 -105 -9 -19 -26 -44 -37 -55 -11 -12 -39 -50 -62 -86 -24 -36 -50 -76 -60
-90 -53 -79 -115 -176 -146 -226 -19 -31 -52 -82 -72 -113 -21 -31 -38 -61
-38 -68 0 -6 -6 -18 -14 -25 -7 -8 -21 -30 -31 -48 -10 -19 -23 -42 -30 -50
-7 -8 -34 -58 -61 -110 -26 -52 -53 -102 -59 -110 -7 -8 -29 -49 -49 -90 -42
-84 -57 -113 -96 -185 -15 -28 -30 -61 -35 -75 -4 -14 -15 -43 -26 -65 -10
-22 -32 -74 -49 -115 -17 -41 -38 -89 -46 -107 -8 -17 -14 -34 -14 -38 0 -4
-6 -21 -14 -38 -31 -68 -145 -364 -152 -392 -4 -16 -10 -34 -14 -40 -4 -5 -10
-26 -14 -45 -3 -19 -12 -47 -20 -62 -8 -15 -17 -42 -21 -60 -4 -18 -11 -37
-15 -43 -4 -5 -11 -32 -15 -59 -3 -27 -10 -56 -15 -65 -17 -33 -39 -109 -55
-190 -9 -47 -20 -92 -25 -101 -4 -8 -14 -54 -20 -100 -7 -47 -19 -104 -26
-127 -7 -23 -16 -79 -20 -125 -4 -46 -10 -87 -14 -93 -4 -5 -11 -48 -14 -95
-4 -47 -13 -121 -21 -165 -8 -44 -13 -98 -13 -120 1 -22 -4 -101 -11 -175 -22
-236 -32 -519 -30 -870 0 -135 1 -258 0 -275 0 -16 4 -66 10 -110 6 -44 11
-87 11 -95 0 -8 4 -62 9 -120 4 -58 11 -145 14 -195 4 -49 8 -101 10 -115 2
-14 6 -56 10 -95 3 -38 10 -97 16 -130 6 -33 17 -105 24 -160 8 -55 19 -122
25 -150 6 -27 15 -75 20 -105 5 -30 14 -82 20 -115 6 -33 15 -88 21 -123 5
-34 20 -97 33 -140 14 -42 34 -111 45 -152 10 -41 30 -112 44 -157 14 -46 23
-83 21 -83 -2 0 5 -22 16 -50 11 -27 18 -50 15 -50 -2 0 2 -19 11 -41 8 -23
16 -51 18 -63 3 -12 19 -59 36 -106 18 -47 35 -98 40 -115 8 -30 76 -203 110
-280 10 -22 30 -69 45 -105 55 -128 225 -462 279 -548 15 -24 31 -53 36 -65 5
-12 21 -40 35 -62 14 -22 28 -47 31 -55 4 -8 13 -22 20 -30 6 -8 24 -37 39
-65 15 -27 35 -59 44 -70 16 -19 43 -57 66 -94 38 -60 52 -80 80 -111 18 -19
43 -51 56 -70 100 -148 508 -558 695 -698 27 -20 63 -50 80 -65 16 -15 45 -38
64 -50 19 -11 69 -46 110 -77 41 -31 98 -69 126 -84 27 -15 72 -44 100 -65 27
-20 63 -44 79 -53 123 -62 251 -132 309 -168 38 -23 87 -48 109 -56 22 -8 45
-18 51 -23 6 -5 31 -17 56 -27 25 -10 74 -34 110 -55 36 -20 82 -42 103 -49
22 -7 51 -18 65 -26 15 -8 31 -14 37 -14 17 0 183 -68 246 -100 9 -5 37 -11
63 -15 25 -4 48 -11 51 -15 3 -5 22 -11 43 -15 51 -8 113 -30 113 -39 0 -4
-33 -30 -73 -58 -40 -28 -100 -74 -133 -102 -112 -95 -325 -288 -325 -295 0
-3 -19 -29 -41 -56 -23 -28 -51 -70 -62 -95 -11 -25 -25 -52 -32 -60 -30 -36
-245 -491 -245 -520 0 -6 -9 -36 -20 -68 -33 -93 -61 -206 -95 -382 -18 -97
-37 -419 -34 -585 4 -220 23 -377 79 -650 18 -89 59 -217 152 -474 24 -68 152
-323 188 -376 15 -22 40 -60 56 -84 16 -24 44 -66 62 -93 53 -80 308 -328 412
-401 141 -99 315 -182 468 -223 70 -19 137 -34 149 -34 45 0 31 -20 -39 -57
-143 -77 -376 -229 -462 -302 -32 -27 -88 -64 -125 -81 -94 -45 -194 -114
-226 -155 -15 -20 -100 -109 -189 -198 -89 -89 -177 -182 -196 -207 -18 -25
-57 -70 -85 -100 -28 -30 -71 -84 -94 -120 -24 -36 -56 -78 -71 -95 -15 -16
-52 -66 -81 -110 -30 -45 -100 -146 -157 -225 -119 -168 -196 -289 -263 -413
-26 -48 -52 -93 -57 -100 -28 -33 -309 -609 -394 -807 -240 -555 -473 -1196
-558 -1532 -17 -64 -35 -129 -41 -145 -16 -42 -113 -482 -154 -698 -20 -104
-42 -219 -50 -255 -7 -36 -19 -110 -25 -165 -6 -55 -15 -122 -21 -150 -11 -61
-25 -211 -41 -455 -14 -218 -14 -204 0 -395 23 -309 53 -549 87 -710 13 -60
27 -128 30 -150 3 -22 15 -69 25 -105 11 -36 28 -99 38 -140 11 -41 31 -118
46 -170 32 -110 64 -197 181 -500 32 -83 110 -256 142 -314 8 -15 41 -78 73
-140 119 -232 358 -625 457 -750 21 -27 65 -83 98 -126 208 -268 609 -645 817
-767 31 -18 70 -44 86 -58 17 -14 70 -46 119 -71 358 -188 399 -207 578 -267
50 -16 118 -40 152 -53 34 -13 79 -24 100 -24 22 0 63 -7 92 -16 65 -19 163
-29 481 -49 201 -12 291 -13 500 -4 140 6 271 15 290 20 59 15 58 11 -20 -64
-41 -40 -95 -95 -120 -122 -25 -28 -71 -72 -102 -98 -36 -30 -75 -77 -105
-127 -26 -43 -88 -139 -138 -213 -49 -75 -107 -164 -128 -199 -71 -119 -239
-433 -279 -523 -92 -204 -162 -367 -210 -490 -28 -71 -88 -222 -134 -335 -86
-216 -210 -577 -245 -714 -11 -45 -28 -108 -38 -141 -49 -158 -169 -734 -216
-1035 -100 -648 -143 -1124 -132 -1475 11 -346 49 -829 77 -965 10 -52 21
-113 25 -135 24 -167 103 -534 163 -760 89 -334 154 -548 225 -745 237 -656
447 -1030 835 -1492 72 -85 366 -373 471 -462 260 -219 361 -295 541 -408 430
-270 862 -422 1460 -517 381 -60 618 -81 923 -81 395 -1 707 48 1183 186 594
172 973 358 1454 713 354 262 776 640 979 876 49 57 48 65 12 -105 -11 -52
-25 -138 -32 -190 -16 -128 -17 -613 -2 -715 7 -44 17 -125 23 -180 28 -257
174 -908 275 -1227 204 -642 293 -858 560 -1363 37 -71 116 -202 159 -265 16
-25 56 -83 88 -130 133 -198 270 -360 478 -569 162 -162 295 -282 397 -358 28
-21 73 -56 101 -78 52 -40 164 -118 322 -222 104 -69 259 -158 405 -233 61
-32 124 -64 140 -73 48 -27 253 -116 338 -148 44 -16 92 -36 109 -45 39 -20
221 -85 383 -136 627 -197 1326 -286 1880 -239 166 14 390 45 483 67 399 93
633 171 977 327 278 126 572 299 767 452 28 22 72 55 97 74 269 202 819 716
1032 966 164 192 196 231 251 305 31 41 69 92 86 113 l30 38 6 -28 c3 -15 10
-68 17 -118 50 -414 104 -644 219 -930 228 -572 519 -945 955 -1226 330 -213
659 -350 987 -413 118 -23 382 -39 523 -33 197 9 464 48 640 93 295 76 577
207 840 391 206 144 409 325 570 508 150 172 327 474 391 670 15 44 28 81 29
82 1 2 38 -8 83 -21 421 -126 890 -180 1513 -174 l266 2 113 -94 c63 -52 135
-111 161 -130 25 -19 69 -53 97 -75 95 -75 310 -216 427 -280 543 -301 1148
-501 1675 -555 226 -23 439 -30 615 -20 295 17 461 37 795 95 112 20 446 106
615 159 161 50 522 187 598 227 23 11 79 37 126 56 47 19 94 41 105 48 12 7
68 38 126 68 247 127 540 311 724 454 27 21 81 63 121 93 111 85 194 160 374
341 206 206 344 370 479 569 32 47 72 105 88 130 78 114 133 212 271 480 220
427 424 997 569 1595 80 328 136 608 153 775 7 58 17 141 24 185 15 103 14
585 -2 720 -7 55 -24 151 -38 213 -13 63 -23 116 -20 118 2 3 30 -26 61 -64
157 -192 623 -608 956 -853 534 -393 933 -578 1660 -771 531 -140 1021 -165
1650 -83 259 34 298 41 471 76 527 106 878 245 1295 513 221 142 471 347 725
594 147 143 197 198 312 340 20 26 58 72 82 102 142 174 313 453 432 705 264
559 499 1332 618 2035 8 47 24 130 34 185 20 101 42 325 62 640 37 574 13 951
-112 1775 -49 325 -167 898 -219 1065 -11 33 -28 96 -39 141 -33 132 -157 496
-235 689 -40 99 -101 250 -134 335 -57 145 -124 302 -220 515 -40 90 -208 404
-279 523 -21 35 -78 124 -128 199 -49 74 -112 170 -138 213 -30 50 -69 97
-105 127 -31 26 -77 70 -102 98 -25 27 -79 82 -120 122 -78 75 -79 79 -20 64
19 -5 150 -14 290 -20 209 -9 299 -8 500 4 318 20 416 30 481 49 29 9 68 16
88 16 37 0 211 54 326 101 39 16 88 35 110 43 36 13 150 70 398 200 49 25 102
57 119 71 16 14 55 40 86 58 209 123 609 498 817 767 33 43 77 99 98 126 97
123 335 512 457 749 31 61 64 124 73 140 30 55 134 289 147 330 7 22 20 54 28
70 14 27 60 154 111 305 37 107 81 257 95 321 8 35 23 102 35 149 42 172 71
307 71 334 0 16 7 74 15 130 22 156 45 384 45 451 -1 33 4 86 9 117 6 36 6 90
1 145 -5 48 -10 122 -10 163 0 41 -4 111 -10 155 -5 44 -14 123 -20 175 -14
135 -48 387 -54 408 -3 9 -22 103 -41 207 -45 237 -129 624 -160 730 -13 44
-35 125 -49 180 -29 114 -180 574 -254 775 -175 472 -425 1037 -625 1415 -169
319 -239 434 -396 653 -53 74 -121 171 -151 217 -30 45 -69 99 -87 119 -18 20
-54 69 -81 109 -27 39 -60 81 -72 92 -13 11 -48 52 -79 90 -30 39 -123 138
-206 221 -82 83 -172 175 -198 203 -53 57 -122 105 -220 152 -35 16 -91 53
-123 81 -83 70 -363 252 -486 314 -49 25 -55 44 -15 44 12 0 79 15 149 34 151
40 327 124 468 224 108 76 354 316 415 405 144 210 251 410 321 602 25 66 49
130 54 142 17 40 77 267 94 353 9 47 23 117 31 155 27 134 39 462 26 712 -7
126 -19 257 -26 293 -8 36 -16 83 -20 105 -3 22 -13 65 -22 95 -73 264 -120
383 -240 620 -109 214 -124 240 -182 318 -72 97 -394 379 -551 484 l-25 16 30
12 c17 7 53 18 80 25 131 34 175 48 234 75 35 17 68 30 75 30 6 0 22 6 36 13
14 7 68 28 120 47 52 18 100 37 105 41 14 10 174 90 278 138 49 23 112 57 140
76 29 19 57 35 64 35 6 0 18 6 25 13 8 6 54 32 103 57 49 25 119 66 155 91 36
26 83 56 105 67 22 11 69 42 103 69 35 26 78 57 97 68 42 26 184 139 274 219
112 100 254 230 279 256 151 156 274 294 319 361 17 25 39 52 49 60 9 8 42 52
73 99 30 47 70 104 88 128 18 24 33 48 33 53 0 6 11 25 24 42 26 35 159 265
224 387 58 108 165 323 168 335 2 11 31 77 68 160 32 69 107 256 111 277 2 9
19 61 38 115 18 54 42 125 52 158 9 33 22 74 27 90 5 17 20 71 33 121 12 50
27 100 33 111 6 11 13 31 16 44 9 50 30 127 52 195 21 62 32 121 50 249 2 16
6 37 9 45 2 8 7 39 10 68 3 29 10 64 15 78 5 13 8 24 5 24 -2 0 2 21 10 48 7
26 16 79 20 117 3 39 10 86 15 105 5 19 14 85 20 145 6 61 14 133 17 160 3 28
5 57 5 65 0 8 6 85 14 169 7 85 11 158 9 162 -3 3 0 21 5 40 33 113 26 907
-11 1314 -7 72 -13 159 -14 195 -1 36 -6 81 -10 100 -4 19 -14 85 -21 145 -24
202 -41 320 -52 345 -5 14 -13 54 -17 90 -4 35 -18 101 -31 145 -13 44 -24 89
-24 101 0 21 -34 142 -50 179 -5 11 -12 36 -15 55 -9 44 -33 126 -50 165 -7
17 -23 64 -35 105 -12 41 -28 89 -35 105 -7 17 -16 41 -20 55 -4 14 -14 34
-21 45 -8 11 -14 26 -14 33 0 8 -6 28 -14 45 -8 18 -40 97 -71 177 -32 80 -60
150 -64 155 -4 6 -16 33 -26 60 -10 28 -21 55 -25 60 -4 6 -13 28 -20 50 -7
22 -16 45 -21 50 -4 6 -42 78 -84 160 -43 83 -90 173 -105 200 -16 28 -40 73
-54 100 -15 28 -42 75 -61 105 -19 30 -48 80 -65 110 -17 30 -44 75 -60 100
-16 25 -43 68 -59 95 -17 28 -35 57 -41 65 -5 8 -21 32 -34 52 -14 21 -34 50
-44 65 -11 16 -37 55 -58 88 -21 33 -49 71 -62 85 -13 14 -33 43 -44 65 -20
38 -65 99 -201 268 -34 43 -80 102 -102 131 -91 123 -453 494 -585 602 -126
102 -158 137 -208 229 -92 169 -135 240 -249 410 -62 94 -124 183 -136 200
-211 284 -523 639 -742 846 -432 407 -684 599 -1275 973 -52 33 -133 81 -180
106 -47 26 -132 74 -190 107 -179 103 -512 261 -745 353 -38 15 -117 47 -175
70 -58 24 -136 53 -175 65 -38 13 -143 48 -232 79 -453 155 -930 266 -1554
361 -502 75 -1012 89 -1699 45 -163 -10 -214 -17 -440 -55 -47 -8 -130 -22
-185 -30 -165 -26 -519 -117 -760 -195 -300 -97 -997 -358 -1210 -453 -264
-117 -465 -216 -640 -315 -155 -87 -481 -286 -624 -380 -466 -306 -898 -751
-1245 -1282 -38 -58 -81 -123 -96 -145 -95 -140 -343 -571 -461 -799 l-87
-170 -43 -12 c-24 -8 -53 -18 -64 -23 -11 -5 -37 -15 -58 -21 -22 -7 -51 -18
-65 -26 -15 -8 -31 -14 -35 -14 -9 0 -16 -3 -163 -69 -283 -127 -713 -400
-934 -591 -127 -110 -280 -272 -355 -376 -100 -139 -252 -470 -298 -649 -37
-142 -41 -161 -39 -182 3 -37 -13 -27 -75 44 -74 85 -337 350 -423 425 -158
139 -405 341 -484 396 -33 23 -86 60 -116 82 -124 90 -330 230 -338 230 -3 0
-19 11 -36 24 -72 54 -777 416 -812 416 -7 0 -206 78 -284 111 -46 19 -231 84
-285 99 -16 5 -73 23 -125 40 -100 32 -157 49 -255 76 -33 9 -82 22 -110 30
-27 7 -102 25 -165 40 -63 14 -133 29 -155 34 -63 15 -257 52 -285 55 -14 1
-56 8 -95 14 -38 6 -86 13 -105 15 -19 2 -98 10 -175 19 -190 20 -199 21 -450
20 -153 -1 -271 -7 -390 -21 -150 -18 -214 -27 -420 -62 -105 -18 -257 -52
-375 -84 -52 -14 -115 -31 -140 -37 -25 -6 -54 -15 -65 -20 -11 -4 -60 -20
-110 -35 -49 -15 -94 -30 -100 -34 -5 -4 -28 -13 -50 -20 -22 -6 -56 -19 -75
-28 -19 -9 -53 -16 -75 -16 -22 0 -56 7 -75 16 -19 9 -53 22 -75 28 -22 7 -44
16 -50 20 -5 4 -50 19 -100 34 -49 15 -99 31 -110 35 -11 5 -40 14 -65 20 -25
6 -88 23 -140 37 -118 32 -270 66 -375 84 -206 35 -270 44 -420 62 -119 14
-237 20 -390 21 -251 1 -260 0 -450 -20 -77 -9 -156 -17 -175 -19 -19 -2 -66
-9 -105 -15 -38 -6 -81 -13 -95 -14 -128 -15 -793 -167 -832 -191 -5 -3 -21
-7 -36 -10 -15 -3 -44 -11 -64 -19 -21 -8 -38 -13 -38 -10 0 3 -13 -1 -29 -9
-16 -9 -46 -20 -67 -25 -22 -5 -77 -23 -124 -41 -47 -17 -94 -33 -105 -35 -11
-3 -40 -13 -65 -24 -25 -11 -72 -29 -105 -41 -33 -12 -76 -30 -96 -41 -20 -10
-42 -19 -48 -19 -31 0 -432 -189 -523 -247 -21 -13 -38 -20 -38 -17 0 4 -6 2
-12 -4 -7 -5 -44 -26 -83 -47 -111 -59 -178 -97 -205 -115 -14 -10 -79 -53
-145 -97 -117 -77 -237 -160 -312 -216 -21 -15 -54 -38 -73 -51 -19 -13 -84
-65 -145 -115 -60 -51 -141 -117 -179 -149 -39 -31 -93 -78 -120 -103 -28 -26
-80 -73 -116 -106 -89 -81 -174 -167 -245 -248 -94 -107 -131 -145 -139 -145
-5 0 -6 6 -3 14 3 8 1 30 -4 48 -5 18 -12 44 -14 58 -16 112 -69 258 -156 435
-98 200 -132 261 -158 289 -12 12 -21 26 -21 31 0 14 -98 125 -202 227 -76 76
-257 230 -333 286 -98 70 -376 246 -473 297 -198 106 -289 151 -379 186 -56
23 -106 46 -111 52 -5 7 -45 82 -87 167 -222 442 -566 1004 -810 1320 -146
190 -390 459 -534 588 -267 238 -383 323 -761 554 -370 225 -485 289 -743 410
-357 167 -539 239 -1217 485 -318 115 -775 242 -1005 278 -55 8 -138 22 -185
30 -227 38 -278 45 -445 54 -99 6 -207 13 -240 16 -122 9 -606 13 -790 5z
m344 -370 l66 0 -145 -66 c-398 -181 -746 -314 -1108 -425 -107 -33 -132 -44
-130 -57 7 -35 284 -12 548 44 278 59 607 157 808 240 159 66 398 192 425 224
l27 31 162 -11 c90 -6 190 -16 223 -22 33 -5 85 -14 115 -18 469 -71 780 -153
1305 -342 138 -50 261 -95 275 -100 23 -9 12 -16 -123 -84 -174 -88 -247 -118
-462 -191 -245 -83 -835 -237 -1190 -310 -214 -44 -240 -47 -382 -48 -84 0
-153 -3 -153 -6 0 -10 88 -65 140 -88 144 -63 467 -73 985 -30 424 35 840 151
1217 340 177 89 350 189 388 224 l25 23 195 -87 c319 -143 425 -199 780 -411
311 -187 492 -308 483 -324 -18 -30 -256 -285 -320 -341 -178 -158 -280 -221
-736 -455 -323 -165 -664 -312 -885 -380 -76 -24 -233 -56 -323 -66 -32 -4
-59 -10 -59 -14 0 -19 143 -43 285 -47 237 -7 507 41 895 160 383 117 610 216
830 362 153 102 309 246 497 457 l95 108 28 -20 c33 -24 283 -285 367 -385
171 -201 356 -471 598 -870 100 -164 235 -407 235 -422 0 -28 -286 -324 -435
-450 -336 -284 -669 -452 -1140 -573 -343 -89 -610 -125 -872 -117 -146 4
-185 2 -193 -9 -23 -27 0 -51 98 -96 192 -91 394 -118 797 -106 143 4 285 12
315 19 178 37 361 91 485 142 153 64 187 79 285 133 123 67 226 136 369 248
123 95 357 312 421 390 25 30 48 55 51 55 7 1 151 -295 216 -444 182 -414 350
-928 444 -1358 38 -171 49 -144 -96 -228 -517 -301 -979 -491 -1453 -598 -264
-60 -320 -68 -639 -95 -631 -54 -866 -55 -1058 -7 -92 24 -105 25 -105 10 0
-27 58 -81 133 -124 125 -73 275 -119 485 -149 637 -90 819 -87 1343 19 413
84 951 300 1369 549 69 41 126 73 128 71 7 -6 45 -300 72 -550 24 -226 50
-827 41 -942 -1 -7 -29 -31 -63 -55 -35 -23 -101 -78 -148 -123 -127 -120
-394 -331 -555 -438 -70 -47 -258 -132 -315 -144 -17 -3 -30 -9 -30 -13 0 -13
42 -20 131 -20 204 0 375 58 760 261 103 55 190 99 193 99 10 0 6 -59 -8 -128
-8 -37 -20 -121 -26 -187 -6 -66 -24 -224 -40 -350 -36 -277 -136 -745 -175
-810 -40 -69 -102 -147 -183 -229 -127 -129 -223 -195 -366 -252 l-70 -28 -44
50 c-60 68 -175 241 -223 335 -92 184 -158 395 -188 605 -18 123 -21 190 -21
514 0 323 -2 377 -16 406 -32 68 -111 104 -184 84 -40 -11 -78 -42 -294 -236
-267 -240 -538 -597 -691 -909 -91 -186 -135 -305 -177 -479 -30 -122 -48
-167 -48 -118 0 51 -143 286 -253 414 -142 164 -358 320 -962 691 -98 61 -281
202 -359 276 -102 99 -236 255 -309 361 -383 558 -711 1232 -926 1905 -85 268
-185 631 -227 825 -168 776 -412 1354 -798 1890 -122 170 -231 297 -415 481
-232 231 -377 349 -631 514 -41 26 -105 68 -142 92 -253 165 -630 317 -1103
445 -204 54 -196 53 -421 93 -183 33 -219 37 -449 42 -452 10 -1033 -48 -1422
-142 -461 -111 -1005 -351 -1206 -534 -23 -21 -53 -45 -66 -54 -65 -44 -329
-290 -428 -399 -229 -252 -462 -570 -574 -783 -124 -235 -379 -846 -483 -1156
-91 -271 -163 -584 -201 -877 -27 -202 -13 -815 25 -1118 23 -185 52 -380 60
-414 11 -42 56 -340 64 -425 l5 -60 -14 40 c-47 134 -117 449 -150 671 -22
150 -66 397 -72 407 -9 14 -4 344 7 552 17 313 68 684 106 775 8 19 34 116 59
215 25 99 54 203 65 230 10 28 44 127 74 220 129 403 353 872 641 1345 124
205 131 215 278 416 158 218 363 452 611 699 396 394 746 665 1292 998 501
306 915 499 1532 713 117 41 216 74 220 74 4 0 -63 -35 -148 -78 -85 -43 -216
-111 -290 -152 -74 -40 -173 -91 -220 -112 -47 -22 -120 -60 -162 -85 -72 -41
-92 -63 -69 -77 16 -10 454 122 571 173 14 6 135 54 270 107 272 107 584 256
761 362 125 76 115 73 399 121 175 30 451 68 590 82 144 13 471 28 514 23 16
-2 58 -4 95 -4z m30511 -16 c238 -19 534 -61 849 -120 72 -14 100 -25 200 -86
177 -106 489 -255 761 -362 135 -53 256 -101 270 -107 117 -51 555 -183 571
-173 23 14 3 36 -68 77 -43 25 -116 63 -163 85 -47 21 -146 72 -220 112 -74
41 -205 109 -290 152 -85 43 -152 78 -148 78 4 0 103 -33 220 -74 617 -214
1031 -407 1532 -713 546 -333 896 -604 1292 -998 248 -247 453 -481 611 -699
147 -201 154 -211 278 -416 117 -192 152 -254 282 -500 129 -242 282 -603 359
-845 30 -93 64 -192 74 -220 11 -27 40 -131 65 -230 25 -99 51 -196 59 -215
38 -91 89 -462 106 -775 11 -210 16 -538 7 -552 -5 -8 -57 -299 -74 -418 -8
-54 -10 -43 -16 110 -20 434 -56 701 -157 1160 -15 72 -36 168 -45 215 -42
207 -174 622 -345 1080 -138 371 -440 911 -676 1207 -282 353 -709 678 -1244
944 -279 139 -444 193 -842 278 -321 69 -376 75 -618 68 -239 -6 -334 -21
-690 -103 -395 -91 -635 -175 -885 -312 -233 -127 -332 -186 -505 -303 -280
-189 -498 -378 -728 -634 -235 -261 -311 -366 -522 -720 -79 -132 -186 -310
-238 -395 -52 -85 -139 -240 -192 -345 -94 -182 -131 -263 -235 -515 -116
-280 -386 -882 -477 -1065 -100 -199 -279 -506 -411 -705 -106 -159 -200 -271
-353 -420 -220 -215 -319 -288 -624 -460 -296 -166 -693 -426 -880 -575 -247
-197 -531 -485 -649 -660 -83 -122 -98 -151 -127 -240 -25 -80 -16 -88 -79 70
-140 348 -450 779 -761 1059 -216 194 -254 225 -294 236 -73 20 -152 -16 -184
-84 -14 -29 -16 -83 -16 -406 0 -324 -3 -391 -21 -514 -30 -210 -96 -421 -188
-605 -48 -94 -163 -267 -223 -335 l-44 -50 -70 28 c-143 57 -239 123 -366 252
-81 82 -143 160 -183 229 -39 65 -139 533 -175 810 -16 126 -34 284 -40 350
-6 66 -18 150 -26 187 -14 69 -18 128 -8 128 3 0 90 -44 193 -99 385 -203 556
-261 760 -261 89 0 131 7 131 20 0 4 -13 10 -30 13 -57 12 -245 97 -315 144
-161 107 -428 318 -555 438 -47 45 -113 100 -148 123 -34 24 -62 48 -63 55 -9
115 17 716 41 942 27 250 65 544 72 550 2 2 59 -30 128 -71 418 -249 956 -465
1369 -549 524 -106 706 -109 1343 -19 210 30 360 76 485 149 75 43 133 97 133
124 0 15 -13 14 -105 -10 -192 -48 -427 -47 -1058 7 -319 27 -375 35 -639 95
-474 107 -936 297 -1453 598 -145 84 -134 57 -96 228 94 430 262 944 444 1358
65 149 209 445 216 444 3 0 26 -25 51 -55 64 -78 298 -295 421 -390 143 -112
246 -181 369 -248 98 -54 132 -69 285 -133 124 -51 307 -105 485 -142 30 -7
172 -15 315 -19 403 -12 605 15 797 106 98 45 121 69 98 96 -8 11 -47 13 -193
9 -262 -8 -529 28 -872 117 -227 58 -354 103 -536 187 -234 108 -402 215 -604
386 -149 126 -435 422 -435 450 0 15 135 258 235 422 242 399 427 669 598 870
84 100 334 361 367 385 l28 20 95 -108 c188 -211 344 -355 497 -457 220 -146
447 -245 830 -362 388 -119 658 -167 895 -160 142 4 285 28 285 47 0 4 -27 10
-59 14 -90 10 -247 42 -323 66 -221 68 -562 215 -885 380 -456 234 -558 297
-736 455 -64 56 -302 311 -320 341 -9 16 172 137 483 324 355 212 461 268 780
411 l195 87 25 -23 c38 -35 211 -135 388 -224 377 -189 793 -305 1217 -340
518 -43 841 -33 985 30 52 23 140 78 140 88 0 3 -69 6 -152 6 -143 1 -169 4
-383 48 -355 73 -945 227 -1190 310 -215 73 -288 103 -462 191 -135 68 -146
75 -123 84 14 5 138 50 275 100 525 189 836 271 1305 342 30 4 82 13 115 18
33 6 133 16 223 22 l162 11 27 -31 c27 -32 266 -158 425 -224 368 -152 955
-293 1248 -299 90 -2 105 0 108 15 2 13 -23 24 -130 57 -361 111 -705 242
-1108 425 l-145 65 80 3 c134 5 341 -2 535 -18z m3110 -3390 c221 -36 452
-114 699 -238 108 -55 136 -71 296 -176 311 -203 673 -543 910 -855 117 -154
130 -173 310 -475 136 -228 603 -1269 646 -1440 5 -19 40 -132 78 -250 39
-118 79 -264 91 -325 11 -60 32 -157 45 -215 38 -159 65 -451 65 -697 0 -165
5 -206 24 -200 37 12 196 264 284 449 91 191 218 643 271 963 46 277 65 547
65 950 1 407 -12 584 -55 725 -22 77 -98 404 -94 408 1 2 17 -21 35 -50 18
-29 36 -55 40 -58 12 -8 212 -311 298 -453 9 -16 38 -63 64 -105 26 -42 57
-96 68 -119 11 -23 37 -70 57 -105 46 -80 213 -410 213 -422 0 -5 9 -27 19
-50 44 -92 71 -155 71 -163 0 -4 6 -20 14 -35 8 -14 19 -43 26 -65 7 -21 16
-42 20 -48 4 -5 13 -28 20 -50 6 -22 18 -54 26 -72 8 -17 14 -34 14 -38 0 -3
9 -25 19 -48 11 -24 23 -56 27 -72 4 -17 10 -34 14 -40 4 -5 11 -29 15 -52 4
-24 10 -45 14 -48 5 -2 14 -26 21 -52 7 -27 16 -52 20 -58 4 -5 11 -30 15 -55
4 -25 11 -49 15 -55 4 -5 11 -27 14 -49 4 -21 11 -46 15 -55 13 -25 61 -233
61 -260 0 -14 4 -38 9 -55 13 -43 27 -120 45 -256 9 -63 21 -149 27 -190 7
-41 13 -109 15 -150 1 -41 6 -90 10 -110 3 -19 8 -71 10 -115 2 -44 6 -118 10
-165 10 -160 13 -924 4 -967 -6 -24 -12 -84 -15 -135 -3 -51 -8 -115 -10 -143
-2 -27 -7 -90 -10 -138 -3 -49 -10 -109 -15 -135 -4 -26 -7 -49 -5 -53 2 -3
-3 -46 -11 -95 -8 -49 -17 -102 -19 -119 -13 -92 -24 -159 -38 -230 -8 -44
-20 -114 -27 -155 -7 -41 -16 -90 -21 -109 -4 -19 -6 -37 -4 -41 3 -5 -2 -25
-11 -46 -16 -39 -39 -119 -48 -168 -2 -13 -16 -60 -31 -103 -14 -43 -28 -91
-30 -106 -2 -15 -10 -47 -18 -70 -8 -23 -22 -69 -31 -102 -10 -33 -22 -73 -27
-90 -48 -142 -74 -216 -90 -250 -10 -22 -28 -67 -40 -100 -12 -33 -39 -96 -59
-140 -20 -44 -43 -96 -50 -115 -8 -19 -24 -52 -37 -72 -13 -21 -23 -42 -23
-48 0 -6 -12 -32 -26 -58 -15 -26 -46 -84 -69 -129 -24 -45 -51 -95 -62 -110
-10 -15 -32 -53 -47 -83 -51 -97 -193 -313 -259 -393 -21 -26 -50 -64 -64 -84
-85 -125 -444 -493 -588 -603 -27 -21 -65 -52 -84 -69 -19 -17 -43 -37 -55
-46 -66 -47 -291 -218 -306 -232 -31 -29 -358 -250 -440 -298 -47 -27 -87 -52
-90 -55 -5 -6 -44 -29 -155 -91 -27 -16 -66 -35 -85 -44 -19 -8 -42 -19 -50
-24 -47 -29 -233 -117 -340 -161 -41 -17 -83 -35 -93 -41 -32 -17 -122 -49
-172 -59 -83 -18 -127 -28 -200 -45 -38 -9 -86 -19 -105 -22 -19 -3 -39 -9
-45 -13 -5 -4 -53 -11 -105 -15 -52 -3 -117 -11 -145 -16 -165 -33 -339 -43
-703 -44 -358 0 -374 -1 -388 -19 -36 -50 -3 -101 73 -111 26 -3 68 -10 93
-15 25 -5 70 -12 100 -16 67 -9 67 -9 160 -24 41 -7 89 -14 105 -16 17 -1 50
-7 75 -13 28 -7 194 -10 438 -8 386 2 392 2 392 -18 1 -31 33 -96 71 -140 35
-42 127 -125 279 -252 139 -116 342 -323 371 -378 15 -27 48 -89 73 -137 154
-288 246 -594 262 -869 23 -412 -1 -673 -92 -984 -64 -221 -178 -472 -289
-639 -107 -161 -281 -326 -440 -419 -127 -74 -399 -138 -695 -164 -261 -23
-665 -22 -840 0 -349 46 -647 137 -856 262 -108 64 -236 158 -285 207 -49 51
-312 268 -317 263 -3 -2 33 -55 79 -117 45 -62 117 -160 158 -218 103 -142
300 -343 420 -428 106 -77 277 -180 331 -202 19 -7 60 -26 90 -41 68 -33 300
-115 395 -139 39 -10 104 -27 145 -38 41 -11 98 -23 126 -27 49 -6 50 -7 64
-53 26 -89 116 -153 375 -267 136 -60 208 -97 328 -166 158 -92 368 -232 432
-288 67 -58 145 -111 230 -154 52 -26 80 -48 109 -87 22 -28 58 -66 80 -83 83
-64 339 -349 415 -462 18 -27 46 -63 61 -80 15 -16 55 -70 89 -120 33 -49 97
-139 141 -200 43 -60 96 -139 116 -175 20 -36 47 -78 59 -95 12 -16 37 -59 55
-95 18 -36 40 -76 50 -90 44 -64 274 -540 377 -780 297 -695 470 -1197 604
-1755 52 -219 165 -789 174 -880 3 -38 13 -108 20 -155 35 -222 47 -554 28
-800 -20 -243 -53 -522 -68 -561 -3 -8 -16 -66 -30 -129 -92 -427 -237 -828
-443 -1230 -36 -69 -69 -130 -74 -137 -5 -6 -28 -46 -52 -90 -91 -167 -275
-453 -331 -513 -17 -19 -45 -53 -61 -75 -43 -59 -156 -189 -245 -280 -110
-114 -329 -296 -434 -361 -33 -21 -73 -49 -90 -62 -16 -14 -50 -33 -74 -44
-24 -10 -62 -31 -85 -46 -23 -15 -61 -36 -86 -46 -25 -9 -64 -28 -86 -41 -81
-47 -340 -138 -459 -161 -212 -42 -293 -52 -600 -74 -186 -14 -629 -3 -985 25
-498 39 -1097 204 -1535 423 -234 117 -544 315 -615 394 -33 36 -164 129 -179
126 -42 -8 -21 -46 113 -204 241 -285 528 -518 886 -722 188 -108 536 -270
645 -302 33 -9 88 -25 122 -35 48 -14 63 -23 67 -40 14 -55 133 -190 296 -335
127 -113 254 -242 325 -330 29 -36 77 -88 108 -116 30 -28 66 -73 80 -100 22
-43 46 -83 138 -224 29 -45 89 -152 212 -380 142 -264 232 -469 397 -905 20
-55 58 -149 82 -210 144 -350 252 -745 388 -1416 56 -279 135 -853 162 -1174
16 -197 16 -686 0 -855 -6 -69 -16 -197 -22 -285 -6 -88 -20 -203 -31 -255
-10 -52 -23 -124 -28 -160 -48 -327 -232 -1031 -369 -1405 -165 -452 -296
-712 -520 -1032 -205 -294 -611 -689 -968 -943 -298 -212 -642 -366 -1019
-455 -161 -37 -186 -43 -225 -50 -19 -3 -84 -14 -145 -24 -237 -41 -504 -67
-770 -76 -303 -11 -610 31 -992 136 -302 82 -545 169 -778 277 -368 172 -923
577 -1404 1025 -239 223 -479 440 -741 670 -156 138 -457 417 -521 483 -80 84
-325 359 -384 432 -27 34 -56 64 -62 67 -22 8 -43 -6 -43 -29 0 -54 213 -487
340 -690 102 -164 114 -188 168 -321 69 -172 210 -636 232 -765 40 -230 53
-416 39 -580 -5 -58 -13 -163 -18 -235 -6 -71 -15 -164 -21 -205 -5 -41 -17
-124 -25 -185 -33 -249 -171 -847 -250 -1080 -13 -38 -40 -124 -60 -190 -126
-413 -326 -862 -559 -1250 -73 -123 -248 -365 -356 -494 -109 -131 -415 -425
-531 -511 -26 -19 -69 -52 -95 -73 -538 -418 -1391 -796 -2079 -923 -608 -112
-1072 -117 -1575 -18 -104 20 -235 52 -300 73 -157 51 -203 66 -290 98 -164
60 -438 188 -580 271 -177 103 -290 178 -290 192 0 4 24 10 53 14 91 12 417
85 567 127 218 61 598 189 755 254 276 114 651 308 885 459 340 219 688 547
867 816 23 36 55 83 71 105 164 234 310 578 393 924 96 400 131 655 150 1087
18 392 1 599 -82 1024 -38 197 -41 210 -100 417 -110 387 -234 684 -549 1314
-327 654 -511 943 -822 1291 l-77 86 37 28 c20 16 89 76 152 134 63 59 135
120 160 137 83 58 426 374 550 508 125 134 170 189 234 282 30 43 63 87 75 97
12 11 47 60 78 110 31 50 68 105 82 121 13 17 71 127 129 245 57 118 112 226
121 240 23 33 90 194 195 470 48 124 95 241 105 260 17 32 58 155 140 425 57
190 163 592 306 1165 79 316 172 676 205 800 34 124 92 358 130 520 100 430
290 1185 354 1405 160 555 446 1420 651 1970 37 99 80 216 95 260 98 278 288
740 350 849 26 44 59 113 75 151 46 115 100 228 138 288 21 32 68 118 106 192
79 153 198 331 281 420 82 88 113 141 118 201 5 64 -15 105 -62 128 -70 33
-126 19 -369 -98 -76 -36 -179 -82 -230 -102 -51 -19 -155 -61 -232 -94 -77
-32 -205 -84 -285 -116 -80 -31 -175 -72 -211 -90 -37 -18 -163 -60 -280 -94
-118 -33 -239 -70 -269 -80 -30 -11 -143 -40 -250 -65 -107 -24 -352 -80 -543
-125 -404 -93 -584 -130 -1017 -206 -366 -64 -1344 -242 -1570 -285 -85 -16
-168 -32 -185 -34 -16 -3 -138 -26 -270 -50 -245 -44 -1003 -167 -1265 -205
-912 -131 -2028 -246 -2860 -295 -140 -8 -347 -22 -460 -30 -113 -8 -254 -17
-315 -20 -60 -3 -274 -16 -475 -28 -350 -21 -428 -22 -1935 -22 -2247 0 -2860
21 -3975 131 -545 53 -874 96 -1500 194 -879 138 -1341 244 -2185 503 -115 36
-237 72 -270 81 -174 49 -1303 425 -1480 493 -49 19 -198 72 -330 118 -132 45
-332 117 -445 160 -113 42 -272 101 -355 130 -592 209 -718 259 -1015 404
-179 88 -312 129 -379 116 -111 -21 -196 -123 -175 -212 10 -44 70 -149 143
-253 116 -163 153 -222 216 -335 99 -179 360 -769 463 -1047 96 -256 314 -916
370 -1118 5 -19 35 -120 65 -225 135 -462 235 -907 306 -1355 39 -246 51 -328
76 -540 14 -118 46 -375 70 -570 43 -350 80 -699 130 -1240 14 -151 32 -347
40 -435 8 -88 26 -300 40 -472 26 -329 46 -487 125 -958 70 -420 180 -908 240
-1065 16 -41 55 -142 86 -225 55 -145 188 -417 265 -540 20 -33 78 -127 127
-210 50 -82 105 -170 123 -195 36 -50 134 -196 224 -335 32 -49 77 -111 100
-137 23 -26 70 -87 103 -136 70 -102 123 -167 272 -331 58 -64 141 -157 186
-206 44 -50 143 -151 219 -225 179 -172 704 -647 771 -697 28 -21 92 -72 141
-113 144 -120 273 -220 312 -243 20 -12 97 -67 171 -122 154 -116 379 -276
460 -327 76 -48 380 -228 386 -228 4 0 15 -5 219 -98 72 -33 141 -63 155 -67
14 -4 75 -28 135 -52 322 -132 638 -245 934 -334 305 -92 460 -132 586 -153
50 -8 142 -24 205 -35 516 -93 1225 -166 1705 -176 143 -3 303 -11 355 -18
127 -16 1370 -16 1635 1 222 13 525 44 721 72 77 11 202 27 279 35 169 18 464
61 560 81 l70 15 52 -55 c145 -156 186 -327 187 -781 0 -236 -7 -347 -50 -805
-34 -367 -42 -735 -20 -940 33 -301 109 -655 186 -870 96 -269 246 -492 461
-685 140 -127 240 -198 395 -283 68 -37 124 -71 124 -77 0 -5 -22 -58 -49
-116 -45 -99 -67 -136 -186 -319 -24 -36 -54 -88 -68 -115 -63 -125 -158 -225
-361 -376 -327 -243 -570 -354 -941 -428 -286 -57 -618 -65 -835 -21 -250 51
-526 173 -790 348 -248 165 -422 357 -572 627 -87 158 -162 324 -218 480 -18
50 -46 126 -62 170 -47 131 -106 329 -131 445 -20 96 -42 308 -39 385 3 63 25
259 43 380 15 100 40 161 126 309 100 173 278 514 365 701 139 300 253 624
308 880 31 142 89 489 83 498 -18 30 -53 -41 -148 -298 -52 -142 -229 -464
-389 -710 -121 -184 -403 -583 -544 -770 -25 -33 -82 -107 -125 -165 -126
-166 -221 -234 -512 -365 -183 -82 -188 -85 -435 -227 -370 -212 -705 -382
-905 -458 -61 -23 -204 -75 -320 -115 -115 -41 -271 -97 -345 -125 -216 -83
-574 -205 -763 -260 -206 -60 -291 -70 -602 -71 -282 -1 -562 27 -935 92 -669
116 -1188 292 -1658 562 -206 119 -505 361 -744 603 -143 146 -205 217 -332
389 -290 390 -423 658 -616 1250 -199 608 -359 1177 -395 1405 -9 52 -22 121
-30 152 -15 61 -46 293 -65 494 -23 239 33 655 104 774 82 136 276 547 276
586 0 23 -21 37 -42 29 -7 -3 -35 -33 -63 -67 -59 -73 -304 -348 -384 -431
-59 -62 -354 -337 -478 -445 -48 -42 -89 -69 -127 -82 -31 -10 -69 -28 -84
-38 -15 -10 -47 -26 -72 -34 -25 -9 -97 -39 -160 -67 -63 -28 -135 -57 -160
-63 -25 -6 -76 -25 -115 -41 -39 -16 -136 -41 -220 -57 -82 -15 -175 -37 -205
-49 -30 -11 -145 -43 -255 -72 -110 -28 -240 -62 -290 -75 -313 -83 -1083
-174 -1470 -174 -281 0 -591 48 -923 144 -441 128 -713 255 -1132 531 -216
142 -456 357 -639 571 -238 279 -437 615 -580 978 -146 369 -261 775 -335
1177 -83 453 -117 1014 -91 1519 8 157 17 305 20 330 3 25 10 131 15 235 12
206 38 463 69 676 11 74 22 157 26 184 21 160 154 733 224 960 22 72 48 164
59 205 33 129 151 499 203 638 121 323 299 647 454 827 206 239 262 356 204
429 -12 15 -20 29 -18 31 2 2 90 41 194 87 370 164 730 393 997 636 153 138
401 424 396 456 -2 11 -10 22 -19 24 -15 3 -189 -123 -189 -137 0 -16 -67 -44
-192 -81 -73 -21 -160 -48 -192 -59 -73 -26 -201 -36 -281 -22 -33 6 -116 15
-185 21 -159 13 -371 45 -525 77 -66 14 -167 34 -225 45 -285 51 -544 130
-808 244 -309 134 -523 257 -731 419 -254 199 -348 307 -567 650 -186 292
-375 725 -474 1081 -88 319 -144 609 -195 1003 -64 506 -79 751 -65 1059 26
596 77 1177 141 1612 60 414 206 963 345 1297 67 161 287 602 364 728 138 227
458 666 587 806 38 41 123 135 190 209 66 74 232 248 369 386 247 248 309 301
528 449 49 33 103 77 119 98 17 20 34 37 38 37 15 0 216 124 310 192 120 85
317 286 420 428 41 58 113 156 158 218 46 62 82 115 79 117 -5 5 -268 -212
-317 -263 -49 -49 -178 -143 -286 -208 l-93 -56 -134 0 c-98 -1 -147 3 -188
16 -30 9 -104 25 -165 37 -258 47 -425 99 -607 190 -354 177 -583 392 -746
702 -127 241 -144 293 -187 552 -34 202 -16 598 40 887 27 139 103 395 139
467 13 25 35 78 50 116 82 215 224 424 421 620 171 169 267 238 346 249 29 4
61 9 69 10 8 2 40 6 70 10 30 4 75 11 100 16 25 5 66 12 92 15 29 4 59 16 77
31 l30 25 -21 34 c-11 19 -27 35 -36 35 -8 0 -34 11 -56 24 -23 13 -79 36
-126 50 -46 15 -89 31 -95 36 -7 5 -45 16 -86 24 -106 20 -281 89 -406 158
-59 34 -166 89 -238 123 -71 34 -187 90 -256 123 -173 83 -387 226 -594 395
-112 92 -462 429 -566 544 -285 316 -588 788 -724 1128 -222 553 -393 1249
-464 1885 -37 330 -45 466 -45 770 0 453 41 823 155 1400 22 113 42 206 43
207 1 2 28 -33 61 -77 64 -88 82 -106 93 -96 4 4 10 110 13 234 12 399 23 488
103 837 73 319 363 887 629 1235 355 464 872 927 1365 1221 157 93 453 242
645 323 228 97 841 272 1122 321 127 22 433 36 614 29 l153 -7 47 -60 c258
-331 547 -908 808 -1612 144 -390 259 -767 343 -1129 33 -142 62 -262 64 -265
7 -10 53 -339 70 -496 102 -931 129 -1680 81 -2260 -45 -548 -120 -1189 -146
-1235 -13 -25 -148 120 -186 201 -58 122 -62 155 -50 470 2 47 -2 61 -26 92
-40 53 -79 70 -148 65 -84 -6 -117 -35 -164 -145 -21 -48 -62 -140 -92 -203
-108 -227 -183 -411 -247 -603 -108 -322 -149 -586 -127 -813 17 -173 36 -239
85 -292 67 -74 189 -68 242 13 27 41 32 97 18 192 -42 277 8 571 168 986 l30
79 40 -67 c49 -81 148 -188 237 -256 235 -178 671 -287 943 -235 139 27 401
125 464 175 29 23 84 90 84 102 0 5 -54 9 -119 9 -66 0 -122 3 -125 8 -2 4 17
30 42 57 96 103 142 163 210 275 75 124 169 307 196 380 38 107 77 271 83 348
7 96 -1 94 125 31 185 -93 358 -232 483 -389 79 -100 340 -522 352 -569 6 -23
-10 -42 -144 -171 -83 -80 -156 -155 -162 -167 -33 -64 13 -143 84 -143 45 0
80 18 175 88 303 224 499 449 623 712 79 168 159 446 202 706 27 166 65 512
65 601 0 96 11 161 28 168 37 14 289 5 378 -14 270 -57 634 -259 954 -531 116
-98 393 -382 517 -530 91 -109 186 -253 243 -368 25 -51 50 -90 55 -88 6 2 10
56 9 137 0 151 -20 248 -80 399 -33 81 -34 86 -18 118 13 27 14 56 9 170 -7
138 -3 184 32 337 37 168 97 332 180 499 90 181 300 479 457 650 l91 99 7
-224 c5 -177 12 -255 33 -373 96 -537 357 -999 682 -1208 238 -153 508 -259
693 -273 86 -6 180 9 187 30 1 6 -54 37 -124 70 -132 62 -389 235 -372 249 2
1 41 23 87 46 164 87 336 240 467 415 149 197 337 566 455 890 18 50 37 101
42 114 l9 24 40 -39 c95 -91 214 -264 262 -379 41 -101 134 -427 181 -635 21
-95 22 -250 2 -344 -11 -49 -14 -82 -8 -88 6 -6 33 17 72 59 86 95 144 228
159 363 31 285 24 428 -31 600 -88 280 -196 455 -428 693 -177 183 -275 247
-360 235 -36 -5 -37 2 -14 82 19 69 41 279 50 489 l7 161 31 24 c17 13 67 56
110 95 44 40 95 79 115 87 50 21 76 48 101 107 18 42 151 251 170 267 17 15
184 316 196 353 6 21 40 99 69 162 8 17 17 44 21 60 4 17 10 35 14 40 13 17
50 130 50 151 0 12 15 36 34 55 18 19 45 53 60 77 14 23 30 42 35 42 5 0 23
23 41 50 18 28 38 54 44 58 7 4 25 25 41 47 112 155 677 678 945 875 27 19 79
60 117 91 72 58 228 165 303 207 24 14 62 38 84 54 21 15 43 28 48 28 4 0 27
12 51 27 23 15 65 39 92 53 213 111 343 173 445 215 25 10 74 31 110 46 112
48 272 111 291 114 10 2 28 9 41 16 28 15 307 109 458 155 30 9 69 21 85 26
17 6 46 14 65 18 32 7 117 28 260 65 85 22 240 54 289 60 24 3 48 8 52 11 5 3
25 7 46 10 21 2 67 9 103 15 74 12 74 12 275 34 338 37 737 14 1135 -65 58
-12 123 -24 145 -27 22 -3 45 -9 50 -13 6 -4 28 -11 50 -14 22 -4 54 -11 70
-16 17 -5 42 -12 58 -15 15 -3 27 -9 27 -14 0 -4 -21 -22 -47 -39 -27 -16 -61
-41 -77 -54 -15 -12 -72 -58 -125 -102 -158 -129 -335 -317 -483 -514 -21 -28
-38 -53 -38 -57 0 -3 -18 -30 -40 -60 -22 -30 -40 -58 -40 -63 0 -5 -9 -21
-20 -35 -24 -30 -137 -247 -173 -332 -25 -59 -98 -258 -101 -279 -1 -6 -9 -33
-18 -61 -9 -27 -23 -79 -33 -115 -9 -36 -23 -85 -31 -110 -13 -44 -41 -183
-49 -248 -2 -18 -6 -45 -9 -60 -6 -26 -14 -96 -21 -172 -6 -68 -17 -195 -20
-230 -2 -19 -6 -132 -10 -250 -5 -169 -3 -246 10 -360 21 -191 39 -313 46
-325 4 -5 16 -53 29 -105 12 -52 25 -102 30 -110 4 -9 11 -31 15 -50 10 -49
46 -151 62 -175 7 -11 13 -27 13 -35 0 -15 115 -254 132 -275 5 -5 28 -41 53
-80 102 -162 354 -448 456 -518 25 -18 79 -55 120 -83 87 -60 220 -121 339
-157 86 -25 170 -41 170 -32 0 2 -27 18 -59 35 -130 65 -281 179 -362 272
-108 124 -126 147 -159 202 -19 31 -46 74 -59 94 -40 61 -148 283 -171 352
-12 36 -29 79 -36 97 -8 17 -14 42 -14 56 0 14 -4 29 -10 32 -5 3 -10 16 -10
27 0 12 -7 51 -15 87 -31 135 -35 160 -50 316 -27 275 -16 791 27 1170 26 234
31 271 60 380 6 22 11 49 13 60 1 11 7 36 13 55 25 75 82 256 85 265 13 47 72
187 99 235 4 8 24 44 43 80 57 105 73 131 93 154 11 11 29 38 39 58 30 56 130
176 257 308 126 131 233 221 361 304 33 22 78 52 100 66 22 15 54 33 70 42 17
8 67 34 113 57 78 40 85 42 115 30 18 -7 37 -16 42 -19 6 -4 44 -25 85 -46 41
-20 93 -49 115 -64 22 -15 67 -44 100 -66 128 -83 235 -173 361 -304 127 -132
227 -252 257 -308 10 -20 28 -47 39 -58 20 -23 36 -49 93 -154 19 -36 39 -72
43 -80 27 -48 86 -188 99 -235 3 -9 60 -190 85 -265 6 -19 12 -44 13 -55 2
-11 7 -38 13 -60 29 -109 34 -146 60 -380 43 -379 54 -895 27 -1170 -15 -156
-19 -181 -50 -316 -8 -36 -15 -75 -15 -87 0 -11 -4 -24 -10 -27 -5 -3 -10 -18
-10 -32 0 -14 -6 -39 -14 -56 -7 -18 -24 -61 -36 -97 -23 -69 -131 -291 -171
-352 -13 -20 -40 -63 -59 -94 -33 -55 -51 -78 -159 -202 -81 -93 -232 -207
-362 -272 -32 -17 -59 -33 -59 -35 0 -9 84 7 170 32 119 36 252 97 339 157 41
28 95 65 120 83 102 70 354 356 456 518 25 39 48 75 53 80 17 21 132 260 132
275 0 8 6 24 13 35 16 24 52 126 62 175 4 19 11 41 15 50 5 8 18 58 30 110 13
52 25 100 29 105 7 12 25 134 46 325 13 114 15 191 10 360 -4 118 -8 231 -10
250 -3 35 -14 162 -20 230 -7 76 -15 146 -21 172 -3 15 -7 42 -9 60 -8 65 -36
204 -49 248 -8 25 -22 74 -31 110 -10 36 -24 88 -33 115 -9 28 -17 55 -18 61
-3 21 -76 220 -101 279 -36 85 -149 302 -173 332 -11 14 -20 30 -20 35 0 5
-18 33 -40 63 -22 30 -40 57 -40 61 0 4 -15 25 -33 48 -19 23 -38 48 -43 58
-18 33 -193 229 -288 324 -52 51 -115 106 -282 242 -16 13 -50 38 -76 54 -27
17 -48 35 -48 39 0 5 12 11 28 14 15 3 41 10 57 15 17 5 48 12 70 16 22 3 45
10 50 14 6 4 28 10 50 13 22 3 87 15 145 27 398 79 797 102 1135 65 201 -22
201 -22 275 -34 36 -6 82 -13 103 -15 21 -3 41 -7 46 -10 4 -3 28 -8 52 -11
49 -6 204 -38 289 -60 143 -37 228 -58 260 -65 19 -4 49 -12 65 -18 17 -5 55
-17 85 -26 151 -46 430 -140 458 -155 13 -7 31 -14 41 -16 19 -3 179 -66 291
-114 36 -15 85 -36 110 -46 102 -42 232 -104 445 -215 28 -14 69 -38 92 -53
24 -15 47 -27 51 -27 5 0 27 -13 48 -28 22 -16 60 -40 84 -54 75 -42 231 -149
303 -207 38 -31 90 -72 117 -91 111 -82 298 -241 495 -420 238 -217 359 -341
480 -489 28 -34 66 -81 86 -104 19 -23 45 -56 57 -73 12 -17 34 -45 49 -62 15
-17 33 -55 40 -84 8 -29 22 -69 32 -88 10 -19 21 -51 25 -70 6 -33 28 -86 66
-160 9 -19 20 -46 23 -61 9 -35 177 -341 197 -359 19 -16 152 -225 170 -267
25 -59 51 -86 101 -107 20 -8 68 -44 106 -78 104 -95 160 -139 245 -191 l76
-47 6 -88 c20 -275 31 -374 47 -437 26 -96 25 -102 -11 -97 -85 12 -183 -52
-360 -235 -232 -238 -340 -413 -428 -693 -55 -172 -62 -315 -31 -600 15 -135
73 -268 159 -363 39 -42 66 -65 72 -59 6 6 3 39 -8 88 -20 94 -19 249 2 344
47 208 140 534 181 635 48 115 167 288 262 379 l40 39 9 -24 c5 -13 24 -64 42
-114 118 -324 306 -693 455 -890 131 -175 303 -328 467 -415 46 -23 85 -45 87
-46 17 -14 -240 -187 -372 -249 -70 -33 -125 -64 -124 -70 7 -21 101 -36 187
-30 185 14 455 120 693 273 325 209 586 671 682 1208 21 118 28 196 33 373 l7
224 91 -99 c157 -171 367 -469 457 -650 83 -167 143 -331 180 -499 35 -153 39
-199 32 -337 -5 -114 -4 -143 9 -170 16 -32 15 -37 -18 -118 -60 -151 -80
-248 -80 -399 -1 -81 3 -135 9 -137 6 -2 30 37 55 88 57 115 152 259 243 368
124 148 401 432 517 530 320 272 684 474 954 531 89 19 341 28 378 14 17 -7
28 -72 28 -168 0 -89 38 -435 65 -601 43 -260 123 -538 202 -706 124 -263 320
-488 623 -712 95 -70 130 -88 175 -88 71 0 117 79 84 143 -6 12 -79 87 -162
167 -134 129 -150 148 -144 171 12 47 273 469 352 569 125 157 298 296 483
389 126 63 118 65 125 -31 6 -77 45 -241 83 -348 27 -73 121 -256 196 -380 68
-112 114 -172 210 -275 25 -27 44 -53 42 -57 -3 -5 -59 -8 -125 -8 -65 0 -119
-4 -119 -9 0 -12 55 -79 84 -102 63 -50 325 -148 464 -175 272 -52 708 57 943
235 89 68 188 175 237 256 l40 67 30 -79 c160 -415 210 -709 168 -986 -14 -95
-9 -151 18 -192 53 -81 175 -87 242 -13 49 53 68 119 85 292 34 353 -86 810
-374 1416 -30 63 -71 155 -92 203 -47 110 -80 139 -164 145 -69 5 -108 -12
-148 -65 -24 -31 -28 -45 -26 -92 12 -315 8 -348 -50 -470 -38 -81 -173 -226
-186 -201 -26 46 -101 687 -146 1235 -48 580 -21 1329 81 2260 17 157 63 486
70 496 2 3 31 123 64 265 84 362 199 739 343 1129 128 344 303 751 425 988 81
157 229 411 297 507 109 158 291 367 399 461 176 154 407 294 592 360 153 55
415 68 634 33z m-10456 -839 c-369 -900 -583 -1961 -611 -3037 l-6 -246 -28
31 c-40 44 -149 207 -200 297 -41 72 -50 98 -69 187 -5 23 -14 50 -19 60 -12
23 -78 209 -87 247 -4 16 -13 41 -20 55 -8 14 -14 33 -14 41 0 8 -6 27 -14 42
-8 14 -19 43 -26 65 -7 21 -27 70 -45 108 -31 67 -39 93 -50 180 -3 22 -10 63
-16 90 -34 170 -39 460 -9 585 57 238 135 449 198 537 12 17 22 34 22 38 0 17
123 168 200 246 84 84 113 109 240 208 110 85 133 101 195 140 33 21 85 53
115 72 71 45 284 167 287 165 1 -1 -18 -51 -43 -111z m-16301 -49 c28 -18 81
-52 117 -74 67 -42 89 -57 200 -143 127 -99 156 -124 240 -208 77 -78 200
-229 200 -246 0 -4 10 -21 22 -38 52 -73 131 -273 168 -427 4 -19 15 -60 23
-90 8 -30 15 -62 16 -70 0 -8 2 -44 5 -80 12 -139 2 -291 -33 -510 -5 -30 -12
-79 -16 -107 -4 -29 -11 -53 -15 -53 -4 0 -15 -21 -25 -47 -10 -27 -21 -52
-25 -58 -5 -5 -13 -26 -18 -45 -6 -19 -23 -66 -38 -105 -14 -38 -32 -88 -38
-110 -7 -22 -15 -47 -18 -55 -3 -8 -18 -51 -33 -95 -14 -44 -31 -88 -36 -98
-5 -10 -14 -37 -19 -60 -19 -89 -28 -115 -69 -189 -24 -43 -46 -80 -51 -83 -4
-3 -11 48 -14 113 -20 357 -29 464 -57 722 -45 411 -151 955 -265 1357 -73
259 -202 642 -268 796 -9 20 -14 37 -11 37 3 0 29 -15 58 -34z m30057 -3435
c-1 -22 -27 -90 -33 -85 -4 4 -7 29 -7 55 0 42 2 47 20 42 11 -3 20 -8 20 -12z
m-43873 -13 c-3 -8 -6 -5 -6 6 -1 11 2 17 5 13 3 -3 4 -12 1 -19z m12310
-19553 c1 0 -9 -43 -22 -95 -67 -268 -118 -788 -145 -1485 -14 -348 0 -735 35
-970 46 -305 116 -657 159 -802 34 -112 121 -326 166 -408 36 -66 155 -208
146 -175 -56 198 -94 477 -106 775 -34 816 -45 1434 -31 1727 17 349 48 755
77 1008 14 124 28 249 31 278 5 43 9 52 22 47 9 -3 117 -37 241 -75 934 -285
1390 -383 2660 -570 238 -35 322 -46 605 -80 44 -5 174 -19 289 -30 115 -11
210 -21 211 -22 1 -2 -1 -120 -6 -263 -5 -143 -13 -424 -19 -625 -12 -398 -22
-536 -75 -1005 -38 -331 -46 -378 -101 -580 -48 -173 -103 -322 -181 -484 -35
-73 -62 -136 -59 -138 19 -19 198 169 281 295 100 153 200 353 250 497 22 65
71 264 95 385 63 320 100 781 100 1255 0 242 15 623 24 632 4 4 252 -14 325
-23 l44 -6 -7 -56 c-3 -31 -11 -154 -16 -272 -32 -704 -42 -899 -55 -1025 -8
-77 -29 -273 -45 -435 -36 -344 -68 -570 -111 -765 -47 -220 -135 -572 -164
-660 -29 -87 -95 -224 -148 -307 -32 -51 -39 -55 -156 -106 -171 -75 -385
-129 -602 -152 -163 -17 -639 -23 -861 -11 -827 46 -1572 141 -2016 257 -273
71 -473 149 -672 262 -335 191 -474 340 -598 637 -51 122 -62 165 -131 500
-50 241 -57 296 -76 590 -9 132 -27 353 -40 490 -38 383 -46 577 -54 1400 -5
418 -11 767 -14 775 -3 8 -8 27 -11 41 -6 26 -3 26 377 -99 210 -69 383 -126
384 -127z m17802 -420 c-13 -752 -28 -1009 -80 -1410 -37 -290 -43 -326 -80
-515 -68 -353 -121 -525 -228 -745 -112 -230 -245 -383 -403 -465 -229 -119
-646 -182 -1107 -166 -402 14 -590 56 -864 193 -141 70 -234 139 -311 228 -84
100 -134 187 -193 340 -135 346 -225 769 -287 1340 -61 552 -105 988 -102 991
5 3 422 61 425 58 2 -2 -3 -32 -12 -66 -34 -139 -42 -232 -42 -518 0 -232 3
-303 18 -385 84 -460 160 -730 267 -946 41 -82 84 -154 98 -163 5 -3 2 32 -5
77 -27 170 -43 339 -53 557 -5 124 -15 347 -21 495 -7 149 -9 342 -6 430 5
153 34 415 57 522 l11 50 292 47 c161 26 326 54 367 62 41 8 172 32 290 53
118 22 433 80 700 129 606 112 680 125 684 121 17 -18 28 -321 33 -844 5 -649
7 -609 -47 -1075 -58 -511 -66 -564 -114 -743 -14 -53 -26 -99 -26 -102 0 -39
127 121 195 245 106 194 205 542 234 820 20 195 31 560 25 843 -6 287 -17 438
-54 721 -12 87 -19 163 -17 170 2 8 356 78 363 72 0 -1 -3 -190 -7 -421z
m-6749 -692 c0 -104 -5 -370 -10 -593 -5 -223 -14 -612 -20 -865 -11 -473 -21
-617 -66 -895 -71 -449 -132 -694 -234 -950 -58 -146 -134 -245 -279 -361 -86
-70 -140 -99 -236 -127 -280 -83 -909 -124 -1335 -88 -611 53 -847 114 -1100
286 -62 42 -272 252 -349 348 -107 133 -186 275 -251 453 -71 192 -128 614
-150 1119 -34 779 -38 1443 -10 1673 l13 107 174 0 c95 0 173 -1 173 -2 0 -2
-7 -55 -15 -119 -50 -401 -40 -994 26 -1559 73 -628 156 -992 260 -1131 34
-47 89 -100 89 -86 0 2 -9 40 -20 83 -18 74 -19 113 -17 674 1 477 -2 647 -16
860 -17 252 -24 753 -12 915 2 39 10 136 16 217 l11 146 1077 5 c833 4 1131 8
1320 21 135 8 247 13 250 10 13 -13 10 -1159 -4 -1729 -18 -737 -32 -879 -123
-1320 -63 -303 -101 -423 -183 -587 -33 -65 -56 -118 -52 -118 5 0 33 16 63
37 76 50 205 183 267 273 63 93 173 303 225 430 50 121 113 366 127 495 29
263 53 1595 33 1835 -7 74 -16 250 -22 390 -6 140 -12 269 -14 286 l-4 31 151
10 c84 5 173 10 200 11 l47 2 0 -187z m-19907 -2748 c-3 -9 -8 -14 -10 -11 -3
3 -2 9 2 15 9 16 15 13 8 -4z m17822 -3585 c327 -15 1125 -69 1465 -100 780
-71 1697 -227 2149 -366 110 -34 203 -66 581 -203 320 -115 576 -228 767 -338
51 -29 95 -53 97 -53 13 0 530 -309 641 -384 139 -93 519 -379 630 -475 123
-105 849 -829 969 -965 280 -319 440 -569 739 -1164 388 -769 525 -1123 628
-1622 68 -330 80 -423 86 -680 16 -667 -112 -1415 -312 -1820 -21 -41 -41 -86
-47 -99 -26 -68 -201 -329 -314 -466 -300 -366 -772 -685 -1424 -962 -365
-155 -910 -310 -1330 -378 -232 -37 -593 -75 -789 -83 -436 -17 -982 19 -1266
84 -459 106 -659 180 -943 348 -324 193 -549 456 -652 764 -41 125 -87 306
-115 460 -71 380 -75 675 -20 1237 54 544 58 899 14 1250 -17 137 -70 284
-144 400 -52 81 -174 205 -253 258 -106 71 -126 80 -332 141 l-85 25 0 333 c0
266 -4 359 -18 463 -53 380 -139 697 -252 930 -131 268 -373 463 -704 565
-164 50 -724 151 -1056 189 -167 19 -479 34 -590 27 -329 -20 -673 -96 -957
-211 -221 -91 -375 -180 -590 -342 -239 -180 -401 -359 -497 -550 -125 -250
-233 -705 -312 -1315 -25 -196 -19 -186 -96 -168 -24 6 -75 15 -115 20 -73 10
-187 36 -305 68 -52 14 -63 20 -63 38 0 49 32 341 55 494 13 91 27 199 30 240
4 41 15 138 25 215 80 587 92 699 97 951 10 454 -43 867 -159 1239 -84 269
-183 441 -341 591 -51 49 -129 110 -173 137 -169 100 -433 197 -659 241 -346
67 -1688 105 -2205 63 -234 -20 -537 -52 -640 -68 -332 -52 -587 -159 -712
-298 -52 -58 -108 -160 -109 -200 -2 -75 -13 -64 -109 96 -52 87 -104 172
-116 188 -29 39 -224 404 -224 419 0 3 12 1 26 -4 14 -6 58 -10 99 -10 81 0
320 56 835 197 254 69 714 184 1190 298 107 25 245 59 306 75 177 46 334 77
683 135 590 99 846 124 1311 132 773 12 1664 -77 2480 -247 294 -62 637 -144
855 -206 171 -48 692 -221 995 -329 102 -36 264 -93 360 -127 416 -143 984
-391 1236 -539 102 -59 368 -231 464 -299 198 -140 259 -185 400 -295 85 -67
205 -159 265 -205 61 -47 207 -161 325 -255 118 -94 233 -183 255 -198 307
-214 356 -249 710 -502 58 -41 206 -117 220 -111 33 12 -27 137 -128 264 -208
264 -510 572 -811 827 -324 274 -761 619 -951 750 -456 315 -664 436 -1025
595 -392 174 -562 242 -841 339 -96 33 -257 90 -359 126 -239 86 -896 305
-918 306 -33 2 12 9 308 44 294 34 542 58 780 74 180 12 728 12 985 1z m-6852
-1329 c342 -19 751 -51 830 -66 168 -32 416 -119 527 -185 177 -105 284 -256
368 -522 108 -338 160 -740 149 -1143 -4 -164 -16 -289 -51 -570 -25 -198 -48
-371 -51 -385 -3 -14 -10 -77 -15 -140 -6 -63 -24 -209 -40 -325 -16 -115 -32
-252 -36 -303 -6 -80 -9 -92 -23 -87 -9 4 -61 22 -116 41 -55 19 -180 65 -278
101 -141 52 -176 69 -173 82 27 87 89 579 111 876 35 465 8 1021 -65 1359 -42
190 -119 365 -194 435 l-25 24 5 -54 c3 -30 9 -78 13 -106 5 -29 2 -164 -5
-300 -8 -137 -18 -345 -24 -463 -11 -246 -26 -461 -40 -570 -5 -41 -12 -109
-15 -150 -24 -301 -102 -910 -118 -926 -1 -1 -38 15 -82 36 -44 21 -113 53
-153 70 -41 17 -126 63 -190 102 -65 39 -143 86 -176 104 -90 53 -273 180
-449 314 -62 46 -146 107 -187 135 -87 59 -214 157 -349 270 -53 45 -112 92
-131 105 -110 76 -819 738 -942 878 -51 59 -131 148 -178 198 -120 128 -166
184 -249 304 -40 58 -82 115 -93 127 -19 20 -20 33 -17 206 l4 184 30 43 c57
83 216 163 404 205 174 39 408 66 911 105 140 10 855 5 1113 -9z m5447 -1746
c299 -28 849 -121 1038 -176 250 -72 415 -197 506 -383 75 -154 154 -429 196
-686 37 -225 45 -426 32 -772 -7 -171 -14 -313 -16 -315 -7 -7 -308 -54 -314
-49 -3 3 1 47 8 98 17 127 26 382 18 503 -8 127 -41 318 -73 432 -40 140 -116
276 -140 251 -10 -10 -21 -176 -39 -568 -19 -425 -36 -719 -42 -735 -3 -7
-101 -17 -292 -30 -244 -15 -359 -17 -782 -11 -442 6 -736 17 -796 31 -11 2
-162 11 -335 20 -418 20 -668 35 -703 42 l-29 5 7 96 c8 112 32 295 47 367 32
140 150 447 251 650 55 109 225 398 262 442 12 16 40 50 62 78 l39 49 -50 -28
c-139 -80 -377 -287 -499 -436 -258 -315 -355 -572 -398 -1052 l-12 -138 -26
0 c-60 1 -399 46 -408 54 -3 3 5 65 16 138 12 73 33 210 48 303 64 422 145
747 230 916 52 105 152 240 229 309 292 263 624 442 990 534 326 82 576 97
975 61z"/>
<path d="M19663 38780 c-111 -22 -231 -88 -368 -202 -210 -175 -341 -350 -596
-796 -150 -264 -123 -479 89 -703 125 -133 271 -223 467 -288 217 -72 309 -86
560 -86 253 0 284 6 384 80 76 56 133 132 177 237 60 140 75 222 81 418 6 188
11 147 -72 620 -52 297 -109 435 -230 555 -138 136 -322 198 -492 165z"/>
<path d="M21029 38247 c-192 -55 -320 -263 -358 -582 -5 -44 -21 -147 -35
-229 -30 -170 -32 -254 -11 -344 19 -80 41 -123 100 -195 58 -70 148 -131 234
-157 118 -37 277 -23 398 36 65 31 173 144 212 223 101 199 97 312 -31 854
-37 158 -153 315 -274 372 -67 32 -167 41 -235 22z"/>
<path d="M20480 36693 c-96 -9 -330 -97 -403 -150 -101 -74 -150 -188 -127
-296 23 -114 165 -279 342 -400 211 -143 442 -45 555 237 40 98 52 155 59 267
6 99 5 110 -18 160 -31 68 -78 116 -145 146 -77 36 -159 47 -263 36z"/>
<path d="M38585 34621 c-180 -47 -228 -64 -365 -126 -184 -85 -346 -191 -565
-370 -158 -129 -194 -177 -231 -300 -23 -78 -22 -241 1 -322 44 -152 173 -343
363 -536 118 -120 218 -194 353 -260 100 -49 133 -59 274 -87 110 -22 193 -32
265 -34 100 -1 108 1 172 32 160 78 259 250 328 567 11 55 28 129 35 165 64
289 82 848 34 993 -62 183 -226 305 -424 313 -80 4 -106 0 -240 -35z"/>
<path d="M16265 34638 c-1428 -66 -2740 -1077 -3535 -2722 -680 -1405 -909
-3122 -640 -4791 189 -1172 637 -2261 1270 -3091 171 -225 249 -313 460 -525
352 -352 669 -588 1055 -784 472 -240 866 -346 1430 -383 227 -15 630 27 895
93 535 135 1024 387 1500 774 138 112 501 475 622 621 554 673 962 1465 1226
2385 363 1259 413 2672 141 3982 -352 1702 -1224 3117 -2384 3868 -635 411
-1330 607 -2040 573z m372 -433 c341 -19 741 -130 1090 -303 362 -179 660
-397 984 -721 293 -293 489 -539 706 -886 579 -927 931 -2094 1003 -3330 14
-233 14 -720 0 -955 -43 -739 -196 -1494 -433 -2141 -170 -464 -420 -962 -667
-1329 -1038 -1542 -2571 -2135 -4005 -1548 -603 246 -1175 711 -1642 1333
-571 761 -990 1797 -1162 2875 -65 409 -91 714 -98 1160 -8 532 21 964 98
1425 167 1011 505 1900 1013 2660 187 281 353 483 601 730 340 340 608 537
990 725 393 194 788 297 1205 313 77 3 140 2 317 -8z"/>
<path d="M16130 32809 c-333 -38 -691 -156 -987 -325 -103 -59 -223 -137 -218
-142 3 -3 42 -16 88 -29 88 -26 243 -96 318 -144 25 -16 51 -29 57 -29 6 0 66
25 133 56 157 72 321 126 484 160 122 26 146 28 385 28 241 0 262 -1 385 -27
361 -77 697 -238 1005 -483 165 -131 438 -419 581 -614 338 -460 611 -1069
758 -1690 114 -484 156 -860 156 -1380 -1 -453 -32 -783 -115 -1190 -131 -647
-383 -1269 -708 -1747 l-41 -60 32 -94 c30 -91 31 -100 31 -259 0 -138 -4
-176 -22 -235 l-21 -70 57 64 c455 512 821 1233 1022 2013 138 538 195 1002
194 1588 0 326 -8 461 -40 740 -190 1649 -1006 3027 -2129 3600 -286 146 -585
236 -897 270 -113 12 -399 11 -508 -1z"/>
<path d="M16290 31264 c-14 -2 -59 -9 -100 -15 -41 -5 -88 -14 -105 -19 -16
-5 -56 -16 -87 -25 l-58 -16 0 -122 c0 -365 -142 -696 -404 -945 -235 -221
-543 -349 -858 -354 -57 -1 -102 -6 -106 -12 -16 -21 -101 -253 -146 -397
-136 -440 -197 -869 -197 -1384 1 -606 96 -1141 296 -1655 376 -964 1045
-1569 1792 -1619 112 -7 317 2 376 17 l30 8 2 114 c5 257 95 463 278 637 236
222 573 296 880 192 49 -16 92 -28 94 -26 2 3 40 64 84 138 334 557 532 1266
557 2006 17 461 -22 873 -119 1288 -163 692 -465 1268 -873 1662 -354 343
-735 516 -1161 528 -82 2 -161 2 -175 -1z"/>
<path d="M13482 30423 c-5 -16 -35 -100 -67 -188 -155 -436 -255 -895 -312
-1435 -25 -237 -25 -972 0 -1215 132 -1280 593 -2372 1317 -3119 938 -967
2166 -1174 3253 -549 43 25 77 47 75 48 -2 1 -34 -2 -73 -7 -136 -19 -307 17
-474 99 l-113 56 -102 -32 c-270 -83 -558 -110 -827 -77 -63 8 -126 17 -139
20 -341 76 -553 166 -830 351 -461 308 -853 782 -1150 1390 -293 599 -462
1246 -520 1995 -12 146 -15 670 -5 803 39 535 124 988 268 1427 l25 75 -75 73
c-78 77 -181 209 -214 274 -11 21 -21 38 -23 38 -2 0 -8 -12 -14 -27z"/>
<path d="M33555 34643 c-1621 -50 -3054 -1252 -3829 -3210 -510 -1289 -666
-2855 -430 -4298 211 -1291 698 -2415 1432 -3305 121 -146 484 -509 622 -621
606 -493 1259 -780 1935 -849 272 -28 393 -28 680 0 591 56 1199 297 1732 686
210 154 316 246 533 463 211 212 289 300 460 525 880 1153 1381 2771 1381
4453 -1 756 -104 1532 -297 2223 -360 1288 -1036 2393 -1884 3080 -524 424
-1084 692 -1672 799 -198 36 -482 59 -663 54z m365 -444 c329 -30 680 -133
1015 -299 382 -188 650 -385 990 -725 401 -400 692 -811 973 -1370 428 -855
670 -1804 733 -2875 15 -257 6 -868 -15 -1110 -115 -1278 -480 -2372 -1099
-3295 -745 -1111 -1798 -1753 -2878 -1755 -1103 -1 -2143 632 -2909 1770 -247
367 -497 865 -667 1329 -237 647 -390 1402 -433 2141 -14 235 -14 722 0 955
72 1236 424 2403 1003 3330 217 347 413 593 706 886 447 446 900 732 1426 899
376 119 738 157 1155 119z"/>
<path d="M33370 32805 c-1385 -174 -2530 -1498 -2905 -3360 -83 -412 -118
-780 -119 -1245 -1 -586 56 -1050 194 -1588 201 -780 567 -1501 1022 -2013
l57 -64 -21 70 c-18 59 -22 97 -22 235 0 159 1 168 31 259 l32 94 -41 60
c-439 647 -718 1482 -805 2416 -33 353 -23 888 23 1261 109 886 419 1713 873
2330 143 195 416 483 581 614 308 245 644 406 1005 483 123 26 144 27 385 27
239 0 263 -2 385 -28 163 -34 327 -88 484 -160 67 -31 127 -56 133 -56 6 0 32
13 57 29 75 48 230 118 318 144 46 13 85 26 88 29 5 5 -115 83 -218 142 -302
172 -656 288 -999 325 -129 14 -407 12 -538 -4z"/>
<path d="M33450 31260 c-386 -54 -715 -221 -1026 -523 -408 -394 -710 -970
-873 -1662 -97 -415 -136 -827 -119 -1288 25 -740 223 -1449 557 -2006 44 -74
82 -135 84 -138 2 -2 45 10 94 26 307 104 644 30 880 -192 183 -174 273 -380
278 -637 l2 -114 30 -8 c59 -15 264 -24 376 -17 747 50 1416 655 1792 1619
200 514 295 1049 296 1655 0 515 -61 944 -197 1384 -45 144 -130 376 -146 397
-4 6 -49 11 -106 12 -315 5 -623 133 -858 354 -112 107 -202 228 -268 363 -96
195 -136 365 -136 582 l0 122 -57 16 c-32 9 -65 19 -73 21 -92 32 -404 51
-530 34z"/>
<path d="M36532 30414 c-34 -67 -137 -198 -215 -276 l-75 -73 25 -75 c144
-439 229 -892 268 -1427 10 -133 7 -657 -5 -803 -47 -607 -170 -1154 -375
-1675 -66 -168 -228 -496 -321 -650 -272 -449 -607 -815 -974 -1060 -277 -185
-489 -275 -830 -351 -13 -3 -76 -12 -139 -20 -269 -33 -557 -6 -827 77 l-102
32 -113 -56 c-167 -82 -338 -118 -474 -99 -38 5 -71 8 -73 7 -2 -1 32 -23 75
-48 725 -417 1520 -469 2268 -148 715 307 1350 969 1769 1843 280 583 458
1242 533 1973 25 243 25 978 0 1215 -57 546 -156 997 -318 1451 -34 96 -65
180 -69 188 -6 11 -13 4 -28 -25z"/>
<path d="M39831 33705 c-108 -30 -170 -72 -289 -194 -178 -183 -271 -325 -327
-501 -23 -73 -26 -96 -21 -160 8 -97 45 -176 121 -258 155 -168 355 -253 628
-268 l114 -7 62 33 c98 52 150 117 201 252 l44 113 -2 160 c0 91 -8 205 -17
265 -9 58 -20 141 -25 185 -18 176 -103 303 -244 366 -63 27 -174 34 -245 14z"/>
<path d="M38805 32364 c-44 -8 -115 -24 -157 -35 -77 -21 -211 -90 -256 -132
-32 -29 -99 -127 -122 -180 -40 -87 -14 -280 49 -371 52 -74 159 -165 246
-209 69 -34 200 -74 271 -82 71 -8 179 14 239 49 60 36 157 135 191 197 37 64
71 155 114 303 27 88 32 120 28 170 -12 148 -103 251 -254 290 -77 20 -239 20
-349 0z"/>
<path d="M24934 31909 c-1090 -63 -2059 -956 -2529 -2328 -471 -1381 -329
-3066 360 -4251 570 -981 1392 -1530 2297 -1531 1488 -2 2739 1547 2908 3601
29 346 27 612 -5 965 -80 879 -357 1677 -805 2320 -164 237 -410 505 -610 667
-488 394 -1053 589 -1616 557z m358 -295 c1243 -161 2234 -1525 2394 -3296 19
-208 21 -662 5 -868 -87 -1088 -490 -2058 -1112 -2680 -368 -368 -760 -582
-1224 -666 -151 -27 -450 -25 -611 4 -297 54 -561 164 -819 340 -156 107 -242
178 -385 322 -548 549 -934 1378 -1069 2295 -44 299 -54 449 -55 780 -1 495
45 868 159 1310 128 495 303 896 560 1285 447 676 1036 1087 1681 1173 147 20
326 20 476 1z"/>
<path d="M24875 30699 c-564 -77 -1070 -439 -1448 -1037 -89 -141 -222 -413
-287 -585 -193 -519 -279 -1127 -240 -1692 53 -764 282 -1424 676 -1948 51
-67 105 -135 122 -150 l30 -29 -14 59 c-20 83 -17 184 7 283 l21 85 -66 104
c-257 406 -423 913 -481 1476 -18 175 -21 563 -5 735 75 817 375 1516 847
1970 233 225 488 366 779 430 140 31 375 32 524 1 106 -23 256 -74 344 -118
l49 -25 81 43 c44 23 116 55 160 69 l79 27 -86 52 c-189 114 -381 191 -577
231 -120 25 -397 35 -515 19z"/>
<path d="M24923 29680 c-353 -50 -692 -296 -925 -672 -257 -415 -389 -915
-390 -1483 0 -457 81 -860 246 -1225 59 -130 161 -309 181 -316 7 -3 43 4 80
15 104 32 246 29 352 -8 230 -80 376 -276 390 -524 7 -118 -4 -112 203 -112
114 1 163 6 231 22 527 132 946 654 1132 1408 58 234 81 440 81 730 0 300 -21
482 -84 750 -29 123 -122 401 -139 418 -6 6 -45 12 -88 14 -448 21 -803 382
-817 832 -3 75 -8 106 -17 111 -62 33 -318 57 -436 40z"/>
<path d="M26946 29079 c-21 -33 -67 -89 -101 -124 l-62 -65 38 -127 c77 -252
128 -536 150 -833 13 -168 7 -515 -11 -685 -67 -627 -276 -1195 -601 -1632
-95 -129 -329 -361 -449 -446 -110 -78 -301 -176 -413 -212 -155 -49 -230 -60
-417 -60 -182 0 -254 9 -387 50 l-73 23 -78 -39 c-113 -57 -246 -83 -327 -65
-29 7 -29 7 -10 -9 38 -30 260 -135 353 -165 275 -91 567 -110 841 -54 261 53
548 193 782 382 97 79 271 255 358 364 428 535 692 1302 720 2093 17 478 -34
918 -154 1330 -44 151 -101 314 -113 327 -4 4 -25 -20 -46 -53z"/>
<path d="M9080 28810 c-123 -20 -345 -84 -500 -147 -558 -223 -801 -383 -1002
-665 -157 -218 -221 -439 -221 -763 -1 -369 68 -557 299 -818 110 -125 228
-211 409 -301 312 -155 617 -215 830 -162 215 54 422 212 562 429 58 89 182
345 221 458 72 204 132 509 167 844 8 83 20 179 25 215 5 36 13 121 16 191 9
157 -8 244 -73 379 -37 77 -59 108 -117 165 -79 77 -151 124 -242 157 -47 17
-86 22 -189 24 -71 1 -155 -1 -185 -6z"/>
<path d="M10476 27758 c-181 -24 -334 -175 -404 -398 -11 -36 -41 -141 -67
-235 -26 -93 -71 -244 -100 -335 -69 -214 -80 -254 -100 -379 -24 -144 -15
-253 26 -338 34 -71 149 -185 243 -242 213 -128 577 -148 832 -45 112 45 147
69 228 154 85 90 131 184 152 304 13 77 13 98 0 199 -21 145 -69 327 -162 607
-89 270 -188 479 -265 564 -106 117 -233 164 -383 144z"/>
<path d="M9230 25930 c-141 -8 -182 -16 -330 -65 -191 -64 -296 -147 -364
-288 -84 -175 -69 -301 69 -581 153 -309 364 -477 632 -502 153 -14 311 53
524 222 121 97 214 212 287 359 61 120 82 211 82 344 0 257 -127 412 -392 480
-76 20 -278 42 -348 39 -19 -1 -91 -4 -160 -8z"/>
<path d="M37183 18610 c-40 -5 -101 -16 -135 -24 -35 -8 -100 -20 -146 -26
-158 -21 -480 -129 -664 -221 -390 -195 -673 -542 -798 -976 -56 -195 -88
-486 -70 -642 22 -198 132 -452 279 -646 94 -125 259 -280 396 -372 255 -171
846 -367 1280 -424 124 -16 339 -6 430 20 241 70 441 251 570 516 58 119 76
175 130 419 63 284 85 588 66 911 -16 265 -56 511 -113 680 -36 110 -124 279
-187 363 -138 182 -367 334 -601 397 -107 30 -308 41 -437 25z"/>
<path d="M39119 17759 c-148 -35 -304 -146 -393 -280 -109 -165 -173 -466
-178 -844 -4 -269 19 -741 41 -845 68 -317 149 -445 376 -587 118 -75 314
-133 446 -133 210 0 386 40 549 127 139 73 178 102 302 231 154 159 259 329
292 472 35 147 6 387 -74 615 -71 201 -224 455 -450 745 -264 338 -382 435
-596 490 -82 21 -245 26 -315 9z"/>
<path d="M37920 15266 c-341 -51 -538 -135 -727 -310 -128 -119 -228 -280
-275 -443 -30 -103 -32 -325 -4 -418 52 -175 204 -369 378 -484 271 -180 729
-305 1053 -288 225 12 390 90 550 258 90 96 138 168 199 304 94 211 131 412
123 668 -6 230 -30 301 -142 437 -171 208 -372 279 -835 294 -140 4 -189 2
-320 -18z"/>
<path d="M10024 14630 c-232 -46 -447 -250 -655 -620 -29 -52 -84 -134 -122
-183 -38 -48 -138 -192 -222 -320 -84 -127 -174 -256 -199 -284 -86 -99 -126
-210 -126 -348 0 -157 46 -262 162 -370 78 -72 171 -122 303 -161 80 -24 106
-26 240 -26 179 0 307 23 567 101 204 62 361 124 485 193 153 84 261 215 310
373 27 91 23 318 -11 555 -35 239 -98 565 -131 666 -52 165 -169 320 -282 378
-101 51 -213 67 -319 46z"/>
<path d="M11382 13441 c-133 -50 -324 -223 -424 -387 -90 -146 -146 -266 -157
-334 -23 -144 48 -303 174 -390 55 -38 266 -113 365 -130 41 -7 111 -13 155
-13 114 1 175 26 267 113 132 122 163 230 152 525 -6 192 -32 351 -70 431 -31
65 -107 138 -182 172 -78 35 -203 41 -280 13z"/>
<path d="M10490 12463 c-100 -17 -178 -37 -213 -54 -22 -12 -70 -32 -106 -46
-36 -14 -120 -53 -186 -87 -319 -165 -412 -234 -464 -345 -22 -48 -26 -69 -26
-151 0 -83 4 -103 27 -154 39 -82 132 -170 238 -225 47 -24 97 -52 111 -62 42
-29 173 -78 272 -100 61 -14 130 -22 207 -23 106 -1 119 1 175 27 89 42 121
71 184 167 71 107 102 184 130 320 12 58 29 125 37 150 55 161 61 248 25 342
-31 79 -106 160 -184 197 -73 35 -170 54 -227 44z"/>
</g>
</svg>
