<?xml version="1.0" standalone="no"?>
<!DOCTYPE svg PUBLIC "-//W3C//DTD SVG 20010904//EN"
 "http://www.w3.org/TR/2001/REC-SVG-20010904/DTD/svg10.dtd">
<svg version="1.0" xmlns="http://www.w3.org/2000/svg"
 width="5000.000000pt" height="5000.000000pt" viewBox="0 0 5000.000000 5000.000000"
 preserveAspectRatio="xMidYMid meet">

<g transform="translate(0.000000,5000.000000) scale(0.100000,-0.100000)"
fill="#000000" stroke="none">
<path d="M26460 48399 c-36 -5 -114 -16 -173 -25 -128 -18 -284 -70 -382 -126
-406 -235 -672 -601 -770 -1063 -9 -44 -22 -100 -28 -125 -15 -63 -17 -379 -2
-475 35 -231 108 -460 222 -695 39 -80 69 -147 67 -148 -1 -2 -67 42 -146 99
-837 599 -1215 850 -1624 1077 -210 117 -556 277 -859 397 -359 142 -955 300
-1400 370 -55 8 -113 18 -130 20 -213 34 -585 55 -790 45 -259 -13 -548 -65
-746 -136 -123 -43 -328 -150 -428 -221 -212 -152 -446 -421 -599 -688 -100
-175 -148 -284 -217 -489 -192 -572 -219 -1061 -86 -1550 12 -43 26 -87 31
-97 6 -10 10 -22 10 -27 0 -6 -62 15 -137 44 -258 102 -407 130 -658 121 -216
-7 -350 -34 -521 -103 -151 -60 -330 -185 -417 -289 -100 -119 -205 -314 -253
-469 l-27 -88 -51 6 c-218 28 -635 35 -876 15 -69 -5 -201 -14 -295 -19 -256
-15 -387 -27 -416 -38 -15 -6 -98 -22 -185 -37 -88 -14 -249 -41 -359 -60
-110 -19 -281 -48 -381 -64 -99 -17 -201 -39 -227 -50 -26 -11 -123 -38 -215
-61 -252 -60 -591 -154 -646 -178 -27 -12 -51 -20 -53 -18 -3 2 7 23 22 46
114 180 251 579 301 875 24 143 16 458 -16 600 -108 487 -347 927 -729 1343
-186 202 -397 349 -688 478 -379 167 -894 283 -1197 268 -353 -17 -939 -217
-1401 -478 -420 -238 -867 -628 -1131 -986 -404 -548 -703 -1340 -778 -2060
-26 -242 -28 -335 -17 -567 38 -749 153 -1534 298 -2038 109 -378 238 -732
360 -987 l56 -117 -40 -68 c-62 -105 -117 -216 -173 -353 -95 -230 -257 -746
-299 -955 -6 -27 -26 -124 -45 -215 -20 -91 -43 -219 -51 -285 -59 -453 -86
-736 -105 -1125 -10 -184 -17 -241 -50 -400 -55 -260 -85 -383 -115 -470 -14
-41 -38 -113 -51 -159 -14 -47 -37 -106 -50 -133 -13 -26 -33 -70 -44 -97 -37
-94 -158 -336 -210 -421 -53 -85 -208 -304 -355 -500 -73 -97 -198 -243 -399
-464 -85 -93 -335 -324 -477 -440 -46 -38 -140 -106 -209 -151 -125 -82 -154
-98 -517 -279 -105 -52 -224 -117 -265 -143 -130 -84 -281 -195 -351 -257
-160 -144 -355 -404 -455 -607 -94 -191 -177 -478 -229 -794 -26 -158 -26
-627 0 -765 39 -209 131 -427 255 -605 202 -289 544 -499 952 -585 154 -33
437 -30 635 6 65 12 317 77 388 101 16 5 16 1 -4 -48 -116 -291 -188 -547
-236 -839 -25 -152 -27 -187 -27 -440 0 -273 0 -276 32 -420 75 -338 150 -542
252 -684 122 -171 259 -296 405 -369 135 -67 248 -94 442 -104 331 -17 627 91
898 326 38 33 70 59 71 58 2 -2 -10 -129 -47 -477 -23 -223 -80 -663 -110
-855 -21 -133 -42 -231 -105 -480 -60 -238 -143 -507 -260 -850 -259 -757
-402 -1145 -475 -1290 -37 -74 -213 -462 -339 -750 -59 -135 -104 -191 -224
-276 -147 -104 -527 -219 -856 -259 -47 -5 -211 -19 -365 -30 -781 -54 -1061
-124 -1360 -341 -174 -126 -301 -254 -403 -409 -86 -130 -214 -391 -256 -520
-66 -206 -77 -278 -83 -550 -5 -218 -3 -262 16 -395 46 -316 168 -571 380
-796 227 -241 493 -404 769 -470 48 -11 93 -23 101 -25 9 -3 -14 -21 -54 -45
-77 -45 -233 -156 -375 -268 -121 -95 -468 -441 -547 -546 -175 -233 -277
-435 -352 -700 -77 -274 -90 -605 -35 -899 26 -137 84 -318 132 -410 91 -176
327 -374 505 -422 29 -8 111 -17 182 -20 144 -7 244 7 363 52 40 15 62 19 58
11 -13 -32 -130 -398 -165 -519 -46 -157 -173 -700 -195 -833 -9 -49 -22 -155
-31 -235 -9 -80 -25 -219 -35 -310 -11 -91 -26 -230 -35 -310 -8 -80 -21 -194
-27 -255 -19 -177 -16 -821 5 -1050 57 -617 87 -845 153 -1187 43 -224 59
-292 135 -578 83 -308 108 -388 135 -435 12 -22 47 -103 77 -180 109 -279 135
-330 237 -458 14 -18 46 -63 70 -102 25 -38 63 -93 85 -121 139 -177 401 -474
416 -474 4 0 52 -42 106 -92 123 -116 217 -198 264 -229 20 -13 65 -45 100
-71 35 -26 82 -61 104 -77 46 -33 290 -165 326 -176 13 -4 44 -18 69 -30 80
-40 409 -128 615 -163 336 -58 435 -63 640 -27 44 7 111 18 149 25 38 6 90 22
115 36 25 13 51 24 57 24 18 0 216 66 264 88 25 12 77 33 117 47 40 15 82 34
95 44 13 9 38 24 57 31 37 15 151 98 271 197 112 93 327 325 440 478 93 124
199 304 238 405 65 167 80 210 91 260 20 92 40 182 56 250 36 157 59 595 45
836 -19 312 -52 520 -161 1004 -60 269 -148 524 -281 820 -86 190 -90 200 -80
200 4 0 51 -38 104 -84 153 -132 284 -213 497 -311 156 -71 253 -103 424 -140
208 -45 313 -57 512 -58 179 -2 196 0 289 26 180 50 331 128 486 252 107 85
159 142 250 270 135 191 233 398 294 623 14 48 38 126 55 173 44 124 54 202
52 391 -2 299 -31 486 -112 738 -96 297 -171 487 -308 783 -173 373 -239 492
-364 658 l-69 92 48 -28 c27 -15 56 -33 64 -40 57 -47 366 -254 438 -292 48
-26 112 -63 142 -83 30 -21 102 -61 159 -90 58 -29 132 -69 165 -90 64 -39
197 -109 569 -298 l227 -116 -7 -125 c-13 -211 -9 -1128 5 -1311 25 -324 104
-999 153 -1300 25 -160 133 -709 160 -814 64 -254 214 -712 258 -791 16 -28
65 -127 109 -220 117 -250 231 -425 461 -709 115 -142 337 -367 486 -495 340
-291 842 -568 1290 -715 332 -108 819 -204 1200 -236 316 -26 850 3 1099 60
396 92 614 196 928 441 142 111 347 327 484 508 122 163 286 444 366 631 212
490 300 1132 285 2058 l-7 362 23 -5 c12 -2 54 -12 92 -21 39 -8 120 -24 180
-34 61 -11 162 -28 225 -39 63 -12 160 -28 215 -36 55 -8 127 -19 160 -25 33
-5 76 -10 95 -10 l36 0 56 -148 c143 -375 315 -1118 348 -1507 15 -178 12
-668 -5 -909 -8 -116 -28 -362 -43 -546 -25 -308 -27 -376 -27 -850 0 -414 4
-551 18 -700 76 -802 132 -1047 377 -1650 99 -244 289 -624 419 -838 81 -133
239 -370 277 -417 19 -22 60 -74 93 -115 32 -41 101 -122 152 -180 52 -58 128
-146 169 -195 123 -148 406 -426 550 -540 74 -58 248 -182 385 -274 416 -277
754 -435 1515 -707 253 -91 855 -254 1155 -313 607 -120 1371 -188 1975 -178
447 8 804 38 1315 112 659 95 1412 366 1925 692 180 114 175 110 295 197 129
92 146 105 330 255 201 164 304 260 458 428 167 183 249 280 336 403 100 140
280 412 340 514 139 235 355 708 439 961 143 425 282 1067 331 1520 60 557 86
1360 61 1880 -56 1174 -103 1629 -216 2085 -63 255 -93 349 -192 605 -165 423
-296 716 -472 1058 -34 66 -59 121 -56 124 2 3 152 35 333 73 501 104 872 189
933 216 30 13 127 42 215 65 276 71 629 171 659 186 27 14 425 146 1086 360
162 52 307 101 322 109 15 8 125 48 244 89 118 41 232 84 252 95 20 12 128 58
240 101 218 85 275 111 307 139 19 16 71 41 285 135 125 56 279 134 325 165
23 16 194 105 380 199 445 224 768 394 830 435 28 18 93 56 145 83 52 28 124
69 160 91 36 23 130 80 210 128 80 48 163 100 185 115 22 16 105 72 184 126
79 54 165 116 190 138 85 76 370 287 431 319 20 11 -55 -60 -174 -164 -153
-132 -322 -305 -452 -461 -135 -162 -187 -233 -268 -367 -222 -368 -332 -614
-446 -1004 -62 -212 -85 -411 -77 -673 8 -282 77 -553 206 -810 72 -143 208
-342 285 -418 172 -170 380 -292 602 -354 94 -26 109 -28 289 -26 344 3 649
68 940 200 208 95 343 180 509 322 48 40 89 72 91 70 4 -5 -114 -280 -152
-354 -43 -84 -143 -387 -186 -565 -159 -648 -207 -1023 -187 -1467 11 -241 24
-381 45 -473 16 -68 36 -158 56 -250 11 -50 26 -93 91 -260 39 -101 145 -281
238 -405 113 -153 328 -385 440 -478 120 -99 234 -182 271 -197 19 -7 44 -22
57 -31 13 -10 55 -29 95 -44 40 -14 92 -35 117 -47 48 -22 246 -88 264 -88 6
0 32 -11 57 -24 25 -14 77 -30 115 -36 38 -7 105 -18 149 -25 146 -25 284 -29
408 -11 402 60 677 128 892 219 83 36 301 153 350 188 22 16 69 51 104 77 35
26 80 58 100 71 47 31 141 113 264 229 54 50 102 92 106 92 15 0 277 297 416
474 22 28 60 83 85 121 24 39 56 84 70 102 102 128 128 179 237 458 30 77 65
158 77 180 50 85 200 648 270 1013 153 791 214 1772 146 2352 -17 140 -60 528
-71 635 -15 150 -38 333 -50 395 -33 169 -158 690 -204 845 -47 160 -131 419
-150 467 -6 16 0 15 56 -6 120 -45 220 -59 364 -52 201 9 268 34 433 158 188
142 271 268 341 517 60 210 76 330 75 561 -1 220 -16 341 -65 515 -75 265
-176 467 -352 700 -78 103 -424 449 -547 546 -138 109 -297 223 -375 268 -40
24 -63 42 -54 45 8 2 53 14 101 25 278 67 546 231 774 474 208 222 329 479
375 792 19 133 21 177 16 395 -6 271 -18 350 -83 548 -60 184 -207 467 -318
611 -72 93 -196 212 -306 295 -322 240 -590 310 -1395 366 -154 11 -318 25
-365 30 -329 40 -709 155 -856 259 -120 85 -165 141 -224 276 -126 288 -302
676 -339 750 -73 145 -216 533 -475 1290 -117 343 -200 612 -260 850 -63 249
-84 347 -105 480 -30 192 -87 632 -110 855 -37 348 -49 475 -47 477 1 1 33
-25 71 -58 271 -235 567 -343 898 -326 315 16 519 105 714 310 197 207 286
404 385 847 32 144 32 147 32 420 0 253 -2 288 -27 440 -48 292 -120 548 -236
839 -20 49 -20 53 -4 48 10 -4 83 -24 163 -46 244 -68 344 -81 600 -83 124 0
176 4 260 22 228 47 427 131 625 262 285 188 511 547 582 928 26 138 26 607 0
765 -72 436 -180 746 -347 999 -182 276 -362 448 -701 668 -31 20 -144 80
-250 133 -365 182 -394 198 -519 280 -69 45 -163 113 -209 151 -142 116 -392
347 -477 440 -295 325 -352 395 -589 724 -102 141 -149 214 -287 440 -82 133
-175 324 -216 443 -66 187 -121 440 -142 657 -6 63 -18 167 -25 230 -8 63 -17
171 -20 240 -13 282 -45 615 -100 1035 -8 66 -31 194 -51 285 -19 91 -39 188
-45 215 -42 209 -204 726 -299 955 -53 127 -125 277 -165 340 l-22 35 55 110
c126 253 270 641 385 1040 145 504 260 1289 298 2038 24 483 -42 937 -212
1457 -293 895 -727 1487 -1459 1994 -487 337 -1217 619 -1656 640 -371 18
-1013 -151 -1404 -370 -188 -105 -305 -195 -448 -343 -182 -188 -344 -404
-468 -622 -311 -547 -396 -1040 -268 -1554 65 -259 175 -543 268 -688 20 -31
35 -57 34 -57 -10 0 -100 31 -133 46 -48 20 -405 118 -637 174 -93 23 -189 50
-215 61 -26 11 -128 33 -227 50 -100 16 -271 45 -381 64 -110 19 -271 46 -359
60 -87 15 -170 31 -185 37 -29 11 -161 23 -416 38 -93 5 -224 14 -290 20 -66
5 -239 12 -385 14 -290 5 -551 24 -760 56 -74 11 -137 20 -140 20 -22 0 -296
226 -425 351 -229 220 -371 369 -792 831 -32 34 -184 198 -338 364 -154 165
-386 415 -517 555 -873 938 -1570 1500 -2293 1849 -574 277 -1126 447 -1740
535 -93 13 -228 29 -300 35 -188 15 -509 21 -585 9z m635 -339 c686 -79 1211
-230 1865 -537 373 -175 869 -519 1315 -913 182 -161 741 -720 1035 -1035 118
-126 300 -322 405 -434 669 -719 1091 -1138 1310 -1303 250 -187 572 -359 848
-452 152 -51 466 -123 582 -133 81 -6 202 19 212 45 3 7 17 18 30 23 29 11 26
33 -5 37 -12 2 -22 8 -22 13 0 17 -139 79 -211 94 -109 23 -270 68 -264 73 23
23 736 -28 940 -68 28 -5 86 -14 130 -20 44 -6 98 -18 120 -25 22 -8 112 -26
200 -40 182 -29 421 -75 575 -110 58 -14 149 -34 203 -45 53 -11 110 -26 126
-34 15 -8 104 -35 197 -60 231 -60 594 -171 641 -194 21 -11 69 -30 107 -42
39 -13 84 -31 101 -41 40 -24 194 -87 350 -144 66 -24 141 -55 165 -69 25 -13
104 -48 175 -76 140 -55 650 -294 675 -316 9 -7 101 -59 205 -115 105 -55 192
-103 194 -105 5 -5 -91 -202 -111 -228 -14 -18 -16 -17 -69 10 -64 33 -239
100 -399 155 -106 35 -124 38 -225 39 -133 0 -213 -17 -320 -70 -237 -116
-399 -364 -474 -729 -22 -106 -33 -305 -21 -393 41 -310 193 -647 390 -860 62
-69 98 -88 85 -47 -4 12 -15 50 -25 85 -10 35 -21 68 -25 74 -18 29 -75 357
-85 488 -6 81 -15 197 -20 257 -22 251 36 518 148 682 105 153 228 210 425
197 136 -9 233 -34 399 -103 l77 -32 -66 -102 c-36 -56 -111 -163 -167 -238
-56 -75 -116 -157 -134 -183 -18 -27 -35 -46 -37 -44 -3 2 -25 85 -50 184 -56
221 -74 276 -88 271 -30 -10 -79 -253 -98 -491 -30 -372 24 -649 212 -1096 88
-208 166 -352 300 -555 178 -268 325 -447 485 -589 176 -157 646 -466 864
-569 481 -226 763 -298 1110 -283 186 7 262 20 330 54 125 63 136 213 18 273
-38 20 -51 21 -148 15 l-105 -7 61 41 c110 72 250 229 396 443 l67 99 24 -49
c36 -71 95 -266 108 -358 27 -193 -27 -497 -124 -690 -50 -102 -137 -227 -198
-287 -148 -144 -455 -229 -783 -215 -151 6 -256 28 -417 87 -45 16 -85 30 -88
30 -3 0 11 -16 30 -36 41 -43 210 -156 276 -185 282 -123 599 -145 848 -57
232 81 388 224 524 479 65 123 94 196 131 334 111 411 63 765 -145 1076 l-54
80 41 70 41 71 35 -83 c92 -220 241 -700 276 -889 9 -47 30 -146 46 -220 27
-122 44 -232 70 -450 5 -41 15 -127 24 -190 8 -63 17 -162 21 -220 8 -128 57
-488 90 -665 14 -71 29 -161 34 -200 34 -247 88 -461 201 -795 68 -199 142
-348 361 -725 89 -152 321 -497 406 -603 230 -286 390 -461 587 -641 348 -318
520 -437 941 -647 309 -155 335 -170 490 -278 283 -198 489 -475 599 -806 100
-302 151 -691 127 -958 -25 -272 -126 -509 -293 -687 -103 -110 -332 -233
-535 -287 -79 -21 -109 -23 -288 -22 -197 0 -202 1 -350 38 -332 84 -463 146
-619 295 -131 127 -233 273 -386 557 -57 104 -122 221 -145 259 -110 183 -247
449 -328 640 -119 279 -167 397 -167 406 0 5 -21 51 -47 102 l-48 92 -3 -45
c-2 -25 1 -115 7 -201 31 -440 73 -658 207 -1078 75 -232 171 -433 317 -662
107 -169 286 -516 370 -719 228 -552 310 -897 311 -1305 0 -213 -3 -241 -65
-488 -70 -281 -172 -453 -333 -564 -106 -72 -166 -87 -351 -87 -180 -1 -248
14 -377 81 -244 127 -654 601 -813 940 -23 50 -58 113 -76 140 -19 26 -95 170
-169 318 -109 218 -139 270 -155 270 -61 0 -83 -294 -45 -607 14 -117 31 -210
47 -258 28 -82 96 -223 149 -310 33 -54 34 -58 49 -250 9 -107 25 -283 36
-390 11 -107 26 -265 34 -350 23 -244 43 -414 100 -835 38 -282 52 -365 69
-432 9 -34 25 -103 36 -155 21 -98 73 -292 133 -493 102 -345 414 -1246 570
-1645 84 -214 93 -236 115 -268 28 -41 274 -594 319 -717 38 -106 99 -203 172
-275 52 -52 95 -80 201 -137 74 -39 160 -78 190 -88 30 -9 104 -35 164 -57
287 -104 596 -163 1011 -193 438 -31 502 -37 610 -55 138 -22 379 -103 477
-159 179 -103 350 -260 440 -407 112 -181 184 -348 229 -529 16 -61 22 -128
26 -275 9 -305 -18 -473 -101 -647 -60 -125 -114 -201 -205 -292 -109 -109
-199 -174 -336 -241 -204 -102 -216 -103 -668 -108 -329 -3 -399 -1 -460 13
-199 44 -338 114 -451 225 -81 80 -89 76 -56 -33 65 -215 275 -410 710 -657
36 -20 110 -64 165 -97 55 -32 145 -86 200 -118 221 -129 519 -362 747 -583
310 -302 468 -561 549 -898 46 -195 44 -484 -6 -689 -54 -225 -84 -280 -198
-371 -94 -74 -122 -84 -232 -84 -161 0 -253 45 -433 210 -70 63 -171 151 -226
195 -54 43 -145 131 -202 194 -157 177 -364 361 -406 361 -5 0 5 -27 22 -61
17 -33 42 -103 55 -155 35 -131 106 -324 156 -419 23 -44 88 -150 145 -235 57
-85 117 -186 134 -224 64 -141 158 -460 288 -981 130 -515 195 -999 232 -1725
19 -379 10 -877 -20 -1085 -5 -38 -24 -185 -40 -325 -58 -483 -154 -993 -250
-1320 -15 -52 -40 -140 -55 -195 -15 -55 -42 -127 -60 -160 -18 -33 -53 -112
-78 -175 -87 -220 -120 -283 -210 -395 -13 -16 -49 -71 -80 -121 -74 -120
-326 -408 -508 -579 -196 -185 -362 -314 -544 -421 -100 -59 -282 -142 -350
-159 -38 -9 -86 -23 -105 -30 -36 -13 -94 -27 -285 -69 -221 -48 -291 -57
-398 -51 -119 7 -267 31 -317 51 -19 8 -89 29 -155 48 -125 35 -299 104 -396
154 -140 74 -331 246 -511 459 -150 179 -197 247 -284 414 -22 41 -75 187 -95
259 -9 36 -25 92 -34 125 -21 79 -52 347 -60 527 -20 420 100 1148 274 1661
33 97 67 187 75 200 20 31 209 464 300 687 179 441 182 447 402 762 70 101
171 246 223 323 144 212 241 330 356 435 58 52 155 142 217 199 62 57 135 124
162 148 37 34 46 47 37 56 -16 15 -169 -65 -331 -173 -63 -42 -153 -101 -200
-130 -92 -57 -247 -201 -389 -360 -76 -86 -89 -96 -128 -102 -24 -3 -63 -17
-86 -31 -23 -14 -78 -39 -122 -56 -44 -18 -113 -50 -154 -73 -41 -22 -106 -49
-145 -60 -39 -11 -87 -28 -106 -39 -19 -10 -91 -39 -160 -63 -69 -24 -150 -54
-179 -66 -69 -27 -206 -55 -341 -70 -58 -6 -138 -15 -178 -21 -168 -21 -367
-5 -502 41 -99 34 -160 67 -245 131 -98 74 -115 101 -286 466 -23 49 -31 84
-39 180 -6 65 -15 156 -20 203 -27 234 -7 373 115 785 49 168 75 241 174 500
21 55 57 150 80 210 23 61 64 155 91 211 59 120 105 167 425 436 50 42 149
136 222 210 145 147 160 175 129 237 -24 45 -68 64 -133 59 -84 -7 -281 -113
-464 -249 -41 -31 -85 -61 -97 -68 -13 -7 -57 -40 -100 -74 -91 -74 -270 -183
-387 -237 -46 -21 -111 -57 -143 -79 -33 -22 -106 -65 -163 -96 -57 -31 -122
-70 -146 -86 -23 -16 -165 -90 -315 -164 -150 -74 -338 -175 -418 -225 -80
-51 -190 -114 -245 -142 -55 -28 -113 -61 -130 -74 -38 -29 -343 -188 -820
-429 -198 -99 -385 -197 -417 -216 -52 -33 -125 -68 -450 -214 -70 -32 -133
-64 -140 -72 -13 -16 -32 -25 -228 -100 -80 -30 -188 -75 -241 -99 -147 -67
-817 -296 -1549 -530 -168 -53 -321 -105 -340 -114 -35 -18 -362 -111 -665
-190 -88 -23 -179 -50 -203 -60 -108 -48 -1207 -279 -2467 -519 -188 -36 -918
-164 -1290 -226 -426 -71 -738 -126 -775 -135 -69 -18 -1509 -244 -1715 -270
-44 -5 -145 -17 -225 -25 -80 -8 -188 -19 -240 -25 -528 -54 -1238 -98 -2134
-131 -361 -13 -1591 -6 -1871 11 -710 42 -1814 156 -2585 265 -58 8 -172 24
-255 35 -82 11 -184 27 -225 35 -70 13 -208 38 -395 71 -103 19 -681 160 -945
231 -113 31 -268 72 -345 93 -77 20 -275 79 -440 129 -165 51 -343 104 -395
117 -157 41 -1651 529 -1990 651 -196 70 -430 159 -615 233 -93 38 -250 100
-347 139 -98 39 -219 88 -270 110 -51 21 -149 62 -218 91 -192 80 -315 133
-570 251 -129 59 -260 117 -290 129 -50 19 -229 109 -1130 568 -353 179 -582
300 -645 340 -28 17 -82 46 -120 63 -39 18 -106 56 -150 85 -44 28 -105 64
-135 79 -30 15 -137 84 -238 154 -100 69 -223 151 -271 181 -49 30 -106 69
-127 85 -21 17 -70 52 -109 78 -38 27 -108 79 -155 118 -47 38 -105 84 -129
102 -25 17 -66 50 -91 72 -26 22 -84 70 -128 107 -44 37 -120 113 -169 170
-107 124 -185 180 -272 197 -52 10 -70 10 -114 -3 -115 -34 -167 -103 -175
-233 -7 -114 34 -183 177 -303 153 -128 243 -217 363 -357 73 -85 135 -160
137 -166 2 -6 -18 7 -45 29 -77 65 -213 149 -300 187 -80 36 -174 57 -174 40
0 -5 35 -41 79 -80 130 -119 356 -401 563 -703 258 -377 600 -1003 693 -1270
91 -259 124 -416 124 -595 0 -96 -5 -126 -35 -235 -43 -151 -86 -229 -192
-345 -111 -121 -247 -219 -430 -309 -48 -24 -105 -53 -127 -64 -61 -32 -337
-103 -450 -114 -100 -11 -165 -6 -605 43 -47 5 -141 9 -209 8 -142 -1 -115
-13 -296 135 -60 50 -146 118 -190 151 -44 32 -165 143 -270 246 -104 103
-208 202 -229 219 -22 17 -67 63 -100 103 -34 41 -91 107 -127 148 -37 41
-118 133 -180 204 -165 188 -319 333 -419 395 -47 29 -137 88 -200 130 -162
108 -315 188 -331 173 -9 -9 0 -22 37 -56 27 -24 100 -91 162 -148 62 -57 159
-147 217 -199 115 -105 212 -223 356 -435 52 -77 153 -222 223 -323 220 -315
223 -321 402 -762 42 -102 104 -251 139 -331 l64 -145 -17 -60 c-23 -81 -22
-336 2 -494 24 -154 15 -302 -45 -728 -48 -340 -92 -537 -184 -817 -114 -346
-246 -534 -487 -696 -117 -79 -205 -116 -388 -164 -125 -32 -166 -38 -300 -44
-215 -8 -370 2 -550 39 -297 59 -659 203 -867 342 -84 56 -104 77 -211 213
-276 350 -317 411 -388 571 -151 344 -180 446 -234 824 -17 118 -35 240 -40
270 -5 30 -27 216 -49 412 -31 278 -45 372 -65 430 -31 90 -43 176 -56 388
-18 303 -22 642 -11 910 36 835 47 1928 20 2065 -6 33 -11 94 -9 135 1 64 7
85 37 143 22 42 53 82 83 107 102 86 195 241 224 375 10 44 31 118 48 165 16
47 40 126 53 177 13 50 38 119 55 152 17 34 27 61 22 61 -41 0 -260 -194 -403
-357 -49 -56 -113 -122 -143 -147 -45 -39 -63 -48 -129 -60 -41 -8 -99 -25
-129 -38 -46 -20 -69 -23 -168 -22 -144 0 -165 10 -264 115 -138 146 -215 346
-218 559 -2 188 50 427 138 644 61 150 208 415 267 481 91 103 421 355 622
476 234 141 321 193 385 229 435 247 645 442 710 657 33 109 25 113 -56 33
-113 -111 -252 -181 -451 -225 -60 -14 -132 -16 -460 -13 l-388 3 -118 78
c-140 92 -178 141 -215 277 -13 47 -39 135 -57 195 -81 261 -94 480 -42 673
73 270 320 526 739 766 181 104 452 227 638 292 91 31 232 91 406 174 116 54
302 169 392 242 42 34 120 105 172 159 70 72 105 100 135 109 22 7 101 44 175
83 106 57 149 85 201 137 73 72 134 169 172 275 45 123 291 676 319 717 68 99
529 1386 685 1913 60 201 112 395 133 493 11 52 27 121 36 155 17 67 31 150
69 432 57 421 77 591 100 835 8 85 23 243 34 350 11 107 27 283 36 390 15 192
16 196 49 250 53 87 121 228 149 310 16 48 33 141 47 258 38 313 16 607 -45
607 -16 0 -46 -52 -155 -270 -74 -148 -150 -292 -169 -318 -18 -27 -51 -88
-74 -135 -159 -342 -569 -817 -815 -945 -129 -67 -197 -82 -377 -81 -140 0
-168 3 -225 23 -116 41 -230 135 -318 263 -63 92 -131 296 -188 568 -25 117
-25 437 0 600 51 336 123 579 293 990 84 203 263 550 370 719 146 229 242 430
317 662 134 420 176 638 207 1078 6 86 9 176 7 201 l-3 45 -48 -92 c-26 -51
-47 -97 -47 -102 0 -9 -48 -127 -167 -406 -81 -191 -218 -457 -328 -640 -23
-38 -88 -155 -145 -259 -155 -288 -257 -433 -392 -562 -156 -147 -278 -205
-613 -290 -149 -38 -152 -38 -350 -39 -179 0 -210 3 -288 23 -203 54 -432 177
-535 287 -226 242 -324 567 -293 980 31 423 140 791 310 1043 119 178 249 312
416 428 155 108 181 123 490 278 421 210 593 329 941 647 197 180 357 355 587
641 85 106 318 452 406 603 131 225 161 282 186 348 14 37 43 103 65 147 49
97 150 365 186 492 14 50 30 100 35 110 6 10 27 94 49 186 21 92 50 212 64
267 47 176 65 308 86 625 12 176 39 475 45 505 3 11 9 58 15 105 22 204 42
334 70 460 16 74 37 173 46 220 37 198 182 662 286 914 l45 108 56 -95 56 -96
-54 -80 c-208 -311 -256 -665 -145 -1076 37 -138 66 -211 131 -334 136 -255
292 -398 524 -479 210 -74 500 -69 730 11 115 41 161 63 263 131 81 54 179
136 161 136 -3 0 -43 -14 -88 -30 -46 -17 -127 -42 -180 -56 -187 -49 -465
-42 -701 17 -114 29 -250 100 -319 167 -61 60 -148 185 -198 287 -97 193 -151
497 -124 690 13 92 72 287 108 358 l24 49 67 -99 c146 -214 286 -371 396 -443
l61 -41 -105 7 c-97 6 -110 5 -148 -15 -118 -60 -107 -210 18 -273 68 -34 144
-47 330 -54 347 -15 629 57 1110 283 218 103 688 412 864 569 160 142 307 321
485 589 134 203 212 347 300 555 139 330 209 593 218 816 9 216 -26 552 -74
708 -33 108 -42 94 -118 -208 -25 -99 -47 -182 -50 -184 -2 -2 -19 17 -37 44
-18 26 -78 108 -134 183 -56 75 -131 182 -167 238 l-66 102 77 32 c166 69 263
94 399 103 197 13 320 -44 425 -197 112 -164 170 -431 148 -682 -5 -60 -14
-176 -20 -257 -10 -131 -67 -459 -85 -488 -4 -6 -15 -39 -25 -74 -10 -35 -21
-73 -25 -85 -13 -41 23 -22 85 47 197 213 349 550 390 860 12 88 1 287 -21
393 -75 365 -237 613 -474 729 -107 53 -187 70 -320 70 -101 -1 -119 -4 -225
-39 -160 -55 -335 -122 -399 -155 -53 -27 -55 -28 -69 -10 -19 27 -92 171
-107 215 l-14 37 157 83 c86 45 171 92 187 104 44 32 540 266 690 325 72 28
150 63 175 76 24 14 99 45 165 69 156 57 310 120 350 144 17 10 62 28 101 41
38 12 86 31 107 42 47 23 410 134 641 194 93 25 182 52 197 60 16 8 73 23 126
34 54 11 145 31 203 45 154 35 393 81 575 110 88 14 178 32 200 40 22 7 76 19
120 25 44 6 103 15 130 20 187 36 588 67 970 76 l330 7 -3 -99 c-9 -278 80
-521 285 -776 129 -159 328 -272 543 -307 78 -13 300 -26 300 -18 0 3 -33 17
-72 32 -273 102 -437 246 -524 458 -86 213 -125 595 -80 792 48 214 165 403
309 501 211 143 534 183 914 114 157 -29 257 -65 470 -171 139 -69 188 -98
205 -122 108 -157 356 -420 502 -532 139 -108 299 -214 401 -266 55 -28 111
-59 125 -69 49 -35 340 -165 495 -222 451 -166 934 -249 1445 -249 233 0 572
23 557 38 -2 2 -55 8 -118 13 -248 22 -539 70 -769 127 -58 14 -134 32 -170
40 -283 60 -757 267 -1106 482 -152 94 -424 293 -589 431 -322 269 -549 580
-668 915 -41 117 -49 144 -78 285 -30 141 -32 465 -6 645 37 242 145 594 243
785 149 292 366 554 577 694 160 107 336 172 604 225 445 88 823 74 1428 -54
94 -20 194 -40 224 -46 131 -25 601 -164 766 -227 301 -114 646 -273 890 -409
353 -197 890 -550 1500 -986 380 -272 561 -409 818 -619 120 -98 229 -186 243
-195 14 -10 60 -45 102 -78 304 -238 375 -289 433 -305 41 -12 93 3 113 32 14
19 14 19 53 -5 189 -119 496 -231 788 -287 105 -20 436 -62 442 -56 1 1 -61
19 -140 40 -318 85 -630 221 -844 368 -239 165 -545 449 -710 662 -48 61 -105
132 -127 157 -86 97 -270 359 -385 549 -88 144 -205 406 -249 555 -49 166 -62
253 -62 422 0 73 5 156 11 185 65 326 173 570 326 734 81 88 223 199 308 241
57 29 184 70 257 84 181 33 464 33 753 -1z m-16410 -1546 c296 -41 669 -159
910 -288 199 -105 337 -218 505 -411 316 -363 529 -788 592 -1180 16 -103 16
-499 -1 -625 -36 -279 -88 -495 -164 -683 l-43 -108 -17 79 c-20 89 -68 240
-135 422 -76 204 -197 387 -357 539 -160 152 -303 252 -471 329 -141 65 -241
92 -341 92 -99 -1 -150 -12 -240 -56 -191 -91 -323 -290 -460 -689 -86 -252
-124 -465 -125 -707 l-1 -156 -39 -18 c-21 -9 -82 -46 -136 -81 l-97 -64 60 6
c33 3 95 15 138 26 44 11 81 19 83 17 1 -2 10 -48 19 -103 8 -55 24 -137 35
-183 11 -46 20 -89 20 -96 0 -13 -147 -125 -212 -163 -21 -12 -66 -43 -100
-70 -103 -79 -100 -75 -38 -68 67 8 205 54 319 107 46 21 85 37 86 36 1 -2 7
-16 13 -33 18 -53 113 -278 132 -315 l19 -37 -112 -119 c-157 -166 -301 -309
-377 -375 -36 -31 -61 -60 -57 -65 13 -14 175 33 267 77 101 48 253 148 331
218 64 57 59 59 119 -39 19 -30 73 -109 120 -175 l85 -120 -47 -45 c-26 -25
-58 -62 -71 -83 -33 -51 -332 -400 -456 -529 -56 -58 -101 -109 -101 -113 0
-4 30 -5 67 -2 55 4 86 15 168 56 189 96 436 302 535 449 19 28 38 50 41 49 4
-1 45 -59 91 -128 47 -70 125 -179 174 -243 132 -173 123 -136 80 -327 -43
-191 -103 -374 -187 -567 -76 -174 -144 -298 -274 -492 -217 -325 -368 -483
-645 -677 -96 -67 -249 -166 -340 -221 -181 -109 -492 -252 -546 -252 -18 0
-67 -5 -109 -11 -86 -13 -213 -1 -355 33 -112 27 -139 42 -242 132 -103 90
-137 133 -300 381 -140 214 -193 303 -184 312 3 4 46 17 95 29 244 64 504 222
675 411 166 185 311 374 360 472 l26 50 -99 -67 c-231 -158 -298 -204 -516
-360 -281 -201 -385 -253 -654 -323 -29 -8 -322 594 -426 872 -5 13 3 18 42
23 168 25 363 103 508 205 175 123 319 260 434 414 41 53 72 99 70 101 -2 2
-58 -30 -124 -71 -240 -150 -645 -344 -817 -392 -40 -11 -101 -23 -135 -27
-62 -6 -63 -6 -73 22 -14 36 -68 224 -109 374 -24 91 -111 486 -111 506 0 2 9
4 21 4 39 0 224 42 294 67 108 39 232 107 315 173 179 143 380 372 380 431 0
26 -6 25 -85 -22 -107 -63 -631 -318 -710 -345 -70 -24 -244 -58 -253 -49 -24
24 -112 949 -112 1176 l0 85 79 2 c52 1 102 9 143 23 89 30 251 105 332 153
67 40 336 278 356 316 7 14 -23 3 -118 -42 -70 -34 -136 -67 -147 -74 -70 -43
-516 -145 -601 -136 l-40 4 27 181 c44 293 62 371 140 618 l31 96 66 -5 c54
-3 82 1 142 21 128 43 269 130 369 227 46 45 121 138 121 150 0 9 -117 -30
-152 -50 -54 -31 -289 -68 -379 -60 l-56 5 67 135 c155 313 285 547 326 590 7
7 67 26 131 41 65 15 142 34 171 42 58 17 215 88 208 94 -2 3 -91 -1 -196 -7
-105 -6 -194 -10 -196 -7 -6 6 151 189 237 277 35 36 107 104 160 150 92 81
102 87 227 134 73 27 132 51 132 54 0 2 -32 1 -72 -3 l-72 -7 50 40 c267 211
747 450 1127 561 330 96 493 113 762 75z m29300 5 c471 -77 1106 -354 1469
-641 l50 -40 -72 7 c-40 4 -72 5 -72 3 0 -3 59 -27 132 -54 125 -47 135 -53
227 -134 53 -46 125 -114 160 -150 86 -88 243 -271 237 -277 -2 -3 -91 1 -196
7 -105 6 -194 10 -196 7 -7 -6 150 -77 208 -94 29 -8 106 -27 171 -42 64 -15
124 -34 131 -41 41 -43 171 -277 326 -590 l67 -135 -56 -5 c-90 -8 -325 29
-379 60 -35 20 -152 59 -152 50 0 -12 75 -105 121 -150 100 -97 241 -184 369
-227 60 -20 88 -24 142 -21 l66 5 31 -96 c78 -247 96 -325 140 -618 l27 -181
-40 -4 c-85 -9 -531 93 -601 136 -11 7 -77 40 -147 74 -95 45 -125 56 -118 42
20 -38 289 -276 356 -316 81 -48 243 -123 332 -153 41 -14 91 -22 143 -23 l79
-2 0 -85 c0 -227 -88 -1152 -112 -1176 -9 -9 -183 25 -253 49 -79 27 -603 282
-710 345 -79 47 -85 48 -85 22 0 -59 201 -288 380 -431 83 -66 207 -134 315
-173 70 -25 255 -67 294 -67 12 0 21 -2 21 -4 0 -20 -87 -415 -111 -506 -41
-150 -95 -338 -109 -374 -10 -28 -11 -28 -73 -22 -34 4 -95 16 -135 27 -172
48 -577 242 -817 392 -66 41 -122 73 -124 71 -2 -2 29 -48 70 -101 115 -154
259 -291 434 -414 145 -102 340 -180 508 -205 39 -5 47 -10 42 -23 -104 -278
-397 -880 -426 -872 -269 70 -373 122 -654 323 -218 156 -285 202 -516 360
l-99 67 26 -50 c49 -98 194 -287 360 -472 171 -189 431 -347 675 -411 49 -12
92 -25 95 -29 9 -9 -44 -98 -184 -312 -163 -248 -197 -291 -300 -381 -103 -90
-130 -105 -242 -132 -142 -34 -269 -46 -355 -33 -42 6 -91 11 -109 11 -54 0
-365 143 -543 250 -89 54 -242 153 -339 221 -282 196 -431 352 -649 679 -130
194 -198 318 -274 492 -84 193 -144 376 -187 567 -43 191 -52 154 80 327 49
64 127 173 174 243 46 69 87 127 91 128 3 1 22 -21 41 -49 99 -147 346 -353
535 -449 82 -41 113 -52 168 -56 37 -3 67 -2 67 2 0 4 -45 55 -101 113 -124
129 -423 478 -456 529 -13 21 -45 58 -71 83 l-47 45 85 120 c47 66 101 145
120 175 60 98 55 96 119 39 78 -70 230 -170 331 -218 92 -44 254 -91 267 -77
4 5 -21 34 -57 65 -76 66 -220 209 -377 375 l-112 119 19 37 c19 37 114 262
132 315 6 17 12 31 13 33 1 1 40 -15 86 -36 114 -53 252 -99 319 -107 62 -7
65 -11 -38 68 -34 27 -79 58 -100 70 -65 38 -212 150 -212 163 0 7 9 50 20 96
11 46 27 128 35 183 9 55 18 101 19 103 2 2 39 -6 83 -17 43 -11 105 -23 138
-26 l60 -6 -97 64 c-54 35 -115 72 -136 81 l-39 18 -1 156 c-1 242 -39 455
-125 707 -137 399 -269 598 -460 689 -179 86 -339 76 -581 -36 -130 -60 -161
-79 -281 -168 -267 -198 -446 -428 -547 -700 -67 -182 -115 -333 -135 -422
l-17 -79 -43 108 c-79 195 -125 388 -164 683 -17 126 -17 522 -1 625 74 460
371 991 759 1356 222 208 574 374 1013 478 263 62 480 79 655 50z m-28755
-2170 c64 -14 234 -97 323 -158 159 -107 310 -261 418 -426 87 -132 167 -280
202 -370 19 -49 48 -127 66 -172 49 -128 54 -118 -79 -167 -63 -24 -134 -52
-156 -64 -23 -12 -111 -49 -195 -82 -304 -121 -521 -223 -849 -399 -80 -43
-148 -75 -151 -72 -12 11 -68 194 -93 301 -46 194 -59 327 -53 525 7 232 41
395 133 644 136 365 251 482 434 440z m27954 -14 c77 -37 146 -131 217 -295
87 -203 157 -444 179 -620 24 -199 7 -454 -46 -680 -20 -86 -90 -317 -99 -328
-1 -2 -77 37 -168 85 -393 209 -538 277 -852 403 -93 38 -204 84 -245 103 -41
19 -105 45 -141 58 l-66 23 22 65 c104 297 153 401 294 616 107 164 259 319
418 426 85 58 257 143 318 158 55 14 122 8 169 -14z m-26212 -30692 c-2 -10
-6 -254 -9 -543 -4 -460 -2 -567 16 -865 30 -471 51 -644 121 -965 67 -310
160 -569 311 -873 120 -240 222 -411 323 -542 116 -148 371 -377 389 -348 3 5
-21 65 -54 133 -69 143 -115 263 -171 440 -38 122 -166 582 -214 770 -14 52
-36 131 -49 175 -106 355 -187 892 -215 1435 -6 113 -17 298 -25 413 -8 114
-15 297 -15 406 l0 199 133 -60 c330 -149 1224 -517 1517 -625 52 -19 163 -60
245 -90 202 -74 372 -132 810 -274 204 -66 546 -179 762 -249 215 -71 420
-136 455 -145 35 -9 179 -50 321 -93 l257 -77 0 -126 c0 -179 -18 -658 -31
-824 -9 -115 -21 -180 -69 -370 -33 -127 -75 -271 -94 -320 -18 -50 -62 -162
-96 -250 -34 -88 -81 -212 -104 -275 -72 -193 -107 -254 -280 -485 -88 -118
-138 -186 -239 -323 -26 -36 -72 -91 -102 -123 -30 -32 -55 -61 -55 -65 0 -12
134 5 194 26 175 60 408 221 602 416 268 269 391 497 528 979 139 492 173 734
185 1291 l6 321 160 -44 c88 -25 183 -51 211 -59 l52 -14 7 -357 c21 -967 -45
-1523 -231 -1961 -142 -334 -414 -710 -659 -911 -360 -295 -656 -388 -1300
-407 -382 -12 -762 37 -1220 156 -263 69 -456 143 -695 267 -182 94 -243 131
-433 265 -323 228 -659 587 -871 932 -62 100 -236 452 -286 576 -113 284 -253
850 -324 1310 -24 155 -92 679 -115 890 -43 388 -63 827 -54 1207 l6 281 201
-104 c158 -81 200 -108 198 -121z m19131 -1763 c22 -41 58 -109 81 -150 24
-41 69 -131 101 -200 32 -69 78 -165 103 -215 119 -240 341 -812 402 -1035
114 -415 168 -848 210 -1658 6 -112 15 -283 20 -380 26 -491 1 -1315 -56
-1842 -57 -527 -212 -1194 -371 -1590 -77 -193 -244 -542 -328 -685 -118 -202
-319 -488 -459 -655 -183 -219 -538 -545 -789 -726 -426 -307 -708 -451 -1242
-634 -408 -140 -754 -205 -1460 -272 -208 -19 -298 -22 -680 -22 -457 0 -634
10 -1025 55 -443 51 -705 97 -1071 190 -398 100 -522 137 -880 265 -646 229
-978 396 -1429 717 -203 144 -449 370 -612 560 -33 40 -116 135 -184 212 -247
281 -427 544 -617 902 -165 311 -349 752 -418 1003 -126 462 -180 952 -179
1635 0 369 8 593 25 745 3 25 16 207 30 405 53 776 41 1166 -49 1640 -73 381
-125 599 -217 902 -27 91 -47 168 -45 170 3 3 42 0 88 -6 166 -22 418 -50 623
-71 116 -11 253 -25 305 -30 123 -13 385 -35 630 -54 854 -67 1854 -70 3045
-10 478 24 972 53 996 58 13 3 33 -34 87 -153 227 -504 355 -981 431 -1616 36
-294 73 -729 86 -1005 3 -69 10 -174 15 -235 20 -225 50 -672 71 -1045 18
-320 20 -400 10 -473 -18 -136 1 -142 89 -29 56 71 64 89 110 232 111 345 237
1208 240 1640 2 277 -22 729 -51 980 -75 644 -224 1216 -443 1703 -14 32 -26
60 -26 62 0 3 15 5 33 5 61 0 458 49 642 80 33 5 249 40 480 76 562 88 841
134 1140 189 138 25 347 61 465 80 118 20 303 51 410 70 107 19 339 59 515 90
324 57 744 135 961 179 65 13 126 23 134 22 8 0 32 -35 53 -76z"/>
<path d="M20051 40929 c-91 -18 -181 -55 -391 -159 -217 -109 -487 -253 -570
-305 -103 -64 -320 -235 -405 -319 -255 -251 -368 -512 -336 -772 16 -135 38
-216 81 -309 148 -316 587 -678 1005 -827 207 -74 395 -110 675 -128 91 -6
216 -16 279 -22 148 -15 225 -3 341 54 117 57 213 153 268 270 65 135 115 328
159 608 23 151 23 518 -1 740 -43 403 -62 504 -120 625 -62 132 -226 306 -388
412 -80 52 -210 109 -293 129 -65 15 -234 17 -304 3z"/>
<path d="M22142 40206 c-87 -33 -154 -79 -253 -177 -202 -199 -337 -425 -442
-739 -132 -395 -122 -356 -121 -470 1 -122 20 -187 85 -286 147 -226 427 -333
868 -334 585 -1 930 238 931 645 0 150 -19 231 -154 645 -181 555 -288 683
-606 726 -153 20 -233 17 -308 -10z"/>
<path d="M31705 39164 c-167 -30 -302 -82 -664 -253 -375 -178 -630 -329
-1041 -620 -181 -127 -232 -177 -278 -270 -33 -66 -37 -85 -40 -162 -8 -192
64 -318 338 -589 257 -254 582 -486 975 -698 263 -141 498 -237 871 -358 167
-54 185 -58 274 -58 145 0 259 50 385 166 223 206 534 804 792 1523 68 188 76
219 80 300 8 139 -33 242 -141 353 -116 121 -378 289 -715 458 -410 206 -593
252 -836 208z"/>
<path d="M34035 38289 c-127 -44 -226 -137 -317 -300 -25 -46 -70 -120 -98
-164 -133 -202 -375 -669 -433 -836 -56 -159 -62 -198 -43 -289 29 -137 119
-243 272 -322 188 -98 348 -132 614 -132 296 0 432 46 600 201 116 107 154
223 176 533 22 321 2 542 -76 840 -40 154 -87 246 -164 324 -70 71 -127 108
-224 142 -89 31 -220 33 -307 3z"/>
<path d="M12552 37516 c-128 -42 -273 -137 -393 -256 -91 -90 -112 -118 -147
-190 -79 -164 -97 -258 -71 -369 37 -161 171 -292 362 -355 232 -75 433 -51
617 74 135 92 194 163 250 305 89 223 24 481 -170 675 -61 61 -89 82 -145 104
-99 41 -204 45 -303 12z"/>
<path d="M32901 36309 c-103 -20 -266 -85 -356 -142 -184 -115 -396 -313 -442
-413 -24 -50 -28 -72 -28 -144 0 -72 4 -92 27 -135 63 -121 288 -262 508 -320
178 -46 458 -68 572 -44 129 27 236 114 277 225 45 119 64 404 41 593 -24 189
-140 333 -305 376 -64 16 -220 19 -294 4z"/>
<path d="M12750 36271 c-76 -24 -110 -43 -179 -101 -40 -33 -68 -67 -86 -105
-26 -51 -27 -58 -15 -100 26 -93 118 -159 267 -190 187 -40 297 4 323 128 13
66 -3 222 -29 282 -44 97 -148 129 -281 86z"/>
<path d="M12065 36207 c-143 -48 -282 -143 -311 -214 -59 -141 90 -314 317
-368 129 -30 192 -16 265 59 72 74 89 127 89 281 0 110 -2 124 -25 165 -36 64
-92 93 -189 97 -59 3 -91 -2 -146 -20z"/>
<path d="M23620 34655 c-235 -66 -608 -356 -932 -725 -76 -87 -160 -210 -190
-277 -60 -135 45 -312 275 -467 111 -74 337 -187 453 -225 100 -33 372 -81
461 -81 109 0 198 63 250 176 33 73 70 223 85 351 16 133 16 664 0 882 -13
181 -33 235 -107 295 -91 75 -193 99 -295 71z"/>
<path d="M18025 34580 c-1441 -82 -2808 -855 -3881 -2195 -1153 -1440 -1885
-3403 -2073 -5560 -35 -395 -44 -635 -44 -1095 0 -460 9 -700 44 -1095 239
-2750 1366 -5168 3059 -6567 805 -665 1701 -1058 2665 -1169 256 -30 704 -30
960 0 345 40 623 100 950 208 1002 329 1929 1005 2701 1968 1153 1440 1885
3403 2073 5560 35 393 44 634 44 1090 1 453 -10 718 -44 1100 -190 2163 -920
4120 -2073 5560 -850 1061 -1875 1763 -3007 2060 -412 107 -943 160 -1374 135z
m684 -615 c826 -94 1615 -445 2336 -1039 290 -238 629 -583 881 -897 1076
-1335 1771 -3186 1954 -5204 36 -400 45 -605 45 -1095 0 -490 -9 -695 -45
-1095 -196 -2161 -981 -4131 -2178 -5467 -68 -76 -125 -138 -128 -138 -3 0 21
33 54 73 432 533 801 1205 1052 1917 498 1414 563 3055 179 4530 -560 2152
-1996 3754 -3739 4169 -306 73 -581 105 -910 105 -255 0 -403 -12 -635 -50
-255 -42 -490 -104 -725 -190 -9 -4 9 -15 45 -28 174 -67 378 -188 533 -318
l93 -78 122 21 c1011 172 2003 -115 2867 -830 150 -123 458 -433 590 -590 624
-752 1056 -1686 1269 -2748 264 -1310 152 -2746 -305 -3934 -37 -96 -67 -187
-67 -204 0 -16 7 -70 16 -119 21 -111 22 -313 1 -421 -8 -44 -19 -116 -25
-160 -54 -446 -358 -828 -777 -979 -148 -53 -203 -61 -407 -61 -177 0 -197 2
-290 28 -218 61 -376 151 -530 302 -299 294 -411 659 -337 1105 39 230 43 253
69 335 60 190 152 338 302 485 161 158 324 251 538 306 133 35 356 44 488 20
179 -33 349 -104 494 -206 78 -56 210 -183 251 -243 39 -58 33 -75 75 193 146
916 70 1869 -217 2725 -329 982 -924 1802 -1673 2305 -390 262 -832 438 -1280
510 -173 28 -418 43 -580 35 -207 -9 -196 -5 -234 -83 -37 -76 -123 -210 -186
-292 -342 -444 -909 -720 -1479 -720 -79 0 -330 25 -346 35 -8 5 -155 -157
-263 -290 -334 -413 -618 -941 -805 -1500 -386 -1152 -386 -2468 0 -3620 163
-486 388 -930 678 -1335 l32 -45 -46 50 c-980 1056 -1557 2668 -1556 4350 1
1079 229 2105 677 3036 l75 157 -42 68 c-92 153 -178 362 -215 529 -10 44 -21
83 -25 87 -15 19 -296 -497 -417 -765 -863 -1918 -867 -4291 -9 -6214 25 -57
71 -153 102 -215 70 -141 59 -130 -43 42 -183 309 -318 568 -463 890 -471
1048 -769 2209 -880 3435 -36 400 -45 605 -45 1095 0 490 9 695 45 1095 183
2017 879 3871 1954 5204 252 314 591 659 881 897 780 642 1632 997 2540 1058
120 8 533 -4 664 -19z"/>
<path d="M31865 34580 c-1441 -82 -2808 -855 -3881 -2195 -1153 -1440 -1885
-3403 -2073 -5560 -35 -395 -44 -635 -44 -1095 0 -460 9 -700 44 -1095 239
-2750 1366 -5168 3059 -6567 805 -665 1701 -1058 2665 -1169 256 -30 704 -30
960 0 345 40 623 100 950 208 1002 329 1929 1005 2701 1968 1153 1440 1885
3403 2073 5560 35 393 44 634 44 1090 1 453 -10 718 -44 1100 -190 2163 -920
4120 -2073 5560 -850 1061 -1875 1763 -3007 2060 -412 107 -943 160 -1374 135z
m684 -615 c826 -94 1615 -445 2336 -1039 290 -238 629 -583 881 -897 1076
-1335 1771 -3186 1954 -5204 36 -400 45 -605 45 -1095 0 -490 -9 -695 -45
-1095 -196 -2161 -981 -4131 -2178 -5467 -68 -76 -125 -138 -128 -138 -3 0 21
33 54 73 432 533 801 1205 1052 1917 498 1414 563 3055 179 4530 -560 2152
-1996 3754 -3739 4169 -337 81 -803 126 -1068 104 l-93 -8 88 -65 c166 -121
347 -314 446 -472 37 -59 46 -67 72 -68 59 0 331 -50 465 -84 525 -134 1016
-391 1480 -775 150 -123 458 -433 590 -590 905 -1089 1410 -2586 1410 -4181 0
-1375 -379 -2695 -1072 -3728 -111 -166 -359 -492 -374 -492 -1 0 34 57 78
128 210 335 375 687 506 1077 386 1152 386 2468 0 3620 -329 982 -924 1802
-1673 2305 -458 307 -1024 508 -1510 536 l-110 7 -80 -83 c-452 -465 -1113
-664 -1743 -524 l-114 25 -39 -27 c-208 -144 -540 -457 -727 -684 -373 -455
-653 -968 -850 -1555 -386 -1152 -386 -2468 0 -3620 163 -486 388 -930 678
-1335 l32 -45 -46 50 c-382 411 -733 957 -983 1530 -713 1628 -763 3610 -136
5295 196 526 442 989 760 1427 l74 102 -30 98 c-61 195 -100 472 -88 622 l5
66 -60 -65 c-523 -569 -978 -1349 -1268 -2170 -568 -1615 -568 -3505 0 -5120
91 -256 208 -536 316 -752 70 -141 59 -130 -43 42 -183 309 -318 568 -463 890
-471 1048 -769 2209 -880 3435 -36 400 -45 605 -45 1095 0 490 9 695 45 1095
183 2017 879 3871 1954 5204 252 314 591 659 881 897 780 642 1632 997 2540
1058 120 8 533 -4 664 -19z m-2286 -12426 c418 -85 754 -383 891 -791 95 -282
69 -633 -67 -903 -112 -224 -325 -432 -552 -539 -283 -135 -631 -150 -918 -42
-660 249 -963 1001 -657 1631 58 119 115 200 210 298 106 111 188 174 310 236
187 96 326 129 538 130 108 1 169 -4 245 -20z"/>
<path d="M24413 34394 c-56 -20 -132 -90 -165 -151 -15 -26 -40 -104 -56 -173
-26 -107 -31 -152 -36 -315 -7 -206 5 -402 30 -498 44 -172 163 -287 329 -318
219 -40 429 128 505 404 47 170 44 333 -10 549 -33 133 -57 186 -124 275 -139
184 -335 278 -473 227z"/>
<path d="M24130 32931 c-96 -22 -159 -55 -253 -131 -123 -99 -212 -225 -237
-335 -28 -124 49 -255 213 -367 87 -59 292 -155 348 -163 102 -14 208 43 261
141 60 112 75 289 44 536 -17 133 -37 187 -92 247 -73 82 -156 103 -284 72z"/>
<path d="M10320 32504 c-304 -59 -492 -186 -712 -481 -129 -173 -201 -295
-354 -599 -78 -155 -165 -320 -193 -369 -85 -144 -170 -321 -186 -388 -29
-123 -16 -224 46 -354 82 -171 304 -430 524 -610 152 -124 446 -280 720 -384
191 -72 658 -179 778 -179 161 1 333 82 459 218 184 199 345 633 423 1142 4
25 27 160 52 300 39 221 44 268 40 350 -8 155 -57 273 -184 441 -138 184 -391
432 -688 674 -138 113 -270 188 -390 220 -59 16 -284 29 -335 19z"/>
<path d="M39060 30442 c-117 -39 -161 -70 -295 -206 -115 -115 -140 -147 -209
-264 -43 -73 -85 -156 -93 -184 -29 -96 5 -208 101 -335 60 -80 167 -158 320
-235 129 -64 219 -92 336 -103 138 -12 257 47 332 165 36 57 96 240 114 350
18 114 18 294 -2 380 -23 103 -137 281 -223 349 -111 88 -265 122 -381 83z"/>
<path d="M40105 29837 c-94 -25 -140 -54 -258 -161 -102 -94 -121 -117 -151
-179 -53 -113 -69 -189 -64 -303 5 -115 23 -160 92 -229 49 -48 163 -108 251
-130 154 -39 305 4 420 119 148 149 188 346 118 571 -47 151 -116 250 -202
295 -52 26 -142 33 -206 17z"/>
<path d="M8949 29271 c-88 -28 -230 -135 -339 -254 -208 -227 -260 -351 -214
-508 23 -77 57 -130 123 -191 122 -113 247 -147 556 -149 160 -1 188 1 250 21
100 32 156 63 208 115 118 117 146 293 72 453 -15 31 -35 96 -45 144 -24 112
-59 178 -129 248 -73 74 -146 108 -263 126 -119 18 -150 17 -219 -5z"/>
<path d="M10420 29019 c-41 -5 -97 -16 -125 -24 -76 -22 -224 -97 -282 -144
-166 -131 -293 -390 -293 -596 0 -93 26 -263 50 -334 64 -180 226 -311 451
-363 188 -43 582 -23 817 42 193 54 326 171 381 337 26 77 28 220 6 308 -36
139 -150 329 -292 486 -121 134 -185 182 -324 239 -134 56 -227 67 -389 49z"/>
<path d="M39045 28986 c-103 -26 -180 -79 -217 -150 -17 -34 -19 -52 -14 -115
3 -42 10 -96 15 -121 5 -25 14 -70 20 -100 6 -30 20 -72 31 -95 32 -66 153
-217 205 -257 97 -74 214 -88 331 -41 125 49 218 172 280 373 46 145 44 214
-5 315 -47 95 -150 167 -279 194 -70 15 -304 13 -367 -3z"/>
<path d="M40004 21825 c-171 -37 -444 -138 -685 -253 -172 -82 -518 -268 -609
-327 -193 -124 -316 -289 -356 -475 -42 -195 22 -465 166 -707 328 -550 780
-888 1346 -1007 149 -31 348 -55 529 -62 166 -8 226 4 349 69 301 158 422 505
372 1067 -22 245 -37 341 -90 572 -25 106 -59 259 -76 340 -36 172 -53 225
-107 333 -91 179 -228 310 -395 376 -29 11 -76 31 -103 44 -28 13 -69 28 -91
34 -52 14 -174 13 -250 -4z"/>
<path d="M9745 20189 c-164 -25 -334 -112 -506 -258 -126 -108 -410 -410 -474
-504 -31 -45 -73 -106 -95 -135 -74 -102 -105 -247 -76 -360 32 -127 99 -221
230 -324 111 -88 151 -111 258 -147 189 -64 368 -93 693 -112 222 -13 267 -7
383 48 86 41 207 167 260 270 65 126 84 211 85 378 0 158 -14 228 -119 590
-68 232 -95 300 -149 374 -99 134 -301 209 -490 180z"/>
<path d="M37855 20082 c-88 -33 -131 -59 -229 -142 -149 -126 -368 -400 -442
-553 -40 -83 -50 -154 -34 -233 30 -146 132 -266 294 -344 160 -76 195 -84
386 -84 264 0 374 35 492 156 117 120 153 227 145 433 -6 162 -30 248 -130
464 -86 184 -133 243 -229 287 -81 37 -180 43 -253 16z"/>
<path d="M10788 19376 c-79 -21 -176 -107 -214 -191 -50 -109 -39 -237 29
-327 46 -62 104 -88 193 -88 133 0 213 41 258 132 22 44 26 65 26 143 0 107
-25 208 -63 259 -48 63 -147 94 -229 72z"/>
<path d="M39060 19075 c-70 -14 -203 -61 -272 -96 -106 -53 -263 -186 -390
-329 -246 -278 -299 -464 -195 -684 90 -190 301 -350 630 -480 87 -34 299 -83
397 -91 41 -3 117 -13 167 -21 112 -18 187 -8 279 37 71 34 164 127 211 210
104 184 164 625 118 856 -51 251 -221 422 -550 553 -144 57 -266 71 -395 45z"/>
<path d="M10653 18641 c-155 -40 -320 -143 -528 -332 -151 -137 -201 -191
-263 -287 -109 -169 -89 -398 46 -530 101 -99 224 -132 419 -114 175 17 308
67 463 173 130 88 224 200 292 345 70 150 41 331 -88 547 -57 95 -97 140 -151
170 -54 29 -137 41 -190 28z"/>
<path d="M21025 16425 c-140 -36 -439 -164 -584 -250 -144 -84 -407 -296 -738
-594 -338 -304 -414 -398 -472 -586 -49 -155 -36 -309 36 -449 66 -127 341
-378 565 -515 197 -120 584 -279 828 -341 188 -47 556 -76 669 -51 127 27 244
105 341 227 84 106 132 191 206 365 91 212 138 355 190 569 60 244 84 416 91
640 8 274 -18 395 -118 544 -62 94 -167 193 -299 282 -210 143 -327 184 -514
184 -83 -1 -133 -7 -201 -25z"/>
<path d="M22529 14927 c-36 -12 -91 -38 -123 -57 -107 -64 -247 -222 -346
-389 -90 -152 -181 -441 -183 -581 -2 -230 167 -406 470 -487 83 -22 118 -26
233 -26 233 1 444 36 568 96 197 95 291 336 214 547 -11 30 -45 123 -75 205
-30 83 -73 195 -95 250 -22 55 -53 135 -67 178 -48 137 -137 228 -262 267 -93
29 -245 27 -334 -3z"/>
<path d="M21348 13370 c-95 -20 -251 -88 -329 -145 -93 -66 -287 -234 -321
-277 -117 -147 -144 -258 -89 -366 33 -65 216 -231 306 -278 244 -127 456
-170 695 -140 241 30 340 78 453 218 102 127 144 259 133 415 -9 116 -37 193
-110 298 -102 147 -229 240 -382 279 -83 21 -245 20 -356 -4z"/>
</g>
</svg>
