<?xml version="1.0" standalone="no"?>
<!DOCTYPE svg PUBLIC "-//W3C//DTD SVG 20010904//EN"
 "http://www.w3.org/TR/2001/REC-SVG-20010904/DTD/svg10.dtd">
<svg version="1.0" xmlns="http://www.w3.org/2000/svg"
 width="5000.000000pt" height="5000.000000pt" viewBox="0 0 5000.000000 5000.000000"
 preserveAspectRatio="xMidYMid meet">

<g transform="translate(0.000000,5000.000000) scale(0.100000,-0.100000)"
fill="#000000" stroke="none">
<path d="M15090 48869 c-3450 -136 -6654 -1368 -9240 -3552 -398 -336 -897
-813 -1254 -1197 -2659 -2863 -3995 -6573 -3746 -10400 149 -2282 858 -4472
2081 -6430 70 -113 165 -261 211 -329 l84 -125 -84 -150 c-1552 -2789 -2270
-5981 -2066 -9191 188 -2980 1169 -5845 2849 -8325 632 -934 1278 -1714 2094
-2531 442 -441 763 -734 1211 -1105 1390 -1151 2988 -2099 4678 -2773 2467
-985 5167 -1404 7845 -1217 105 8 193 13 194 12 3 -3 -19 -93 -43 -172 -29
-96 -29 -116 -5 -170 56 -124 210 -164 631 -164 152 0 217 4 295 19 55 11 145
27 200 35 106 16 403 89 438 108 12 6 69 26 127 43 58 18 139 47 181 63 79 32
396 183 574 274 105 54 453 273 688 434 76 52 142 94 147 94 18 0 468 132 703
206 552 175 1056 361 1609 596 l238 101 227 -91 c852 -340 1741 -610 2617
-793 3093 -647 6283 -360 9206 828 1683 684 3245 1650 4655 2877 569 496 1266
1197 1761 1771 1504 1747 2669 3768 3446 5980 1260 3582 1440 7559 512 11268
-291 1165 -663 2227 -1161 3322 -182 399 -589 1198 -724 1418 -10 18 -19 38
-19 44 0 7 69 120 154 250 2071 3207 2469 7268 1060 10832 -1153 2916 -3442
5295 -6329 6579 -2222 988 -4718 1288 -7125 857 -2712 -485 -5194 -1888 -7000
-3958 l-173 -197 -80 87 c-153 167 -743 749 -927 915 -1570 1409 -3377 2453
-5375 3108 -1552 507 -3195 765 -4835 758 -184 0 -423 -5 -530 -9z m1330
-1349 c622 -37 1179 -102 1736 -201 2497 -443 4834 -1572 6704 -3238 379 -338
815 -773 1104 -1104 l58 -67 -114 -177 c-353 -546 -754 -1326 -999 -1944 l-74
-187 -100 -5 c-55 -3 -179 -1 -275 3 -357 17 -759 20 -1075 8 -176 -7 -367
-11 -425 -10 -120 4 -545 -14 -665 -28 -171 -20 -465 -61 -560 -79 -387 -73
-507 -98 -715 -150 -129 -32 -298 -73 -375 -90 -181 -41 -503 -152 -815 -281
-52 -22 -205 -82 -340 -135 -608 -238 -1004 -419 -1529 -699 -514 -275 -825
-464 -1162 -705 -57 -41 -189 -135 -294 -209 -179 -127 -329 -242 -524 -403
-47 -38 -88 -69 -91 -69 -9 0 -114 222 -144 305 -30 84 -65 210 -100 365 -57
246 -70 298 -103 395 -39 111 -114 258 -179 350 -109 154 -251 254 -441 312
-116 35 -317 39 -428 9 -222 -61 -412 -181 -649 -407 -212 -203 -372 -417
-493 -662 -282 -571 -408 -1051 -464 -1767 -23 -296 1 -607 71 -936 55 -259
159 -607 240 -806 19 -48 25 -71 17 -73 -7 -3 -162 -54 -345 -115 -1232 -409
-2376 -935 -3503 -1611 -1005 -602 -1922 -1287 -2829 -2113 -238 -217 -844
-826 -1071 -1076 -515 -569 -916 -1067 -1335 -1657 l-122 -173 -39 63 c-200
318 -515 915 -701 1327 -589 1308 -937 2632 -1061 4030 -37 422 -46 618 -46
1110 0 492 9 688 46 1110 283 3191 1795 6156 4259 8351 1869 1666 4208 2795
6704 3238 667 119 1266 181 2051 215 156 7 1023 -3 1195 -14z m20585 -535
c1093 -84 2136 -321 3135 -713 3663 -1436 6253 -4745 6734 -8602 62 -499 79
-785 79 -1335 -1 -427 -4 -516 -27 -800 -60 -745 -181 -1422 -377 -2108 -226
-792 -581 -1633 -986 -2334 l-105 -182 -106 152 c-347 501 -743 1011 -1156
1492 -496 575 -1191 1274 -1761 1771 -1942 1690 -4178 2885 -6590 3523 -375
99 -847 204 -1200 266 -82 14 -159 30 -170 34 -11 5 -29 31 -39 57 -46 117
-180 371 -245 466 -236 344 -576 648 -851 763 -138 58 -201 70 -350 69 -116
-1 -147 -4 -223 -27 -367 -112 -575 -396 -700 -957 l-32 -145 -345 -6 c-190
-3 -430 -9 -535 -14 l-190 -7 -105 76 c-276 200 -718 473 -1040 642 l-55 29
-52 145 c-406 1122 -909 2119 -1557 3085 -120 180 -345 499 -421 599 l-24 31
70 90 c39 49 148 177 242 284 1370 1565 3172 2707 5162 3271 1243 353 2533
483 3820 385z m-9968 -5397 c315 -468 583 -930 834 -1436 66 -134 119 -245
117 -247 -1 -1 -57 19 -123 47 -146 60 -517 199 -634 238 -48 16 -149 43 -226
60 -77 18 -255 61 -395 95 -140 35 -287 69 -327 76 -58 10 -70 15 -66 28 23
66 264 577 354 751 122 237 317 580 329 580 5 0 66 -87 137 -192z m-2702
-1388 c77 -6 250 -13 385 -15 134 -3 271 -9 305 -15 33 -5 105 -14 160 -20 55
-6 143 -20 195 -30 52 -10 142 -26 200 -35 118 -18 285 -49 375 -70 33 -7 130
-28 215 -45 148 -30 234 -53 400 -105 248 -77 316 -99 410 -130 208 -68 508
-182 650 -248 19 -9 172 -70 340 -136 168 -66 395 -162 505 -214 110 -52 229
-107 265 -123 126 -56 662 -338 865 -456 247 -143 343 -199 435 -256 304 -189
894 -603 1100 -772 41 -34 120 -98 175 -142 55 -45 92 -79 82 -75 -136 51
-580 97 -799 83 -112 -7 -309 -39 -388 -62 -246 -73 -463 -298 -541 -560 -82
-275 -48 -639 83 -904 44 -90 66 -119 148 -204 105 -108 211 -200 309 -266 64
-43 209 -115 217 -107 2 2 -40 91 -94 198 -54 107 -115 239 -136 294 -22 55
-55 136 -74 180 -86 199 -112 310 -112 478 0 192 40 304 146 417 74 78 127
105 249 127 87 16 156 13 370 -13 120 -15 297 -63 310 -84 3 -5 -7 -19 -22
-32 -16 -12 -48 -48 -73 -78 -79 -98 -133 -151 -234 -229 -54 -42 -109 -84
-121 -93 -22 -17 -23 -17 -83 65 -34 45 -76 109 -93 142 -44 82 -139 228 -145
222 -3 -3 4 -54 15 -113 10 -60 25 -140 32 -179 24 -143 204 -649 290 -817 77
-152 187 -320 361 -550 115 -151 366 -419 550 -586 l67 -61 -23 -53 c-13 -29
-52 -115 -86 -191 -65 -146 -143 -349 -155 -407 -4 -19 -23 -89 -42 -155 -19
-66 -44 -151 -55 -190 -11 -38 -25 -79 -31 -89 -26 -51 -76 -221 -82 -277 -3
-35 -10 -111 -16 -169 -8 -84 -7 -115 4 -157 16 -61 20 -62 -93 32 -339 284
-747 512 -1145 639 -305 97 -573 138 -900 138 -203 0 -332 -11 -515 -43 -851
-150 -1657 -690 -2266 -1519 -630 -856 -1034 -1959 -1158 -3160 -52 -502 -52
-1088 0 -1590 253 -2448 1657 -4367 3424 -4679 183 -32 312 -43 515 -43 346 0
633 47 951 156 410 140 752 337 1124 645 290 240 593 582 837 946 556 831 912
1861 1027 2975 52 502 52 1088 0 1590 -88 850 -319 1663 -674 2370 -32 63 -74
144 -94 179 -42 73 -36 70 82 -44 45 -44 95 -103 111 -131 32 -56 115 -135
171 -164 127 -65 307 -69 443 -11 131 56 226 141 519 465 241 266 294 345 355
521 50 145 80 382 69 538 -5 79 -68 323 -97 379 -7 14 -3 21 23 34 73 37 191
131 244 194 70 84 100 134 139 231 l31 77 17 -42 c8 -22 29 -75 45 -116 138
-355 443 -1158 474 -1250 57 -166 189 -580 243 -760 26 -85 89 -288 140 -450
52 -162 130 -419 175 -570 45 -151 112 -367 150 -480 37 -113 92 -279 120
-370 29 -91 145 -433 258 -760 112 -327 225 -658 249 -735 87 -272 277 -762
357 -922 25 -51 46 -97 46 -102 0 -24 222 -336 300 -421 48 -52 133 -165 190
-250 120 -180 239 -345 346 -480 41 -52 100 -133 131 -179 31 -46 76 -106 99
-134 24 -27 80 -102 126 -166 45 -64 160 -218 255 -343 338 -443 774 -1090
958 -1423 179 -323 282 -556 394 -893 88 -263 126 -418 141 -573 6 -57 12
-115 15 -129 15 -85 26 -358 27 -710 1 -407 -2 -439 -39 -624 -16 -75 -17 -77
-30 -52 -7 14 -26 60 -42 103 -64 171 -254 567 -354 735 -44 73 -79 117 -150
185 -67 63 -98 101 -111 133 -61 157 -163 221 -266 168 -88 -45 -108 -135 -71
-313 11 -49 31 -173 46 -274 23 -157 25 -194 16 -245 -6 -34 -16 -135 -21
-226 -6 -91 -15 -203 -20 -250 -22 -207 -90 -792 -100 -860 -19 -137 -60 -389
-65 -402 -3 -7 -18 -80 -34 -163 -16 -82 -45 -193 -64 -245 -84 -231 -266
-619 -330 -707 -19 -27 -53 -84 -75 -128 -22 -44 -47 -89 -56 -100 -14 -19
-15 -14 -16 60 0 181 -65 574 -140 854 -20 77 -21 93 -11 170 39 307 40 460 4
541 -21 47 -78 105 -120 121 -66 25 -167 5 -220 -44 l-23 -20 -26 24 -26 24
16 -39 c15 -35 15 -43 0 -84 -8 -25 -20 -93 -25 -151 -32 -319 -117 -782 -171
-931 -11 -30 -39 -125 -61 -210 -46 -170 -64 -207 -160 -326 -69 -86 -100
-112 -189 -163 -52 -29 -58 -30 -58 -14 0 51 -46 185 -87 258 -52 91 -88 140
-151 206 l-43 45 -5 195 c-6 218 -19 281 -69 335 -38 40 -92 56 -142 42 -80
-21 -135 -107 -156 -240 l-13 -83 -37 3 c-46 4 -47 -6 -6 -64 l30 -45 -11
-127 c-16 -178 -29 -838 -18 -952 4 -52 15 -115 22 -140 8 -25 24 -97 36 -160
41 -222 188 -832 286 -1190 122 -444 209 -707 406 -1230 74 -195 151 -407 170
-470 20 -63 71 -212 113 -330 121 -338 330 -956 396 -1170 211 -684 309 -1025
349 -1210 183 -856 213 -1618 110 -2740 -26 -278 -51 -454 -80 -559 -6 -20
-26 -108 -46 -196 -20 -88 -46 -196 -60 -240 -83 -280 -149 -485 -169 -524
-12 -25 -38 -80 -56 -121 -53 -117 -358 -678 -430 -790 -12 -19 -67 -109 -122
-200 -55 -91 -110 -176 -122 -190 -12 -14 -48 -63 -81 -110 -231 -334 -467
-602 -734 -835 -193 -168 -258 -219 -505 -397 -290 -208 -804 -497 -1129 -633
-194 -81 -309 -126 -313 -121 -2 1 6 32 16 67 49 160 135 540 170 749 66 399
86 651 85 1090 0 318 -3 405 -22 575 -46 411 -54 450 -238 1200 -51 209 -114
481 -139 605 -25 124 -57 268 -71 320 -33 124 -158 514 -196 610 -34 87 -119
234 -175 306 -22 27 -109 152 -194 279 -85 126 -177 254 -206 285 -53 58 -124
103 -181 115 -22 4 -46 23 -75 58 -68 81 -307 334 -408 432 -100 96 -341 309
-468 413 -88 72 -296 222 -307 222 -5 0 30 -39 77 -87 197 -202 463 -532 657
-816 120 -175 127 -187 140 -252 5 -27 24 -104 41 -170 52 -191 80 -338 101
-520 10 -93 18 -177 17 -185 -1 -8 2 -76 6 -150 6 -98 4 -175 -7 -280 -16
-157 -43 -348 -51 -361 -3 -4 -16 -61 -29 -126 -38 -185 -96 -368 -211 -663
-103 -264 -181 -408 -359 -660 -111 -158 -289 -363 -400 -463 l-76 -68 0 58
c0 100 -20 294 -41 396 -56 279 -221 590 -506 955 -243 312 -400 471 -543 550
-57 31 -106 47 -245 77 l-80 17 -105 103 c-124 121 -281 249 -402 330 -13 8
-14 23 -7 85 19 180 6 540 -19 540 -4 0 -22 -46 -41 -103 -102 -312 -248 -680
-373 -937 -39 -80 -79 -167 -90 -195 -18 -47 -98 -198 -208 -395 -26 -47 -87
-157 -136 -245 -228 -416 -367 -607 -636 -874 -192 -192 -408 -376 -567 -485
l-84 -57 6 53 c3 29 13 109 21 178 82 672 72 1116 -34 1519 -54 205 -102 268
-198 258 -50 -5 -87 -35 -109 -85 -12 -30 -12 -51 3 -170 l17 -137 -62 -195
c-109 -339 -194 -556 -335 -855 -62 -133 -93 -192 -270 -524 -88 -164 -268
-467 -331 -556 -23 -33 -84 -127 -136 -210 -51 -82 -137 -211 -190 -285 -53
-75 -113 -162 -134 -194 -82 -129 -227 -329 -340 -470 -66 -82 -139 -172 -161
-201 -46 -57 -283 -312 -464 -499 -114 -117 -228 -223 -435 -406 -59 -52 -138
-122 -174 -155 -68 -61 -240 -203 -321 -265 -25 -19 -92 -75 -150 -125 -165
-143 -255 -215 -390 -310 -69 -49 -187 -135 -263 -193 -76 -57 -195 -140 -265
-184 -69 -44 -174 -113 -232 -153 -181 -123 -465 -278 -711 -388 -253 -113
-648 -237 -834 -262 -27 -4 -63 -10 -80 -15 -16 -4 -74 -11 -128 -14 l-98 -6
66 89 c145 198 236 364 330 605 162 416 229 714 250 1121 16 310 -56 891 -146
1180 -78 250 -157 410 -361 736 -215 342 -375 559 -472 639 -103 84 -266 264
-429 473 -104 133 -165 205 -252 297 -50 52 -123 134 -163 180 -40 47 -106
123 -147 170 -42 47 -118 135 -170 196 -52 62 -114 125 -139 140 -32 21 -49
40 -60 69 -8 22 -30 76 -48 121 l-35 80 23 85 c13 46 33 121 46 166 12 45 19
85 16 89 -13 12 -50 -9 -97 -57 -53 -54 -61 -58 -62 -31 0 9 -5 1 -11 -18 -5
-19 -22 -48 -37 -65 -152 -167 -305 -469 -371 -733 -11 -42 -20 -90 -21 -107
0 -29 -1 -29 -15 10 -9 22 -38 128 -65 235 -59 228 -69 337 -50 537 31 328 89
631 172 902 25 83 25 166 -1 209 -11 17 -24 32 -30 32 -8 0 67 117 122 189 10
13 15 27 13 32 -6 9 -137 -66 -193 -111 -20 -16 -75 -58 -122 -92 -161 -119
-395 -364 -545 -572 -266 -368 -375 -559 -451 -789 -84 -259 -165 -590 -180
-739 l-5 -57 -27 12 c-34 15 -248 152 -284 182 -54 46 -242 253 -317 350 -95
123 -249 351 -286 425 -15 30 -44 82 -65 115 -20 33 -72 125 -115 205 -43 80
-107 193 -141 251 -77 129 -91 167 -155 401 -75 279 -131 558 -155 767 -8 75
-24 181 -36 236 -33 152 -33 152 48 445 13 47 24 96 24 109 0 40 217 353 405
585 66 81 129 160 139 175 36 47 158 184 245 274 47 48 82 87 77 87 -12 0
-222 -152 -313 -227 -215 -178 -456 -398 -613 -560 -336 -346 -480 -548 -655
-915 l-69 -146 -108 -57 c-167 -88 -300 -191 -391 -303 -324 -403 -392 -502
-527 -773 -102 -202 -181 -413 -275 -734 -144 -491 -192 -806 -216 -1417 -22
-564 -4 -791 92 -1188 88 -365 182 -621 299 -819 29 -51 30 -52 8 -46 -49 13
-403 196 -603 311 -263 151 -372 222 -645 423 -283 208 -564 468 -770 712 -90
107 -145 179 -344 450 -38 52 -109 162 -159 244 -49 83 -102 168 -117 190 -62
91 -382 679 -439 805 -18 41 -44 96 -56 121 -20 39 -86 244 -169 524 -14 44
-40 152 -60 240 -20 88 -40 176 -46 196 -29 105 -54 281 -80 559 -103 1122
-73 1884 110 2740 40 185 138 526 349 1210 66 214 275 832 396 1170 42 118 93
267 113 330 19 63 96 275 170 470 246 652 344 965 516 1655 82 329 148 617
176 765 12 63 28 135 36 160 7 25 18 88 22 140 11 114 -2 774 -18 952 l-11
127 30 45 c41 58 40 68 -6 64 l-37 -3 -13 83 c-21 133 -76 219 -155 240 -51
14 -105 -2 -143 -42 -50 -54 -63 -117 -69 -335 l-5 -195 -43 -45 c-63 -66 -99
-115 -151 -206 -41 -73 -87 -207 -87 -258 0 -16 -6 -15 -57 14 -90 51 -121 77
-190 163 -96 119 -114 156 -160 326 -22 85 -50 180 -61 210 -54 149 -139 612
-171 931 -5 58 -17 126 -25 151 -15 41 -15 49 0 84 l16 39 -26 -24 -26 -24
-22 20 c-40 36 -85 53 -142 53 -67 0 -93 -9 -142 -52 -93 -82 -105 -214 -53
-619 10 -77 9 -93 -11 -170 -75 -280 -140 -673 -140 -854 -1 -74 -2 -79 -16
-60 -9 11 -34 56 -56 100 -22 44 -56 101 -75 128 -64 88 -246 476 -330 707
-19 52 -48 163 -64 245 -16 83 -31 156 -34 163 -5 13 -46 265 -65 402 -10 68
-78 653 -100 860 -5 47 -14 159 -20 250 -5 91 -15 192 -21 226 -9 51 -7 88 16
245 15 101 35 225 46 274 37 178 17 268 -71 313 -103 53 -205 -11 -266 -168
-13 -32 -44 -70 -111 -133 -71 -68 -106 -112 -150 -185 -100 -168 -290 -564
-354 -735 -16 -43 -35 -89 -42 -103 -13 -25 -14 -23 -30 52 -37 185 -40 217
-39 624 1 352 12 625 27 710 3 14 9 72 15 129 15 155 53 310 141 573 112 337
215 570 394 893 184 333 620 980 958 1423 95 125 210 279 255 343 46 64 102
139 126 166 23 28 68 88 99 134 31 46 90 127 131 179 103 130 222 295 346 480
57 85 143 198 190 250 78 85 300 397 300 421 0 5 21 51 46 102 80 160 270 650
357 922 24 77 137 408 249 735 113 327 229 669 258 760 28 91 83 257 120 370
38 113 105 329 150 480 45 151 123 408 175 570 51 162 114 365 140 450 54 180
186 594 243 760 22 63 131 354 242 645 301 787 308 805 319 805 4 0 12 -21 19
-47 22 -84 99 -225 164 -301 97 -112 258 -218 403 -266 159 -52 363 -60 501
-21 103 29 283 115 369 177 61 43 230 206 223 214 -3 2 -49 -12 -104 -30 -123
-43 -215 -54 -369 -45 -150 8 -361 35 -440 54 -84 21 -191 76 -250 128 -108
96 -160 243 -153 425 3 56 8 105 12 109 3 4 35 -20 69 -54 122 -119 225 -171
440 -224 89 -22 293 23 569 125 238 88 402 165 613 286 415 240 650 425 975
769 212 224 469 581 589 819 86 168 266 674 290 817 7 39 22 119 32 179 11 59
18 110 15 113 -6 6 -101 -140 -145 -222 -17 -33 -59 -97 -93 -142 -60 -82 -61
-82 -83 -65 -12 9 -67 51 -121 93 -101 78 -155 131 -234 229 -25 30 -57 66
-73 78 -15 13 -25 27 -22 32 13 21 190 69 310 84 214 26 283 29 370 13 122
-22 175 -49 249 -127 106 -113 146 -225 146 -417 0 -168 -26 -279 -112 -478
-19 -44 -52 -125 -74 -180 -21 -55 -82 -187 -136 -294 -54 -107 -96 -196 -94
-198 8 -8 153 64 217 107 98 66 204 158 309 266 82 85 104 114 148 204 63 127
107 292 123 461 47 488 -196 892 -608 1011 -70 21 -100 23 -278 23 -223 0
-327 -15 -450 -65 -38 -15 -110 -42 -159 -61 -49 -18 -116 -50 -148 -71 -32
-21 -63 -38 -67 -38 -9 0 -141 143 -141 152 0 3 51 46 113 96 61 50 146 118
187 152 205 168 796 583 1100 772 92 57 188 113 435 256 203 118 739 400 865
456 36 16 155 71 265 123 110 52 337 148 505 214 168 66 321 127 340 136 142
66 442 180 650 248 94 31 162 53 410 130 166 52 252 75 400 105 85 17 182 38
215 45 90 21 257 52 375 70 58 9 148 25 200 35 52 10 140 24 195 30 55 6 129
15 165 20 36 5 182 12 325 16 143 3 307 9 365 14 161 11 858 11 1015 0z
m-9542 -1079 c41 -11 93 -29 115 -40 143 -73 258 -271 328 -565 127 -529 161
-634 288 -881 152 -295 335 -546 570 -778 159 -158 280 -260 434 -365 59 -40
118 -84 132 -97 42 -39 180 -124 221 -137 22 -6 39 -13 39 -16 0 -9 -72 -106
-120 -162 -26 -30 -81 -107 -122 -171 -98 -151 -238 -344 -361 -496 -102 -127
-421 -446 -544 -544 -272 -217 -707 -463 -1019 -578 -134 -49 -343 -110 -406
-118 -55 -7 -118 13 -180 55 -68 47 -224 208 -273 282 -24 38 -49 70 -54 72
-24 8 -198 273 -252 383 -117 239 -269 775 -308 1090 -50 396 -16 868 99 1370
54 233 158 515 298 806 100 208 240 399 416 567 214 204 380 306 541 332 75
11 76 11 158 -9z m18347 -13 c133 -42 278 -140 456 -310 176 -168 316 -359
416 -567 140 -291 244 -573 298 -806 115 -502 149 -974 99 -1370 -39 -315
-191 -851 -308 -1090 -54 -110 -228 -375 -252 -383 -5 -2 -30 -34 -54 -72 -49
-74 -205 -235 -273 -282 -62 -42 -125 -62 -180 -55 -63 8 -272 69 -406 118
-312 115 -747 361 -1019 578 -123 98 -442 417 -544 544 -123 152 -263 345
-361 496 -41 64 -96 141 -122 171 -48 56 -120 153 -120 162 0 3 17 10 39 16
41 13 179 98 221 137 14 13 73 57 132 97 154 105 275 207 434 365 235 232 418
483 570 778 127 247 161 352 288 881 70 294 185 492 328 565 22 11 72 29 111
39 83 22 148 19 247 -12z m1730 -2403 c203 -38 745 -177 1087 -279 3246 -967
6143 -3087 8209 -6006 275 -388 468 -685 458 -703 -20 -32 -135 -171 -298
-357 -1249 -1429 -2867 -2509 -4676 -3122 -429 -145 -1057 -308 -1475 -382
l-185 -32 -27 40 c-14 23 -95 136 -178 251 -83 116 -188 265 -233 332 -45 68
-121 176 -168 240 -48 65 -98 143 -112 173 -14 30 -41 80 -60 110 -57 89 -122
201 -122 209 0 4 -17 35 -39 68 -21 32 -53 104 -71 159 -18 54 -60 169 -92
254 -120 312 -163 434 -323 905 -90 264 -210 620 -268 790 -178 521 -332 998
-407 1255 -39 135 -111 371 -160 525 -49 154 -125 399 -170 545 -167 542 -326
995 -555 1580 -18 47 -82 209 -141 360 -148 380 -255 619 -424 942 l-61 117
51 102 c142 282 296 825 357 1254 14 101 18 191 18 408 -1 245 1 277 15 273 8
-3 31 -7 50 -11z m-956 -2682 c20 -127 -9 -305 -67 -402 -32 -53 -106 -127
-155 -152 -22 -12 -26 -12 -30 1 -3 8 -42 88 -87 177 l-82 161 31 6 c83 16
238 110 321 195 27 28 52 51 56 51 3 0 9 -17 13 -37z m-21434 -1196 c-145
-383 -251 -695 -390 -1147 -45 -146 -121 -391 -170 -545 -49 -154 -121 -390
-160 -525 -75 -257 -229 -734 -407 -1255 -58 -170 -178 -526 -268 -790 -160
-471 -203 -593 -323 -905 -32 -85 -74 -200 -92 -254 -18 -55 -50 -127 -71
-159 -22 -33 -39 -64 -39 -68 0 -8 -65 -120 -122 -209 -19 -30 -46 -80 -60
-110 -14 -30 -63 -107 -109 -170 -47 -63 -136 -190 -199 -283 -214 -313 -238
-346 -287 -409 -27 -35 -93 -128 -145 -208 -52 -80 -118 -174 -145 -210 -58
-76 -123 -177 -118 -182 2 -2 -36 -55 -86 -118 -133 -171 -250 -326 -310 -411
-30 -42 -89 -121 -131 -177 -138 -179 -407 -592 -537 -824 -18 -32 -36 -58
-40 -58 -12 0 -499 324 -662 440 -937 671 -1772 1442 -2489 2300 -151 180
-282 347 -281 357 4 29 352 537 574 838 755 1023 1656 1976 2642 2795 1299
1079 2742 1937 4330 2576 127 51 231 89 233 85 1 -3 -61 -172 -138 -374z
m16810 348 c849 -105 1622 -639 2215 -1530 554 -833 883 -1878 955 -3030 21
-338 11 -818 -25 -1170 -141 -1382 -693 -2634 -1510 -3423 -573 -554 -1230
-842 -1920 -842 -1193 0 -2286 874 -2938 2350 -245 556 -422 1245 -491 1910
-30 283 -39 519 -33 870 7 467 42 808 123 1225 391 2002 1605 3455 3040 3639
150 19 431 19 584 1z m16250 -5060 c234 -472 385 -808 562 -1250 987 -2460
1419 -5130 1268 -7830 -158 -2823 -964 -5551 -2347 -7947 -926 -1606 -2099
-3038 -3463 -4229 -1770 -1545 -3828 -2650 -6023 -3233 -2430 -647 -4993 -646
-7426 0 -196 52 -663 190 -725 213 -28 11 -22 16 235 170 905 542 1767 1170
2547 1855 72 64 132 113 132 109 0 -5 -12 -109 -26 -233 -36 -313 -37 -329
-25 -371 25 -82 103 -139 191 -139 49 0 120 27 135 50 3 5 14 10 23 10 10 0
33 8 52 19 114 61 154 84 240 136 52 32 127 81 165 109 229 170 316 239 403
319 53 49 142 128 197 176 346 297 634 651 824 1011 191 362 385 903 436 1218
4 24 9 42 11 39 2 -2 18 -93 34 -203 17 -109 33 -206 35 -214 21 -71 66 -522
85 -845 5 -99 12 -211 15 -250 9 -122 6 -681 -5 -925 -26 -596 -74 -911 -197
-1318 -36 -119 -80 -269 -99 -333 -18 -63 -63 -195 -99 -293 -70 -189 -78
-241 -49 -299 57 -112 186 -144 295 -73 24 16 40 21 51 15 9 -5 129 0 289 11
233 16 309 26 509 65 129 25 242 48 250 51 8 3 94 28 190 54 456 126 932 335
1351 593 142 87 271 179 549 394 94 72 390 366 502 498 102 121 270 340 355
461 101 146 306 464 348 539 21 39 60 106 86 150 76 128 215 389 270 508 110
236 156 359 234 622 29 99 62 205 73 235 19 52 84 317 123 500 80 376 151
1470 129 1997 -27 653 -85 1084 -216 1598 -35 136 -245 839 -351 1170 -128
402 -402 1186 -506 1450 -20 50 -65 173 -101 275 -35 102 -101 289 -146 415
-154 434 -251 748 -350 1130 -28 110 -80 308 -115 440 -35 132 -73 290 -85
350 -12 61 -32 154 -46 207 -13 53 -24 101 -24 107 0 7 24 11 61 11 84 0 181
35 356 128 247 130 392 277 519 527 36 72 69 132 71 135 14 13 -10 -308 -31
-422 -31 -169 -24 -209 56 -297 37 -40 39 -41 106 -41 51 0 78 5 109 23 203
111 613 519 793 787 163 243 331 640 395 933 24 108 83 470 100 607 35 292 58
720 68 1260 l2 125 49 -220 c26 -121 58 -260 71 -310 12 -49 26 -110 30 -135
15 -91 44 -165 77 -197 97 -94 256 -81 317 26 14 25 50 69 78 97 147 145 264
392 333 704 81 363 95 497 80 767 -30 556 -146 996 -412 1568 -159 343 -333
640 -599 1026 l-87 128 31 6 c314 66 785 198 1187 333 1857 623 3517 1676
4891 3103 114 118 247 260 295 316 81 93 90 101 102 85 8 -9 89 -170 182 -357z
m-41259 -2645 c449 -517 1040 -1100 1569 -1547 545 -461 1129 -887 1725 -1260
88 -55 171 -106 183 -112 17 -9 22 -19 18 -34 -53 -215 -93 -691 -76 -914 13
-162 69 -449 131 -662 52 -178 176 -401 282 -505 28 -28 64 -72 78 -97 61
-107 220 -120 317 -26 33 32 62 106 77 197 4 25 18 86 30 135 13 50 45 189 71
310 l49 220 2 -125 c10 -540 33 -968 68 -1260 17 -137 76 -499 100 -607 64
-293 232 -690 395 -933 180 -268 590 -676 793 -787 31 -18 58 -23 109 -23 67
0 69 1 106 41 80 88 87 128 56 297 -21 114 -45 435 -31 422 2 -3 35 -63 71
-135 82 -161 153 -254 277 -365 77 -68 125 -100 242 -162 175 -93 272 -128
356 -128 37 0 61 -4 61 -11 0 -6 -11 -54 -24 -107 -14 -53 -34 -146 -46 -207
-12 -60 -50 -218 -85 -350 -35 -132 -87 -330 -115 -440 -99 -382 -196 -696
-350 -1130 -45 -126 -111 -313 -146 -415 -36 -102 -81 -225 -101 -275 -104
-264 -378 -1048 -506 -1450 -106 -331 -316 -1034 -351 -1170 -131 -514 -189
-945 -216 -1598 -22 -527 49 -1621 129 -1997 39 -183 104 -448 123 -500 11
-30 44 -136 73 -235 78 -263 124 -386 234 -622 55 -119 194 -380 270 -508 26
-44 65 -111 86 -150 42 -75 247 -393 348 -539 85 -121 253 -340 355 -461 112
-132 408 -426 502 -498 278 -215 407 -307 549 -394 419 -258 895 -467 1351
-593 96 -26 182 -51 190 -54 8 -3 121 -26 250 -51 200 -39 276 -49 509 -65
160 -11 280 -16 289 -11 11 6 27 1 51 -15 109 -71 238 -39 295 73 29 58 21
110 -49 299 -36 98 -81 230 -99 293 -19 64 -63 214 -99 333 -123 407 -171 722
-197 1318 -11 244 -14 803 -5 925 3 39 10 151 15 250 19 323 64 774 85 845 2
8 18 105 35 214 16 110 32 201 34 203 2 3 7 -15 11 -39 51 -315 245 -856 436
-1218 190 -360 478 -714 824 -1011 55 -48 144 -127 197 -176 87 -80 174 -149
403 -319 39 -28 113 -77 165 -109 86 -52 126 -75 240 -136 19 -11 42 -19 52
-19 9 0 20 -5 23 -10 15 -23 86 -50 135 -50 125 0 209 98 197 231 -9 100 -56
503 -68 584 -16 101 -16 505 -1 605 17 118 47 250 102 450 28 102 62 228 77
280 14 52 56 167 95 255 38 88 92 215 121 282 28 67 53 121 54 119 2 -2 -8
-81 -21 -177 -41 -287 -46 -368 -31 -525 22 -232 79 -447 187 -705 53 -127
115 -235 197 -343 32 -43 61 -90 64 -105 15 -72 102 -141 177 -141 43 0 107
29 137 61 51 56 56 87 64 369 5 146 12 282 16 304 l8 38 39 -88 c22 -49 64
-136 94 -194 30 -58 84 -160 119 -228 112 -216 236 -424 324 -542 79 -107 297
-419 482 -690 201 -295 363 -614 453 -890 38 -119 82 -307 94 -405 41 -342 72
-845 53 -845 -5 0 -103 -9 -219 -20 -971 -89 -1935 -92 -2924 -9 -3205 268
-6257 1473 -8760 3458 -1104 876 -2104 1910 -2927 3026 -1146 1555 -1981 3271
-2486 5110 -796 2893 -720 6005 215 8855 234 713 483 1323 819 2009 127 259
151 303 163 290 7 -8 78 -88 157 -179z m25258 -17055 c219 -272 392 -532 464
-697 l55 -127 -201 -193 c-1112 -1062 -2233 -1882 -3547 -2595 -202 -110 -523
-273 -528 -268 -2 1 34 57 80 123 237 345 662 1021 743 1182 146 292 266 605
335 875 48 187 51 151 14 -145 -26 -209 -29 -268 -25 -514 l3 -138 34 -37 c33
-38 87 -61 138 -61 37 0 244 79 362 138 55 27 149 85 209 128 61 44 135 96
165 117 144 97 536 465 652 610 78 98 218 305 326 482 55 89 300 548 329 615
85 199 150 408 204 654 l13 59 39 -44 c22 -24 83 -98 136 -164z"/>
<path d="M21560 34470 c-72 -7 -306 -69 -400 -106 -117 -46 -240 -159 -290
-266 -77 -167 -54 -331 86 -609 25 -50 59 -130 76 -178 79 -224 248 -478 515
-773 97 -107 157 -158 313 -268 169 -119 284 -154 447 -133 97 12 344 78 438
117 183 74 367 160 445 206 30 18 141 80 245 137 210 115 266 154 365 252 69
69 100 123 125 218 25 95 17 192 -35 433 -16 74 -36 183 -44 242 -26 182 -73
276 -192 388 -122 114 -271 187 -458 221 -33 6 -88 20 -121 31 -60 20 -157 30
-440 48 -88 5 -191 14 -230 20 -64 9 -637 31 -730 28 -22 0 -74 -4 -115 -8z"/>
<path d="M24659 34187 c-53 -20 -99 -51 -141 -94 -32 -33 -198 -325 -305 -537
-19 -39 -48 -86 -63 -105 -51 -66 -61 -132 -36 -228 34 -126 118 -234 225
-287 108 -55 249 -89 364 -89 89 1 104 4 162 32 114 56 169 159 239 441 53
212 68 316 64 433 -4 105 -6 116 -40 182 -76 149 -222 253 -366 262 -41 2 -81
-2 -103 -10z"/>
<path d="M18085 33703 c-538 -22 -1053 -186 -1537 -489 -475 -297 -911 -731
-1265 -1259 -556 -831 -912 -1861 -1027 -2975 -52 -502 -52 -1088 0 -1590 253
-2448 1657 -4367 3424 -4679 183 -32 312 -43 515 -43 346 0 633 47 951 156
410 140 752 337 1124 645 290 240 593 582 837 946 556 831 912 1861 1027 2975
52 502 52 1088 0 1590 -170 1644 -864 3090 -1894 3946 -526 437 -1144 706
-1750 763 -126 12 -309 18 -405 14z m395 -528 c849 -105 1622 -639 2215 -1530
554 -833 883 -1878 955 -3030 21 -338 11 -818 -25 -1170 -141 -1382 -693
-2634 -1510 -3423 -573 -554 -1230 -842 -1920 -842 -1193 0 -2286 874 -2938
2350 -245 556 -422 1245 -491 1910 -30 283 -39 519 -33 870 7 467 42 808 123
1225 391 2002 1605 3455 3040 3639 150 19 431 19 584 1z"/>
<path d="M17974 30205 c-237 -30 -498 -103 -679 -189 l-90 -43 60 -12 c100
-21 225 -60 323 -103 l93 -41 87 21 c132 32 203 43 339 51 792 52 1540 -386
2032 -1188 657 -1072 656 -2598 -1 -3674 -131 -213 -302 -430 -436 -553 l-55
-51 18 -64 c20 -70 25 -213 12 -293 l-9 -48 44 31 c73 52 262 233 359 342 813
917 1098 2343 723 3617 -348 1183 -1215 2032 -2234 2187 -150 22 -448 28 -586
10z"/>
<path d="M15643 27928 c-46 -168 -89 -391 -114 -588 -31 -255 -31 -690 0 -945
85 -684 320 -1298 684 -1787 130 -175 237 -292 442 -482 17 -15 82 -67 145
-115 582 -441 1269 -597 1943 -440 51 12 96 24 101 27 5 3 -13 15 -40 27 -75
34 -169 108 -221 175 -42 55 -49 60 -77 56 -93 -14 -142 -17 -284 -17 -439 0
-848 143 -1224 427 -768 582 -1213 1634 -1167 2761 7 168 37 431 64 553 7 35
10 69 7 75 -4 6 -29 42 -56 79 -27 37 -77 122 -111 187 l-61 119 -31 -112z"/>
<path d="M18193 27784 c-243 -373 -648 -610 -1097 -642 l-99 -7 -54 -100
c-164 -308 -243 -636 -243 -1010 0 -208 19 -372 65 -549 125 -488 395 -876
770 -1106 249 -153 554 -218 830 -177 l80 12 7 60 c30 234 189 428 418 509 75
26 98 30 195 30 77 0 128 -5 169 -18 32 -9 59 -16 60 -14 165 225 287 497 347
770 47 217 63 521 38 733 -28 239 -108 514 -205 707 -250 497 -697 836 -1152
874 l-77 6 -52 -78z"/>
<path d="M33986 31394 c-121 -29 -166 -62 -387 -285 -217 -218 -344 -376 -380
-469 -37 -99 -21 -205 48 -306 82 -119 319 -326 478 -418 61 -34 128 -75 149
-89 117 -80 299 -73 432 17 82 55 139 120 231 260 47 72 93 135 102 140 9 5
39 33 68 62 141 143 172 358 79 543 -39 75 -142 225 -199 287 -206 227 -407
310 -621 258z"/>
<path d="M34480 27080 c-81 -10 -153 -37 -251 -94 -93 -55 -134 -95 -270 -261
-59 -71 -179 -215 -268 -320 -88 -104 -175 -216 -193 -248 -18 -32 -51 -86
-72 -120 -55 -87 -77 -158 -77 -247 -1 -87 12 -142 51 -220 15 -30 30 -68 34
-84 11 -44 86 -216 114 -260 42 -67 111 -133 291 -280 318 -259 439 -350 573
-436 154 -98 222 -128 315 -139 236 -29 421 77 674 385 57 70 122 148 143 173
22 25 60 78 85 116 25 39 74 108 110 155 35 46 83 114 106 150 23 36 67 86 97
112 197 168 227 436 75 665 -130 196 -589 570 -937 765 -302 169 -426 208
-600 188z"/>
<path d="M11760 25675 c-77 -22 -201 -75 -244 -104 -65 -45 -164 -156 -261
-292 -351 -491 -515 -739 -753 -1129 -197 -325 -295 -499 -318 -562 -26 -75
-35 -163 -24 -235 23 -148 138 -436 261 -655 91 -162 610 -932 672 -996 134
-140 335 -176 516 -91 89 41 198 153 286 294 37 61 110 174 162 252 93 142
173 279 423 728 132 234 204 342 337 497 84 99 108 138 133 218 25 76 29 226
9 305 -44 178 -309 835 -445 1106 -24 48 -73 153 -108 233 -70 158 -120 238
-191 308 -114 113 -308 165 -455 123z"/>
<path d="M35710 24595 c-81 -23 -155 -72 -219 -143 -31 -35 -106 -114 -167
-175 -118 -120 -283 -341 -332 -444 -23 -50 -27 -70 -27 -153 0 -83 4 -103 28
-154 81 -174 244 -293 562 -411 208 -78 346 -53 521 94 88 73 151 166 263 386
115 226 144 315 145 435 1 87 -2 101 -31 163 -18 38 -44 82 -58 99 -40 47
-165 145 -230 180 -33 17 -77 44 -99 60 -92 66 -246 93 -356 63z"/>
<path d="M14085 23452 c-109 -33 -209 -75 -310 -131 -119 -66 -129 -74 -222
-174 -88 -93 -152 -219 -206 -402 -57 -194 -80 -341 -72 -465 8 -139 42 -252
90 -302 20 -21 40 -38 44 -38 17 0 31 26 31 58 0 62 94 241 200 382 31 41 63
86 70 100 7 14 28 42 47 63 l34 38 28 -63 c15 -35 34 -81 41 -103 7 -22 34
-87 60 -145 26 -58 78 -197 114 -310 37 -113 91 -270 120 -350 30 -80 57 -165
61 -190 3 -25 13 -65 21 -90 43 -137 145 -667 168 -881 8 -74 20 -208 26 -299
10 -160 15 -248 42 -740 18 -324 16 -1001 -5 -1435 -14 -296 -16 -528 -13
-1300 4 -956 6 -1021 46 -1310 11 -77 28 -205 39 -285 31 -219 96 -589 131
-735 29 -126 134 -434 171 -505 10 -19 34 -69 52 -110 64 -142 463 -837 511
-890 13 -14 56 -72 97 -130 70 -100 106 -143 308 -373 101 -116 472 -461 761
-709 69 -58 174 -148 234 -200 388 -334 594 -477 1070 -743 375 -209 640 -334
1261 -593 315 -132 387 -157 615 -216 209 -54 568 -131 700 -151 111 -16 262
-36 335 -45 44 -5 123 -14 175 -20 363 -42 808 -60 1550 -60 423 0 779 10
1085 30 83 5 290 19 460 30 326 21 513 42 605 65 76 20 393 72 520 85 58 6
173 22 255 36 83 14 177 29 210 35 33 5 112 23 175 39 63 16 194 47 290 70
224 52 472 120 625 170 66 22 127 40 137 40 19 0 232 67 328 103 102 39 323
138 340 153 21 18 123 63 185 81 28 8 73 32 100 52 28 21 91 67 140 102 280
198 778 634 995 870 57 63 150 161 205 219 112 116 308 354 427 519 118 162
336 500 425 656 44 77 108 190 143 250 112 193 173 325 277 600 154 407 297
923 373 1345 36 200 63 339 95 485 14 61 41 207 60 325 20 118 42 242 50 275
7 33 25 128 40 210 49 283 116 630 155 800 21 94 48 220 60 280 69 364 228
1104 260 1215 10 36 46 171 79 300 116 455 283 956 436 1310 76 176 344 722
424 863 32 56 79 140 106 187 26 47 57 101 70 120 12 19 41 67 66 105 24 39
75 113 113 165 39 52 120 165 181 250 61 85 142 196 180 247 l69 92 26 -62
c29 -68 76 -236 90 -324 10 -58 24 -83 45 -83 7 0 38 25 67 56 52 52 57 62 96
187 39 123 42 141 44 262 3 163 -13 312 -46 438 -41 155 -97 248 -219 363 -89
85 -168 131 -297 175 -79 26 -106 31 -160 27 -156 -11 -266 -116 -278 -264 -7
-92 18 -155 88 -226 32 -31 69 -60 84 -64 14 -3 26 -9 26 -13 0 -4 -24 -19
-52 -34 -29 -15 -111 -58 -183 -97 -230 -123 -707 -358 -793 -389 -46 -17
-102 -42 -125 -55 -23 -13 -78 -37 -122 -54 -44 -17 -150 -58 -235 -91 -85
-33 -220 -86 -300 -117 -80 -31 -183 -70 -230 -86 -127 -45 -319 -125 -367
-153 -23 -14 -86 -42 -140 -64 -107 -42 -322 -138 -338 -151 -12 -10 -161 -71
-260 -107 -38 -14 -117 -46 -175 -70 -95 -40 -323 -115 -550 -179 -146 -42
-347 -83 -555 -113 -527 -79 -737 -107 -920 -125 -328 -33 -466 -44 -1185 -91
-129 -9 -296 -20 -370 -26 -433 -32 -1499 -18 -2355 32 -99 5 -466 12 -815 14
-349 1 -718 8 -820 14 -102 6 -295 16 -430 21 -347 14 -556 28 -695 45 -191
24 -313 34 -580 50 -990 58 -1458 105 -2004 201 -629 110 -1352 291 -1671 417
-36 14 -110 42 -165 63 -106 39 -332 135 -430 183 -33 16 -158 77 -277 135
-120 58 -275 142 -345 187 -70 45 -164 105 -207 133 -44 28 -114 74 -155 103
-42 29 -114 78 -161 110 -47 32 -125 92 -175 133 -49 42 -117 96 -151 120 -78
58 -169 140 -155 140 23 0 105 87 127 135 27 56 31 146 11 202 -54 146 -214
215 -382 165z m2666 -2295 c167 -53 632 -168 889 -222 612 -127 813 -163 1085
-195 98 -11 181 -22 183 -24 2 -2 -17 -51 -42 -108 -101 -234 -201 -650 -227
-948 -22 -245 4 -737 50 -965 51 -253 122 -507 215 -772 31 -88 73 -173 86
-173 14 0 14 17 15 690 l0 595 27 175 c102 648 159 919 247 1174 107 308 102
298 136 292 17 -3 122 -10 235 -16 113 -6 268 -15 345 -20 77 -5 153 -10 168
-10 l29 0 -43 -77 c-107 -197 -131 -246 -180 -363 -28 -69 -65 -165 -81 -215
-16 -49 -42 -124 -58 -165 -25 -67 -98 -309 -180 -595 -62 -214 -80 -451 -80
-1009 0 -453 1 -472 46 -811 14 -110 29 -228 31 -262 5 -57 3 -63 -13 -63 -32
-1 -324 30 -429 45 -55 8 -147 19 -205 25 -107 11 -455 70 -565 95 -33 8 -98
21 -145 30 -114 22 -199 47 -360 108 -127 48 -139 55 -195 113 -33 34 -80 92
-104 130 -23 38 -91 141 -149 229 -231 350 -334 550 -422 820 -53 163 -205
734 -312 1175 -32 135 -66 268 -73 295 -8 28 -24 109 -35 180 -50 317 -62 435
-67 664 -6 226 -5 234 13 229 11 -3 85 -26 165 -51z m13178 -187 c-5 -30 -13
-102 -18 -160 -6 -58 -17 -157 -26 -220 -8 -63 -22 -167 -31 -230 -19 -142
-108 -517 -184 -775 -16 -55 -34 -120 -40 -145 -14 -68 -58 -181 -165 -430
-54 -124 -112 -259 -130 -300 -48 -112 -250 -472 -350 -625 -62 -96 -168 -212
-230 -253 -24 -16 -71 -34 -103 -41 -32 -6 -128 -29 -213 -51 -501 -129 -744
-181 -1054 -224 -328 -45 -623 -57 -880 -36 -112 10 -256 28 -262 33 -1 1 20
80 47 174 47 164 75 294 223 1028 128 631 162 844 177 1090 18 289 9 451 -31
563 -6 18 -9 35 -7 37 2 3 101 11 219 20 118 8 243 17 278 20 l63 6 -7 -48
c-3 -26 -18 -106 -31 -178 -59 -315 -106 -695 -119 -960 -7 -132 -41 -384 -76
-555 -25 -120 -222 -864 -246 -927 -11 -29 25 -10 57 30 136 165 313 478 432
762 75 178 157 443 187 605 17 91 36 188 41 215 5 28 16 104 25 170 21 167 81
540 116 722 16 84 29 161 29 172 0 28 7 30 127 46 861 116 1119 160 1369 232
l100 29 -7 -50 c-4 -28 -19 -103 -33 -166 -14 -63 -30 -146 -36 -185 -6 -38
-25 -135 -41 -215 -16 -80 -39 -194 -50 -255 -11 -60 -31 -162 -44 -225 -13
-63 -31 -158 -39 -210 -17 -104 -62 -305 -101 -445 -47 -170 -29 -177 71 -27
107 160 175 283 232 417 28 66 69 165 92 219 100 238 244 706 290 943 10 54
26 130 35 168 9 39 15 89 12 112 l-4 42 46 17 c25 9 96 38 156 64 104 45 138
59 141 56 1 0 -2 -26 -7 -56z m-10169 -5355 c453 -56 965 -129 1055 -151 33
-7 146 -32 250 -54 203 -44 237 -54 555 -162 297 -101 767 -312 1035 -463 61
-34 117 -64 125 -67 24 -9 185 -129 185 -137 0 -4 -34 -36 -75 -71 -112 -95
-215 -197 -389 -385 -298 -323 -486 -575 -648 -865 -202 -364 -387 -905 -359
-1051 19 -102 119 -129 184 -50 20 25 68 122 82 166 7 22 30 76 50 120 20 44
65 145 100 225 34 80 66 150 71 156 5 6 33 60 62 120 110 223 248 435 427 658
268 334 637 691 919 887 290 202 656 381 999 488 300 94 907 226 1242 271 324
43 367 48 450 54 598 40 588 40 947 28 609 -21 1475 -112 1978 -208 271 -52
692 -153 832 -200 62 -20 332 -122 340 -128 7 -5 -74 -296 -120 -431 -89 -260
-278 -724 -312 -765 -7 -8 -56 -94 -110 -190 -116 -208 -181 -317 -251 -423
l-52 -77 -6 62 c-23 220 -63 400 -107 476 -59 104 -155 135 -285 92 -38 -13
-163 -61 -279 -107 -115 -47 -275 -109 -355 -138 -80 -30 -188 -70 -240 -90
-52 -20 -196 -69 -320 -110 -505 -166 -809 -291 -862 -353 -37 -44 -45 -72
-77 -257 -17 -93 -55 -306 -85 -473 -30 -167 -78 -453 -106 -635 -28 -183 -69
-433 -92 -557 -22 -124 -42 -241 -45 -262 -5 -33 -9 -37 -52 -48 -25 -7 -77
-20 -116 -31 -38 -10 -140 -35 -225 -55 -85 -19 -184 -44 -220 -54 -36 -11
-144 -35 -240 -53 -257 -51 -233 -49 -225 -20 11 46 54 337 69 473 27 238 39
506 33 745 -15 579 -108 851 -306 896 -32 7 -391 -17 -601 -41 -312 -36 -809
-125 -1120 -201 -279 -69 -510 -181 -609 -296 -44 -52 -53 -74 -150 -410 -63
-217 -96 -369 -165 -758 -30 -170 -73 -391 -96 -489 -22 -99 -40 -188 -40
-199 0 -18 -10 -18 -277 -13 -304 7 -401 15 -663 52 -866 124 -1438 263 -2005
486 -124 49 -509 217 -760 331 -161 73 -504 252 -768 402 -112 64 -118 69
-112 93 4 15 8 114 11 222 6 274 23 500 57 765 8 61 20 164 27 230 14 143 51
353 119 680 27 132 57 294 66 360 18 130 106 697 130 835 8 47 15 108 15 135
-1 89 -54 170 -135 205 -77 34 -306 41 -595 20 -253 -18 -411 -30 -560 -40
-283 -20 -558 -51 -760 -85 -551 -93 -893 -156 -919 -169 -15 -8 -41 -28 -58
-44 l-31 -28 -6 25 c-18 87 -75 361 -80 389 -3 20 -1 32 5 32 6 0 72 27 146
61 475 212 1119 407 1638 493 389 65 979 124 1615 161 146 8 290 17 320 19
141 10 810 -4 930 -19z m-1995 -1312 c-69 -496 -119 -839 -135 -923 -11 -58
-28 -166 -39 -240 -11 -74 -29 -196 -41 -270 -54 -362 -63 -506 -53 -825 5
-126 6 -288 3 -358 l-5 -128 -86 71 -87 72 -6 76 c-19 224 -26 375 -26 537 0
297 -30 889 -51 1020 -17 107 -53 275 -60 275 -17 0 -88 -271 -144 -555 -78
-390 -96 -544 -96 -812 0 -112 -2 -203 -5 -203 -8 0 -153 121 -238 200 -333
306 -411 381 -488 467 -303 343 -365 427 -564 774 -201 349 -246 431 -279 511
l-33 78 36 -6 c44 -6 240 22 527 76 324 61 612 100 915 125 41 3 116 11 166
16 50 6 242 21 425 34 184 12 342 23 352 24 14 1 16 -5 12 -36z m11174 -1245
c19 -140 31 -333 31 -493 l0 -152 -51 -64 c-146 -183 -506 -556 -728 -754
-195 -174 -499 -425 -514 -425 -4 0 -7 25 -7 56 0 30 -4 97 -10 147 -5 51 -17
164 -26 252 -15 157 -46 351 -64 410 -5 17 -14 49 -20 73 -6 23 -15 42 -20 42
-34 0 -92 -217 -140 -520 -17 -107 -35 -220 -40 -250 -9 -51 -22 -202 -36
-401 l-5 -85 -82 -51 c-98 -61 -153 -89 -272 -140 l-91 -39 28 134 c15 74 50
283 78 465 28 183 84 521 126 752 41 231 77 434 81 452 5 31 10 34 161 94 85
34 300 110 476 169 177 59 350 119 386 132 36 14 139 53 230 87 188 71 304
117 405 160 39 17 75 31 81 31 7 0 16 -33 23 -82z m-3860 -1065 c38 -170 46
-269 46 -588 0 -378 -16 -570 -81 -965 -37 -228 -38 -230 -79 -230 -19 0 -78
-7 -132 -15 -289 -43 -578 -79 -762 -95 -131 -11 -250 -25 -396 -45 -55 -8
-128 -16 -162 -19 -70 -5 -70 -5 -53 69 20 89 69 460 90 679 5 60 10 236 10
390 -1 247 -2 278 -15 256 -22 -40 -69 -179 -135 -405 -34 -115 -107 -352
-161 -525 -55 -173 -109 -351 -120 -396 -11 -44 -24 -85 -27 -91 -4 -6 -74
-14 -171 -18 -156 -7 -163 -7 -157 11 22 72 90 379 116 524 63 358 102 549
140 695 69 264 117 416 137 431 34 27 158 83 251 114 252 84 923 207 1337 245
349 32 311 35 324 -22z"/>
<path d="M12457 21999 c-32 -5 -81 -20 -110 -34 -57 -29 -152 -116 -198 -182
-46 -66 -159 -387 -218 -618 -17 -66 -56 -196 -86 -290 -52 -157 -56 -176 -52
-242 5 -97 40 -166 120 -239 106 -96 188 -135 387 -184 180 -44 546 -95 626
-87 118 12 217 85 275 202 81 166 52 587 -64 930 -52 152 -163 405 -211 479
-39 59 -175 194 -226 223 -70 41 -152 55 -243 42z"/>
<path d="M33303 17375 c-34 -8 -88 -25 -120 -39 -32 -13 -85 -27 -118 -30
-112 -10 -278 -115 -474 -298 -37 -35 -116 -106 -176 -158 -61 -52 -198 -178
-305 -280 -107 -102 -253 -239 -325 -304 -234 -213 -374 -349 -401 -387 -14
-21 -37 -68 -50 -104 -29 -81 -33 -233 -8 -353 30 -148 130 -359 248 -527 187
-265 311 -420 451 -561 99 -100 102 -102 267 -182 194 -95 233 -106 333 -100
95 6 193 52 281 131 57 53 212 249 304 387 24 36 63 90 86 120 24 30 111 143
194 250 146 188 276 340 465 540 50 52 102 109 115 125 14 17 52 52 85 78 199
162 260 366 180 604 -58 173 -256 522 -388 685 -23 29 -77 99 -120 155 -97
126 -151 177 -230 214 -105 49 -184 58 -294 34z"/>
<path d="M12675 15908 c-155 -29 -335 -180 -452 -378 -152 -258 -343 -685
-451 -1005 -138 -411 -158 -772 -56 -982 60 -124 184 -231 348 -300 116 -49
431 -138 630 -178 273 -55 755 -105 1015 -105 185 0 301 42 411 151 69 68 108
145 145 284 38 142 51 436 39 853 -9 320 -4 587 16 818 9 108 9 142 -4 201
-39 188 -164 307 -416 398 -253 90 -574 169 -913 225 -189 31 -230 34 -312 18z"/>
<path d="M34217 15351 c-32 -11 -76 -31 -98 -46 -22 -14 -68 -35 -102 -45 -77
-24 -117 -53 -182 -130 -27 -33 -93 -99 -146 -148 -92 -84 -221 -228 -284
-317 -16 -23 -46 -62 -65 -86 -73 -90 -148 -207 -199 -312 -81 -163 -82 -256
-6 -412 49 -100 188 -280 265 -343 112 -91 150 -107 260 -107 147 0 203 33
338 200 31 39 88 106 127 150 39 44 88 102 110 129 22 27 136 149 253 270 167
173 230 230 286 264 88 53 132 100 179 194 88 174 44 336 -141 527 -71 72
-164 132 -296 189 -102 44 -210 53 -299 23z"/>
<path d="M31922 13914 c-65 -17 -81 -25 -157 -79 -102 -72 -241 -285 -290
-443 -15 -48 -38 -104 -52 -124 -53 -78 -63 -144 -38 -242 20 -75 56 -127 157
-221 104 -98 141 -121 363 -231 171 -85 183 -89 245 -89 103 0 167 20 281 87
125 74 199 147 314 311 61 87 90 119 123 137 60 33 127 110 149 173 36 107 14
249 -56 351 -37 53 -160 150 -247 194 -85 43 -345 128 -429 141 -38 6 -106 20
-149 31 -92 23 -140 24 -214 4z"/>
<path d="M12900 12810 c-380 -22 -481 -51 -600 -172 -88 -90 -139 -233 -127
-360 5 -58 3 -65 -33 -126 -108 -178 -71 -371 104 -546 67 -67 99 -91 176
-129 100 -49 228 -98 320 -124 231 -63 273 -69 516 -78 138 -5 184 -3 242 10
136 31 228 116 286 265 43 112 48 151 40 346 -6 155 -4 188 10 231 45 135 39
251 -19 370 -68 138 -213 247 -392 294 -91 24 -307 32 -523 19z"/>
<path d="M14815 12540 c-27 -10 -75 -25 -105 -34 -64 -18 -117 -59 -162 -124
-17 -26 -51 -71 -75 -101 -82 -101 -209 -339 -253 -474 -59 -180 -28 -301 103
-403 111 -86 334 -134 527 -113 114 12 304 72 353 110 20 17 52 35 70 41 52
18 98 58 119 105 18 40 19 58 12 196 -8 180 -43 312 -123 467 -10 19 -28 64
-40 100 -64 195 -251 296 -426 230z"/>
<path d="M28597 30205 c-250 -31 -488 -99 -697 -196 -943 -440 -1598 -1438
-1751 -2669 -31 -255 -31 -690 0 -945 72 -577 238 -1073 513 -1530 171 -285
351 -501 624 -748 46 -42 186 -148 190 -144 1 1 -4 29 -12 62 -18 79 -17 194
2 275 l15 65 -79 75 c-843 798 -1172 2213 -806 3463 282 963 943 1690 1739
1911 206 57 427 79 648 65 73 -5 137 -11 144 -14 7 -2 59 18 115 45 127 60
235 96 356 117 56 10 87 20 80 25 -22 14 -224 77 -311 97 -227 53 -561 73
-770 46z"/>
<path d="M31252 28355 c-17 -89 -64 -229 -113 -334 l-40 -88 25 -86 c93 -321
140 -757 124 -1147 -56 -1410 -905 -2600 -2014 -2825 -146 -30 -358 -44 -514
-34 l-115 7 -19 -26 c-49 -68 -164 -169 -234 -203 l-73 -37 73 -16 c179 -40
282 -50 493 -50 231 0 344 13 550 63 556 136 1082 504 1472 1029 679 916 891
2230 547 3399 -37 128 -140 413 -148 413 -1 0 -8 -29 -14 -65z"/>
<path d="M28508 27840 c-240 -50 -448 -156 -640 -327 -279 -246 -488 -619
-573 -1023 -47 -220 -59 -526 -30 -758 42 -341 176 -683 370 -947 77 -105 75
-103 144 -66 175 93 405 93 584 -1 82 -43 212 -173 255 -255 35 -66 72 -195
72 -250 l0 -33 64 0 c36 0 100 5 143 11 681 91 1219 719 1328 1553 17 129 19
403 4 531 -37 318 -156 660 -307 885 l-37 55 -115 7 c-236 13 -470 88 -672
214 -136 85 -285 224 -382 357 -58 78 -60 78 -208 47z"/>
</g>
</svg>
