<?xml version="1.0" standalone="no"?>
<!DOCTYPE svg PUBLIC "-//W3C//DTD SVG 20010904//EN"
 "http://www.w3.org/TR/2001/REC-SVG-20010904/DTD/svg10.dtd">
<svg version="1.0" xmlns="http://www.w3.org/2000/svg"
 width="5000.000000pt" height="5000.000000pt" viewBox="0 0 5000.000000 5000.000000"
 preserveAspectRatio="xMidYMid meet">

<g transform="translate(0.000000,5000.000000) scale(0.100000,-0.100000)"
fill="#000000" stroke="none">
<path d="M24926 44465 c-110 -8 -353 -28 -540 -45 -188 -16 -467 -42 -621 -56
-396 -35 -941 -101 -1150 -139 -44 -7 -132 -21 -195 -30 -167 -24 -367 -61
-452 -85 -40 -11 -147 -36 -238 -55 -193 -39 -609 -130 -830 -181 -85 -20
-200 -51 -255 -69 -55 -18 -154 -48 -220 -65 -256 -67 -867 -276 -1010 -345
-49 -24 -234 -114 -410 -200 -295 -144 -369 -184 -597 -318 -45 -27 -142 -79
-217 -116 -75 -37 -163 -85 -196 -108 -33 -22 -168 -102 -300 -178 -132 -76
-253 -147 -270 -159 -16 -12 -100 -64 -185 -116 -172 -104 -522 -337 -615
-410 -33 -26 -123 -91 -200 -145 -130 -92 -192 -139 -365 -278 -36 -29 -107
-85 -159 -125 l-95 -72 -51 192 c-172 640 -296 988 -465 1300 -220 407 -373
620 -640 888 -151 153 -250 234 -423 350 -447 299 -1081 480 -1682 480 -365
-1 -807 -80 -1258 -226 -415 -135 -695 -273 -1047 -517 -192 -133 -280 -203
-427 -339 -220 -205 -307 -307 -469 -549 -311 -466 -444 -916 -406 -1374 24
-287 110 -862 136 -914 20 -37 75 -88 111 -101 47 -18 128 -14 171 8 49 25 70
48 130 142 210 328 440 571 714 753 126 84 263 151 350 171 126 30 311 16 445
-35 146 -54 362 -244 449 -394 149 -257 204 -563 147 -815 -14 -65 -101 -312
-188 -540 -101 -261 -116 -304 -162 -456 -158 -511 -203 -1007 -135 -1474 44
-297 169 -650 347 -975 62 -115 95 -169 181 -304 l22 -35 -41 -75 c-23 -42
-85 -152 -137 -246 -114 -206 -354 -690 -421 -850 -14 -33 -55 -125 -92 -205
-139 -302 -181 -403 -298 -725 -75 -203 -196 -590 -261 -835 -84 -315 -188
-777 -231 -1032 -55 -327 -97 -585 -115 -713 -12 -82 -25 -157 -28 -167 -6
-14 -16 -11 -77 24 -193 113 -281 159 -530 282 -148 73 -301 146 -340 161 -38
15 -122 54 -185 86 -137 69 -326 156 -430 197 -41 17 -124 53 -185 82 -307
144 -563 241 -880 333 -692 201 -1180 266 -1791 238 -258 -12 -394 -33 -614
-96 -85 -25 -225 -60 -310 -79 -362 -81 -437 -101 -692 -186 -279 -94 -644
-269 -908 -436 -102 -64 -207 -130 -234 -146 -87 -52 -511 -376 -674 -515
-396 -338 -738 -745 -996 -1185 -194 -330 -374 -700 -483 -993 -63 -168 -71
-194 -108 -365 -12 -58 -34 -157 -48 -220 -42 -185 -104 -525 -121 -660 -48
-377 -49 -397 -43 -613 12 -471 97 -954 213 -1217 101 -227 145 -308 224 -408
217 -274 487 -427 795 -448 168 -12 504 60 670 144 108 53 259 164 390 286
119 110 197 226 243 360 34 96 36 109 40 266 6 234 -7 337 -63 488 -48 130
-129 280 -198 371 -23 30 -57 75 -74 100 -18 25 -62 84 -98 131 -158 207 -187
258 -241 420 -69 207 -11 471 143 645 170 194 282 278 521 391 300 143 537
169 707 78 161 -85 334 -281 404 -460 25 -66 47 -174 60 -296 15 -154 2 -257
-84 -628 -41 -177 -113 -384 -255 -730 -40 -100 -114 -366 -154 -555 -50 -240
-59 -577 -22 -845 22 -157 112 -579 142 -668 34 -99 130 -300 179 -377 96
-151 147 -209 347 -387 179 -159 460 -301 689 -348 127 -26 419 -32 509 -11
259 62 467 148 586 242 149 118 273 275 387 489 87 163 132 303 191 593 28
137 21 493 -15 722 -28 180 -141 510 -250 727 -22 43 -67 142 -100 220 -33 79
-112 247 -174 373 -208 422 -221 452 -326 745 -106 296 -160 482 -233 813 -81
361 -106 529 -106 707 0 233 46 338 228 523 198 201 408 319 722 404 233 63
319 56 462 -36 181 -117 324 -334 392 -594 45 -176 59 -297 52 -458 -7 -179
-10 -193 -136 -689 -92 -360 -136 -591 -165 -865 -25 -237 -20 -349 26 -580
44 -221 142 -392 309 -540 226 -200 442 -285 726 -285 156 0 215 12 337 69
265 123 438 309 563 607 126 301 160 552 115 838 -11 66 -25 155 -31 196 -6
41 -17 98 -25 125 -8 28 -31 106 -50 174 -33 115 -100 296 -179 486 -75 179
-147 400 -173 526 -12 63 -17 138 -17 304 -1 209 1 222 21 255 27 44 85 99
142 136 110 72 139 86 244 116 101 29 124 32 242 31 144 -1 221 -12 341 -48
160 -49 198 -91 243 -270 24 -92 25 -111 19 -230 -3 -71 -11 -337 -17 -590
-23 -950 -31 -1218 -46 -1500 -8 -159 -19 -533 -24 -830 -14 -730 -19 -820
-91 -1690 -5 -66 -19 -235 -30 -375 -12 -140 -25 -280 -30 -310 -5 -30 -14
-93 -19 -140 -6 -47 -17 -130 -25 -185 -8 -55 -22 -156 -31 -225 -9 -69 -35
-217 -56 -330 -22 -113 -57 -297 -79 -410 -21 -113 -57 -302 -80 -420 -43
-224 -105 -517 -189 -900 -80 -361 -106 -473 -201 -849 -98 -389 -143 -580
-195 -828 -36 -167 -80 -366 -184 -824 -67 -295 -134 -624 -150 -739 -61 -420
-151 -1264 -173 -1605 -20 -318 -17 -1309 5 -1635 29 -426 64 -783 103 -1050
60 -404 207 -1166 289 -1495 8 -33 49 -199 90 -370 221 -902 368 -1355 756
-2330 93 -233 168 -401 198 -444 26 -36 109 -180 196 -336 39 -71 102 -184
140 -250 378 -664 369 -650 490 -805 41 -52 134 -178 207 -280 72 -102 162
-216 198 -255 37 -38 135 -158 219 -267 83 -108 200 -250 259 -317 481 -543
795 -869 942 -981 100 -76 254 -214 421 -375 197 -191 345 -322 434 -383 33
-23 103 -73 155 -112 157 -116 444 -316 510 -356 60 -37 219 -136 301 -189 36
-24 90 -55 120 -70 30 -15 86 -46 124 -70 39 -23 115 -67 170 -97 55 -30 147
-81 205 -113 194 -108 384 -206 455 -235 39 -15 171 -76 295 -135 642 -307
997 -461 1480 -644 385 -147 1328 -422 1630 -476 19 -3 85 -17 145 -30 253
-55 800 -154 1085 -195 69 -10 152 -23 185 -28 33 -6 87 -13 120 -17 33 -3
107 -12 165 -20 208 -28 513 -53 930 -76 241 -14 1172 -5 1565 15 419 21 3400
11 4915 -15 772 -14 1073 -8 1575 31 245 19 592 58 760 85 50 9 135 22 190 29
183 26 579 95 730 126 50 11 133 26 185 35 52 9 118 22 145 30 28 7 79 19 115
25 113 20 556 132 765 193 875 257 1295 421 2305 899 162 77 316 148 342 159
63 25 316 153 463 235 66 37 165 92 220 122 55 30 132 74 170 97 39 24 89 52
113 64 43 22 422 255 477 294 16 11 68 47 115 79 111 75 223 155 350 248 56
41 129 93 161 116 78 54 331 279 449 400 94 96 300 277 415 367 111 86 420
399 677 687 78 88 182 204 231 258 48 53 162 194 254 312 92 118 197 247 233
285 37 39 120 144 185 235 122 171 163 226 252 339 95 120 100 129 468 776 38
66 101 179 140 250 87 156 170 300 196 336 30 42 104 208 200 446 49 122 89
224 89 227 0 3 30 81 66 173 175 445 340 940 455 1368 187 691 352 1427 458
2035 60 350 73 434 106 715 25 210 59 661 76 1025 13 276 7 1075 -11 1360 -11
174 -81 891 -100 1025 -13 90 -48 367 -60 470 -18 169 -70 426 -209 1035 -49
217 -103 463 -121 545 -55 260 -108 487 -214 915 -192 770 -290 1222 -471
2175 -19 99 -53 274 -75 388 -22 114 -49 276 -60 360 -11 84 -26 199 -34 257
-46 318 -62 469 -86 810 -5 74 -18 241 -29 370 -48 564 -59 776 -71 1435 -6
286 -19 716 -29 955 -11 239 -25 667 -31 950 -6 283 -16 657 -22 830 -14 378
-15 327 11 433 41 172 86 223 236 270 116 36 213 50 355 51 113 0 136 -3 245
-34 99 -28 134 -43 200 -88 92 -62 147 -112 178 -162 21 -33 22 -46 22 -255
-1 -165 -5 -241 -18 -305 -26 -129 -116 -397 -196 -580 -42 -98 -124 -323
-151 -415 -17 -60 -40 -139 -50 -175 -10 -36 -28 -130 -40 -210 -12 -80 -26
-167 -31 -194 -24 -130 1 -408 51 -568 133 -422 324 -665 637 -810 119 -54
185 -68 341 -68 311 0 526 97 803 361 51 49 125 166 165 261 60 143 104 372
104 542 0 160 -51 561 -95 751 -39 169 -67 285 -85 355 -127 501 -130 513
-137 695 -6 165 7 279 53 452 50 187 146 368 261 489 61 65 191 150 263 171
72 21 171 13 320 -27 162 -44 269 -84 389 -147 118 -62 183 -109 308 -225 142
-131 215 -242 248 -372 35 -139 4 -500 -68 -801 -14 -55 -32 -136 -42 -180
-45 -208 -112 -437 -199 -685 -100 -286 -127 -349 -317 -736 -70 -144 -156
-326 -190 -405 -34 -79 -81 -183 -104 -230 -66 -131 -189 -449 -220 -571 -40
-151 -57 -301 -62 -543 -6 -259 0 -312 63 -566 82 -334 287 -667 528 -858 82
-65 199 -122 362 -177 208 -69 253 -76 458 -75 135 1 202 6 276 21 218 44 512
192 675 338 35 31 96 86 136 122 106 95 217 249 299 415 88 180 125 286 161
465 16 80 40 201 54 270 50 246 66 527 44 773 -23 258 -135 680 -253 957 -13
30 -40 100 -60 155 -20 55 -45 123 -56 150 -25 63 -50 156 -99 370 -67 290
-76 370 -60 528 28 278 97 428 284 612 153 152 276 204 452 193 113 -8 287
-60 438 -133 238 -114 357 -204 522 -393 107 -122 178 -327 169 -482 -5 -83
-39 -211 -83 -305 -21 -47 -90 -150 -143 -215 -20 -25 -52 -67 -71 -93 -90
-126 -136 -189 -161 -219 -72 -90 -184 -327 -230 -488 -8 -31 -12 -121 -12
-280 l-1 -235 34 -98 c46 -133 139 -267 259 -374 264 -234 409 -314 689 -377
234 -53 359 -57 529 -16 119 29 155 44 262 106 159 93 245 169 368 324 77 96
99 135 185 327 94 207 90 196 143 433 92 418 129 914 90 1220 -44 351 -58 450
-90 615 -34 172 -77 376 -131 609 -61 262 -239 669 -500 1142 -284 514 -651
958 -1113 1346 -79 67 -413 326 -498 388 -150 109 -560 357 -717 434 -403 199
-674 291 -1203 412 -112 25 -274 66 -360 90 -217 62 -349 82 -612 95 -525 24
-924 -17 -1463 -151 -474 -118 -807 -235 -1212 -425 -55 -26 -134 -60 -175
-77 -105 -42 -294 -129 -432 -199 -65 -32 -152 -73 -195 -90 -159 -63 -637
-307 -858 -437 -62 -36 -71 -39 -77 -24 -3 9 -23 127 -42 262 -71 476 -135
820 -246 1305 -89 388 -235 876 -379 1265 -111 301 -125 334 -266 640 -37 80
-78 172 -92 204 -63 151 -342 714 -430 866 -33 58 -81 146 -108 195 l-48 91
31 44 c140 208 297 503 377 712 191 494 235 969 144 1547 -45 289 -115 527
-282 961 -87 228 -174 475 -188 540 -57 252 -2 558 147 815 87 150 303 340
449 394 134 51 319 65 445 35 87 -20 224 -87 350 -171 274 -182 504 -425 714
-753 60 -94 81 -117 130 -142 43 -22 124 -26 171 -8 36 13 91 64 111 101 26
52 112 627 136 914 38 458 -95 908 -406 1374 -162 242 -249 344 -469 549 -258
240 -587 467 -914 631 -427 214 -1032 386 -1533 436 -677 68 -1441 -113 -1967
-465 -173 -116 -272 -197 -423 -350 -267 -268 -420 -481 -640 -888 -179 -331
-325 -751 -510 -1470 l-11 -42 -107 82 c-59 46 -136 107 -172 135 -174 140
-236 186 -365 278 -77 54 -167 119 -200 145 -93 73 -443 306 -615 410 -85 52
-168 104 -185 116 -16 12 -138 83 -270 159 -132 76 -267 156 -300 178 -33 23
-121 71 -196 108 -75 37 -172 89 -217 116 -45 26 -125 74 -179 105 -81 47
-370 191 -838 418 -126 61 -754 275 -980 335 -133 35 -444 134 -800 255 -311
106 -448 145 -645 184 -69 14 -197 41 -285 61 -88 20 -191 43 -230 51 -38 8
-86 19 -106 24 -135 36 -343 68 -864 135 -177 23 -523 33 -1080 33 -333 0
-592 -5 -719 -13z m659 -505 c454 -22 578 -34 1080 -106 195 -28 481 -74 680
-109 44 -8 141 -24 215 -35 174 -27 349 -64 425 -90 33 -11 80 -25 105 -30 25
-6 88 -21 140 -35 52 -14 287 -72 522 -130 234 -58 464 -118 510 -134 45 -16
155 -50 243 -75 88 -25 212 -63 275 -84 410 -141 564 -197 635 -231 44 -22
178 -87 298 -145 120 -58 221 -106 226 -106 4 0 37 -19 72 -41 35 -23 77 -46
94 -52 28 -9 65 -30 278 -156 45 -27 143 -79 217 -116 74 -37 160 -84 190
-105 30 -20 152 -92 270 -160 118 -68 233 -135 255 -150 22 -15 112 -71 200
-125 217 -132 498 -321 630 -423 28 -21 113 -85 190 -141 77 -56 181 -134 232
-174 226 -177 424 -327 495 -376 l76 -52 -25 -92 c-49 -180 -170 -530 -182
-525 -3 2 -51 30 -106 62 -193 114 -230 135 -290 159 -148 62 -401 111 -620
122 -402 19 -729 -126 -918 -408 -106 -157 -162 -307 -193 -519 -23 -155 -15
-492 14 -623 43 -194 108 -350 210 -503 123 -184 329 -385 469 -456 86 -43 99
-34 60 42 -187 366 -246 495 -331 728 -83 230 -107 366 -107 592 1 136 4 170
27 257 48 187 107 297 212 397 138 132 359 188 620 159 307 -35 588 -118 774
-229 l57 -34 -42 -61 c-62 -90 -200 -224 -297 -288 -47 -31 -139 -82 -205
-114 -182 -87 -205 -97 -210 -82 -2 6 -18 77 -36 157 -35 164 -44 184 -93 228
-60 53 -141 65 -211 33 -51 -23 -78 -53 -107 -116 -19 -42 -22 -66 -22 -150 1
-63 7 -120 18 -155 9 -30 39 -145 67 -255 117 -464 278 -872 459 -1165 118
-191 311 -467 463 -664 282 -364 708 -756 1122 -1031 419 -278 965 -553 1381
-695 291 -99 313 -104 465 -102 150 1 235 16 434 77 146 44 266 96 405 175
103 58 105 59 114 37 18 -45 19 -228 2 -320 -37 -197 -106 -344 -214 -459
-193 -205 -466 -291 -772 -243 -52 8 -144 20 -205 25 -198 18 -441 68 -544
112 -24 10 -82 43 -129 74 -94 61 -95 60 -24 -60 83 -142 242 -290 417 -388
274 -155 400 -194 645 -205 153 -6 237 6 400 58 504 162 811 568 860 1135 15
167 -12 335 -77 484 -14 33 -24 62 -22 63 2 1 33 27 69 57 36 31 72 61 81 68
14 11 27 -6 101 -140 142 -257 386 -769 607 -1273 151 -348 348 -953 460
-1415 66 -277 81 -342 116 -511 19 -97 42 -214 50 -260 7 -46 27 -163 44 -259
45 -268 81 -519 91 -635 13 -167 70 -260 196 -321 86 -41 170 -39 334 10 142
42 229 77 415 164 72 34 184 84 250 111 203 85 379 163 660 296 149 70 324
151 390 180 66 29 152 67 190 85 171 80 570 238 726 288 411 131 928 240 1249
263 207 15 708 5 805 -16 39 -8 162 -22 275 -30 201 -15 237 -21 430 -64 572
-131 991 -299 1425 -574 135 -85 404 -276 525 -371 63 -50 156 -123 205 -161
360 -277 715 -670 937 -1037 176 -291 212 -355 321 -574 210 -420 223 -454
316 -824 21 -85 55 -231 74 -325 35 -164 44 -218 66 -390 6 -44 20 -145 32
-225 31 -209 31 -546 0 -795 -46 -365 -95 -607 -141 -694 -16 -31 -48 -99 -71
-151 -54 -122 -110 -208 -196 -295 -155 -160 -352 -245 -531 -230 -180 16
-420 91 -561 175 -138 82 -256 209 -299 320 -44 116 -63 298 -41 400 5 25 12
61 16 80 16 87 166 352 267 471 80 94 156 202 286 405 23 35 63 132 90 219 58
183 64 425 15 572 -124 366 -365 644 -730 837 -49 27 -104 57 -121 67 -42 26
-325 124 -426 148 -179 43 -287 38 -468 -21 -121 -39 -155 -56 -265 -133 -172
-121 -303 -278 -410 -494 -65 -129 -78 -174 -111 -366 -36 -205 -30 -374 20
-621 50 -242 97 -400 227 -751 34 -92 79 -215 101 -273 167 -454 207 -761 153
-1170 -25 -195 -51 -305 -89 -380 -62 -120 -153 -288 -172 -315 -12 -17 -36
-58 -53 -93 -18 -35 -65 -108 -106 -162 -63 -82 -98 -117 -213 -206 -159 -124
-264 -179 -421 -219 -129 -33 -304 -38 -416 -11 -112 26 -250 84 -312 130 -59
43 -153 140 -181 185 -8 15 -33 52 -54 83 -81 119 -149 313 -179 510 -18 121
-21 169 -16 313 4 94 11 196 16 227 28 161 99 400 166 558 13 30 47 111 76
180 72 175 114 271 164 375 167 347 310 670 361 815 191 552 217 642 323 1150
52 248 71 384 77 575 7 187 -8 301 -57 441 -94 268 -384 584 -699 761 -51 29
-253 111 -395 161 -166 59 -394 97 -525 88 -118 -8 -169 -22 -295 -81 -163
-76 -250 -149 -402 -337 -141 -174 -263 -453 -313 -717 -27 -138 -32 -404 -11
-556 15 -112 67 -353 106 -490 14 -49 32 -121 41 -160 8 -38 24 -104 34 -145
10 -41 28 -122 39 -180 11 -58 30 -148 40 -201 78 -378 64 -690 -41 -915 -43
-93 -217 -232 -354 -284 -133 -49 -299 -52 -399 -6 -175 80 -340 301 -423 566
-38 118 -68 366 -58 472 7 78 34 225 68 378 23 105 100 333 173 510 178 434
213 576 222 910 9 336 -11 449 -116 627 -49 86 -147 193 -220 242 -108 73
-303 146 -454 171 -89 14 -296 12 -412 -5 -223 -32 -452 -110 -563 -192 -209
-155 -293 -296 -358 -601 -3 -13 -9 -55 -14 -94 -4 -39 -13 -74 -18 -77 -6 -4
-6 -63 -1 -156 5 -82 13 -364 19 -625 19 -820 30 -1209 40 -1385 5 -93 17
-487 25 -875 9 -388 20 -759 25 -825 5 -66 14 -190 20 -275 6 -85 15 -200 20
-255 5 -55 14 -163 20 -240 20 -269 51 -631 60 -705 5 -41 18 -142 30 -225 74
-558 68 -518 151 -950 15 -82 53 -280 83 -440 87 -458 120 -619 220 -1070 75
-333 101 -444 221 -930 68 -275 140 -576 160 -670 71 -335 118 -545 195 -885
97 -425 152 -711 180 -940 11 -96 30 -240 41 -320 24 -180 85 -784 99 -985 18
-246 24 -1077 11 -1375 -15 -339 -48 -751 -87 -1080 -30 -256 -143 -898 -215
-1220 -17 -74 -43 -193 -59 -265 -80 -364 -262 -1088 -330 -1310 -95 -308
-205 -631 -307 -900 -36 -93 -87 -228 -115 -300 -134 -353 -222 -553 -295
-672 -21 -34 -58 -97 -81 -140 -255 -459 -561 -994 -588 -1028 -57 -71 -229
-301 -328 -438 -59 -82 -122 -162 -141 -178 -18 -16 -102 -118 -187 -227 -186
-240 -270 -341 -374 -452 -44 -47 -128 -139 -186 -206 -220 -249 -513 -545
-617 -623 -85 -63 -251 -211 -416 -371 -193 -188 -330 -309 -422 -373 -37 -26
-104 -74 -148 -107 -156 -116 -417 -298 -503 -349 -26 -16 -99 -61 -162 -101
-141 -90 -340 -204 -610 -350 -69 -37 -150 -82 -179 -100 -71 -41 -259 -135
-319 -159 -26 -11 -164 -75 -307 -144 -804 -386 -1288 -585 -1879 -774 -669
-213 -1185 -337 -2041 -489 -491 -88 -1037 -156 -1470 -184 -77 -5 -356 -23
-620 -40 -621 -40 -875 -49 -1520 -56 l-530 -6 -385 32 c-212 18 -401 32 -420
32 -126 -4 -407 -10 -735 -16 -225 -4 -484 -16 -635 -28 -230 -18 -306 -20
-785 -14 -645 7 -899 17 -1520 56 -264 17 -543 35 -620 40 -294 19 -910 87
-1080 120 -27 5 -86 14 -130 20 -118 17 -538 93 -850 156 -722 144 -1517 375
-2160 629 -308 121 -885 381 -1245 559 -74 37 -168 81 -208 97 -93 37 -200 91
-392 197 -85 47 -200 110 -255 140 -55 30 -136 76 -180 102 -44 26 -98 57
-120 68 -22 11 -99 57 -170 102 -72 46 -150 95 -175 110 -52 31 -231 152 -341
231 -189 134 -216 154 -244 179 -16 15 -60 47 -96 71 -74 49 -276 228 -384
341 -79 81 -381 351 -435 388 -78 53 -386 365 -630 638 -77 87 -179 200 -226
252 -47 52 -165 196 -262 320 -96 124 -205 257 -241 296 -36 38 -119 144 -184
235 -149 208 -197 272 -247 331 -35 40 -103 155 -392 663 -22 39 -76 135 -120
215 -44 80 -95 170 -113 200 -18 30 -43 75 -55 100 -13 25 -33 59 -46 75 -37
50 -158 329 -268 620 -25 66 -63 167 -86 225 -67 170 -217 600 -281 805 -33
105 -68 217 -79 250 -47 151 -270 1044 -315 1265 -13 63 -35 162 -48 220 -47
197 -149 753 -198 1075 -41 272 -90 837 -110 1265 -13 285 -7 1096 11 1345 14
200 75 801 101 995 38 293 58 445 64 500 10 90 80 428 187 895 55 242 117 526
138 630 44 216 73 340 196 825 91 363 122 494 178 755 19 88 44 200 56 250 46
195 123 568 186 901 36 192 82 430 101 529 60 319 72 387 98 580 13 105 27
199 30 210 2 11 11 77 20 145 8 69 19 157 24 195 9 62 29 294 61 710 6 72 17
207 25 300 7 94 19 249 25 345 6 96 13 186 15 200 3 14 11 345 20 735 8 391
20 791 25 890 10 187 22 589 40 1395 6 261 14 543 19 625 5 93 5 152 -1 156
-5 3 -14 38 -18 77 -10 80 -11 83 -40 207 -60 253 -215 441 -462 560 -103 50
-277 98 -433 120 -116 17 -323 19 -412 5 -151 -25 -346 -98 -454 -171 -73 -49
-171 -156 -220 -242 -105 -178 -125 -291 -116 -627 9 -334 44 -476 222 -910
113 -276 165 -447 214 -710 33 -172 35 -236 16 -403 -26 -239 -105 -448 -225
-601 -135 -172 -236 -235 -389 -243 -185 -10 -365 62 -518 207 -68 65 -87 97
-125 200 -53 145 -71 396 -44 603 26 195 113 616 176 852 110 407 134 557 134
810 -1 210 -21 332 -85 529 -95 294 -283 572 -489 726 -71 53 -235 134 -315
156 -130 36 -308 27 -530 -27 -131 -32 -440 -149 -535 -202 -315 -177 -605
-493 -699 -761 -92 -262 -82 -539 43 -1121 49 -230 75 -338 101 -430 49 -172
101 -335 147 -460 28 -77 63 -176 78 -220 40 -114 199 -470 350 -780 91 -188
244 -559 305 -740 84 -250 110 -427 102 -683 -10 -309 -72 -521 -222 -757 -49
-78 -196 -223 -260 -257 -81 -42 -253 -96 -345 -106 -203 -24 -464 38 -627
149 -56 38 -226 173 -261 209 -38 37 -162 201 -162 214 0 7 -30 61 -66 121
-36 61 -77 134 -90 163 -13 29 -36 72 -52 95 -74 110 -98 209 -143 570 -20
166 -2 423 46 646 20 93 130 426 228 686 127 341 171 488 223 739 50 247 56
416 20 621 -33 192 -46 237 -111 366 -107 216 -238 373 -410 494 -110 77 -144
94 -265 133 -181 59 -289 64 -468 21 -101 -24 -384 -122 -426 -148 -17 -10
-71 -40 -121 -67 -365 -193 -606 -471 -730 -837 -49 -147 -43 -389 15 -572 27
-87 67 -184 90 -219 130 -203 206 -311 286 -405 101 -119 251 -384 267 -471 4
-19 11 -55 16 -80 22 -102 3 -284 -41 -400 -43 -111 -161 -238 -299 -320 -141
-84 -381 -159 -561 -175 -179 -15 -376 70 -531 230 -86 87 -142 173 -196 295
-23 52 -55 120 -71 151 -46 87 -95 329 -141 694 -31 249 -31 586 0 795 12 80
26 181 32 225 22 172 31 226 66 390 19 94 53 240 74 325 93 370 106 404 316
824 109 219 145 283 321 574 222 367 577 760 937 1037 50 38 142 111 205 161
121 95 390 286 525 371 434 275 853 443 1425 574 193 43 229 49 430 64 113 8
237 22 275 30 97 21 598 31 805 16 373 -26 1013 -172 1412 -320 278 -104 684
-280 1153 -501 267 -126 440 -203 650 -291 66 -28 170 -72 230 -98 61 -27 135
-56 165 -66 30 -10 76 -28 103 -42 26 -13 91 -40 145 -60 92 -35 103 -37 222
-37 81 -1 138 4 163 13 79 27 146 114 147 188 0 43 73 549 110 768 17 99 38
218 45 264 55 325 176 840 285 1211 109 371 237 735 341 975 223 510 483 1054
621 1298 44 78 80 143 81 144 1 1 29 -22 62 -50 34 -29 76 -65 94 -80 l33 -28
-26 -60 c-64 -148 -91 -316 -76 -483 49 -567 356 -973 860 -1135 163 -52 247
-64 400 -58 245 11 371 50 645 205 175 98 334 246 417 388 71 120 70 121 -24
60 -47 -31 -105 -64 -129 -74 -103 -44 -346 -94 -544 -112 -60 -5 -153 -17
-205 -25 -306 -48 -579 38 -772 243 -108 115 -177 262 -214 459 -17 92 -16
275 2 320 9 22 11 21 114 -37 139 -79 259 -131 405 -175 199 -61 284 -76 434
-77 152 -2 174 3 465 102 416 142 962 417 1381 695 414 275 840 667 1122 1031
152 197 345 473 463 664 181 293 342 701 459 1165 28 110 58 225 67 255 11 35
17 92 18 155 1 107 -18 171 -67 224 -69 75 -193 79 -273 9 -49 -44 -58 -64
-93 -228 -18 -80 -34 -151 -36 -157 -5 -15 -28 -5 -210 82 -66 32 -158 83
-205 114 -97 64 -235 198 -297 288 l-42 61 57 34 c186 111 467 194 774 229
261 29 482 -27 620 -159 105 -100 164 -210 212 -397 23 -87 26 -121 27 -257 0
-226 -24 -362 -107 -592 -85 -233 -144 -362 -331 -728 -39 -76 -26 -85 60 -42
140 71 346 272 469 456 102 153 167 309 210 503 29 131 37 468 14 623 -31 212
-87 362 -193 519 -189 282 -516 427 -918 408 -152 -7 -331 -35 -465 -71 -155
-42 -191 -59 -454 -215 -55 -33 -101 -57 -103 -55 -18 18 -203 588 -203 626 0
5 28 28 63 51 57 39 253 188 480 366 51 40 155 118 232 174 77 56 163 120 190
141 132 102 413 291 630 423 88 54 178 110 200 125 22 15 137 82 255 150 118
68 240 140 270 160 30 21 116 68 190 105 74 37 172 89 218 116 212 126 249
147 277 156 17 6 59 29 94 52 35 22 68 41 72 41 5 0 106 48 226 106 120 58
254 123 298 145 71 34 225 90 635 231 63 21 187 59 275 84 88 25 198 59 243
75 46 16 276 76 510 134 235 58 470 116 522 130 52 14 115 29 140 35 25 5 72
19 105 30 76 26 251 63 425 90 74 11 171 27 215 35 347 62 767 125 1132 170
114 14 182 19 613 46 96 6 176 11 177 12 6 6 776 -5 948 -13z m-12735 -16 c74
-8 189 -25 254 -39 639 -133 1069 -395 1476 -902 176 -218 394 -606 513 -913
90 -231 229 -709 368 -1263 114 -459 155 -601 245 -852 110 -305 220 -504 383
-692 120 -139 289 -268 460 -353 78 -39 335 -130 367 -130 20 0 18 -15 -20
-126 -78 -227 -185 -476 -262 -610 -121 -210 -429 -649 -577 -824 -105 -123
-371 -388 -490 -488 -141 -117 -352 -282 -362 -282 -3 0 -5 39 -5 88 -1 329
-105 812 -234 1087 -119 252 -317 576 -433 706 -85 96 -172 169 -200 169 -20
0 -16 -27 16 -122 17 -48 42 -131 57 -185 14 -54 51 -186 81 -293 30 -107 71
-258 93 -335 21 -77 55 -189 75 -250 72 -221 106 -383 131 -630 18 -177 20
-392 5 -487 -3 -16 -483 -273 -665 -355 -141 -64 -360 -148 -499 -191 l-98
-31 -107 24 c-109 24 -309 87 -394 124 -245 106 -668 434 -905 701 -139 156
-311 432 -418 670 -88 193 -171 466 -197 646 -20 137 -17 569 5 724 39 273
119 572 234 865 258 660 301 833 274 1115 -23 231 -76 419 -177 616 -94 185
-197 315 -359 449 -233 193 -432 270 -732 282 -226 9 -330 -12 -528 -106 -199
-94 -415 -246 -588 -410 l-59 -56 30 60 c47 94 182 290 279 405 235 278 602
528 953 650 52 18 99 37 105 42 18 16 -229 8 -337 -11 -211 -39 -340 -81 -521
-170 -174 -86 -267 -151 -387 -271 -99 -98 -219 -261 -325 -440 l-27 -45 6
110 c15 293 125 582 353 925 108 163 129 188 307 366 237 237 461 407 753 573
357 202 844 365 1314 440 307 49 494 55 769 25z m24875 11 c247 -15 654 -99
946 -196 354 -118 579 -224 855 -405 229 -150 353 -251 550 -448 178 -178 199
-203 307 -366 228 -343 338 -632 353 -925 l6 -110 -27 45 c-106 179 -226 342
-325 440 -120 120 -213 185 -387 271 -257 126 -531 193 -762 187 l-105 -3 90
-34 c242 -93 347 -146 529 -266 169 -113 329 -254 448 -395 97 -115 232 -311
279 -405 l30 -60 -59 56 c-173 164 -389 316 -588 410 -198 94 -302 115 -528
106 -300 -12 -499 -89 -732 -282 -162 -134 -265 -264 -359 -449 -101 -197
-154 -385 -177 -616 -27 -282 16 -455 274 -1115 115 -293 195 -592 234 -865
22 -155 25 -587 5 -724 -26 -180 -109 -453 -197 -646 -107 -238 -279 -514
-418 -670 -237 -267 -660 -595 -905 -701 -85 -37 -285 -100 -394 -124 l-107
-24 -98 31 c-139 43 -358 127 -499 191 -182 82 -662 339 -665 355 -15 96 -13
320 5 492 26 245 60 407 131 625 20 61 54 173 75 250 22 77 63 228 93 335 30
107 67 239 81 293 15 54 40 137 57 185 32 95 36 122 16 122 -28 0 -115 -73
-200 -169 -116 -130 -314 -454 -433 -706 -129 -275 -233 -758 -234 -1087 0
-49 -2 -88 -5 -88 -10 0 -221 165 -362 282 -153 128 -422 402 -534 544 -38 49
-82 105 -98 124 -95 121 -353 502 -435 644 -77 134 -184 383 -262 610 -38 111
-40 126 -20 126 32 0 289 91 367 130 171 85 340 214 460 353 163 188 273 387
383 692 89 249 129 389 245 852 140 559 278 1032 368 1263 119 307 337 695
513 913 191 238 376 412 585 549 292 193 651 322 1060 383 110 17 384 34 440
29 17 -2 75 -6 130 -9z"/>
<path d="M24970 38250 c-177 -18 -381 -84 -564 -184 -253 -138 -529 -408 -718
-701 -557 -864 -664 -2157 -263 -3186 164 -420 416 -790 700 -1027 577 -483
1263 -516 1868 -92 116 82 351 314 443 440 398 540 614 1246 614 2010 0 1371
-704 2524 -1662 2719 -112 23 -302 32 -418 21z m353 -276 c251 -45 481 -171
696 -379 413 -399 670 -987 752 -1720 17 -143 16 -589 0 -730 -51 -446 -147
-783 -321 -1125 -321 -630 -805 -990 -1333 -990 -460 0 -885 270 -1210 770
-263 406 -415 913 -458 1525 -34 495 72 1103 271 1546 356 797 970 1219 1603
1103z"/>
<path d="M24920 37509 c-92 -14 -230 -63 -334 -117 l-89 -47 64 -8 c99 -12
187 -37 258 -73 l65 -33 69 15 c485 102 996 -343 1202 -1044 76 -262 105 -470
105 -762 0 -364 -62 -699 -181 -976 -17 -41 -17 -42 7 -90 98 -198 11 -440
-194 -537 -63 -30 -74 -32 -178 -32 -111 0 -112 -1 -166 -37 -434 -288 -932
-142 -1275 372 -149 223 -259 510 -318 825 -47 256 -47 676 1 955 9 54 60 258
83 329 l20 63 -35 48 c-44 61 -83 150 -98 223 l-12 59 -32 -69 c-97 -211 -167
-469 -209 -768 -23 -168 -22 -564 1 -734 46 -335 122 -592 253 -856 215 -432
531 -720 903 -823 85 -24 113 -26 260 -26 147 0 175 2 260 26 246 68 488 231
661 446 222 274 385 636 459 1015 43 222 53 334 53 587 0 253 -10 365 -53 587
-74 379 -237 741 -459 1015 -172 214 -429 386 -667 449 -93 24 -321 34 -424
18z"/>
<path d="M25107 36482 c-60 -166 -233 -319 -417 -368 -66 -17 -223 -24 -271
-11 -25 6 -28 2 -71 -91 -82 -175 -116 -324 -125 -537 -7 -163 6 -300 41 -437
92 -364 315 -641 586 -730 89 -29 262 -36 347 -14 111 29 150 51 173 96 42 82
135 162 221 189 41 13 81 67 144 190 95 190 139 389 140 636 0 171 -7 229 -47
389 -87 352 -327 637 -607 720 -86 25 -95 23 -114 -32z"/>
<path d="M19405 36344 c-421 -32 -770 -112 -1125 -259 -1423 -588 -2568 -2114
-3071 -4095 -526 -2068 -294 -4400 610 -6155 712 -1380 1738 -2301 2906 -2610
294 -78 544 -109 865 -109 249 0 369 10 595 50 1836 326 3365 2184 3879 4714
326 1603 218 3318 -302 4806 -228 650 -535 1253 -892 1752 -790 1102 -1791
1757 -2887 1887 -126 15 -479 27 -578 19z m400 -624 c716 -61 1368 -377 1978
-960 605 -578 1110 -1423 1434 -2398 591 -1781 544 -3892 -125 -5612 -600
-1546 -1648 -2636 -2814 -2931 -930 -234 -1863 8 -2678 697 -897 757 -1574
2013 -1875 3474 -324 1576 -192 3293 363 4720 604 1555 1656 2645 2833 2935
302 74 595 99 884 75z"/>
<path d="M19300 34568 c-219 -20 -479 -82 -686 -163 -308 -122 -648 -333 -903
-561 l-43 -39 163 -1 c115 0 191 -5 254 -18 113 -22 263 -70 338 -107 l57 -30
108 60 c206 114 412 186 647 227 72 13 153 18 290 18 197 0 306 -13 465 -55
437 -116 854 -390 1204 -788 680 -775 1090 -1899 1166 -3196 54 -927 -114
-1955 -447 -2732 l-35 -83 52 -56 c155 -170 237 -366 249 -594 l6 -115 28 48
c49 82 193 376 247 502 275 640 438 1313 507 2090 24 280 24 890 0 1170 -80
904 -288 1673 -646 2385 -412 820 -988 1437 -1651 1769 -444 222 -906 313
-1370 269z"/>
<path d="M19280 32191 l-64 -6 -27 -105 c-129 -507 -518 -893 -1022 -1015 -99
-24 -333 -51 -367 -42 -20 5 -37 -26 -108 -193 -117 -277 -196 -587 -239 -935
-23 -194 -23 -636 0 -830 75 -609 276 -1141 586 -1545 300 -391 660 -633 1081
-727 101 -23 138 -26 305 -26 167 0 204 3 305 26 421 94 781 336 1081 727 217
284 398 667 494 1050 82 327 108 542 109 900 0 280 -9 401 -50 638 -205 1202
-975 2056 -1879 2085 -77 3 -169 2 -205 -2z"/>
<path d="M16480 31965 c-159 -419 -287 -940 -354 -1438 -48 -351 -60 -553 -60
-967 0 -413 12 -616 59 -966 235 -1744 1084 -3175 2231 -3761 762 -389 1576
-389 2338 0 160 82 358 209 501 324 118 93 341 298 355 324 10 17 8 17 -30 4
-126 -45 -316 -57 -460 -29 -96 18 -223 62 -286 99 l-43 26 -88 -60 c-259
-175 -529 -285 -828 -337 -139 -25 -442 -25 -580 0 -585 103 -1110 454 -1551
1036 -933 1232 -1253 3219 -799 4966 l44 171 -82 85 c-143 146 -261 335 -320
513 l-24 70 -23 -60z"/>
<path d="M30525 36344 c-421 -32 -770 -112 -1125 -259 -1244 -514 -2285 -1750
-2862 -3399 -442 -1264 -589 -2712 -417 -4101 197 -1599 789 -3018 1678 -4030
665 -756 1470 -1239 2316 -1389 226 -40 346 -50 595 -50 249 0 369 10 595 50
1836 326 3365 2184 3879 4714 326 1605 219 3316 -302 4806 -228 650 -535 1253
-892 1752 -790 1102 -1791 1757 -2887 1887 -126 15 -479 27 -578 19z m400
-624 c716 -61 1368 -377 1978 -960 605 -578 1110 -1423 1434 -2398 591 -1781
544 -3892 -125 -5612 -600 -1546 -1648 -2636 -2814 -2931 -930 -234 -1863 8
-2678 697 -897 757 -1574 2013 -1875 3474 -324 1576 -192 3293 363 4720 604
1555 1656 2645 2833 2935 302 74 595 99 884 75z"/>
<path d="M30420 34568 c-1030 -95 -1974 -845 -2575 -2046 -354 -707 -562
-1478 -642 -2377 -24 -280 -24 -890 0 -1170 75 -845 259 -1561 578 -2246 57
-123 183 -367 197 -381 4 -4 6 43 3 104 -7 215 45 400 162 573 23 33 58 79 80
102 l38 42 -54 138 c-340 863 -474 1917 -372 2928 180 1773 1052 3213 2189
3615 220 78 375 104 621 104 302 0 548 -56 824 -186 l83 -40 68 46 c155 103
350 180 539 214 l104 18 -49 36 c-200 146 -483 299 -705 381 -348 128 -730
179 -1089 145z"/>
<path d="M30385 32190 c-587 -60 -1144 -494 -1473 -1146 -182 -362 -285 -711
-339 -1149 -23 -194 -23 -636 0 -830 76 -622 281 -1153 605 -1571 72 -92 83
-102 164 -144 169 -88 285 -186 373 -314 35 -51 51 -64 130 -103 121 -61 256
-109 395 -140 101 -23 138 -26 305 -26 167 0 204 3 305 26 215 48 415 134 590
255 582 400 971 1128 1076 2017 21 174 24 618 6 785 -40 355 -125 699 -242
975 -52 124 -150 319 -194 388 -32 50 -37 53 -122 81 -199 64 -380 173 -531
319 -121 117 -208 233 -275 366 -29 58 -57 109 -63 113 -19 15 -161 57 -255
77 -109 23 -335 34 -455 21z"/>
<path d="M33631 31983 c-81 -167 -262 -382 -408 -484 l-22 -15 20 -65 c169
-550 269 -1237 269 -1859 0 -1628 -598 -3141 -1540 -3901 -320 -258 -646 -410
-1015 -475 -139 -25 -442 -25 -580 0 -278 49 -545 154 -792 312 l-52 33 -73
-45 c-87 -53 -194 -95 -303 -120 -84 -18 -252 -24 -340 -11 l-50 7 70 -66
c306 -291 763 -550 1161 -659 376 -103 729 -121 1101 -54 786 140 1510 661
2060 1485 1036 1550 1269 3910 576 5835 -26 71 -49 129 -53 129 -3 0 -16 -21
-29 -47z"/>
<path d="M24755 20933 c-1109 -56 -1781 -135 -2890 -339 -847 -156 -1455 -295
-2000 -459 -255 -77 -633 -209 -810 -283 -66 -27 -176 -70 -245 -95 -185 -67
-343 -131 -475 -192 -16 -8 -69 -32 -116 -54 -157 -73 -525 -286 -703 -408
-182 -124 -360 -303 -617 -623 -295 -368 -454 -722 -499 -1115 -27 -244 16
-612 101 -846 111 -307 255 -582 416 -791 75 -98 192 -231 249 -284 l55 -51
-88 -74 c-48 -40 -155 -139 -237 -219 -540 -527 -868 -1066 -1131 -1855 -167
-499 -238 -895 -266 -1465 -38 -786 72 -1467 337 -2085 98 -230 237 -499 413
-800 41 -69 196 -272 318 -417 59 -69 348 -345 460 -439 29 -24 79 -66 111
-94 121 -102 180 -144 322 -227 212 -124 335 -188 520 -268 361 -156 532 -196
870 -204 688 -16 1198 229 1845 886 257 261 352 372 555 652 25 34 90 122 145
196 190 253 323 443 410 585 27 44 67 105 90 135 63 82 226 347 365 590 68
118 137 235 155 260 17 25 69 106 114 180 46 74 104 163 129 197 128 170 231
301 268 342 22 25 60 71 83 101 24 30 83 99 133 153 50 54 118 131 152 171
201 236 674 722 1018 1046 l156 147 239 9 c524 20 1322 2 1793 -41 446 -41
1211 -59 1885 -45 490 9 589 17 965 70 113 16 282 38 375 50 327 39 401 52
580 96 172 42 469 128 604 175 143 49 430 214 530 305 31 27 115 90 186 139
72 48 166 118 210 155 44 36 105 84 137 106 137 96 587 536 708 694 95 123
260 363 310 450 76 132 162 293 190 355 40 88 117 328 135 420 28 145 59 428
58 525 -3 185 -53 462 -139 762 -78 272 -273 649 -460 890 -108 140 -385 448
-490 547 -44 40 -108 102 -144 136 -36 34 -123 113 -195 175 -71 62 -159 141
-195 175 -310 292 -964 743 -1370 945 -411 204 -818 333 -1727 549 -332 79
-543 120 -1153 225 -675 116 -1571 188 -2305 184 -209 -1 -407 -3 -440 -5z
m-816 -1358 c13 -530 6 -765 -29 -1004 -67 -456 -202 -720 -422 -825 -175 -83
-450 -146 -635 -146 -162 0 -415 80 -638 203 -137 75 -272 189 -327 278 -26
42 -66 185 -88 314 -79 480 -197 1266 -221 1470 -5 44 -11 89 -14 100 -5 23 6
25 445 101 363 63 1116 174 1183 174 16 0 17 -30 17 -494 0 -271 5 -553 10
-627 28 -370 42 -531 50 -604 26 -232 33 -292 39 -308 14 -39 104 405 135 668
14 123 22 199 45 460 6 61 13 297 17 526 l7 417 126 12 c69 7 160 15 201 19
l75 6 7 -130 c3 -71 11 -346 17 -610z m4396 451 l50 -11 6 -320 c6 -317 8
-335 55 -625 15 -89 62 -307 82 -375 20 -69 35 -28 76 213 32 189 54 461 62
782 4 140 7 255 8 256 0 1 156 -38 346 -86 335 -85 646 -183 865 -272 109 -44
355 -165 422 -206 40 -25 42 -29 48 -87 3 -33 8 -296 9 -585 2 -295 9 -562 15
-610 6 -47 17 -152 26 -235 19 -190 25 -222 36 -203 21 39 91 250 122 374 74
289 97 473 105 831 l7 283 72 -48 72 -47 23 -80 c21 -74 23 -98 22 -330 -1
-316 -40 -787 -90 -1085 -34 -204 -106 -451 -176 -605 -91 -199 -165 -269
-348 -326 -69 -22 -92 -24 -280 -23 -312 1 -697 51 -904 119 -240 78 -389 186
-571 412 -158 196 -250 483 -286 884 -13 147 -7 666 10 849 18 193 31 542 31
858 0 352 -9 320 85 298z m-8018 -726 c24 -259 24 -712 -1 -880 -33 -229 -86
-384 -177 -520 -151 -225 -343 -343 -642 -396 -138 -24 -247 -15 -414 35 -172
51 -365 231 -488 456 -22 39 -55 97 -75 130 -20 33 -51 96 -68 140 -17 44 -52
130 -77 190 -47 113 -77 220 -99 358 l-13 77 121 64 c240 127 476 237 721 336
191 77 488 190 501 190 0 0 4 -125 7 -277 10 -425 57 -804 145 -1163 22 -87
21 -89 51 110 27 177 57 416 76 615 16 168 30 304 45 445 5 47 14 143 20 213
5 71 13 139 16 152 6 26 18 30 214 84 l95 27 12 -96 c6 -52 20 -183 30 -290z
m3213 -3010 c190 -10 541 -37 546 -43 2 -2 -94 -11 -213 -20 -612 -50 -1337
-172 -1858 -314 -273 -74 -824 -262 -982 -334 -93 -44 -205 -108 -237 -138
-40 -37 -76 -117 -76 -171 1 -119 110 -220 238 -220 36 0 209 48 377 105 699
236 969 305 1590 404 602 96 1128 149 1705 171 369 14 834 -3 1225 -46 202
-21 561 -73 592 -85 15 -5 99 -25 187 -44 469 -100 1203 -274 1349 -320 706
-223 1109 -415 1715 -817 316 -210 500 -349 752 -567 48 -42 112 -86 148 -103
34 -15 62 -30 62 -32 0 -2 -50 -25 -112 -51 -163 -68 -419 -124 -828 -179
-102 -14 -300 -41 -440 -60 -140 -19 -306 -40 -367 -46 -398 -38 -1748 -30
-2428 15 -454 30 -994 55 -1095 50 l-105 -4 50 27 c112 61 255 126 438 198 76
30 140 54 143 54 7 0 127 52 210 90 33 16 105 45 159 65 55 21 133 53 175 72
41 19 149 64 240 99 91 36 215 89 275 118 61 29 136 62 169 72 32 11 58 24 58
29 0 14 -62 34 -141 45 -137 20 -637 6 -886 -25 -354 -44 -358 -45 -560 -117
-181 -65 -356 -139 -580 -247 -228 -110 -388 -207 -515 -310 -25 -20 -61 -48
-80 -61 -79 -54 -251 -192 -377 -304 -344 -303 -921 -882 -1177 -1179 -43 -51
-113 -128 -155 -172 -42 -44 -101 -111 -132 -150 -31 -38 -64 -76 -73 -84 -10
-8 -68 -79 -129 -158 -164 -211 -175 -225 -206 -263 -15 -19 -68 -100 -117
-180 -48 -80 -102 -163 -119 -186 -17 -23 -85 -135 -150 -250 -134 -236 -296
-499 -362 -589 -24 -33 -102 -148 -172 -255 -166 -251 -551 -772 -716 -967
-115 -137 -458 -478 -572 -570 -436 -350 -771 -460 -1255 -413 -162 16 -273
48 -503 147 -221 95 -545 276 -652 365 -333 277 -590 524 -687 662 -16 22 -53
70 -81 106 -29 36 -91 135 -138 222 -47 86 -97 174 -110 195 -13 21 -52 95
-86 163 -226 457 -355 926 -391 1429 -15 202 -12 689 5 891 40 479 123 832
312 1325 171 448 350 764 631 1114 74 92 300 326 407 421 99 87 306 246 382
292 15 10 51 32 78 50 91 57 268 149 530 273 101 48 257 110 355 141 47 14
146 46 220 70 74 24 167 53 205 64 39 12 108 35 155 52 47 16 169 51 272 78
103 27 192 51 197 54 15 10 793 163 991 195 390 64 472 75 810 106 318 28 517
43 745 55 197 10 881 4 1165 -10z"/>
</g>
</svg>
